G75*
G70*
%OFA0B0*%
%FSLAX24Y24*%
%IPPOS*%
%LPD*%
%AMOC8*
5,1,8,0,0,1.08239X$1,22.5*
%
%ADD10C,0.0000*%
%ADD11C,0.0140*%
%ADD12C,0.0079*%
%ADD13C,0.0150*%
%ADD14C,0.0240*%
%ADD15C,0.0180*%
%ADD16C,0.0130*%
%ADD17C,0.0110*%
%ADD18C,0.0157*%
%ADD19C,0.0060*%
%ADD20C,0.0300*%
%ADD21R,0.1000X0.0200*%
%ADD22R,0.0300X0.0750*%
%ADD23C,0.0050*%
%ADD24R,0.0240X0.0240*%
%ADD25R,0.0200X0.0200*%
%ADD26C,0.0080*%
%ADD27R,0.0236X0.1900*%
%ADD28R,0.0354X0.0375*%
%ADD29R,0.0354X0.0375*%
%ADD30R,0.0236X0.0768*%
%ADD31R,0.0900X0.0250*%
%ADD32R,0.0250X0.0900*%
%ADD33C,0.0040*%
%ADD34R,0.0295X0.0669*%
%ADD35R,0.0669X0.0295*%
%ADD36C,0.0120*%
%ADD37C,0.0335*%
%ADD38R,0.0736X0.0200*%
%ADD39R,0.0335X0.0250*%
%ADD40R,0.1400X0.0250*%
%ADD41R,0.0300X0.0550*%
%ADD42R,0.0290X0.0690*%
%ADD43R,0.0250X0.1400*%
%ADD44R,0.0550X0.0300*%
%ADD45R,0.0690X0.0290*%
%ADD46C,0.0320*%
%ADD47R,0.1040X0.0320*%
%ADD48C,0.0200*%
%ADD49R,0.0300X0.4200*%
%ADD50R,0.0200X0.0750*%
%ADD51R,0.0200X0.0300*%
%ADD52R,0.0200X0.0700*%
%ADD53R,0.0866X0.0256*%
%ADD54R,0.0965X0.0266*%
%ADD55R,0.0320X0.1040*%
D10*
X008939Y004759D02*
X008939Y010664D01*
X003033Y010664D01*
X003033Y034286D01*
X008939Y034286D01*
X008939Y040192D01*
X051852Y040192D01*
X051852Y034286D01*
X057758Y034286D01*
X057758Y010664D01*
X051852Y010664D01*
X051852Y004759D01*
X008939Y004759D01*
X011301Y011058D02*
X011301Y019719D01*
X028624Y019719D01*
X028624Y011058D01*
X011301Y011058D01*
X003584Y012239D02*
X003586Y012289D01*
X003592Y012339D01*
X003602Y012388D01*
X003616Y012436D01*
X003633Y012483D01*
X003654Y012528D01*
X003679Y012572D01*
X003707Y012613D01*
X003739Y012652D01*
X003773Y012689D01*
X003810Y012723D01*
X003850Y012753D01*
X003892Y012780D01*
X003936Y012804D01*
X003982Y012825D01*
X004029Y012841D01*
X004077Y012854D01*
X004127Y012863D01*
X004176Y012868D01*
X004227Y012869D01*
X004277Y012866D01*
X004326Y012859D01*
X004375Y012848D01*
X004423Y012833D01*
X004469Y012815D01*
X004514Y012793D01*
X004557Y012767D01*
X004598Y012738D01*
X004637Y012706D01*
X004673Y012671D01*
X004705Y012633D01*
X004735Y012593D01*
X004762Y012550D01*
X004785Y012506D01*
X004804Y012460D01*
X004820Y012412D01*
X004832Y012363D01*
X004840Y012314D01*
X004844Y012264D01*
X004844Y012214D01*
X004840Y012164D01*
X004832Y012115D01*
X004820Y012066D01*
X004804Y012018D01*
X004785Y011972D01*
X004762Y011928D01*
X004735Y011885D01*
X004705Y011845D01*
X004673Y011807D01*
X004637Y011772D01*
X004598Y011740D01*
X004557Y011711D01*
X004514Y011685D01*
X004469Y011663D01*
X004423Y011645D01*
X004375Y011630D01*
X004326Y011619D01*
X004277Y011612D01*
X004227Y011609D01*
X004176Y011610D01*
X004127Y011615D01*
X004077Y011624D01*
X004029Y011637D01*
X003982Y011653D01*
X003936Y011674D01*
X003892Y011698D01*
X003850Y011725D01*
X003810Y011755D01*
X003773Y011789D01*
X003739Y011826D01*
X003707Y011865D01*
X003679Y011906D01*
X003654Y011950D01*
X003633Y011995D01*
X003616Y012042D01*
X003602Y012090D01*
X003592Y012139D01*
X003586Y012189D01*
X003584Y012239D01*
X004372Y028381D02*
X004374Y028431D01*
X004380Y028481D01*
X004390Y028530D01*
X004404Y028578D01*
X004421Y028625D01*
X004442Y028670D01*
X004467Y028714D01*
X004495Y028755D01*
X004527Y028794D01*
X004561Y028831D01*
X004598Y028865D01*
X004638Y028895D01*
X004680Y028922D01*
X004724Y028946D01*
X004770Y028967D01*
X004817Y028983D01*
X004865Y028996D01*
X004915Y029005D01*
X004964Y029010D01*
X005015Y029011D01*
X005065Y029008D01*
X005114Y029001D01*
X005163Y028990D01*
X005211Y028975D01*
X005257Y028957D01*
X005302Y028935D01*
X005345Y028909D01*
X005386Y028880D01*
X005425Y028848D01*
X005461Y028813D01*
X005493Y028775D01*
X005523Y028735D01*
X005550Y028692D01*
X005573Y028648D01*
X005592Y028602D01*
X005608Y028554D01*
X005620Y028505D01*
X005628Y028456D01*
X005632Y028406D01*
X005632Y028356D01*
X005628Y028306D01*
X005620Y028257D01*
X005608Y028208D01*
X005592Y028160D01*
X005573Y028114D01*
X005550Y028070D01*
X005523Y028027D01*
X005493Y027987D01*
X005461Y027949D01*
X005425Y027914D01*
X005386Y027882D01*
X005345Y027853D01*
X005302Y027827D01*
X005257Y027805D01*
X005211Y027787D01*
X005163Y027772D01*
X005114Y027761D01*
X005065Y027754D01*
X005015Y027751D01*
X004964Y027752D01*
X004915Y027757D01*
X004865Y027766D01*
X004817Y027779D01*
X004770Y027795D01*
X004724Y027816D01*
X004680Y027840D01*
X004638Y027867D01*
X004598Y027897D01*
X004561Y027931D01*
X004527Y027968D01*
X004495Y028007D01*
X004467Y028048D01*
X004442Y028092D01*
X004421Y028137D01*
X004404Y028184D01*
X004390Y028232D01*
X004380Y028281D01*
X004374Y028331D01*
X004372Y028381D01*
X003722Y032712D02*
X003724Y032771D01*
X003730Y032830D01*
X003740Y032888D01*
X003753Y032946D01*
X003771Y033003D01*
X003792Y033058D01*
X003817Y033112D01*
X003846Y033164D01*
X003878Y033213D01*
X003913Y033261D01*
X003951Y033306D01*
X003992Y033349D01*
X004036Y033389D01*
X004082Y033425D01*
X004131Y033459D01*
X004182Y033489D01*
X004235Y033516D01*
X004290Y033539D01*
X004345Y033558D01*
X004403Y033574D01*
X004461Y033586D01*
X004519Y033594D01*
X004578Y033598D01*
X004638Y033598D01*
X004697Y033594D01*
X004755Y033586D01*
X004813Y033574D01*
X004871Y033558D01*
X004926Y033539D01*
X004981Y033516D01*
X005034Y033489D01*
X005085Y033459D01*
X005134Y033425D01*
X005180Y033389D01*
X005224Y033349D01*
X005265Y033306D01*
X005303Y033261D01*
X005338Y033213D01*
X005370Y033164D01*
X005399Y033112D01*
X005424Y033058D01*
X005445Y033003D01*
X005463Y032946D01*
X005476Y032888D01*
X005486Y032830D01*
X005492Y032771D01*
X005494Y032712D01*
X005492Y032653D01*
X005486Y032594D01*
X005476Y032536D01*
X005463Y032478D01*
X005445Y032421D01*
X005424Y032366D01*
X005399Y032312D01*
X005370Y032260D01*
X005338Y032211D01*
X005303Y032163D01*
X005265Y032118D01*
X005224Y032075D01*
X005180Y032035D01*
X005134Y031999D01*
X005085Y031965D01*
X005034Y031935D01*
X004981Y031908D01*
X004926Y031885D01*
X004871Y031866D01*
X004813Y031850D01*
X004755Y031838D01*
X004697Y031830D01*
X004638Y031826D01*
X004578Y031826D01*
X004519Y031830D01*
X004461Y031838D01*
X004403Y031850D01*
X004345Y031866D01*
X004290Y031885D01*
X004235Y031908D01*
X004182Y031935D01*
X004131Y031965D01*
X004082Y031999D01*
X004036Y032035D01*
X003992Y032075D01*
X003951Y032118D01*
X003913Y032163D01*
X003878Y032211D01*
X003846Y032260D01*
X003817Y032312D01*
X003792Y032366D01*
X003771Y032421D01*
X003753Y032478D01*
X003740Y032536D01*
X003730Y032594D01*
X003724Y032653D01*
X003722Y032712D01*
X009628Y038617D02*
X009630Y038676D01*
X009636Y038735D01*
X009646Y038793D01*
X009659Y038851D01*
X009677Y038908D01*
X009698Y038963D01*
X009723Y039017D01*
X009752Y039069D01*
X009784Y039118D01*
X009819Y039166D01*
X009857Y039211D01*
X009898Y039254D01*
X009942Y039294D01*
X009988Y039330D01*
X010037Y039364D01*
X010088Y039394D01*
X010141Y039421D01*
X010196Y039444D01*
X010251Y039463D01*
X010309Y039479D01*
X010367Y039491D01*
X010425Y039499D01*
X010484Y039503D01*
X010544Y039503D01*
X010603Y039499D01*
X010661Y039491D01*
X010719Y039479D01*
X010777Y039463D01*
X010832Y039444D01*
X010887Y039421D01*
X010940Y039394D01*
X010991Y039364D01*
X011040Y039330D01*
X011086Y039294D01*
X011130Y039254D01*
X011171Y039211D01*
X011209Y039166D01*
X011244Y039118D01*
X011276Y039069D01*
X011305Y039017D01*
X011330Y038963D01*
X011351Y038908D01*
X011369Y038851D01*
X011382Y038793D01*
X011392Y038735D01*
X011398Y038676D01*
X011400Y038617D01*
X011398Y038558D01*
X011392Y038499D01*
X011382Y038441D01*
X011369Y038383D01*
X011351Y038326D01*
X011330Y038271D01*
X011305Y038217D01*
X011276Y038165D01*
X011244Y038116D01*
X011209Y038068D01*
X011171Y038023D01*
X011130Y037980D01*
X011086Y037940D01*
X011040Y037904D01*
X010991Y037870D01*
X010940Y037840D01*
X010887Y037813D01*
X010832Y037790D01*
X010777Y037771D01*
X010719Y037755D01*
X010661Y037743D01*
X010603Y037735D01*
X010544Y037731D01*
X010484Y037731D01*
X010425Y037735D01*
X010367Y037743D01*
X010309Y037755D01*
X010251Y037771D01*
X010196Y037790D01*
X010141Y037813D01*
X010088Y037840D01*
X010037Y037870D01*
X009988Y037904D01*
X009942Y037940D01*
X009898Y037980D01*
X009857Y038023D01*
X009819Y038068D01*
X009784Y038116D01*
X009752Y038165D01*
X009723Y038217D01*
X009698Y038271D01*
X009677Y038326D01*
X009659Y038383D01*
X009646Y038441D01*
X009636Y038499D01*
X009630Y038558D01*
X009628Y038617D01*
X016183Y031530D02*
X016185Y031580D01*
X016191Y031630D01*
X016201Y031679D01*
X016215Y031727D01*
X016232Y031774D01*
X016253Y031819D01*
X016278Y031863D01*
X016306Y031904D01*
X016338Y031943D01*
X016372Y031980D01*
X016409Y032014D01*
X016449Y032044D01*
X016491Y032071D01*
X016535Y032095D01*
X016581Y032116D01*
X016628Y032132D01*
X016676Y032145D01*
X016726Y032154D01*
X016775Y032159D01*
X016826Y032160D01*
X016876Y032157D01*
X016925Y032150D01*
X016974Y032139D01*
X017022Y032124D01*
X017068Y032106D01*
X017113Y032084D01*
X017156Y032058D01*
X017197Y032029D01*
X017236Y031997D01*
X017272Y031962D01*
X017304Y031924D01*
X017334Y031884D01*
X017361Y031841D01*
X017384Y031797D01*
X017403Y031751D01*
X017419Y031703D01*
X017431Y031654D01*
X017439Y031605D01*
X017443Y031555D01*
X017443Y031505D01*
X017439Y031455D01*
X017431Y031406D01*
X017419Y031357D01*
X017403Y031309D01*
X017384Y031263D01*
X017361Y031219D01*
X017334Y031176D01*
X017304Y031136D01*
X017272Y031098D01*
X017236Y031063D01*
X017197Y031031D01*
X017156Y031002D01*
X017113Y030976D01*
X017068Y030954D01*
X017022Y030936D01*
X016974Y030921D01*
X016925Y030910D01*
X016876Y030903D01*
X016826Y030900D01*
X016775Y030901D01*
X016726Y030906D01*
X016676Y030915D01*
X016628Y030928D01*
X016581Y030944D01*
X016535Y030965D01*
X016491Y030989D01*
X016449Y031016D01*
X016409Y031046D01*
X016372Y031080D01*
X016338Y031117D01*
X016306Y031156D01*
X016278Y031197D01*
X016253Y031241D01*
X016232Y031286D01*
X016215Y031333D01*
X016201Y031381D01*
X016191Y031430D01*
X016185Y031480D01*
X016183Y031530D01*
X055553Y031530D02*
X055555Y031580D01*
X055561Y031630D01*
X055571Y031679D01*
X055585Y031727D01*
X055602Y031774D01*
X055623Y031819D01*
X055648Y031863D01*
X055676Y031904D01*
X055708Y031943D01*
X055742Y031980D01*
X055779Y032014D01*
X055819Y032044D01*
X055861Y032071D01*
X055905Y032095D01*
X055951Y032116D01*
X055998Y032132D01*
X056046Y032145D01*
X056096Y032154D01*
X056145Y032159D01*
X056196Y032160D01*
X056246Y032157D01*
X056295Y032150D01*
X056344Y032139D01*
X056392Y032124D01*
X056438Y032106D01*
X056483Y032084D01*
X056526Y032058D01*
X056567Y032029D01*
X056606Y031997D01*
X056642Y031962D01*
X056674Y031924D01*
X056704Y031884D01*
X056731Y031841D01*
X056754Y031797D01*
X056773Y031751D01*
X056789Y031703D01*
X056801Y031654D01*
X056809Y031605D01*
X056813Y031555D01*
X056813Y031505D01*
X056809Y031455D01*
X056801Y031406D01*
X056789Y031357D01*
X056773Y031309D01*
X056754Y031263D01*
X056731Y031219D01*
X056704Y031176D01*
X056674Y031136D01*
X056642Y031098D01*
X056606Y031063D01*
X056567Y031031D01*
X056526Y031002D01*
X056483Y030976D01*
X056438Y030954D01*
X056392Y030936D01*
X056344Y030921D01*
X056295Y030910D01*
X056246Y030903D01*
X056196Y030900D01*
X056145Y030901D01*
X056096Y030906D01*
X056046Y030915D01*
X055998Y030928D01*
X055951Y030944D01*
X055905Y030965D01*
X055861Y030989D01*
X055819Y031016D01*
X055779Y031046D01*
X055742Y031080D01*
X055708Y031117D01*
X055676Y031156D01*
X055648Y031197D01*
X055623Y031241D01*
X055602Y031286D01*
X055585Y031333D01*
X055571Y031381D01*
X055561Y031430D01*
X055555Y031480D01*
X055553Y031530D01*
X055750Y012239D02*
X055752Y012289D01*
X055758Y012339D01*
X055768Y012388D01*
X055782Y012436D01*
X055799Y012483D01*
X055820Y012528D01*
X055845Y012572D01*
X055873Y012613D01*
X055905Y012652D01*
X055939Y012689D01*
X055976Y012723D01*
X056016Y012753D01*
X056058Y012780D01*
X056102Y012804D01*
X056148Y012825D01*
X056195Y012841D01*
X056243Y012854D01*
X056293Y012863D01*
X056342Y012868D01*
X056393Y012869D01*
X056443Y012866D01*
X056492Y012859D01*
X056541Y012848D01*
X056589Y012833D01*
X056635Y012815D01*
X056680Y012793D01*
X056723Y012767D01*
X056764Y012738D01*
X056803Y012706D01*
X056839Y012671D01*
X056871Y012633D01*
X056901Y012593D01*
X056928Y012550D01*
X056951Y012506D01*
X056970Y012460D01*
X056986Y012412D01*
X056998Y012363D01*
X057006Y012314D01*
X057010Y012264D01*
X057010Y012214D01*
X057006Y012164D01*
X056998Y012115D01*
X056986Y012066D01*
X056970Y012018D01*
X056951Y011972D01*
X056928Y011928D01*
X056901Y011885D01*
X056871Y011845D01*
X056839Y011807D01*
X056803Y011772D01*
X056764Y011740D01*
X056723Y011711D01*
X056680Y011685D01*
X056635Y011663D01*
X056589Y011645D01*
X056541Y011630D01*
X056492Y011619D01*
X056443Y011612D01*
X056393Y011609D01*
X056342Y011610D01*
X056293Y011615D01*
X056243Y011624D01*
X056195Y011637D01*
X056148Y011653D01*
X056102Y011674D01*
X056058Y011698D01*
X056016Y011725D01*
X055976Y011755D01*
X055939Y011789D01*
X055905Y011826D01*
X055873Y011865D01*
X055845Y011906D01*
X055820Y011950D01*
X055799Y011995D01*
X055782Y012042D01*
X055768Y012090D01*
X055758Y012139D01*
X055752Y012189D01*
X055750Y012239D01*
D11*
X054488Y013320D02*
X054488Y013734D01*
X054384Y013837D01*
X054074Y013837D01*
X054074Y013217D01*
X054384Y013217D01*
X054488Y013320D01*
X053788Y013217D02*
X053788Y013837D01*
X053374Y013837D02*
X053788Y013217D01*
X053374Y013217D02*
X053374Y013837D01*
X053088Y013734D02*
X052985Y013837D01*
X052778Y013837D01*
X052674Y013734D01*
X052674Y013320D01*
X052778Y013217D01*
X052985Y013217D01*
X053088Y013320D01*
X053088Y013527D01*
X052881Y013527D01*
X050030Y005694D02*
X049823Y005694D01*
X049926Y005694D02*
X049926Y005074D01*
X049823Y005074D02*
X050030Y005074D01*
X049537Y005384D02*
X049433Y005281D01*
X049123Y005281D01*
X049123Y005074D02*
X049123Y005694D01*
X049433Y005694D01*
X049537Y005591D01*
X049537Y005384D01*
X048837Y005281D02*
X048837Y005177D01*
X048734Y005074D01*
X048527Y005074D01*
X048423Y005177D01*
X048527Y005384D02*
X048734Y005384D01*
X048837Y005281D01*
X048837Y005591D02*
X048734Y005694D01*
X048527Y005694D01*
X048423Y005591D01*
X048423Y005488D01*
X048527Y005384D01*
D12*
X008939Y004562D02*
X008939Y011058D01*
X009333Y011452D01*
X016419Y011452D01*
X016813Y011058D01*
X016813Y008696D01*
X017207Y009090D01*
X019963Y009090D01*
X020356Y008696D01*
X020356Y004759D01*
X021537Y004759D02*
X021537Y008696D01*
X021931Y009090D01*
X029805Y009090D01*
X030199Y008696D01*
X030592Y009090D01*
X038466Y009090D01*
X038860Y008696D01*
X039254Y009090D01*
X046340Y009090D01*
X046734Y008696D01*
X046734Y004759D01*
X046922Y005076D02*
X047172Y004826D01*
X051329Y004826D01*
X051579Y005076D01*
X051579Y009028D01*
X051329Y009278D01*
X052640Y011452D02*
X054608Y011452D01*
X055002Y011845D01*
X055002Y013814D01*
X054608Y014208D01*
X052640Y014208D01*
X052246Y013814D01*
X052246Y011845D01*
X052640Y011452D01*
X051852Y014798D02*
X051655Y014995D01*
X051655Y020310D01*
X051852Y020507D01*
X053033Y020507D01*
X053230Y020310D01*
X053230Y017554D01*
X053427Y017357D01*
X055986Y017357D01*
X056183Y017160D01*
X056183Y014995D01*
X055986Y014798D01*
X051852Y014798D01*
X047172Y009278D02*
X046922Y009028D01*
X046922Y005076D01*
X047172Y009279D02*
X051328Y009279D01*
X038860Y008696D02*
X038860Y008302D01*
X038073Y007515D01*
X038073Y004759D01*
X030199Y004759D02*
X030199Y008696D01*
X028624Y009483D02*
X028427Y009286D01*
X023900Y009286D01*
X023703Y009483D01*
X023703Y010664D01*
X023900Y010861D01*
X028427Y010861D01*
X028624Y010664D01*
X028624Y009483D01*
X016813Y008696D02*
X016813Y004759D01*
D13*
X017518Y005346D02*
X017518Y005820D01*
X017282Y005583D02*
X017755Y005583D01*
X018069Y005583D02*
X018306Y005701D01*
X018424Y005701D01*
X018543Y005583D01*
X018543Y005346D01*
X018424Y005227D01*
X018187Y005227D01*
X018069Y005346D01*
X018069Y005583D02*
X018069Y005938D01*
X018543Y005938D01*
X018861Y005938D02*
X018861Y005464D01*
X019098Y005227D01*
X019335Y005464D01*
X019335Y005938D01*
X023975Y009873D02*
X024093Y009755D01*
X024330Y009755D01*
X024448Y009873D01*
X024448Y009992D01*
X024330Y010110D01*
X024211Y010110D01*
X024330Y010110D02*
X024448Y010229D01*
X024448Y010347D01*
X024330Y010466D01*
X024093Y010466D01*
X023975Y010347D01*
X024766Y010466D02*
X024766Y009992D01*
X025003Y009755D01*
X025240Y009992D01*
X025240Y010466D01*
X025558Y010347D02*
X025677Y010466D01*
X025914Y010466D01*
X026032Y010347D01*
X026032Y010229D01*
X025914Y010110D01*
X026032Y009992D01*
X026032Y009873D01*
X025914Y009755D01*
X025677Y009755D01*
X025558Y009873D01*
X025795Y010110D02*
X025914Y010110D01*
X026404Y011428D02*
X026404Y011901D01*
X026167Y014344D02*
X026049Y014462D01*
X026049Y014699D01*
X026167Y014818D01*
X026641Y014818D01*
X026759Y014699D01*
X026759Y014462D01*
X026641Y014344D01*
X026167Y014344D01*
X026049Y015136D02*
X026641Y015136D01*
X026759Y015254D01*
X026759Y015491D01*
X026641Y015610D01*
X026049Y015610D01*
X026049Y015928D02*
X026049Y016401D01*
X026049Y016165D02*
X026759Y016165D01*
X026404Y018428D02*
X026404Y018901D01*
X026167Y018665D02*
X026641Y018665D01*
X022869Y015708D02*
X022869Y015234D01*
X022632Y014997D01*
X022395Y015234D01*
X022395Y015708D01*
X022077Y015708D02*
X021603Y015708D01*
X021603Y015353D01*
X021840Y015471D01*
X021959Y015471D01*
X022077Y015353D01*
X022077Y015116D01*
X021959Y014997D01*
X021722Y014997D01*
X021603Y015116D01*
X021285Y015353D02*
X020811Y014997D01*
X020493Y015353D02*
X020020Y015353D01*
X019701Y015234D02*
X019701Y015708D01*
X019228Y015708D02*
X019228Y015234D01*
X019465Y014997D01*
X019701Y015234D01*
X020811Y015708D02*
X021285Y015353D01*
X018910Y015353D02*
X018436Y015353D01*
X018791Y015708D01*
X018791Y014997D01*
X018158Y014997D02*
X018158Y015116D01*
X018040Y015116D01*
X018040Y014997D01*
X018158Y014997D01*
X017603Y014997D02*
X017603Y015708D01*
X017248Y015353D01*
X017722Y015353D01*
X016930Y014997D02*
X016456Y014997D01*
X016693Y014997D02*
X016693Y015708D01*
X016456Y015471D01*
X014055Y015614D02*
X013344Y015614D01*
X013344Y015140D02*
X014055Y015614D01*
X014055Y015140D02*
X013344Y015140D01*
X013344Y014849D02*
X013344Y014612D01*
X013344Y014731D02*
X014055Y014731D01*
X014055Y014849D02*
X014055Y014612D01*
X013404Y011901D02*
X013404Y011428D01*
X013429Y011056D02*
X013429Y010582D01*
X013192Y010346D01*
X012955Y010582D01*
X012955Y011056D01*
X012637Y011056D02*
X012164Y011056D01*
X012164Y010701D01*
X012400Y010819D01*
X012519Y010819D01*
X012637Y010701D01*
X012637Y010464D01*
X012519Y010346D01*
X012282Y010346D01*
X012164Y010464D01*
X011854Y010701D02*
X011381Y010701D01*
X011062Y010701D02*
X010589Y010701D01*
X010826Y010938D02*
X010826Y010464D01*
X011617Y010464D02*
X011617Y010938D01*
X013404Y018428D02*
X013404Y018901D01*
X013167Y018665D02*
X013641Y018665D01*
X029486Y008694D02*
X029486Y007983D01*
X029960Y007983D01*
X038148Y008299D02*
X038266Y008180D01*
X038503Y008180D01*
X038621Y008299D01*
X038148Y008299D02*
X038148Y008772D01*
X038266Y008891D01*
X038503Y008891D01*
X038621Y008772D01*
X038541Y007710D02*
X038897Y007710D01*
X039015Y007591D01*
X039015Y007354D01*
X038897Y007236D01*
X038541Y007236D01*
X038541Y006999D02*
X038541Y007710D01*
X038778Y007236D02*
X039015Y006999D01*
D14*
X048884Y020723D02*
X048886Y020735D01*
X048891Y020746D01*
X048900Y020755D01*
X048911Y020760D01*
X048923Y020762D01*
X048935Y020760D01*
X048946Y020755D01*
X048955Y020746D01*
X048960Y020735D01*
X048962Y020723D01*
X048960Y020711D01*
X048955Y020700D01*
X048946Y020691D01*
X048935Y020686D01*
X048923Y020684D01*
X048911Y020686D01*
X048900Y020691D01*
X048891Y020700D01*
X048886Y020711D01*
X048884Y020723D01*
X012156Y038223D02*
X012158Y038290D01*
X012164Y038356D01*
X012174Y038422D01*
X012188Y038487D01*
X012205Y038551D01*
X012227Y038614D01*
X012252Y038676D01*
X012281Y038736D01*
X012314Y038794D01*
X012350Y038851D01*
X012389Y038904D01*
X012431Y038956D01*
X012476Y039005D01*
X012525Y039051D01*
X012575Y039094D01*
X012629Y039134D01*
X012684Y039171D01*
X012742Y039204D01*
X012802Y039234D01*
X012863Y039260D01*
X012926Y039282D01*
X012990Y039301D01*
X013055Y039316D01*
X013120Y039327D01*
X013187Y039334D01*
X013253Y039337D01*
X013320Y039336D01*
X013386Y039331D01*
X013452Y039322D01*
X013518Y039309D01*
X013582Y039292D01*
X013646Y039272D01*
X013708Y039247D01*
X013768Y039219D01*
X013827Y039188D01*
X013884Y039153D01*
X013938Y039114D01*
X013990Y039073D01*
X014040Y039028D01*
X014087Y038981D01*
X014130Y038931D01*
X014171Y038878D01*
X014209Y038823D01*
X014243Y038766D01*
X014274Y038706D01*
X014301Y038645D01*
X014324Y038583D01*
X014344Y038519D01*
X014360Y038455D01*
X014372Y038389D01*
X014380Y038323D01*
X014384Y038256D01*
X014384Y038190D01*
X014380Y038123D01*
X014372Y038057D01*
X014360Y037991D01*
X014344Y037927D01*
X014324Y037863D01*
X014301Y037801D01*
X014274Y037740D01*
X014243Y037680D01*
X014209Y037623D01*
X014171Y037568D01*
X014130Y037515D01*
X014087Y037465D01*
X014040Y037418D01*
X013990Y037373D01*
X013938Y037332D01*
X013884Y037293D01*
X013827Y037258D01*
X013768Y037227D01*
X013708Y037199D01*
X013646Y037174D01*
X013582Y037154D01*
X013518Y037137D01*
X013452Y037124D01*
X013386Y037115D01*
X013320Y037110D01*
X013253Y037109D01*
X013187Y037112D01*
X013120Y037119D01*
X013055Y037130D01*
X012990Y037145D01*
X012926Y037164D01*
X012863Y037186D01*
X012802Y037212D01*
X012742Y037242D01*
X012684Y037275D01*
X012629Y037312D01*
X012575Y037352D01*
X012525Y037395D01*
X012476Y037441D01*
X012431Y037490D01*
X012389Y037542D01*
X012350Y037595D01*
X012314Y037652D01*
X012281Y037710D01*
X012252Y037770D01*
X012227Y037832D01*
X012205Y037895D01*
X012188Y037959D01*
X012174Y038024D01*
X012164Y038090D01*
X012158Y038156D01*
X012156Y038223D01*
X005463Y030743D02*
X005465Y030810D01*
X005471Y030876D01*
X005481Y030942D01*
X005495Y031007D01*
X005512Y031071D01*
X005534Y031134D01*
X005559Y031196D01*
X005588Y031256D01*
X005621Y031314D01*
X005657Y031371D01*
X005696Y031424D01*
X005738Y031476D01*
X005783Y031525D01*
X005832Y031571D01*
X005882Y031614D01*
X005936Y031654D01*
X005991Y031691D01*
X006049Y031724D01*
X006109Y031754D01*
X006170Y031780D01*
X006233Y031802D01*
X006297Y031821D01*
X006362Y031836D01*
X006427Y031847D01*
X006494Y031854D01*
X006560Y031857D01*
X006627Y031856D01*
X006693Y031851D01*
X006759Y031842D01*
X006825Y031829D01*
X006889Y031812D01*
X006953Y031792D01*
X007015Y031767D01*
X007075Y031739D01*
X007134Y031708D01*
X007191Y031673D01*
X007245Y031634D01*
X007297Y031593D01*
X007347Y031548D01*
X007394Y031501D01*
X007437Y031451D01*
X007478Y031398D01*
X007516Y031343D01*
X007550Y031286D01*
X007581Y031226D01*
X007608Y031165D01*
X007631Y031103D01*
X007651Y031039D01*
X007667Y030975D01*
X007679Y030909D01*
X007687Y030843D01*
X007691Y030776D01*
X007691Y030710D01*
X007687Y030643D01*
X007679Y030577D01*
X007667Y030511D01*
X007651Y030447D01*
X007631Y030383D01*
X007608Y030321D01*
X007581Y030260D01*
X007550Y030200D01*
X007516Y030143D01*
X007478Y030088D01*
X007437Y030035D01*
X007394Y029985D01*
X007347Y029938D01*
X007297Y029893D01*
X007245Y029852D01*
X007191Y029813D01*
X007134Y029778D01*
X007075Y029747D01*
X007015Y029719D01*
X006953Y029694D01*
X006889Y029674D01*
X006825Y029657D01*
X006759Y029644D01*
X006693Y029635D01*
X006627Y029630D01*
X006560Y029629D01*
X006494Y029632D01*
X006427Y029639D01*
X006362Y029650D01*
X006297Y029665D01*
X006233Y029684D01*
X006170Y029706D01*
X006109Y029732D01*
X006049Y029762D01*
X005991Y029795D01*
X005936Y029832D01*
X005882Y029872D01*
X005832Y029915D01*
X005783Y029961D01*
X005738Y030010D01*
X005696Y030062D01*
X005657Y030115D01*
X005621Y030172D01*
X005588Y030230D01*
X005559Y030290D01*
X005534Y030352D01*
X005512Y030415D01*
X005495Y030479D01*
X005481Y030544D01*
X005471Y030610D01*
X005465Y030676D01*
X005463Y030743D01*
D15*
X020249Y036275D02*
X020522Y036549D01*
X020249Y036822D01*
X021069Y036822D01*
X021069Y037196D02*
X021069Y037743D01*
X020659Y038377D02*
X020659Y038924D01*
X020385Y038650D02*
X020933Y038650D01*
X021069Y037196D02*
X020249Y037196D01*
X020249Y036275D02*
X021069Y036275D01*
X029698Y038527D02*
X030245Y038527D01*
X031409Y038650D02*
X031956Y038650D01*
X031683Y038377D02*
X031683Y038924D01*
X031956Y037743D02*
X032093Y037606D01*
X032093Y037333D01*
X031956Y037196D01*
X031409Y037196D01*
X031272Y037333D01*
X031272Y037606D01*
X031409Y037743D01*
X031272Y036822D02*
X032093Y036822D01*
X032093Y036275D02*
X031272Y036275D01*
X031546Y036549D01*
X031272Y036822D01*
X040722Y038527D02*
X041269Y038527D01*
X042433Y038650D02*
X042980Y038650D01*
X042706Y038377D02*
X042706Y038924D01*
X042706Y037743D02*
X042843Y037606D01*
X042843Y037196D01*
X042843Y037469D02*
X043117Y037743D01*
X042706Y037743D02*
X042433Y037743D01*
X042296Y037606D01*
X042296Y037196D01*
X043117Y037196D01*
X043117Y036822D02*
X042296Y036822D01*
X042569Y036549D01*
X042296Y036275D01*
X043117Y036275D01*
X050564Y034590D02*
X051111Y034590D01*
X015348Y010755D02*
X014801Y010755D01*
X014427Y010755D02*
X013880Y010755D01*
X019659Y005653D02*
X020206Y005653D01*
D16*
X052008Y015347D02*
X052008Y015918D01*
X052198Y015728D01*
X052388Y015918D01*
X052388Y015347D01*
X052652Y015442D02*
X052747Y015347D01*
X052938Y015347D01*
X053033Y015442D01*
X053033Y015823D01*
X052938Y015918D01*
X052747Y015918D01*
X052652Y015823D01*
X052652Y015442D01*
X053297Y015918D02*
X053677Y015918D01*
X053487Y015918D02*
X053487Y015347D01*
X053941Y015442D02*
X054037Y015347D01*
X054227Y015347D01*
X054322Y015442D01*
X054322Y015823D01*
X054227Y015918D01*
X054037Y015918D01*
X053941Y015823D01*
X053941Y015442D01*
X054586Y015347D02*
X054586Y015918D01*
X054871Y015918D01*
X054966Y015823D01*
X054966Y015633D01*
X054871Y015538D01*
X054586Y015538D01*
X054776Y015538D02*
X054966Y015347D01*
X055231Y015442D02*
X055326Y015347D01*
X055516Y015347D01*
X055611Y015442D01*
X055611Y015538D01*
X055516Y015633D01*
X055326Y015633D01*
X055231Y015728D01*
X055231Y015823D01*
X055326Y015918D01*
X055516Y015918D01*
X055611Y015823D01*
X055611Y016397D02*
X055231Y016397D01*
X055231Y016968D01*
X055611Y016968D01*
X055421Y016683D02*
X055231Y016683D01*
X054966Y016397D02*
X054586Y016397D01*
X054586Y016968D01*
X054322Y016873D02*
X054322Y016778D01*
X054227Y016683D01*
X053941Y016683D01*
X053677Y016683D02*
X053297Y016683D01*
X053297Y016778D02*
X053487Y016968D01*
X053677Y016778D01*
X053677Y016397D01*
X053941Y016397D02*
X053941Y016968D01*
X054227Y016968D01*
X054322Y016873D01*
X054227Y016683D02*
X054322Y016588D01*
X054322Y016492D01*
X054227Y016397D01*
X053941Y016397D01*
X053297Y016397D02*
X053297Y016778D01*
X053033Y016968D02*
X053033Y016397D01*
X052652Y016968D01*
X052652Y016397D01*
X052388Y016397D02*
X052008Y016397D01*
X052008Y016968D01*
X052388Y016968D01*
X052198Y016683D02*
X052008Y016683D01*
D17*
X045418Y009568D02*
X045097Y009568D01*
X045017Y009488D01*
X045017Y009248D01*
X045498Y009248D01*
X045498Y009488D01*
X045418Y009568D01*
X045498Y009025D02*
X045017Y009025D01*
X045017Y008704D02*
X045498Y009025D01*
X045498Y008704D02*
X045017Y008704D01*
X045097Y008481D02*
X045017Y008401D01*
X045017Y008240D01*
X045097Y008160D01*
X045418Y008160D01*
X045498Y008240D01*
X045498Y008401D01*
X045418Y008481D01*
X045258Y008481D01*
X045258Y008321D01*
X043923Y008401D02*
X043843Y008481D01*
X043522Y008481D01*
X043442Y008401D01*
X043442Y008160D01*
X043923Y008160D01*
X043923Y008401D01*
X043923Y008864D02*
X043442Y008864D01*
X043442Y008704D02*
X043442Y009025D01*
X042348Y009025D02*
X042108Y008784D01*
X042188Y008704D02*
X041868Y009025D01*
X041868Y008704D02*
X042348Y008704D01*
X042268Y008481D02*
X042348Y008401D01*
X042348Y008240D01*
X042268Y008160D01*
X041948Y008160D01*
X041868Y008240D01*
X041868Y008401D01*
X041948Y008481D01*
X040774Y008401D02*
X040774Y008240D01*
X040694Y008160D01*
X040533Y008321D02*
X040533Y008401D01*
X040613Y008481D01*
X040694Y008481D01*
X040774Y008401D01*
X040533Y008401D02*
X040453Y008481D01*
X040373Y008481D01*
X040293Y008401D01*
X040293Y008240D01*
X040373Y008160D01*
X040293Y008704D02*
X040613Y008704D01*
X040774Y008864D01*
X040613Y009025D01*
X040293Y009025D01*
X040373Y009248D02*
X040293Y009328D01*
X040293Y009488D01*
X040373Y009568D01*
X040453Y009568D01*
X040533Y009488D01*
X040613Y009568D01*
X040694Y009568D01*
X040774Y009488D01*
X040774Y009328D01*
X040694Y009248D01*
X040533Y009408D02*
X040533Y009488D01*
X047576Y009063D02*
X047576Y008903D01*
X047656Y008823D01*
X047977Y008823D01*
X048057Y008903D01*
X048057Y009063D01*
X047977Y009144D01*
X047656Y009144D01*
X047576Y009063D01*
X047656Y008600D02*
X047576Y008520D01*
X047576Y008359D01*
X047656Y008279D01*
X047736Y008279D01*
X047817Y008359D01*
X047817Y008520D01*
X047897Y008600D01*
X047977Y008600D01*
X048057Y008520D01*
X048057Y008359D01*
X047977Y008279D01*
X048057Y008077D02*
X048057Y007917D01*
X048057Y007997D02*
X047576Y007997D01*
X047576Y007917D02*
X047576Y008077D01*
X047576Y007693D02*
X048057Y007693D01*
X048057Y007373D02*
X047576Y007373D01*
X047736Y007533D01*
X047576Y007693D01*
X048560Y007693D02*
X049041Y007693D01*
X048961Y007917D02*
X048641Y007917D01*
X048560Y007997D01*
X048560Y008157D01*
X048641Y008237D01*
X048961Y008237D01*
X049041Y008157D01*
X049041Y007997D01*
X048961Y007917D01*
X048721Y007533D02*
X048560Y007693D01*
X048721Y007533D02*
X048560Y007373D01*
X049041Y007373D01*
X049545Y007453D02*
X049625Y007373D01*
X049945Y007373D01*
X050026Y007453D01*
X050026Y007613D01*
X049945Y007693D01*
X050026Y007917D02*
X049545Y007917D01*
X049625Y007693D02*
X049545Y007613D01*
X049545Y007453D01*
X050026Y007917D02*
X050026Y008237D01*
X050026Y008460D02*
X049545Y008460D01*
X049785Y008541D02*
X050026Y008781D01*
X049865Y008460D02*
X049545Y008781D01*
X049041Y008701D02*
X049041Y008541D01*
X048961Y008460D01*
X048801Y008541D02*
X048721Y008460D01*
X048641Y008460D01*
X048560Y008541D01*
X048560Y008701D01*
X048641Y008781D01*
X048801Y008701D02*
X048881Y008781D01*
X048961Y008781D01*
X049041Y008701D01*
X048801Y008701D02*
X048801Y008541D01*
X049041Y009004D02*
X049041Y009164D01*
X049041Y009084D02*
X048560Y009084D01*
X048560Y009004D02*
X048560Y009164D01*
X050529Y008701D02*
X050529Y008460D01*
X051010Y008460D01*
X051010Y008701D01*
X050930Y008781D01*
X050609Y008781D01*
X050529Y008701D01*
X050529Y008237D02*
X051010Y008237D01*
X050529Y007917D01*
X051010Y007917D01*
X050930Y007693D02*
X050769Y007693D01*
X050769Y007533D01*
X050609Y007373D02*
X050930Y007373D01*
X051010Y007453D01*
X051010Y007613D01*
X050930Y007693D01*
X050609Y007693D02*
X050529Y007613D01*
X050529Y007453D01*
X050609Y007373D01*
X014789Y030404D02*
X014308Y030404D01*
X014308Y030725D01*
X014469Y030948D02*
X014469Y031269D01*
X014629Y031269D02*
X014629Y030948D01*
X014549Y030565D02*
X014549Y030404D01*
X014709Y031492D02*
X014789Y031572D01*
X014789Y031732D01*
X014709Y031813D01*
X014629Y031813D01*
X014549Y031732D01*
X014549Y031652D01*
X014549Y031732D02*
X014469Y031813D01*
X014389Y031813D01*
X014308Y031732D01*
X014308Y031572D01*
X014389Y031492D01*
X014389Y032036D02*
X014308Y032116D01*
X014308Y032276D01*
X014389Y032356D01*
X014709Y032036D01*
X014789Y032116D01*
X014789Y032276D01*
X014709Y032356D01*
X014389Y032356D01*
X014469Y032579D02*
X014308Y032740D01*
X014469Y032900D01*
X014789Y032900D01*
X014549Y032900D02*
X014549Y032579D01*
X014469Y032579D02*
X014789Y032579D01*
X014709Y032036D02*
X014389Y032036D01*
X007449Y033248D02*
X007129Y033248D01*
X007289Y033248D02*
X007289Y032767D01*
X006906Y032767D02*
X006906Y033087D01*
X006745Y033248D01*
X006585Y033087D01*
X006585Y032767D01*
X006595Y032577D02*
X006595Y032256D01*
X006435Y032416D02*
X006755Y032416D01*
X006362Y032847D02*
X006282Y032767D01*
X006041Y032767D01*
X006041Y033248D01*
X006282Y033248D01*
X006362Y033167D01*
X006362Y033087D01*
X006282Y033007D01*
X006041Y033007D01*
X006282Y033007D02*
X006362Y032927D01*
X006362Y032847D01*
X006585Y033007D02*
X006906Y033007D01*
X011356Y039459D02*
X011597Y039459D01*
X011677Y039540D01*
X011677Y039620D01*
X011597Y039700D01*
X011356Y039700D01*
X011356Y039940D02*
X011356Y039459D01*
X011597Y039700D02*
X011677Y039780D01*
X011677Y039860D01*
X011597Y039940D01*
X011356Y039940D01*
X011900Y039780D02*
X011900Y039459D01*
X011900Y039700D02*
X012221Y039700D01*
X012221Y039780D02*
X012221Y039459D01*
X012221Y039780D02*
X012060Y039940D01*
X011900Y039780D01*
X012444Y039940D02*
X012764Y039940D01*
X012604Y039940D02*
X012604Y039459D01*
X013128Y039700D02*
X013448Y039700D01*
D18*
X019963Y040192D02*
X019963Y035074D01*
X020356Y034680D01*
X030592Y034680D01*
X030986Y035074D01*
X031380Y034680D01*
X041616Y034680D01*
X042010Y035074D01*
X042403Y034680D01*
X049884Y034680D01*
X050277Y034286D01*
X051852Y034286D01*
X052246Y034680D01*
X042010Y035074D02*
X042010Y040192D01*
X030986Y040192D02*
X030986Y035074D01*
D19*
X029474Y034899D02*
X021474Y034899D01*
X021474Y039899D01*
X029474Y039899D01*
X029193Y039030D01*
X029177Y039000D01*
X029158Y038972D01*
X029136Y038946D01*
X029111Y038923D01*
X029084Y038903D01*
X029055Y038886D01*
X029024Y038872D01*
X028992Y038862D01*
X028958Y038856D01*
X028925Y038853D01*
X028891Y038854D01*
X028857Y038859D01*
X028825Y038868D01*
X028793Y038880D01*
X028793Y035730D01*
X025593Y035730D01*
X025593Y038880D01*
X025943Y038880D01*
X025943Y038780D01*
X025743Y038780D01*
X025743Y035880D01*
X028643Y035880D01*
X028643Y038780D01*
X028443Y038780D01*
X025943Y038780D01*
X025353Y038880D02*
X025353Y035730D01*
X022153Y035730D01*
X022153Y038880D01*
X022503Y038880D01*
X022503Y038780D01*
X022303Y038780D01*
X022303Y035880D01*
X025203Y035880D01*
X025203Y038780D01*
X025003Y038780D01*
X022503Y038780D01*
X022153Y038880D02*
X022130Y038882D01*
X022107Y038887D01*
X022085Y038896D01*
X022065Y038909D01*
X022047Y038924D01*
X022032Y038942D01*
X022019Y038962D01*
X022010Y038984D01*
X022005Y039007D01*
X022003Y039030D01*
X021974Y039149D01*
X021474Y039899D01*
X024603Y038380D02*
X022703Y036480D01*
X022903Y036280D02*
X024803Y038180D01*
X025003Y038780D02*
X025003Y038880D01*
X025353Y038880D01*
X022403Y037330D02*
X022405Y037403D01*
X022411Y037476D01*
X022421Y037548D01*
X022435Y037620D01*
X022452Y037691D01*
X022474Y037761D01*
X022499Y037830D01*
X022528Y037897D01*
X022560Y037962D01*
X022596Y038026D01*
X022636Y038088D01*
X022678Y038147D01*
X022724Y038204D01*
X022773Y038258D01*
X022825Y038310D01*
X022879Y038359D01*
X022936Y038405D01*
X022995Y038447D01*
X023057Y038487D01*
X023121Y038523D01*
X023186Y038555D01*
X023253Y038584D01*
X023322Y038609D01*
X023392Y038631D01*
X023463Y038648D01*
X023535Y038662D01*
X023607Y038672D01*
X023680Y038678D01*
X023753Y038680D01*
X023826Y038678D01*
X023899Y038672D01*
X023971Y038662D01*
X024043Y038648D01*
X024114Y038631D01*
X024184Y038609D01*
X024253Y038584D01*
X024320Y038555D01*
X024385Y038523D01*
X024449Y038487D01*
X024511Y038447D01*
X024570Y038405D01*
X024627Y038359D01*
X024681Y038310D01*
X024733Y038258D01*
X024782Y038204D01*
X024828Y038147D01*
X024870Y038088D01*
X024910Y038026D01*
X024946Y037962D01*
X024978Y037897D01*
X025007Y037830D01*
X025032Y037761D01*
X025054Y037691D01*
X025071Y037620D01*
X025085Y037548D01*
X025095Y037476D01*
X025101Y037403D01*
X025103Y037330D01*
X025101Y037257D01*
X025095Y037184D01*
X025085Y037112D01*
X025071Y037040D01*
X025054Y036969D01*
X025032Y036899D01*
X025007Y036830D01*
X024978Y036763D01*
X024946Y036698D01*
X024910Y036634D01*
X024870Y036572D01*
X024828Y036513D01*
X024782Y036456D01*
X024733Y036402D01*
X024681Y036350D01*
X024627Y036301D01*
X024570Y036255D01*
X024511Y036213D01*
X024449Y036173D01*
X024385Y036137D01*
X024320Y036105D01*
X024253Y036076D01*
X024184Y036051D01*
X024114Y036029D01*
X024043Y036012D01*
X023971Y035998D01*
X023899Y035988D01*
X023826Y035982D01*
X023753Y035980D01*
X023680Y035982D01*
X023607Y035988D01*
X023535Y035998D01*
X023463Y036012D01*
X023392Y036029D01*
X023322Y036051D01*
X023253Y036076D01*
X023186Y036105D01*
X023121Y036137D01*
X023057Y036173D01*
X022995Y036213D01*
X022936Y036255D01*
X022879Y036301D01*
X022825Y036350D01*
X022773Y036402D01*
X022724Y036456D01*
X022678Y036513D01*
X022636Y036572D01*
X022596Y036634D01*
X022560Y036698D01*
X022528Y036763D01*
X022499Y036830D01*
X022474Y036899D01*
X022452Y036969D01*
X022435Y037040D01*
X022421Y037112D01*
X022411Y037184D01*
X022405Y037257D01*
X022403Y037330D01*
X026143Y036480D02*
X028043Y038380D01*
X028243Y038180D02*
X026343Y036280D01*
X025843Y037330D02*
X025845Y037403D01*
X025851Y037476D01*
X025861Y037548D01*
X025875Y037620D01*
X025892Y037691D01*
X025914Y037761D01*
X025939Y037830D01*
X025968Y037897D01*
X026000Y037962D01*
X026036Y038026D01*
X026076Y038088D01*
X026118Y038147D01*
X026164Y038204D01*
X026213Y038258D01*
X026265Y038310D01*
X026319Y038359D01*
X026376Y038405D01*
X026435Y038447D01*
X026497Y038487D01*
X026561Y038523D01*
X026626Y038555D01*
X026693Y038584D01*
X026762Y038609D01*
X026832Y038631D01*
X026903Y038648D01*
X026975Y038662D01*
X027047Y038672D01*
X027120Y038678D01*
X027193Y038680D01*
X027266Y038678D01*
X027339Y038672D01*
X027411Y038662D01*
X027483Y038648D01*
X027554Y038631D01*
X027624Y038609D01*
X027693Y038584D01*
X027760Y038555D01*
X027825Y038523D01*
X027889Y038487D01*
X027951Y038447D01*
X028010Y038405D01*
X028067Y038359D01*
X028121Y038310D01*
X028173Y038258D01*
X028222Y038204D01*
X028268Y038147D01*
X028310Y038088D01*
X028350Y038026D01*
X028386Y037962D01*
X028418Y037897D01*
X028447Y037830D01*
X028472Y037761D01*
X028494Y037691D01*
X028511Y037620D01*
X028525Y037548D01*
X028535Y037476D01*
X028541Y037403D01*
X028543Y037330D01*
X028541Y037257D01*
X028535Y037184D01*
X028525Y037112D01*
X028511Y037040D01*
X028494Y036969D01*
X028472Y036899D01*
X028447Y036830D01*
X028418Y036763D01*
X028386Y036698D01*
X028350Y036634D01*
X028310Y036572D01*
X028268Y036513D01*
X028222Y036456D01*
X028173Y036402D01*
X028121Y036350D01*
X028067Y036301D01*
X028010Y036255D01*
X027951Y036213D01*
X027889Y036173D01*
X027825Y036137D01*
X027760Y036105D01*
X027693Y036076D01*
X027624Y036051D01*
X027554Y036029D01*
X027483Y036012D01*
X027411Y035998D01*
X027339Y035988D01*
X027266Y035982D01*
X027193Y035980D01*
X027120Y035982D01*
X027047Y035988D01*
X026975Y035998D01*
X026903Y036012D01*
X026832Y036029D01*
X026762Y036051D01*
X026693Y036076D01*
X026626Y036105D01*
X026561Y036137D01*
X026497Y036173D01*
X026435Y036213D01*
X026376Y036255D01*
X026319Y036301D01*
X026265Y036350D01*
X026213Y036402D01*
X026164Y036456D01*
X026118Y036513D01*
X026076Y036572D01*
X026036Y036634D01*
X026000Y036698D01*
X025968Y036763D01*
X025939Y036830D01*
X025914Y036899D01*
X025892Y036969D01*
X025875Y037040D01*
X025861Y037112D01*
X025851Y037184D01*
X025845Y037257D01*
X025843Y037330D01*
X028443Y038780D02*
X028443Y038880D01*
X028793Y038880D01*
X029474Y039899D02*
X029474Y034899D01*
X032498Y034899D02*
X040498Y034899D01*
X040498Y039899D01*
X032498Y039899D01*
X032498Y034899D01*
X033176Y035730D02*
X036376Y035730D01*
X036376Y038880D01*
X036026Y038880D01*
X036026Y038780D01*
X033526Y038780D01*
X033326Y038780D01*
X033326Y035880D01*
X036226Y035880D01*
X036226Y038780D01*
X036026Y038780D01*
X035626Y038380D02*
X033726Y036480D01*
X033926Y036280D02*
X035826Y038180D01*
X036616Y038880D02*
X036616Y035730D01*
X039816Y035730D01*
X039816Y038880D01*
X039466Y038880D01*
X039466Y038780D01*
X036966Y038780D01*
X036766Y038780D01*
X036766Y035880D01*
X039666Y035880D01*
X039666Y038780D01*
X039466Y038780D01*
X039066Y038380D02*
X037166Y036480D01*
X037366Y036280D02*
X039266Y038180D01*
X039816Y038880D02*
X039848Y038868D01*
X039880Y038859D01*
X039914Y038854D01*
X039948Y038853D01*
X039981Y038856D01*
X040015Y038862D01*
X040047Y038872D01*
X040078Y038886D01*
X040107Y038903D01*
X040134Y038923D01*
X040159Y038946D01*
X040181Y038972D01*
X040200Y039000D01*
X040216Y039030D01*
X040498Y039899D01*
X043522Y039899D02*
X044022Y039149D01*
X044050Y039030D01*
X044052Y039007D01*
X044057Y038984D01*
X044066Y038962D01*
X044079Y038942D01*
X044094Y038924D01*
X044112Y038909D01*
X044132Y038896D01*
X044154Y038887D01*
X044177Y038882D01*
X044200Y038880D01*
X044200Y035730D01*
X047400Y035730D01*
X047400Y038880D01*
X047050Y038880D01*
X047050Y038780D01*
X044550Y038780D01*
X044350Y038780D01*
X044350Y035880D01*
X047250Y035880D01*
X047250Y038780D01*
X047050Y038780D01*
X046650Y038380D02*
X044750Y036480D01*
X044950Y036280D02*
X046850Y038180D01*
X047640Y038880D02*
X047640Y035730D01*
X050840Y035730D01*
X050840Y038880D01*
X050490Y038880D01*
X050490Y038780D01*
X047990Y038780D01*
X047790Y038780D01*
X047790Y035880D01*
X050690Y035880D01*
X050690Y038780D01*
X050490Y038780D01*
X050090Y038380D02*
X048190Y036480D01*
X048390Y036280D02*
X050290Y038180D01*
X050840Y038880D02*
X050872Y038868D01*
X050904Y038859D01*
X050938Y038854D01*
X050972Y038853D01*
X051005Y038856D01*
X051039Y038862D01*
X051071Y038872D01*
X051102Y038886D01*
X051131Y038903D01*
X051158Y038923D01*
X051183Y038946D01*
X051205Y038972D01*
X051224Y039000D01*
X051240Y039030D01*
X051522Y039899D01*
X043522Y039899D01*
X043522Y034899D01*
X051522Y034899D01*
X051522Y039899D01*
X047890Y037330D02*
X047892Y037403D01*
X047898Y037476D01*
X047908Y037548D01*
X047922Y037620D01*
X047939Y037691D01*
X047961Y037761D01*
X047986Y037830D01*
X048015Y037897D01*
X048047Y037962D01*
X048083Y038026D01*
X048123Y038088D01*
X048165Y038147D01*
X048211Y038204D01*
X048260Y038258D01*
X048312Y038310D01*
X048366Y038359D01*
X048423Y038405D01*
X048482Y038447D01*
X048544Y038487D01*
X048608Y038523D01*
X048673Y038555D01*
X048740Y038584D01*
X048809Y038609D01*
X048879Y038631D01*
X048950Y038648D01*
X049022Y038662D01*
X049094Y038672D01*
X049167Y038678D01*
X049240Y038680D01*
X049313Y038678D01*
X049386Y038672D01*
X049458Y038662D01*
X049530Y038648D01*
X049601Y038631D01*
X049671Y038609D01*
X049740Y038584D01*
X049807Y038555D01*
X049872Y038523D01*
X049936Y038487D01*
X049998Y038447D01*
X050057Y038405D01*
X050114Y038359D01*
X050168Y038310D01*
X050220Y038258D01*
X050269Y038204D01*
X050315Y038147D01*
X050357Y038088D01*
X050397Y038026D01*
X050433Y037962D01*
X050465Y037897D01*
X050494Y037830D01*
X050519Y037761D01*
X050541Y037691D01*
X050558Y037620D01*
X050572Y037548D01*
X050582Y037476D01*
X050588Y037403D01*
X050590Y037330D01*
X050588Y037257D01*
X050582Y037184D01*
X050572Y037112D01*
X050558Y037040D01*
X050541Y036969D01*
X050519Y036899D01*
X050494Y036830D01*
X050465Y036763D01*
X050433Y036698D01*
X050397Y036634D01*
X050357Y036572D01*
X050315Y036513D01*
X050269Y036456D01*
X050220Y036402D01*
X050168Y036350D01*
X050114Y036301D01*
X050057Y036255D01*
X049998Y036213D01*
X049936Y036173D01*
X049872Y036137D01*
X049807Y036105D01*
X049740Y036076D01*
X049671Y036051D01*
X049601Y036029D01*
X049530Y036012D01*
X049458Y035998D01*
X049386Y035988D01*
X049313Y035982D01*
X049240Y035980D01*
X049167Y035982D01*
X049094Y035988D01*
X049022Y035998D01*
X048950Y036012D01*
X048879Y036029D01*
X048809Y036051D01*
X048740Y036076D01*
X048673Y036105D01*
X048608Y036137D01*
X048544Y036173D01*
X048482Y036213D01*
X048423Y036255D01*
X048366Y036301D01*
X048312Y036350D01*
X048260Y036402D01*
X048211Y036456D01*
X048165Y036513D01*
X048123Y036572D01*
X048083Y036634D01*
X048047Y036698D01*
X048015Y036763D01*
X047986Y036830D01*
X047961Y036899D01*
X047939Y036969D01*
X047922Y037040D01*
X047908Y037112D01*
X047898Y037184D01*
X047892Y037257D01*
X047890Y037330D01*
X047990Y038780D02*
X047990Y038880D01*
X047640Y038880D01*
X044450Y037330D02*
X044452Y037403D01*
X044458Y037476D01*
X044468Y037548D01*
X044482Y037620D01*
X044499Y037691D01*
X044521Y037761D01*
X044546Y037830D01*
X044575Y037897D01*
X044607Y037962D01*
X044643Y038026D01*
X044683Y038088D01*
X044725Y038147D01*
X044771Y038204D01*
X044820Y038258D01*
X044872Y038310D01*
X044926Y038359D01*
X044983Y038405D01*
X045042Y038447D01*
X045104Y038487D01*
X045168Y038523D01*
X045233Y038555D01*
X045300Y038584D01*
X045369Y038609D01*
X045439Y038631D01*
X045510Y038648D01*
X045582Y038662D01*
X045654Y038672D01*
X045727Y038678D01*
X045800Y038680D01*
X045873Y038678D01*
X045946Y038672D01*
X046018Y038662D01*
X046090Y038648D01*
X046161Y038631D01*
X046231Y038609D01*
X046300Y038584D01*
X046367Y038555D01*
X046432Y038523D01*
X046496Y038487D01*
X046558Y038447D01*
X046617Y038405D01*
X046674Y038359D01*
X046728Y038310D01*
X046780Y038258D01*
X046829Y038204D01*
X046875Y038147D01*
X046917Y038088D01*
X046957Y038026D01*
X046993Y037962D01*
X047025Y037897D01*
X047054Y037830D01*
X047079Y037761D01*
X047101Y037691D01*
X047118Y037620D01*
X047132Y037548D01*
X047142Y037476D01*
X047148Y037403D01*
X047150Y037330D01*
X047148Y037257D01*
X047142Y037184D01*
X047132Y037112D01*
X047118Y037040D01*
X047101Y036969D01*
X047079Y036899D01*
X047054Y036830D01*
X047025Y036763D01*
X046993Y036698D01*
X046957Y036634D01*
X046917Y036572D01*
X046875Y036513D01*
X046829Y036456D01*
X046780Y036402D01*
X046728Y036350D01*
X046674Y036301D01*
X046617Y036255D01*
X046558Y036213D01*
X046496Y036173D01*
X046432Y036137D01*
X046367Y036105D01*
X046300Y036076D01*
X046231Y036051D01*
X046161Y036029D01*
X046090Y036012D01*
X046018Y035998D01*
X045946Y035988D01*
X045873Y035982D01*
X045800Y035980D01*
X045727Y035982D01*
X045654Y035988D01*
X045582Y035998D01*
X045510Y036012D01*
X045439Y036029D01*
X045369Y036051D01*
X045300Y036076D01*
X045233Y036105D01*
X045168Y036137D01*
X045104Y036173D01*
X045042Y036213D01*
X044983Y036255D01*
X044926Y036301D01*
X044872Y036350D01*
X044820Y036402D01*
X044771Y036456D01*
X044725Y036513D01*
X044683Y036572D01*
X044643Y036634D01*
X044607Y036698D01*
X044575Y036763D01*
X044546Y036830D01*
X044521Y036899D01*
X044499Y036969D01*
X044482Y037040D01*
X044468Y037112D01*
X044458Y037184D01*
X044452Y037257D01*
X044450Y037330D01*
X044550Y038780D02*
X044550Y038880D01*
X044200Y038880D01*
X036866Y037330D02*
X036868Y037403D01*
X036874Y037476D01*
X036884Y037548D01*
X036898Y037620D01*
X036915Y037691D01*
X036937Y037761D01*
X036962Y037830D01*
X036991Y037897D01*
X037023Y037962D01*
X037059Y038026D01*
X037099Y038088D01*
X037141Y038147D01*
X037187Y038204D01*
X037236Y038258D01*
X037288Y038310D01*
X037342Y038359D01*
X037399Y038405D01*
X037458Y038447D01*
X037520Y038487D01*
X037584Y038523D01*
X037649Y038555D01*
X037716Y038584D01*
X037785Y038609D01*
X037855Y038631D01*
X037926Y038648D01*
X037998Y038662D01*
X038070Y038672D01*
X038143Y038678D01*
X038216Y038680D01*
X038289Y038678D01*
X038362Y038672D01*
X038434Y038662D01*
X038506Y038648D01*
X038577Y038631D01*
X038647Y038609D01*
X038716Y038584D01*
X038783Y038555D01*
X038848Y038523D01*
X038912Y038487D01*
X038974Y038447D01*
X039033Y038405D01*
X039090Y038359D01*
X039144Y038310D01*
X039196Y038258D01*
X039245Y038204D01*
X039291Y038147D01*
X039333Y038088D01*
X039373Y038026D01*
X039409Y037962D01*
X039441Y037897D01*
X039470Y037830D01*
X039495Y037761D01*
X039517Y037691D01*
X039534Y037620D01*
X039548Y037548D01*
X039558Y037476D01*
X039564Y037403D01*
X039566Y037330D01*
X039564Y037257D01*
X039558Y037184D01*
X039548Y037112D01*
X039534Y037040D01*
X039517Y036969D01*
X039495Y036899D01*
X039470Y036830D01*
X039441Y036763D01*
X039409Y036698D01*
X039373Y036634D01*
X039333Y036572D01*
X039291Y036513D01*
X039245Y036456D01*
X039196Y036402D01*
X039144Y036350D01*
X039090Y036301D01*
X039033Y036255D01*
X038974Y036213D01*
X038912Y036173D01*
X038848Y036137D01*
X038783Y036105D01*
X038716Y036076D01*
X038647Y036051D01*
X038577Y036029D01*
X038506Y036012D01*
X038434Y035998D01*
X038362Y035988D01*
X038289Y035982D01*
X038216Y035980D01*
X038143Y035982D01*
X038070Y035988D01*
X037998Y035998D01*
X037926Y036012D01*
X037855Y036029D01*
X037785Y036051D01*
X037716Y036076D01*
X037649Y036105D01*
X037584Y036137D01*
X037520Y036173D01*
X037458Y036213D01*
X037399Y036255D01*
X037342Y036301D01*
X037288Y036350D01*
X037236Y036402D01*
X037187Y036456D01*
X037141Y036513D01*
X037099Y036572D01*
X037059Y036634D01*
X037023Y036698D01*
X036991Y036763D01*
X036962Y036830D01*
X036937Y036899D01*
X036915Y036969D01*
X036898Y037040D01*
X036884Y037112D01*
X036874Y037184D01*
X036868Y037257D01*
X036866Y037330D01*
X036966Y038780D02*
X036966Y038880D01*
X036616Y038880D01*
X033426Y037330D02*
X033428Y037403D01*
X033434Y037476D01*
X033444Y037548D01*
X033458Y037620D01*
X033475Y037691D01*
X033497Y037761D01*
X033522Y037830D01*
X033551Y037897D01*
X033583Y037962D01*
X033619Y038026D01*
X033659Y038088D01*
X033701Y038147D01*
X033747Y038204D01*
X033796Y038258D01*
X033848Y038310D01*
X033902Y038359D01*
X033959Y038405D01*
X034018Y038447D01*
X034080Y038487D01*
X034144Y038523D01*
X034209Y038555D01*
X034276Y038584D01*
X034345Y038609D01*
X034415Y038631D01*
X034486Y038648D01*
X034558Y038662D01*
X034630Y038672D01*
X034703Y038678D01*
X034776Y038680D01*
X034849Y038678D01*
X034922Y038672D01*
X034994Y038662D01*
X035066Y038648D01*
X035137Y038631D01*
X035207Y038609D01*
X035276Y038584D01*
X035343Y038555D01*
X035408Y038523D01*
X035472Y038487D01*
X035534Y038447D01*
X035593Y038405D01*
X035650Y038359D01*
X035704Y038310D01*
X035756Y038258D01*
X035805Y038204D01*
X035851Y038147D01*
X035893Y038088D01*
X035933Y038026D01*
X035969Y037962D01*
X036001Y037897D01*
X036030Y037830D01*
X036055Y037761D01*
X036077Y037691D01*
X036094Y037620D01*
X036108Y037548D01*
X036118Y037476D01*
X036124Y037403D01*
X036126Y037330D01*
X036124Y037257D01*
X036118Y037184D01*
X036108Y037112D01*
X036094Y037040D01*
X036077Y036969D01*
X036055Y036899D01*
X036030Y036830D01*
X036001Y036763D01*
X035969Y036698D01*
X035933Y036634D01*
X035893Y036572D01*
X035851Y036513D01*
X035805Y036456D01*
X035756Y036402D01*
X035704Y036350D01*
X035650Y036301D01*
X035593Y036255D01*
X035534Y036213D01*
X035472Y036173D01*
X035408Y036137D01*
X035343Y036105D01*
X035276Y036076D01*
X035207Y036051D01*
X035137Y036029D01*
X035066Y036012D01*
X034994Y035998D01*
X034922Y035988D01*
X034849Y035982D01*
X034776Y035980D01*
X034703Y035982D01*
X034630Y035988D01*
X034558Y035998D01*
X034486Y036012D01*
X034415Y036029D01*
X034345Y036051D01*
X034276Y036076D01*
X034209Y036105D01*
X034144Y036137D01*
X034080Y036173D01*
X034018Y036213D01*
X033959Y036255D01*
X033902Y036301D01*
X033848Y036350D01*
X033796Y036402D01*
X033747Y036456D01*
X033701Y036513D01*
X033659Y036572D01*
X033619Y036634D01*
X033583Y036698D01*
X033551Y036763D01*
X033522Y036830D01*
X033497Y036899D01*
X033475Y036969D01*
X033458Y037040D01*
X033444Y037112D01*
X033434Y037184D01*
X033428Y037257D01*
X033426Y037330D01*
X033526Y038780D02*
X033526Y038880D01*
X033176Y038880D01*
X033176Y035730D01*
X033176Y038880D02*
X033153Y038882D01*
X033130Y038887D01*
X033108Y038896D01*
X033088Y038909D01*
X033070Y038924D01*
X033055Y038942D01*
X033042Y038962D01*
X033033Y038984D01*
X033028Y039007D01*
X033026Y039030D01*
X032998Y039149D01*
X032498Y039899D01*
X016544Y039680D02*
X016544Y035980D01*
X016444Y035880D01*
X015294Y035830D01*
X015558Y035257D02*
X015558Y034502D01*
X015804Y034502D02*
X015804Y035257D01*
X016444Y035257D02*
X016444Y034502D01*
X014918Y034502D02*
X014918Y035257D01*
X013539Y034393D02*
X013539Y033393D01*
X013537Y033376D01*
X013533Y033359D01*
X013526Y033343D01*
X013516Y033329D01*
X013503Y033316D01*
X013489Y033306D01*
X013473Y033299D01*
X013456Y033295D01*
X013439Y033293D01*
X010739Y033293D01*
X010722Y033295D01*
X010705Y033299D01*
X010689Y033306D01*
X010675Y033316D01*
X010662Y033329D01*
X010652Y033343D01*
X010645Y033359D01*
X010641Y033376D01*
X010639Y033393D01*
X010639Y034393D01*
X010641Y034410D01*
X010645Y034427D01*
X010652Y034443D01*
X010662Y034457D01*
X010675Y034470D01*
X010689Y034480D01*
X010705Y034487D01*
X010722Y034491D01*
X010739Y034493D01*
X013439Y034493D01*
X013456Y034491D01*
X013473Y034487D01*
X013489Y034480D01*
X013503Y034470D01*
X013516Y034457D01*
X013526Y034443D01*
X013533Y034427D01*
X013537Y034410D01*
X013539Y034393D01*
X012689Y033893D02*
X012219Y033893D01*
X011969Y033893D02*
X011489Y033893D01*
X011982Y035061D02*
X011982Y035211D01*
X011832Y035211D01*
X011982Y035211D02*
X011982Y035361D01*
X011982Y035211D02*
X012132Y035211D01*
X012482Y035211D02*
X012482Y035561D01*
X011982Y035561D01*
X011982Y035761D01*
X012982Y035761D01*
X012982Y035561D01*
X012482Y035561D01*
X011382Y035861D02*
X011384Y035927D01*
X011390Y035992D01*
X011400Y036057D01*
X011413Y036122D01*
X011431Y036185D01*
X011452Y036248D01*
X011477Y036308D01*
X011506Y036368D01*
X011538Y036425D01*
X011573Y036481D01*
X011612Y036534D01*
X011654Y036585D01*
X011698Y036633D01*
X011746Y036678D01*
X011796Y036721D01*
X011849Y036760D01*
X011904Y036797D01*
X011961Y036830D01*
X012020Y036859D01*
X012080Y036885D01*
X012142Y036907D01*
X012205Y036926D01*
X012269Y036940D01*
X012334Y036951D01*
X012400Y036958D01*
X012466Y036961D01*
X012531Y036960D01*
X012597Y036955D01*
X012662Y036946D01*
X012727Y036933D01*
X012790Y036917D01*
X012853Y036897D01*
X012914Y036872D01*
X012974Y036845D01*
X013032Y036814D01*
X013088Y036779D01*
X013142Y036741D01*
X013193Y036700D01*
X013242Y036656D01*
X013288Y036609D01*
X013332Y036560D01*
X013372Y036508D01*
X013409Y036453D01*
X013443Y036397D01*
X013473Y036338D01*
X013500Y036278D01*
X013523Y036217D01*
X013542Y036154D01*
X013558Y036090D01*
X013570Y036025D01*
X013578Y035960D01*
X013582Y035894D01*
X013582Y035828D01*
X013578Y035762D01*
X013570Y035697D01*
X013558Y035632D01*
X013542Y035568D01*
X013523Y035505D01*
X013500Y035444D01*
X013473Y035384D01*
X013443Y035325D01*
X013409Y035269D01*
X013372Y035214D01*
X013332Y035162D01*
X013288Y035113D01*
X013242Y035066D01*
X013193Y035022D01*
X013142Y034981D01*
X013088Y034943D01*
X013032Y034908D01*
X012974Y034877D01*
X012914Y034850D01*
X012853Y034825D01*
X012790Y034805D01*
X012727Y034789D01*
X012662Y034776D01*
X012597Y034767D01*
X012531Y034762D01*
X012466Y034761D01*
X012400Y034764D01*
X012334Y034771D01*
X012269Y034782D01*
X012205Y034796D01*
X012142Y034815D01*
X012080Y034837D01*
X012020Y034863D01*
X011961Y034892D01*
X011904Y034925D01*
X011849Y034962D01*
X011796Y035001D01*
X011746Y035044D01*
X011698Y035089D01*
X011654Y035137D01*
X011612Y035188D01*
X011573Y035241D01*
X011538Y035297D01*
X011506Y035354D01*
X011477Y035414D01*
X011452Y035474D01*
X011431Y035537D01*
X011413Y035600D01*
X011400Y035665D01*
X011390Y035730D01*
X011384Y035795D01*
X011382Y035861D01*
X012482Y036111D02*
X012482Y036511D01*
X009670Y036074D02*
X009672Y036116D01*
X009678Y036158D01*
X009688Y036199D01*
X009701Y036239D01*
X009719Y036277D01*
X009739Y036314D01*
X009764Y036349D01*
X009791Y036381D01*
X009821Y036410D01*
X009854Y036437D01*
X009889Y036460D01*
X009926Y036480D01*
X009965Y036496D01*
X010005Y036509D01*
X010046Y036518D01*
X010088Y036523D01*
X010131Y036524D01*
X010173Y036521D01*
X010214Y036514D01*
X010255Y036503D01*
X010295Y036489D01*
X010333Y036471D01*
X010369Y036449D01*
X010403Y036424D01*
X010434Y036396D01*
X010463Y036365D01*
X010489Y036332D01*
X010511Y036296D01*
X010531Y036258D01*
X010546Y036219D01*
X010558Y036179D01*
X010566Y036137D01*
X010570Y036095D01*
X010570Y036053D01*
X010566Y036011D01*
X010558Y035969D01*
X010546Y035929D01*
X010531Y035890D01*
X010511Y035852D01*
X010489Y035816D01*
X010463Y035783D01*
X010434Y035752D01*
X010403Y035724D01*
X010369Y035699D01*
X010333Y035677D01*
X010295Y035659D01*
X010255Y035645D01*
X010214Y035634D01*
X010173Y035627D01*
X010131Y035624D01*
X010088Y035625D01*
X010046Y035630D01*
X010005Y035639D01*
X009965Y035652D01*
X009926Y035668D01*
X009889Y035688D01*
X009854Y035711D01*
X009821Y035738D01*
X009791Y035767D01*
X009764Y035799D01*
X009739Y035834D01*
X009719Y035871D01*
X009701Y035909D01*
X009688Y035949D01*
X009678Y035990D01*
X009672Y036032D01*
X009670Y036074D01*
X008920Y036074D02*
X008922Y036143D01*
X008928Y036212D01*
X008938Y036280D01*
X008952Y036348D01*
X008969Y036415D01*
X008991Y036481D01*
X009016Y036545D01*
X009045Y036608D01*
X009078Y036669D01*
X009114Y036728D01*
X009153Y036785D01*
X009196Y036839D01*
X009241Y036891D01*
X009290Y036941D01*
X009341Y036987D01*
X009395Y037030D01*
X009452Y037071D01*
X009510Y037107D01*
X009571Y037141D01*
X009633Y037171D01*
X009697Y037197D01*
X009762Y037219D01*
X009829Y037238D01*
X009897Y037253D01*
X009965Y037264D01*
X010034Y037271D01*
X010103Y037274D01*
X010172Y037273D01*
X010241Y037268D01*
X010309Y037259D01*
X010377Y037246D01*
X010444Y037229D01*
X010511Y037209D01*
X010575Y037184D01*
X010638Y037156D01*
X010700Y037125D01*
X010759Y037089D01*
X010817Y037051D01*
X010872Y037009D01*
X010925Y036964D01*
X010975Y036916D01*
X011022Y036866D01*
X011066Y036812D01*
X011107Y036757D01*
X011145Y036699D01*
X011179Y036639D01*
X011210Y036577D01*
X011237Y036513D01*
X011260Y036448D01*
X011280Y036382D01*
X011296Y036314D01*
X011308Y036246D01*
X011316Y036178D01*
X011320Y036109D01*
X011320Y036039D01*
X011316Y035970D01*
X011308Y035902D01*
X011296Y035834D01*
X011280Y035766D01*
X011260Y035700D01*
X011237Y035635D01*
X011210Y035571D01*
X011179Y035509D01*
X011145Y035449D01*
X011107Y035391D01*
X011066Y035336D01*
X011022Y035282D01*
X010975Y035232D01*
X010925Y035184D01*
X010872Y035139D01*
X010817Y035097D01*
X010759Y035059D01*
X010700Y035023D01*
X010638Y034992D01*
X010575Y034964D01*
X010511Y034939D01*
X010444Y034919D01*
X010377Y034902D01*
X010309Y034889D01*
X010241Y034880D01*
X010172Y034875D01*
X010103Y034874D01*
X010034Y034877D01*
X009965Y034884D01*
X009897Y034895D01*
X009829Y034910D01*
X009762Y034929D01*
X009697Y034951D01*
X009633Y034977D01*
X009571Y035007D01*
X009510Y035041D01*
X009452Y035077D01*
X009395Y035118D01*
X009341Y035161D01*
X009290Y035207D01*
X009241Y035257D01*
X009196Y035309D01*
X009153Y035363D01*
X009114Y035420D01*
X009078Y035479D01*
X009045Y035540D01*
X009016Y035603D01*
X008991Y035667D01*
X008969Y035733D01*
X008952Y035800D01*
X008938Y035868D01*
X008928Y035936D01*
X008922Y036005D01*
X008920Y036074D01*
X015294Y039830D02*
X016444Y039780D01*
X016544Y039680D01*
X016844Y028610D02*
X016844Y026971D01*
X017569Y026971D01*
X017569Y028610D01*
X016844Y028610D01*
X017207Y028390D02*
X017207Y027790D01*
X017457Y027790D01*
X017207Y027790D02*
X017207Y027540D01*
X017207Y027790D02*
X016957Y027790D01*
X017207Y027790D02*
X016957Y028190D01*
X017457Y028190D01*
X017207Y027790D01*
X015738Y025700D02*
X015738Y025400D01*
X015888Y025550D02*
X015588Y025550D01*
X015238Y024700D02*
X015238Y024500D01*
X015238Y024400D01*
X015688Y024400D01*
X015688Y024150D01*
X014788Y024150D01*
X014788Y024400D01*
X015238Y024400D01*
X013238Y024050D02*
X013240Y024148D01*
X013248Y024246D01*
X013260Y024343D01*
X013276Y024440D01*
X013298Y024536D01*
X013324Y024631D01*
X013355Y024724D01*
X013390Y024815D01*
X013430Y024905D01*
X013474Y024993D01*
X013523Y025078D01*
X013575Y025161D01*
X013632Y025241D01*
X013692Y025319D01*
X013756Y025393D01*
X013824Y025464D01*
X013895Y025532D01*
X013969Y025596D01*
X014047Y025656D01*
X014127Y025713D01*
X014210Y025765D01*
X014295Y025814D01*
X014383Y025858D01*
X014473Y025898D01*
X014564Y025933D01*
X014657Y025964D01*
X014752Y025990D01*
X014848Y026012D01*
X014945Y026028D01*
X015042Y026040D01*
X015140Y026048D01*
X015238Y026050D01*
X015336Y026048D01*
X015434Y026040D01*
X015531Y026028D01*
X015628Y026012D01*
X015724Y025990D01*
X015819Y025964D01*
X015912Y025933D01*
X016003Y025898D01*
X016093Y025858D01*
X016181Y025814D01*
X016266Y025765D01*
X016349Y025713D01*
X016429Y025656D01*
X016507Y025596D01*
X016581Y025532D01*
X016652Y025464D01*
X016720Y025393D01*
X016784Y025319D01*
X016844Y025241D01*
X016901Y025161D01*
X016953Y025078D01*
X017002Y024993D01*
X017046Y024905D01*
X017086Y024815D01*
X017121Y024724D01*
X017152Y024631D01*
X017178Y024536D01*
X017200Y024440D01*
X017216Y024343D01*
X017228Y024246D01*
X017236Y024148D01*
X017238Y024050D01*
X017236Y023952D01*
X017228Y023854D01*
X017216Y023757D01*
X017200Y023660D01*
X017178Y023564D01*
X017152Y023469D01*
X017121Y023376D01*
X017086Y023285D01*
X017046Y023195D01*
X017002Y023107D01*
X016953Y023022D01*
X016901Y022939D01*
X016844Y022859D01*
X016784Y022781D01*
X016720Y022707D01*
X016652Y022636D01*
X016581Y022568D01*
X016507Y022504D01*
X016429Y022444D01*
X016349Y022387D01*
X016266Y022335D01*
X016181Y022286D01*
X016093Y022242D01*
X016003Y022202D01*
X015912Y022167D01*
X015819Y022136D01*
X015724Y022110D01*
X015628Y022088D01*
X015531Y022072D01*
X015434Y022060D01*
X015336Y022052D01*
X015238Y022050D01*
X015140Y022052D01*
X015042Y022060D01*
X014945Y022072D01*
X014848Y022088D01*
X014752Y022110D01*
X014657Y022136D01*
X014564Y022167D01*
X014473Y022202D01*
X014383Y022242D01*
X014295Y022286D01*
X014210Y022335D01*
X014127Y022387D01*
X014047Y022444D01*
X013969Y022504D01*
X013895Y022568D01*
X013824Y022636D01*
X013756Y022707D01*
X013692Y022781D01*
X013632Y022859D01*
X013575Y022939D01*
X013523Y023022D01*
X013474Y023107D01*
X013430Y023195D01*
X013390Y023285D01*
X013355Y023376D01*
X013324Y023469D01*
X013298Y023564D01*
X013276Y023660D01*
X013260Y023757D01*
X013248Y023854D01*
X013240Y023952D01*
X013238Y024050D01*
X011357Y024150D02*
X011357Y024400D01*
X010907Y024400D01*
X010457Y024400D01*
X010457Y024150D01*
X011357Y024150D01*
X008907Y024050D02*
X008909Y024148D01*
X008917Y024246D01*
X008929Y024343D01*
X008945Y024440D01*
X008967Y024536D01*
X008993Y024631D01*
X009024Y024724D01*
X009059Y024815D01*
X009099Y024905D01*
X009143Y024993D01*
X009192Y025078D01*
X009244Y025161D01*
X009301Y025241D01*
X009361Y025319D01*
X009425Y025393D01*
X009493Y025464D01*
X009564Y025532D01*
X009638Y025596D01*
X009716Y025656D01*
X009796Y025713D01*
X009879Y025765D01*
X009964Y025814D01*
X010052Y025858D01*
X010142Y025898D01*
X010233Y025933D01*
X010326Y025964D01*
X010421Y025990D01*
X010517Y026012D01*
X010614Y026028D01*
X010711Y026040D01*
X010809Y026048D01*
X010907Y026050D01*
X011005Y026048D01*
X011103Y026040D01*
X011200Y026028D01*
X011297Y026012D01*
X011393Y025990D01*
X011488Y025964D01*
X011581Y025933D01*
X011672Y025898D01*
X011762Y025858D01*
X011850Y025814D01*
X011935Y025765D01*
X012018Y025713D01*
X012098Y025656D01*
X012176Y025596D01*
X012250Y025532D01*
X012321Y025464D01*
X012389Y025393D01*
X012453Y025319D01*
X012513Y025241D01*
X012570Y025161D01*
X012622Y025078D01*
X012671Y024993D01*
X012715Y024905D01*
X012755Y024815D01*
X012790Y024724D01*
X012821Y024631D01*
X012847Y024536D01*
X012869Y024440D01*
X012885Y024343D01*
X012897Y024246D01*
X012905Y024148D01*
X012907Y024050D01*
X012905Y023952D01*
X012897Y023854D01*
X012885Y023757D01*
X012869Y023660D01*
X012847Y023564D01*
X012821Y023469D01*
X012790Y023376D01*
X012755Y023285D01*
X012715Y023195D01*
X012671Y023107D01*
X012622Y023022D01*
X012570Y022939D01*
X012513Y022859D01*
X012453Y022781D01*
X012389Y022707D01*
X012321Y022636D01*
X012250Y022568D01*
X012176Y022504D01*
X012098Y022444D01*
X012018Y022387D01*
X011935Y022335D01*
X011850Y022286D01*
X011762Y022242D01*
X011672Y022202D01*
X011581Y022167D01*
X011488Y022136D01*
X011393Y022110D01*
X011297Y022088D01*
X011200Y022072D01*
X011103Y022060D01*
X011005Y022052D01*
X010907Y022050D01*
X010809Y022052D01*
X010711Y022060D01*
X010614Y022072D01*
X010517Y022088D01*
X010421Y022110D01*
X010326Y022136D01*
X010233Y022167D01*
X010142Y022202D01*
X010052Y022242D01*
X009964Y022286D01*
X009879Y022335D01*
X009796Y022387D01*
X009716Y022444D01*
X009638Y022504D01*
X009564Y022568D01*
X009493Y022636D01*
X009425Y022707D01*
X009361Y022781D01*
X009301Y022859D01*
X009244Y022939D01*
X009192Y023022D01*
X009143Y023107D01*
X009099Y023195D01*
X009059Y023285D01*
X009024Y023376D01*
X008993Y023469D01*
X008967Y023564D01*
X008945Y023660D01*
X008929Y023757D01*
X008917Y023854D01*
X008909Y023952D01*
X008907Y024050D01*
X008814Y023550D02*
X008814Y024550D01*
X008812Y024567D01*
X008808Y024584D01*
X008801Y024600D01*
X008791Y024614D01*
X008778Y024627D01*
X008764Y024637D01*
X008748Y024644D01*
X008731Y024648D01*
X008714Y024650D01*
X006014Y024650D01*
X005997Y024648D01*
X005980Y024644D01*
X005964Y024637D01*
X005950Y024627D01*
X005937Y024614D01*
X005927Y024600D01*
X005920Y024584D01*
X005916Y024567D01*
X005914Y024550D01*
X005914Y023550D01*
X005916Y023533D01*
X005920Y023516D01*
X005927Y023500D01*
X005937Y023486D01*
X005950Y023473D01*
X005964Y023463D01*
X005980Y023456D01*
X005997Y023452D01*
X006014Y023450D01*
X008714Y023450D01*
X008731Y023452D01*
X008748Y023456D01*
X008764Y023463D01*
X008778Y023473D01*
X008791Y023486D01*
X008801Y023500D01*
X008808Y023516D01*
X008812Y023533D01*
X008814Y023550D01*
X008027Y023550D02*
X008027Y024550D01*
X008025Y024567D01*
X008021Y024584D01*
X008014Y024600D01*
X008004Y024614D01*
X007991Y024627D01*
X007977Y024637D01*
X007961Y024644D01*
X007944Y024648D01*
X007927Y024650D01*
X005227Y024650D01*
X005210Y024648D01*
X005193Y024644D01*
X005177Y024637D01*
X005163Y024627D01*
X005150Y024614D01*
X005140Y024600D01*
X005133Y024584D01*
X005129Y024567D01*
X005127Y024550D01*
X005127Y023550D01*
X005129Y023533D01*
X005133Y023516D01*
X005140Y023500D01*
X005150Y023486D01*
X005163Y023473D01*
X005177Y023463D01*
X005193Y023456D01*
X005210Y023452D01*
X005227Y023450D01*
X007927Y023450D01*
X007944Y023452D01*
X007961Y023456D01*
X007977Y023463D01*
X007991Y023473D01*
X008004Y023486D01*
X008014Y023500D01*
X008021Y023516D01*
X008025Y023533D01*
X008027Y023550D01*
X007964Y024050D02*
X007494Y024050D01*
X007244Y024050D02*
X006764Y024050D01*
X006707Y024050D02*
X007177Y024050D01*
X006457Y024050D02*
X005977Y024050D01*
X003749Y025625D02*
X003751Y025667D01*
X003757Y025709D01*
X003767Y025750D01*
X003780Y025790D01*
X003798Y025828D01*
X003818Y025865D01*
X003843Y025900D01*
X003870Y025932D01*
X003900Y025961D01*
X003933Y025988D01*
X003968Y026011D01*
X004005Y026031D01*
X004044Y026047D01*
X004084Y026060D01*
X004125Y026069D01*
X004167Y026074D01*
X004210Y026075D01*
X004252Y026072D01*
X004293Y026065D01*
X004334Y026054D01*
X004374Y026040D01*
X004412Y026022D01*
X004448Y026000D01*
X004482Y025975D01*
X004513Y025947D01*
X004542Y025916D01*
X004568Y025883D01*
X004590Y025847D01*
X004610Y025809D01*
X004625Y025770D01*
X004637Y025730D01*
X004645Y025688D01*
X004649Y025646D01*
X004649Y025604D01*
X004645Y025562D01*
X004637Y025520D01*
X004625Y025480D01*
X004610Y025441D01*
X004590Y025403D01*
X004568Y025367D01*
X004542Y025334D01*
X004513Y025303D01*
X004482Y025275D01*
X004448Y025250D01*
X004412Y025228D01*
X004374Y025210D01*
X004334Y025196D01*
X004293Y025185D01*
X004252Y025178D01*
X004210Y025175D01*
X004167Y025176D01*
X004125Y025181D01*
X004084Y025190D01*
X004044Y025203D01*
X004005Y025219D01*
X003968Y025239D01*
X003933Y025262D01*
X003900Y025289D01*
X003870Y025318D01*
X003843Y025350D01*
X003818Y025385D01*
X003798Y025422D01*
X003780Y025460D01*
X003767Y025500D01*
X003757Y025541D01*
X003751Y025583D01*
X003749Y025625D01*
X002999Y025625D02*
X003001Y025694D01*
X003007Y025763D01*
X003017Y025831D01*
X003031Y025899D01*
X003048Y025966D01*
X003070Y026032D01*
X003095Y026096D01*
X003124Y026159D01*
X003157Y026220D01*
X003193Y026279D01*
X003232Y026336D01*
X003275Y026390D01*
X003320Y026442D01*
X003369Y026492D01*
X003420Y026538D01*
X003474Y026581D01*
X003531Y026622D01*
X003589Y026658D01*
X003650Y026692D01*
X003712Y026722D01*
X003776Y026748D01*
X003841Y026770D01*
X003908Y026789D01*
X003976Y026804D01*
X004044Y026815D01*
X004113Y026822D01*
X004182Y026825D01*
X004251Y026824D01*
X004320Y026819D01*
X004388Y026810D01*
X004456Y026797D01*
X004523Y026780D01*
X004590Y026760D01*
X004654Y026735D01*
X004717Y026707D01*
X004779Y026676D01*
X004838Y026640D01*
X004896Y026602D01*
X004951Y026560D01*
X005004Y026515D01*
X005054Y026467D01*
X005101Y026417D01*
X005145Y026363D01*
X005186Y026308D01*
X005224Y026250D01*
X005258Y026190D01*
X005289Y026128D01*
X005316Y026064D01*
X005339Y025999D01*
X005359Y025933D01*
X005375Y025865D01*
X005387Y025797D01*
X005395Y025729D01*
X005399Y025660D01*
X005399Y025590D01*
X005395Y025521D01*
X005387Y025453D01*
X005375Y025385D01*
X005359Y025317D01*
X005339Y025251D01*
X005316Y025186D01*
X005289Y025122D01*
X005258Y025060D01*
X005224Y025000D01*
X005186Y024942D01*
X005145Y024887D01*
X005101Y024833D01*
X005054Y024783D01*
X005004Y024735D01*
X004951Y024690D01*
X004896Y024648D01*
X004838Y024610D01*
X004779Y024574D01*
X004717Y024543D01*
X004654Y024515D01*
X004590Y024490D01*
X004523Y024470D01*
X004456Y024453D01*
X004388Y024440D01*
X004320Y024431D01*
X004251Y024426D01*
X004182Y024425D01*
X004113Y024428D01*
X004044Y024435D01*
X003976Y024446D01*
X003908Y024461D01*
X003841Y024480D01*
X003776Y024502D01*
X003712Y024528D01*
X003650Y024558D01*
X003589Y024592D01*
X003531Y024628D01*
X003474Y024669D01*
X003420Y024712D01*
X003369Y024758D01*
X003320Y024808D01*
X003275Y024860D01*
X003232Y024914D01*
X003193Y024971D01*
X003157Y025030D01*
X003124Y025091D01*
X003095Y025154D01*
X003070Y025218D01*
X003048Y025284D01*
X003031Y025351D01*
X003017Y025419D01*
X003007Y025487D01*
X003001Y025556D01*
X002999Y025625D01*
X008289Y027987D02*
X008489Y027987D01*
X008689Y027987D01*
X006939Y027987D02*
X006941Y028085D01*
X006949Y028183D01*
X006961Y028280D01*
X006977Y028377D01*
X006999Y028473D01*
X007025Y028568D01*
X007056Y028661D01*
X007091Y028752D01*
X007131Y028842D01*
X007175Y028930D01*
X007224Y029015D01*
X007276Y029098D01*
X007333Y029178D01*
X007393Y029256D01*
X007457Y029330D01*
X007525Y029401D01*
X007596Y029469D01*
X007670Y029533D01*
X007748Y029593D01*
X007828Y029650D01*
X007911Y029702D01*
X007996Y029751D01*
X008084Y029795D01*
X008174Y029835D01*
X008265Y029870D01*
X008358Y029901D01*
X008453Y029927D01*
X008549Y029949D01*
X008646Y029965D01*
X008743Y029977D01*
X008841Y029985D01*
X008939Y029987D01*
X009037Y029985D01*
X009135Y029977D01*
X009232Y029965D01*
X009329Y029949D01*
X009425Y029927D01*
X009520Y029901D01*
X009613Y029870D01*
X009704Y029835D01*
X009794Y029795D01*
X009882Y029751D01*
X009967Y029702D01*
X010050Y029650D01*
X010130Y029593D01*
X010208Y029533D01*
X010282Y029469D01*
X010353Y029401D01*
X010421Y029330D01*
X010485Y029256D01*
X010545Y029178D01*
X010602Y029098D01*
X010654Y029015D01*
X010703Y028930D01*
X010747Y028842D01*
X010787Y028752D01*
X010822Y028661D01*
X010853Y028568D01*
X010879Y028473D01*
X010901Y028377D01*
X010917Y028280D01*
X010929Y028183D01*
X010937Y028085D01*
X010939Y027987D01*
X010937Y027889D01*
X010929Y027791D01*
X010917Y027694D01*
X010901Y027597D01*
X010879Y027501D01*
X010853Y027406D01*
X010822Y027313D01*
X010787Y027222D01*
X010747Y027132D01*
X010703Y027044D01*
X010654Y026959D01*
X010602Y026876D01*
X010545Y026796D01*
X010485Y026718D01*
X010421Y026644D01*
X010353Y026573D01*
X010282Y026505D01*
X010208Y026441D01*
X010130Y026381D01*
X010050Y026324D01*
X009967Y026272D01*
X009882Y026223D01*
X009794Y026179D01*
X009704Y026139D01*
X009613Y026104D01*
X009520Y026073D01*
X009425Y026047D01*
X009329Y026025D01*
X009232Y026009D01*
X009135Y025997D01*
X009037Y025989D01*
X008939Y025987D01*
X008841Y025989D01*
X008743Y025997D01*
X008646Y026009D01*
X008549Y026025D01*
X008453Y026047D01*
X008358Y026073D01*
X008265Y026104D01*
X008174Y026139D01*
X008084Y026179D01*
X007996Y026223D01*
X007911Y026272D01*
X007828Y026324D01*
X007748Y026381D01*
X007670Y026441D01*
X007596Y026505D01*
X007525Y026573D01*
X007457Y026644D01*
X007393Y026718D01*
X007333Y026796D01*
X007276Y026876D01*
X007224Y026959D01*
X007175Y027044D01*
X007131Y027132D01*
X007091Y027222D01*
X007056Y027313D01*
X007025Y027406D01*
X006999Y027501D01*
X006977Y027597D01*
X006961Y027694D01*
X006949Y027791D01*
X006941Y027889D01*
X006939Y027987D01*
X009039Y027537D02*
X009289Y027537D01*
X009289Y027987D01*
X009289Y028437D01*
X009039Y028437D01*
X009039Y027537D01*
X009289Y027987D02*
X009389Y027987D01*
X009589Y027987D01*
X010289Y027487D02*
X010589Y027487D01*
X010439Y027337D02*
X010439Y027637D01*
X011620Y028487D02*
X011920Y028487D01*
X011770Y028637D02*
X011770Y028337D01*
X012620Y027987D02*
X012820Y027987D01*
X012920Y027987D01*
X012920Y028437D01*
X013170Y028437D01*
X013170Y027537D01*
X012920Y027537D01*
X012920Y027987D01*
X011270Y027987D02*
X011272Y028085D01*
X011280Y028183D01*
X011292Y028280D01*
X011308Y028377D01*
X011330Y028473D01*
X011356Y028568D01*
X011387Y028661D01*
X011422Y028752D01*
X011462Y028842D01*
X011506Y028930D01*
X011555Y029015D01*
X011607Y029098D01*
X011664Y029178D01*
X011724Y029256D01*
X011788Y029330D01*
X011856Y029401D01*
X011927Y029469D01*
X012001Y029533D01*
X012079Y029593D01*
X012159Y029650D01*
X012242Y029702D01*
X012327Y029751D01*
X012415Y029795D01*
X012505Y029835D01*
X012596Y029870D01*
X012689Y029901D01*
X012784Y029927D01*
X012880Y029949D01*
X012977Y029965D01*
X013074Y029977D01*
X013172Y029985D01*
X013270Y029987D01*
X013368Y029985D01*
X013466Y029977D01*
X013563Y029965D01*
X013660Y029949D01*
X013756Y029927D01*
X013851Y029901D01*
X013944Y029870D01*
X014035Y029835D01*
X014125Y029795D01*
X014213Y029751D01*
X014298Y029702D01*
X014381Y029650D01*
X014461Y029593D01*
X014539Y029533D01*
X014613Y029469D01*
X014684Y029401D01*
X014752Y029330D01*
X014816Y029256D01*
X014876Y029178D01*
X014933Y029098D01*
X014985Y029015D01*
X015034Y028930D01*
X015078Y028842D01*
X015118Y028752D01*
X015153Y028661D01*
X015184Y028568D01*
X015210Y028473D01*
X015232Y028377D01*
X015248Y028280D01*
X015260Y028183D01*
X015268Y028085D01*
X015270Y027987D01*
X015268Y027889D01*
X015260Y027791D01*
X015248Y027694D01*
X015232Y027597D01*
X015210Y027501D01*
X015184Y027406D01*
X015153Y027313D01*
X015118Y027222D01*
X015078Y027132D01*
X015034Y027044D01*
X014985Y026959D01*
X014933Y026876D01*
X014876Y026796D01*
X014816Y026718D01*
X014752Y026644D01*
X014684Y026573D01*
X014613Y026505D01*
X014539Y026441D01*
X014461Y026381D01*
X014381Y026324D01*
X014298Y026272D01*
X014213Y026223D01*
X014125Y026179D01*
X014035Y026139D01*
X013944Y026104D01*
X013851Y026073D01*
X013756Y026047D01*
X013660Y026025D01*
X013563Y026009D01*
X013466Y025997D01*
X013368Y025989D01*
X013270Y025987D01*
X013172Y025989D01*
X013074Y025997D01*
X012977Y026009D01*
X012880Y026025D01*
X012784Y026047D01*
X012689Y026073D01*
X012596Y026104D01*
X012505Y026139D01*
X012415Y026179D01*
X012327Y026223D01*
X012242Y026272D01*
X012159Y026324D01*
X012079Y026381D01*
X012001Y026441D01*
X011927Y026505D01*
X011856Y026573D01*
X011788Y026644D01*
X011724Y026718D01*
X011664Y026796D01*
X011607Y026876D01*
X011555Y026959D01*
X011506Y027044D01*
X011462Y027132D01*
X011422Y027222D01*
X011387Y027313D01*
X011356Y027406D01*
X011330Y027501D01*
X011308Y027597D01*
X011292Y027694D01*
X011280Y027791D01*
X011272Y027889D01*
X011270Y027987D01*
X013520Y027987D02*
X013720Y027987D01*
X013920Y027987D01*
X011407Y025700D02*
X011407Y025400D01*
X011557Y025550D02*
X011257Y025550D01*
X010907Y024700D02*
X010907Y024500D01*
X010907Y024400D01*
X010907Y023800D02*
X010907Y023600D01*
X010907Y023400D01*
X009589Y021926D02*
X008289Y021926D01*
X008289Y016726D01*
X009589Y016726D01*
X009589Y021926D01*
X008689Y021476D02*
X008691Y021507D01*
X008697Y021538D01*
X008707Y021568D01*
X008720Y021596D01*
X008737Y021623D01*
X008757Y021647D01*
X008780Y021669D01*
X008805Y021687D01*
X008833Y021702D01*
X008862Y021714D01*
X008892Y021722D01*
X008923Y021726D01*
X008955Y021726D01*
X008986Y021722D01*
X009016Y021714D01*
X009045Y021702D01*
X009073Y021687D01*
X009098Y021669D01*
X009121Y021647D01*
X009141Y021623D01*
X009158Y021596D01*
X009171Y021568D01*
X009181Y021538D01*
X009187Y021507D01*
X009189Y021476D01*
X009187Y021445D01*
X009181Y021414D01*
X009171Y021384D01*
X009158Y021356D01*
X009141Y021329D01*
X009121Y021305D01*
X009098Y021283D01*
X009073Y021265D01*
X009045Y021250D01*
X009016Y021238D01*
X008986Y021230D01*
X008955Y021226D01*
X008923Y021226D01*
X008892Y021230D01*
X008862Y021238D01*
X008833Y021250D01*
X008805Y021265D01*
X008780Y021283D01*
X008757Y021305D01*
X008737Y021329D01*
X008720Y021356D01*
X008707Y021384D01*
X008697Y021414D01*
X008691Y021445D01*
X008689Y021476D01*
X009069Y020196D02*
X009569Y019696D01*
X009819Y019446D01*
X009814Y019451D02*
X009831Y019432D01*
X009845Y019410D01*
X009855Y019387D01*
X009862Y019362D01*
X009866Y019337D01*
X009865Y019311D01*
X009861Y019286D01*
X009854Y019262D01*
X009843Y019239D01*
X009829Y019217D01*
X009812Y019198D01*
X009792Y019182D01*
X009770Y019169D01*
X009747Y019159D01*
X009722Y019152D01*
X009696Y019149D01*
X009671Y019150D01*
X009646Y019154D01*
X009621Y019162D01*
X009599Y019174D01*
X009578Y019188D01*
X009559Y019206D01*
X009569Y019196D02*
X009319Y019446D01*
X008819Y019946D01*
X008814Y019951D02*
X008797Y019970D01*
X008783Y019992D01*
X008773Y020015D01*
X008766Y020040D01*
X008762Y020065D01*
X008763Y020091D01*
X008767Y020116D01*
X008774Y020140D01*
X008785Y020163D01*
X008799Y020185D01*
X008816Y020204D01*
X008836Y020220D01*
X008858Y020233D01*
X008881Y020243D01*
X008906Y020250D01*
X008932Y020253D01*
X008957Y020252D01*
X008982Y020248D01*
X009007Y020240D01*
X009029Y020228D01*
X009050Y020214D01*
X009069Y020196D01*
X008539Y019976D02*
X009589Y018926D01*
X009594Y018921D02*
X009611Y018902D01*
X009625Y018880D01*
X009635Y018857D01*
X009642Y018832D01*
X009646Y018807D01*
X009645Y018781D01*
X009641Y018756D01*
X009634Y018732D01*
X009623Y018709D01*
X009609Y018687D01*
X009592Y018668D01*
X009572Y018652D01*
X009550Y018639D01*
X009527Y018629D01*
X009502Y018622D01*
X009476Y018619D01*
X009451Y018620D01*
X009426Y018624D01*
X009401Y018632D01*
X009379Y018644D01*
X009358Y018658D01*
X009339Y018676D01*
X008289Y019726D01*
X008284Y019731D02*
X008267Y019750D01*
X008253Y019772D01*
X008243Y019795D01*
X008236Y019820D01*
X008232Y019845D01*
X008233Y019871D01*
X008237Y019896D01*
X008244Y019920D01*
X008255Y019943D01*
X008269Y019965D01*
X008286Y019984D01*
X008306Y020000D01*
X008328Y020013D01*
X008351Y020023D01*
X008376Y020030D01*
X008402Y020033D01*
X008427Y020032D01*
X008452Y020028D01*
X008477Y020020D01*
X008499Y020008D01*
X008520Y019994D01*
X008539Y019976D01*
X008319Y019446D02*
X008569Y019196D01*
X009069Y018696D01*
X009064Y018701D02*
X009081Y018682D01*
X009095Y018660D01*
X009105Y018637D01*
X009112Y018612D01*
X009116Y018587D01*
X009115Y018561D01*
X009111Y018536D01*
X009104Y018512D01*
X009093Y018489D01*
X009079Y018467D01*
X009062Y018448D01*
X009042Y018432D01*
X009020Y018419D01*
X008997Y018409D01*
X008972Y018402D01*
X008946Y018399D01*
X008921Y018400D01*
X008896Y018404D01*
X008871Y018412D01*
X008849Y018424D01*
X008828Y018438D01*
X008809Y018456D01*
X008819Y018446D02*
X008319Y018946D01*
X008069Y019196D01*
X008064Y019201D02*
X008047Y019220D01*
X008033Y019242D01*
X008023Y019265D01*
X008016Y019290D01*
X008012Y019315D01*
X008013Y019341D01*
X008017Y019366D01*
X008024Y019390D01*
X008035Y019413D01*
X008049Y019435D01*
X008066Y019454D01*
X008086Y019470D01*
X008108Y019483D01*
X008131Y019493D01*
X008156Y019500D01*
X008182Y019503D01*
X008207Y019502D01*
X008232Y019498D01*
X008257Y019490D01*
X008279Y019478D01*
X008300Y019464D01*
X008319Y019446D01*
X007689Y019326D02*
X007691Y019396D01*
X007697Y019466D01*
X007707Y019535D01*
X007720Y019604D01*
X007738Y019672D01*
X007759Y019739D01*
X007784Y019804D01*
X007813Y019868D01*
X007845Y019931D01*
X007881Y019991D01*
X007920Y020049D01*
X007962Y020105D01*
X008007Y020159D01*
X008055Y020210D01*
X008106Y020258D01*
X008160Y020303D01*
X008216Y020345D01*
X008274Y020384D01*
X008334Y020420D01*
X008397Y020452D01*
X008461Y020481D01*
X008526Y020506D01*
X008593Y020527D01*
X008661Y020545D01*
X008730Y020558D01*
X008799Y020568D01*
X008869Y020574D01*
X008939Y020576D01*
X009009Y020574D01*
X009079Y020568D01*
X009148Y020558D01*
X009217Y020545D01*
X009285Y020527D01*
X009352Y020506D01*
X009417Y020481D01*
X009481Y020452D01*
X009544Y020420D01*
X009604Y020384D01*
X009662Y020345D01*
X009718Y020303D01*
X009772Y020258D01*
X009823Y020210D01*
X009871Y020159D01*
X009916Y020105D01*
X009958Y020049D01*
X009997Y019991D01*
X010033Y019931D01*
X010065Y019868D01*
X010094Y019804D01*
X010119Y019739D01*
X010140Y019672D01*
X010158Y019604D01*
X010171Y019535D01*
X010181Y019466D01*
X010187Y019396D01*
X010189Y019326D01*
X010187Y019256D01*
X010181Y019186D01*
X010171Y019117D01*
X010158Y019048D01*
X010140Y018980D01*
X010119Y018913D01*
X010094Y018848D01*
X010065Y018784D01*
X010033Y018721D01*
X009997Y018661D01*
X009958Y018603D01*
X009916Y018547D01*
X009871Y018493D01*
X009823Y018442D01*
X009772Y018394D01*
X009718Y018349D01*
X009662Y018307D01*
X009604Y018268D01*
X009544Y018232D01*
X009481Y018200D01*
X009417Y018171D01*
X009352Y018146D01*
X009285Y018125D01*
X009217Y018107D01*
X009148Y018094D01*
X009079Y018084D01*
X009009Y018078D01*
X008939Y018076D01*
X008869Y018078D01*
X008799Y018084D01*
X008730Y018094D01*
X008661Y018107D01*
X008593Y018125D01*
X008526Y018146D01*
X008461Y018171D01*
X008397Y018200D01*
X008334Y018232D01*
X008274Y018268D01*
X008216Y018307D01*
X008160Y018349D01*
X008106Y018394D01*
X008055Y018442D01*
X008007Y018493D01*
X007962Y018547D01*
X007920Y018603D01*
X007881Y018661D01*
X007845Y018721D01*
X007813Y018784D01*
X007784Y018848D01*
X007759Y018913D01*
X007738Y018980D01*
X007720Y019048D01*
X007707Y019117D01*
X007697Y019186D01*
X007691Y019256D01*
X007689Y019326D01*
X006502Y020644D02*
X006502Y020944D01*
X006352Y020794D02*
X006652Y020794D01*
X005652Y021294D02*
X005452Y021294D01*
X005352Y021294D01*
X005352Y020844D01*
X005102Y020844D01*
X005102Y021744D01*
X005352Y021744D01*
X005352Y021294D01*
X003002Y021294D02*
X003004Y021392D01*
X003012Y021490D01*
X003024Y021587D01*
X003040Y021684D01*
X003062Y021780D01*
X003088Y021875D01*
X003119Y021968D01*
X003154Y022059D01*
X003194Y022149D01*
X003238Y022237D01*
X003287Y022322D01*
X003339Y022405D01*
X003396Y022485D01*
X003456Y022563D01*
X003520Y022637D01*
X003588Y022708D01*
X003659Y022776D01*
X003733Y022840D01*
X003811Y022900D01*
X003891Y022957D01*
X003974Y023009D01*
X004059Y023058D01*
X004147Y023102D01*
X004237Y023142D01*
X004328Y023177D01*
X004421Y023208D01*
X004516Y023234D01*
X004612Y023256D01*
X004709Y023272D01*
X004806Y023284D01*
X004904Y023292D01*
X005002Y023294D01*
X005100Y023292D01*
X005198Y023284D01*
X005295Y023272D01*
X005392Y023256D01*
X005488Y023234D01*
X005583Y023208D01*
X005676Y023177D01*
X005767Y023142D01*
X005857Y023102D01*
X005945Y023058D01*
X006030Y023009D01*
X006113Y022957D01*
X006193Y022900D01*
X006271Y022840D01*
X006345Y022776D01*
X006416Y022708D01*
X006484Y022637D01*
X006548Y022563D01*
X006608Y022485D01*
X006665Y022405D01*
X006717Y022322D01*
X006766Y022237D01*
X006810Y022149D01*
X006850Y022059D01*
X006885Y021968D01*
X006916Y021875D01*
X006942Y021780D01*
X006964Y021684D01*
X006980Y021587D01*
X006992Y021490D01*
X007000Y021392D01*
X007002Y021294D01*
X007000Y021196D01*
X006992Y021098D01*
X006980Y021001D01*
X006964Y020904D01*
X006942Y020808D01*
X006916Y020713D01*
X006885Y020620D01*
X006850Y020529D01*
X006810Y020439D01*
X006766Y020351D01*
X006717Y020266D01*
X006665Y020183D01*
X006608Y020103D01*
X006548Y020025D01*
X006484Y019951D01*
X006416Y019880D01*
X006345Y019812D01*
X006271Y019748D01*
X006193Y019688D01*
X006113Y019631D01*
X006030Y019579D01*
X005945Y019530D01*
X005857Y019486D01*
X005767Y019446D01*
X005676Y019411D01*
X005583Y019380D01*
X005488Y019354D01*
X005392Y019332D01*
X005295Y019316D01*
X005198Y019304D01*
X005100Y019296D01*
X005002Y019294D01*
X004904Y019296D01*
X004806Y019304D01*
X004709Y019316D01*
X004612Y019332D01*
X004516Y019354D01*
X004421Y019380D01*
X004328Y019411D01*
X004237Y019446D01*
X004147Y019486D01*
X004059Y019530D01*
X003974Y019579D01*
X003891Y019631D01*
X003811Y019688D01*
X003733Y019748D01*
X003659Y019812D01*
X003588Y019880D01*
X003520Y019951D01*
X003456Y020025D01*
X003396Y020103D01*
X003339Y020183D01*
X003287Y020266D01*
X003238Y020351D01*
X003194Y020439D01*
X003154Y020529D01*
X003119Y020620D01*
X003088Y020713D01*
X003062Y020808D01*
X003040Y020904D01*
X003024Y021001D01*
X003012Y021098D01*
X003004Y021196D01*
X003002Y021294D01*
X004352Y021294D02*
X004552Y021294D01*
X004752Y021294D01*
X005102Y017414D02*
X005102Y016514D01*
X005352Y016514D01*
X005352Y016964D01*
X005352Y017414D01*
X005102Y017414D01*
X003002Y016964D02*
X003004Y017062D01*
X003012Y017160D01*
X003024Y017257D01*
X003040Y017354D01*
X003062Y017450D01*
X003088Y017545D01*
X003119Y017638D01*
X003154Y017729D01*
X003194Y017819D01*
X003238Y017907D01*
X003287Y017992D01*
X003339Y018075D01*
X003396Y018155D01*
X003456Y018233D01*
X003520Y018307D01*
X003588Y018378D01*
X003659Y018446D01*
X003733Y018510D01*
X003811Y018570D01*
X003891Y018627D01*
X003974Y018679D01*
X004059Y018728D01*
X004147Y018772D01*
X004237Y018812D01*
X004328Y018847D01*
X004421Y018878D01*
X004516Y018904D01*
X004612Y018926D01*
X004709Y018942D01*
X004806Y018954D01*
X004904Y018962D01*
X005002Y018964D01*
X005100Y018962D01*
X005198Y018954D01*
X005295Y018942D01*
X005392Y018926D01*
X005488Y018904D01*
X005583Y018878D01*
X005676Y018847D01*
X005767Y018812D01*
X005857Y018772D01*
X005945Y018728D01*
X006030Y018679D01*
X006113Y018627D01*
X006193Y018570D01*
X006271Y018510D01*
X006345Y018446D01*
X006416Y018378D01*
X006484Y018307D01*
X006548Y018233D01*
X006608Y018155D01*
X006665Y018075D01*
X006717Y017992D01*
X006766Y017907D01*
X006810Y017819D01*
X006850Y017729D01*
X006885Y017638D01*
X006916Y017545D01*
X006942Y017450D01*
X006964Y017354D01*
X006980Y017257D01*
X006992Y017160D01*
X007000Y017062D01*
X007002Y016964D01*
X007000Y016866D01*
X006992Y016768D01*
X006980Y016671D01*
X006964Y016574D01*
X006942Y016478D01*
X006916Y016383D01*
X006885Y016290D01*
X006850Y016199D01*
X006810Y016109D01*
X006766Y016021D01*
X006717Y015936D01*
X006665Y015853D01*
X006608Y015773D01*
X006548Y015695D01*
X006484Y015621D01*
X006416Y015550D01*
X006345Y015482D01*
X006271Y015418D01*
X006193Y015358D01*
X006113Y015301D01*
X006030Y015249D01*
X005945Y015200D01*
X005857Y015156D01*
X005767Y015116D01*
X005676Y015081D01*
X005583Y015050D01*
X005488Y015024D01*
X005392Y015002D01*
X005295Y014986D01*
X005198Y014974D01*
X005100Y014966D01*
X005002Y014964D01*
X004904Y014966D01*
X004806Y014974D01*
X004709Y014986D01*
X004612Y015002D01*
X004516Y015024D01*
X004421Y015050D01*
X004328Y015081D01*
X004237Y015116D01*
X004147Y015156D01*
X004059Y015200D01*
X003974Y015249D01*
X003891Y015301D01*
X003811Y015358D01*
X003733Y015418D01*
X003659Y015482D01*
X003588Y015550D01*
X003520Y015621D01*
X003456Y015695D01*
X003396Y015773D01*
X003339Y015853D01*
X003287Y015936D01*
X003238Y016021D01*
X003194Y016109D01*
X003154Y016199D01*
X003119Y016290D01*
X003088Y016383D01*
X003062Y016478D01*
X003040Y016574D01*
X003024Y016671D01*
X003012Y016768D01*
X003004Y016866D01*
X003002Y016964D01*
X004352Y016964D02*
X004552Y016964D01*
X004752Y016964D01*
X005352Y016964D02*
X005452Y016964D01*
X005652Y016964D01*
X006352Y016464D02*
X006652Y016464D01*
X006502Y016314D02*
X006502Y016614D01*
X008689Y017176D02*
X008691Y017207D01*
X008697Y017238D01*
X008707Y017268D01*
X008720Y017296D01*
X008737Y017323D01*
X008757Y017347D01*
X008780Y017369D01*
X008805Y017387D01*
X008833Y017402D01*
X008862Y017414D01*
X008892Y017422D01*
X008923Y017426D01*
X008955Y017426D01*
X008986Y017422D01*
X009016Y017414D01*
X009045Y017402D01*
X009073Y017387D01*
X009098Y017369D01*
X009121Y017347D01*
X009141Y017323D01*
X009158Y017296D01*
X009171Y017268D01*
X009181Y017238D01*
X009187Y017207D01*
X009189Y017176D01*
X009187Y017145D01*
X009181Y017114D01*
X009171Y017084D01*
X009158Y017056D01*
X009141Y017029D01*
X009121Y017005D01*
X009098Y016983D01*
X009073Y016965D01*
X009045Y016950D01*
X009016Y016938D01*
X008986Y016930D01*
X008955Y016926D01*
X008923Y016926D01*
X008892Y016930D01*
X008862Y016938D01*
X008833Y016950D01*
X008805Y016965D01*
X008780Y016983D01*
X008757Y017005D01*
X008737Y017029D01*
X008720Y017056D01*
X008707Y017084D01*
X008697Y017114D01*
X008691Y017145D01*
X008689Y017176D01*
X009814Y016101D02*
X011214Y016101D01*
X011214Y013101D01*
X009814Y013101D01*
X009814Y016101D01*
X007714Y013870D02*
X007464Y013870D01*
X007464Y012970D01*
X007714Y012970D01*
X007714Y013420D01*
X007714Y013870D01*
X007714Y013420D02*
X007814Y013420D01*
X008014Y013420D01*
X005364Y013420D02*
X005366Y013518D01*
X005374Y013616D01*
X005386Y013713D01*
X005402Y013810D01*
X005424Y013906D01*
X005450Y014001D01*
X005481Y014094D01*
X005516Y014185D01*
X005556Y014275D01*
X005600Y014363D01*
X005649Y014448D01*
X005701Y014531D01*
X005758Y014611D01*
X005818Y014689D01*
X005882Y014763D01*
X005950Y014834D01*
X006021Y014902D01*
X006095Y014966D01*
X006173Y015026D01*
X006253Y015083D01*
X006336Y015135D01*
X006421Y015184D01*
X006509Y015228D01*
X006599Y015268D01*
X006690Y015303D01*
X006783Y015334D01*
X006878Y015360D01*
X006974Y015382D01*
X007071Y015398D01*
X007168Y015410D01*
X007266Y015418D01*
X007364Y015420D01*
X007462Y015418D01*
X007560Y015410D01*
X007657Y015398D01*
X007754Y015382D01*
X007850Y015360D01*
X007945Y015334D01*
X008038Y015303D01*
X008129Y015268D01*
X008219Y015228D01*
X008307Y015184D01*
X008392Y015135D01*
X008475Y015083D01*
X008555Y015026D01*
X008633Y014966D01*
X008707Y014902D01*
X008778Y014834D01*
X008846Y014763D01*
X008910Y014689D01*
X008970Y014611D01*
X009027Y014531D01*
X009079Y014448D01*
X009128Y014363D01*
X009172Y014275D01*
X009212Y014185D01*
X009247Y014094D01*
X009278Y014001D01*
X009304Y013906D01*
X009326Y013810D01*
X009342Y013713D01*
X009354Y013616D01*
X009362Y013518D01*
X009364Y013420D01*
X009362Y013322D01*
X009354Y013224D01*
X009342Y013127D01*
X009326Y013030D01*
X009304Y012934D01*
X009278Y012839D01*
X009247Y012746D01*
X009212Y012655D01*
X009172Y012565D01*
X009128Y012477D01*
X009079Y012392D01*
X009027Y012309D01*
X008970Y012229D01*
X008910Y012151D01*
X008846Y012077D01*
X008778Y012006D01*
X008707Y011938D01*
X008633Y011874D01*
X008555Y011814D01*
X008475Y011757D01*
X008392Y011705D01*
X008307Y011656D01*
X008219Y011612D01*
X008129Y011572D01*
X008038Y011537D01*
X007945Y011506D01*
X007850Y011480D01*
X007754Y011458D01*
X007657Y011442D01*
X007560Y011430D01*
X007462Y011422D01*
X007364Y011420D01*
X007266Y011422D01*
X007168Y011430D01*
X007071Y011442D01*
X006974Y011458D01*
X006878Y011480D01*
X006783Y011506D01*
X006690Y011537D01*
X006599Y011572D01*
X006509Y011612D01*
X006421Y011656D01*
X006336Y011705D01*
X006253Y011757D01*
X006173Y011814D01*
X006095Y011874D01*
X006021Y011938D01*
X005950Y012006D01*
X005882Y012077D01*
X005818Y012151D01*
X005758Y012229D01*
X005701Y012309D01*
X005649Y012392D01*
X005600Y012477D01*
X005556Y012565D01*
X005516Y012655D01*
X005481Y012746D01*
X005450Y012839D01*
X005424Y012934D01*
X005402Y013030D01*
X005386Y013127D01*
X005374Y013224D01*
X005366Y013322D01*
X005364Y013420D01*
X006714Y013420D02*
X006914Y013420D01*
X007114Y013420D01*
X008714Y012920D02*
X009014Y012920D01*
X008864Y012770D02*
X008864Y013070D01*
X008876Y010052D02*
X016876Y010052D01*
X016876Y005052D01*
X008876Y005052D01*
X009157Y005921D01*
X009173Y005951D01*
X009192Y005979D01*
X009214Y006005D01*
X009239Y006028D01*
X009266Y006048D01*
X009295Y006065D01*
X009326Y006079D01*
X009358Y006089D01*
X009392Y006095D01*
X009425Y006098D01*
X009459Y006097D01*
X009493Y006092D01*
X009525Y006083D01*
X009557Y006071D01*
X009557Y009221D01*
X012757Y009221D01*
X012757Y006071D01*
X012407Y006071D01*
X012407Y006171D01*
X012607Y006171D01*
X012607Y009071D01*
X009707Y009071D01*
X009707Y006171D01*
X009907Y006171D01*
X012407Y006171D01*
X012998Y006071D02*
X012998Y009221D01*
X016198Y009221D01*
X016198Y006071D01*
X015848Y006071D01*
X015848Y006171D01*
X016048Y006171D01*
X016048Y009071D01*
X013148Y009071D01*
X013148Y006171D01*
X013347Y006171D01*
X015848Y006171D01*
X016198Y006071D02*
X016221Y006069D01*
X016244Y006064D01*
X016266Y006055D01*
X016286Y006042D01*
X016304Y006027D01*
X016319Y006009D01*
X016332Y005989D01*
X016341Y005967D01*
X016346Y005944D01*
X016348Y005921D01*
X016376Y005802D01*
X016876Y005052D01*
X013247Y007621D02*
X013249Y007694D01*
X013255Y007767D01*
X013265Y007839D01*
X013279Y007911D01*
X013296Y007982D01*
X013318Y008052D01*
X013343Y008121D01*
X013372Y008188D01*
X013404Y008253D01*
X013440Y008317D01*
X013480Y008379D01*
X013522Y008438D01*
X013568Y008495D01*
X013617Y008549D01*
X013669Y008601D01*
X013723Y008650D01*
X013780Y008696D01*
X013839Y008738D01*
X013901Y008778D01*
X013965Y008814D01*
X014030Y008846D01*
X014097Y008875D01*
X014166Y008900D01*
X014236Y008922D01*
X014307Y008939D01*
X014379Y008953D01*
X014451Y008963D01*
X014524Y008969D01*
X014597Y008971D01*
X014670Y008969D01*
X014743Y008963D01*
X014815Y008953D01*
X014887Y008939D01*
X014958Y008922D01*
X015028Y008900D01*
X015097Y008875D01*
X015164Y008846D01*
X015229Y008814D01*
X015293Y008778D01*
X015355Y008738D01*
X015414Y008696D01*
X015471Y008650D01*
X015525Y008601D01*
X015577Y008549D01*
X015626Y008495D01*
X015672Y008438D01*
X015714Y008379D01*
X015754Y008317D01*
X015790Y008253D01*
X015822Y008188D01*
X015851Y008121D01*
X015876Y008052D01*
X015898Y007982D01*
X015915Y007911D01*
X015929Y007839D01*
X015939Y007767D01*
X015945Y007694D01*
X015947Y007621D01*
X015945Y007548D01*
X015939Y007475D01*
X015929Y007403D01*
X015915Y007331D01*
X015898Y007260D01*
X015876Y007190D01*
X015851Y007121D01*
X015822Y007054D01*
X015790Y006989D01*
X015754Y006925D01*
X015714Y006863D01*
X015672Y006804D01*
X015626Y006747D01*
X015577Y006693D01*
X015525Y006641D01*
X015471Y006592D01*
X015414Y006546D01*
X015355Y006504D01*
X015293Y006464D01*
X015229Y006428D01*
X015164Y006396D01*
X015097Y006367D01*
X015028Y006342D01*
X014958Y006320D01*
X014887Y006303D01*
X014815Y006289D01*
X014743Y006279D01*
X014670Y006273D01*
X014597Y006271D01*
X014524Y006273D01*
X014451Y006279D01*
X014379Y006289D01*
X014307Y006303D01*
X014236Y006320D01*
X014166Y006342D01*
X014097Y006367D01*
X014030Y006396D01*
X013965Y006428D01*
X013901Y006464D01*
X013839Y006504D01*
X013780Y006546D01*
X013723Y006592D01*
X013669Y006641D01*
X013617Y006693D01*
X013568Y006747D01*
X013522Y006804D01*
X013480Y006863D01*
X013440Y006925D01*
X013404Y006989D01*
X013372Y007054D01*
X013343Y007121D01*
X013318Y007190D01*
X013296Y007260D01*
X013279Y007331D01*
X013265Y007403D01*
X013255Y007475D01*
X013249Y007548D01*
X013247Y007621D01*
X013547Y006771D02*
X015448Y008671D01*
X015648Y008471D02*
X013747Y006571D01*
X013347Y006171D02*
X013347Y006071D01*
X012998Y006071D01*
X009807Y007621D02*
X009809Y007694D01*
X009815Y007767D01*
X009825Y007839D01*
X009839Y007911D01*
X009856Y007982D01*
X009878Y008052D01*
X009903Y008121D01*
X009932Y008188D01*
X009964Y008253D01*
X010000Y008317D01*
X010040Y008379D01*
X010082Y008438D01*
X010128Y008495D01*
X010177Y008549D01*
X010229Y008601D01*
X010283Y008650D01*
X010340Y008696D01*
X010399Y008738D01*
X010461Y008778D01*
X010525Y008814D01*
X010590Y008846D01*
X010657Y008875D01*
X010726Y008900D01*
X010796Y008922D01*
X010867Y008939D01*
X010939Y008953D01*
X011011Y008963D01*
X011084Y008969D01*
X011157Y008971D01*
X011230Y008969D01*
X011303Y008963D01*
X011375Y008953D01*
X011447Y008939D01*
X011518Y008922D01*
X011588Y008900D01*
X011657Y008875D01*
X011724Y008846D01*
X011789Y008814D01*
X011853Y008778D01*
X011915Y008738D01*
X011974Y008696D01*
X012031Y008650D01*
X012085Y008601D01*
X012137Y008549D01*
X012186Y008495D01*
X012232Y008438D01*
X012274Y008379D01*
X012314Y008317D01*
X012350Y008253D01*
X012382Y008188D01*
X012411Y008121D01*
X012436Y008052D01*
X012458Y007982D01*
X012475Y007911D01*
X012489Y007839D01*
X012499Y007767D01*
X012505Y007694D01*
X012507Y007621D01*
X012505Y007548D01*
X012499Y007475D01*
X012489Y007403D01*
X012475Y007331D01*
X012458Y007260D01*
X012436Y007190D01*
X012411Y007121D01*
X012382Y007054D01*
X012350Y006989D01*
X012314Y006925D01*
X012274Y006863D01*
X012232Y006804D01*
X012186Y006747D01*
X012137Y006693D01*
X012085Y006641D01*
X012031Y006592D01*
X011974Y006546D01*
X011915Y006504D01*
X011853Y006464D01*
X011789Y006428D01*
X011724Y006396D01*
X011657Y006367D01*
X011588Y006342D01*
X011518Y006320D01*
X011447Y006303D01*
X011375Y006289D01*
X011303Y006279D01*
X011230Y006273D01*
X011157Y006271D01*
X011084Y006273D01*
X011011Y006279D01*
X010939Y006289D01*
X010867Y006303D01*
X010796Y006320D01*
X010726Y006342D01*
X010657Y006367D01*
X010590Y006396D01*
X010525Y006428D01*
X010461Y006464D01*
X010399Y006504D01*
X010340Y006546D01*
X010283Y006592D01*
X010229Y006641D01*
X010177Y006693D01*
X010128Y006747D01*
X010082Y006804D01*
X010040Y006863D01*
X010000Y006925D01*
X009964Y006989D01*
X009932Y007054D01*
X009903Y007121D01*
X009878Y007190D01*
X009856Y007260D01*
X009839Y007331D01*
X009825Y007403D01*
X009815Y007475D01*
X009809Y007548D01*
X009807Y007621D01*
X010107Y006771D02*
X012007Y008671D01*
X012207Y008471D02*
X010307Y006571D01*
X009907Y006171D02*
X009907Y006071D01*
X009557Y006071D01*
X008876Y005052D02*
X008876Y010052D01*
X017422Y017431D02*
X018177Y017431D01*
X018177Y018071D02*
X017422Y018071D01*
X019391Y018415D02*
X020146Y018415D01*
X020146Y019055D02*
X019391Y019055D01*
X017526Y020201D02*
X017526Y021601D01*
X014526Y021601D01*
X014526Y020201D01*
X017526Y020201D01*
X019569Y023400D02*
X019569Y023600D01*
X019569Y023800D01*
X017569Y024050D02*
X017571Y024148D01*
X017579Y024246D01*
X017591Y024343D01*
X017607Y024440D01*
X017629Y024536D01*
X017655Y024631D01*
X017686Y024724D01*
X017721Y024815D01*
X017761Y024905D01*
X017805Y024993D01*
X017854Y025078D01*
X017906Y025161D01*
X017963Y025241D01*
X018023Y025319D01*
X018087Y025393D01*
X018155Y025464D01*
X018226Y025532D01*
X018300Y025596D01*
X018378Y025656D01*
X018458Y025713D01*
X018541Y025765D01*
X018626Y025814D01*
X018714Y025858D01*
X018804Y025898D01*
X018895Y025933D01*
X018988Y025964D01*
X019083Y025990D01*
X019179Y026012D01*
X019276Y026028D01*
X019373Y026040D01*
X019471Y026048D01*
X019569Y026050D01*
X019667Y026048D01*
X019765Y026040D01*
X019862Y026028D01*
X019959Y026012D01*
X020055Y025990D01*
X020150Y025964D01*
X020243Y025933D01*
X020334Y025898D01*
X020424Y025858D01*
X020512Y025814D01*
X020597Y025765D01*
X020680Y025713D01*
X020760Y025656D01*
X020838Y025596D01*
X020912Y025532D01*
X020983Y025464D01*
X021051Y025393D01*
X021115Y025319D01*
X021175Y025241D01*
X021232Y025161D01*
X021284Y025078D01*
X021333Y024993D01*
X021377Y024905D01*
X021417Y024815D01*
X021452Y024724D01*
X021483Y024631D01*
X021509Y024536D01*
X021531Y024440D01*
X021547Y024343D01*
X021559Y024246D01*
X021567Y024148D01*
X021569Y024050D01*
X021567Y023952D01*
X021559Y023854D01*
X021547Y023757D01*
X021531Y023660D01*
X021509Y023564D01*
X021483Y023469D01*
X021452Y023376D01*
X021417Y023285D01*
X021377Y023195D01*
X021333Y023107D01*
X021284Y023022D01*
X021232Y022939D01*
X021175Y022859D01*
X021115Y022781D01*
X021051Y022707D01*
X020983Y022636D01*
X020912Y022568D01*
X020838Y022504D01*
X020760Y022444D01*
X020680Y022387D01*
X020597Y022335D01*
X020512Y022286D01*
X020424Y022242D01*
X020334Y022202D01*
X020243Y022167D01*
X020150Y022136D01*
X020055Y022110D01*
X019959Y022088D01*
X019862Y022072D01*
X019765Y022060D01*
X019667Y022052D01*
X019569Y022050D01*
X019471Y022052D01*
X019373Y022060D01*
X019276Y022072D01*
X019179Y022088D01*
X019083Y022110D01*
X018988Y022136D01*
X018895Y022167D01*
X018804Y022202D01*
X018714Y022242D01*
X018626Y022286D01*
X018541Y022335D01*
X018458Y022387D01*
X018378Y022444D01*
X018300Y022504D01*
X018226Y022568D01*
X018155Y022636D01*
X018087Y022707D01*
X018023Y022781D01*
X017963Y022859D01*
X017906Y022939D01*
X017854Y023022D01*
X017805Y023107D01*
X017761Y023195D01*
X017721Y023285D01*
X017686Y023376D01*
X017655Y023469D01*
X017629Y023564D01*
X017607Y023660D01*
X017591Y023757D01*
X017579Y023854D01*
X017571Y023952D01*
X017569Y024050D01*
X019119Y024150D02*
X020019Y024150D01*
X020019Y024400D01*
X019569Y024400D01*
X019119Y024400D01*
X019119Y024150D01*
X019569Y024400D02*
X019569Y024500D01*
X019569Y024700D01*
X020069Y025400D02*
X020069Y025700D01*
X020219Y025550D02*
X019919Y025550D01*
X021359Y026289D02*
X022114Y026289D01*
X022114Y026929D02*
X021359Y026929D01*
X024250Y025550D02*
X024550Y025550D01*
X024400Y025400D02*
X024400Y025700D01*
X023900Y024700D02*
X023900Y024500D01*
X023900Y024400D01*
X024350Y024400D01*
X024350Y024150D01*
X023450Y024150D01*
X023450Y024400D01*
X023900Y024400D01*
X021900Y024050D02*
X021902Y024148D01*
X021910Y024246D01*
X021922Y024343D01*
X021938Y024440D01*
X021960Y024536D01*
X021986Y024631D01*
X022017Y024724D01*
X022052Y024815D01*
X022092Y024905D01*
X022136Y024993D01*
X022185Y025078D01*
X022237Y025161D01*
X022294Y025241D01*
X022354Y025319D01*
X022418Y025393D01*
X022486Y025464D01*
X022557Y025532D01*
X022631Y025596D01*
X022709Y025656D01*
X022789Y025713D01*
X022872Y025765D01*
X022957Y025814D01*
X023045Y025858D01*
X023135Y025898D01*
X023226Y025933D01*
X023319Y025964D01*
X023414Y025990D01*
X023510Y026012D01*
X023607Y026028D01*
X023704Y026040D01*
X023802Y026048D01*
X023900Y026050D01*
X023998Y026048D01*
X024096Y026040D01*
X024193Y026028D01*
X024290Y026012D01*
X024386Y025990D01*
X024481Y025964D01*
X024574Y025933D01*
X024665Y025898D01*
X024755Y025858D01*
X024843Y025814D01*
X024928Y025765D01*
X025011Y025713D01*
X025091Y025656D01*
X025169Y025596D01*
X025243Y025532D01*
X025314Y025464D01*
X025382Y025393D01*
X025446Y025319D01*
X025506Y025241D01*
X025563Y025161D01*
X025615Y025078D01*
X025664Y024993D01*
X025708Y024905D01*
X025748Y024815D01*
X025783Y024724D01*
X025814Y024631D01*
X025840Y024536D01*
X025862Y024440D01*
X025878Y024343D01*
X025890Y024246D01*
X025898Y024148D01*
X025900Y024050D01*
X025898Y023952D01*
X025890Y023854D01*
X025878Y023757D01*
X025862Y023660D01*
X025840Y023564D01*
X025814Y023469D01*
X025783Y023376D01*
X025748Y023285D01*
X025708Y023195D01*
X025664Y023107D01*
X025615Y023022D01*
X025563Y022939D01*
X025506Y022859D01*
X025446Y022781D01*
X025382Y022707D01*
X025314Y022636D01*
X025243Y022568D01*
X025169Y022504D01*
X025091Y022444D01*
X025011Y022387D01*
X024928Y022335D01*
X024843Y022286D01*
X024755Y022242D01*
X024665Y022202D01*
X024574Y022167D01*
X024481Y022136D01*
X024386Y022110D01*
X024290Y022088D01*
X024193Y022072D01*
X024096Y022060D01*
X023998Y022052D01*
X023900Y022050D01*
X023802Y022052D01*
X023704Y022060D01*
X023607Y022072D01*
X023510Y022088D01*
X023414Y022110D01*
X023319Y022136D01*
X023226Y022167D01*
X023135Y022202D01*
X023045Y022242D01*
X022957Y022286D01*
X022872Y022335D01*
X022789Y022387D01*
X022709Y022444D01*
X022631Y022504D01*
X022557Y022568D01*
X022486Y022636D01*
X022418Y022707D01*
X022354Y022781D01*
X022294Y022859D01*
X022237Y022939D01*
X022185Y023022D01*
X022136Y023107D01*
X022092Y023195D01*
X022052Y023285D01*
X022017Y023376D01*
X021986Y023469D01*
X021960Y023564D01*
X021938Y023660D01*
X021922Y023757D01*
X021910Y023854D01*
X021902Y023952D01*
X021900Y024050D01*
X023900Y023800D02*
X023900Y023600D01*
X023900Y023400D01*
X025690Y021614D02*
X026445Y021614D01*
X026445Y020974D02*
X025690Y020974D01*
X028230Y023400D02*
X028230Y023600D01*
X028230Y023800D01*
X026230Y024050D02*
X026232Y024148D01*
X026240Y024246D01*
X026252Y024343D01*
X026268Y024440D01*
X026290Y024536D01*
X026316Y024631D01*
X026347Y024724D01*
X026382Y024815D01*
X026422Y024905D01*
X026466Y024993D01*
X026515Y025078D01*
X026567Y025161D01*
X026624Y025241D01*
X026684Y025319D01*
X026748Y025393D01*
X026816Y025464D01*
X026887Y025532D01*
X026961Y025596D01*
X027039Y025656D01*
X027119Y025713D01*
X027202Y025765D01*
X027287Y025814D01*
X027375Y025858D01*
X027465Y025898D01*
X027556Y025933D01*
X027649Y025964D01*
X027744Y025990D01*
X027840Y026012D01*
X027937Y026028D01*
X028034Y026040D01*
X028132Y026048D01*
X028230Y026050D01*
X028328Y026048D01*
X028426Y026040D01*
X028523Y026028D01*
X028620Y026012D01*
X028716Y025990D01*
X028811Y025964D01*
X028904Y025933D01*
X028995Y025898D01*
X029085Y025858D01*
X029173Y025814D01*
X029258Y025765D01*
X029341Y025713D01*
X029421Y025656D01*
X029499Y025596D01*
X029573Y025532D01*
X029644Y025464D01*
X029712Y025393D01*
X029776Y025319D01*
X029836Y025241D01*
X029893Y025161D01*
X029945Y025078D01*
X029994Y024993D01*
X030038Y024905D01*
X030078Y024815D01*
X030113Y024724D01*
X030144Y024631D01*
X030170Y024536D01*
X030192Y024440D01*
X030208Y024343D01*
X030220Y024246D01*
X030228Y024148D01*
X030230Y024050D01*
X030228Y023952D01*
X030220Y023854D01*
X030208Y023757D01*
X030192Y023660D01*
X030170Y023564D01*
X030144Y023469D01*
X030113Y023376D01*
X030078Y023285D01*
X030038Y023195D01*
X029994Y023107D01*
X029945Y023022D01*
X029893Y022939D01*
X029836Y022859D01*
X029776Y022781D01*
X029712Y022707D01*
X029644Y022636D01*
X029573Y022568D01*
X029499Y022504D01*
X029421Y022444D01*
X029341Y022387D01*
X029258Y022335D01*
X029173Y022286D01*
X029085Y022242D01*
X028995Y022202D01*
X028904Y022167D01*
X028811Y022136D01*
X028716Y022110D01*
X028620Y022088D01*
X028523Y022072D01*
X028426Y022060D01*
X028328Y022052D01*
X028230Y022050D01*
X028132Y022052D01*
X028034Y022060D01*
X027937Y022072D01*
X027840Y022088D01*
X027744Y022110D01*
X027649Y022136D01*
X027556Y022167D01*
X027465Y022202D01*
X027375Y022242D01*
X027287Y022286D01*
X027202Y022335D01*
X027119Y022387D01*
X027039Y022444D01*
X026961Y022504D01*
X026887Y022568D01*
X026816Y022636D01*
X026748Y022707D01*
X026684Y022781D01*
X026624Y022859D01*
X026567Y022939D01*
X026515Y023022D01*
X026466Y023107D01*
X026422Y023195D01*
X026382Y023285D01*
X026347Y023376D01*
X026316Y023469D01*
X026290Y023564D01*
X026268Y023660D01*
X026252Y023757D01*
X026240Y023854D01*
X026232Y023952D01*
X026230Y024050D01*
X027780Y024150D02*
X028680Y024150D01*
X028680Y024400D01*
X028230Y024400D01*
X027780Y024400D01*
X027780Y024150D01*
X028230Y024400D02*
X028230Y024500D01*
X028230Y024700D01*
X028730Y025400D02*
X028730Y025700D01*
X028880Y025550D02*
X028580Y025550D01*
X028413Y026289D02*
X027658Y026289D01*
X027658Y026929D02*
X028413Y026929D01*
X032111Y024400D02*
X032111Y024150D01*
X033011Y024150D01*
X033011Y024400D01*
X032561Y024400D01*
X032111Y024400D01*
X032561Y024400D02*
X032561Y024500D01*
X032561Y024700D01*
X030561Y024050D02*
X030563Y024148D01*
X030571Y024246D01*
X030583Y024343D01*
X030599Y024440D01*
X030621Y024536D01*
X030647Y024631D01*
X030678Y024724D01*
X030713Y024815D01*
X030753Y024905D01*
X030797Y024993D01*
X030846Y025078D01*
X030898Y025161D01*
X030955Y025241D01*
X031015Y025319D01*
X031079Y025393D01*
X031147Y025464D01*
X031218Y025532D01*
X031292Y025596D01*
X031370Y025656D01*
X031450Y025713D01*
X031533Y025765D01*
X031618Y025814D01*
X031706Y025858D01*
X031796Y025898D01*
X031887Y025933D01*
X031980Y025964D01*
X032075Y025990D01*
X032171Y026012D01*
X032268Y026028D01*
X032365Y026040D01*
X032463Y026048D01*
X032561Y026050D01*
X032659Y026048D01*
X032757Y026040D01*
X032854Y026028D01*
X032951Y026012D01*
X033047Y025990D01*
X033142Y025964D01*
X033235Y025933D01*
X033326Y025898D01*
X033416Y025858D01*
X033504Y025814D01*
X033589Y025765D01*
X033672Y025713D01*
X033752Y025656D01*
X033830Y025596D01*
X033904Y025532D01*
X033975Y025464D01*
X034043Y025393D01*
X034107Y025319D01*
X034167Y025241D01*
X034224Y025161D01*
X034276Y025078D01*
X034325Y024993D01*
X034369Y024905D01*
X034409Y024815D01*
X034444Y024724D01*
X034475Y024631D01*
X034501Y024536D01*
X034523Y024440D01*
X034539Y024343D01*
X034551Y024246D01*
X034559Y024148D01*
X034561Y024050D01*
X034559Y023952D01*
X034551Y023854D01*
X034539Y023757D01*
X034523Y023660D01*
X034501Y023564D01*
X034475Y023469D01*
X034444Y023376D01*
X034409Y023285D01*
X034369Y023195D01*
X034325Y023107D01*
X034276Y023022D01*
X034224Y022939D01*
X034167Y022859D01*
X034107Y022781D01*
X034043Y022707D01*
X033975Y022636D01*
X033904Y022568D01*
X033830Y022504D01*
X033752Y022444D01*
X033672Y022387D01*
X033589Y022335D01*
X033504Y022286D01*
X033416Y022242D01*
X033326Y022202D01*
X033235Y022167D01*
X033142Y022136D01*
X033047Y022110D01*
X032951Y022088D01*
X032854Y022072D01*
X032757Y022060D01*
X032659Y022052D01*
X032561Y022050D01*
X032463Y022052D01*
X032365Y022060D01*
X032268Y022072D01*
X032171Y022088D01*
X032075Y022110D01*
X031980Y022136D01*
X031887Y022167D01*
X031796Y022202D01*
X031706Y022242D01*
X031618Y022286D01*
X031533Y022335D01*
X031450Y022387D01*
X031370Y022444D01*
X031292Y022504D01*
X031218Y022568D01*
X031147Y022636D01*
X031079Y022707D01*
X031015Y022781D01*
X030955Y022859D01*
X030898Y022939D01*
X030846Y023022D01*
X030797Y023107D01*
X030753Y023195D01*
X030713Y023285D01*
X030678Y023376D01*
X030647Y023469D01*
X030621Y023564D01*
X030599Y023660D01*
X030583Y023757D01*
X030571Y023854D01*
X030563Y023952D01*
X030561Y024050D01*
X032561Y023800D02*
X032561Y023600D01*
X032561Y023400D01*
X031563Y021614D02*
X030808Y021614D01*
X030808Y020974D02*
X031563Y020974D01*
X036320Y020974D02*
X037075Y020974D01*
X037075Y021614D02*
X036320Y021614D01*
X036892Y023400D02*
X036892Y023600D01*
X036892Y023800D01*
X034892Y024050D02*
X034894Y024148D01*
X034902Y024246D01*
X034914Y024343D01*
X034930Y024440D01*
X034952Y024536D01*
X034978Y024631D01*
X035009Y024724D01*
X035044Y024815D01*
X035084Y024905D01*
X035128Y024993D01*
X035177Y025078D01*
X035229Y025161D01*
X035286Y025241D01*
X035346Y025319D01*
X035410Y025393D01*
X035478Y025464D01*
X035549Y025532D01*
X035623Y025596D01*
X035701Y025656D01*
X035781Y025713D01*
X035864Y025765D01*
X035949Y025814D01*
X036037Y025858D01*
X036127Y025898D01*
X036218Y025933D01*
X036311Y025964D01*
X036406Y025990D01*
X036502Y026012D01*
X036599Y026028D01*
X036696Y026040D01*
X036794Y026048D01*
X036892Y026050D01*
X036990Y026048D01*
X037088Y026040D01*
X037185Y026028D01*
X037282Y026012D01*
X037378Y025990D01*
X037473Y025964D01*
X037566Y025933D01*
X037657Y025898D01*
X037747Y025858D01*
X037835Y025814D01*
X037920Y025765D01*
X038003Y025713D01*
X038083Y025656D01*
X038161Y025596D01*
X038235Y025532D01*
X038306Y025464D01*
X038374Y025393D01*
X038438Y025319D01*
X038498Y025241D01*
X038555Y025161D01*
X038607Y025078D01*
X038656Y024993D01*
X038700Y024905D01*
X038740Y024815D01*
X038775Y024724D01*
X038806Y024631D01*
X038832Y024536D01*
X038854Y024440D01*
X038870Y024343D01*
X038882Y024246D01*
X038890Y024148D01*
X038892Y024050D01*
X038890Y023952D01*
X038882Y023854D01*
X038870Y023757D01*
X038854Y023660D01*
X038832Y023564D01*
X038806Y023469D01*
X038775Y023376D01*
X038740Y023285D01*
X038700Y023195D01*
X038656Y023107D01*
X038607Y023022D01*
X038555Y022939D01*
X038498Y022859D01*
X038438Y022781D01*
X038374Y022707D01*
X038306Y022636D01*
X038235Y022568D01*
X038161Y022504D01*
X038083Y022444D01*
X038003Y022387D01*
X037920Y022335D01*
X037835Y022286D01*
X037747Y022242D01*
X037657Y022202D01*
X037566Y022167D01*
X037473Y022136D01*
X037378Y022110D01*
X037282Y022088D01*
X037185Y022072D01*
X037088Y022060D01*
X036990Y022052D01*
X036892Y022050D01*
X036794Y022052D01*
X036696Y022060D01*
X036599Y022072D01*
X036502Y022088D01*
X036406Y022110D01*
X036311Y022136D01*
X036218Y022167D01*
X036127Y022202D01*
X036037Y022242D01*
X035949Y022286D01*
X035864Y022335D01*
X035781Y022387D01*
X035701Y022444D01*
X035623Y022504D01*
X035549Y022568D01*
X035478Y022636D01*
X035410Y022707D01*
X035346Y022781D01*
X035286Y022859D01*
X035229Y022939D01*
X035177Y023022D01*
X035128Y023107D01*
X035084Y023195D01*
X035044Y023285D01*
X035009Y023376D01*
X034978Y023469D01*
X034952Y023564D01*
X034930Y023660D01*
X034914Y023757D01*
X034902Y023854D01*
X034894Y023952D01*
X034892Y024050D01*
X036442Y024150D02*
X037342Y024150D01*
X037342Y024400D01*
X036892Y024400D01*
X036442Y024400D01*
X036442Y024150D01*
X036892Y024400D02*
X036892Y024500D01*
X036892Y024700D01*
X037392Y025400D02*
X037392Y025700D01*
X037542Y025550D02*
X037242Y025550D01*
X034713Y026289D02*
X033958Y026289D01*
X033061Y025700D02*
X033061Y025400D01*
X033211Y025550D02*
X032911Y025550D01*
X033958Y026929D02*
X034713Y026929D01*
X040257Y026929D02*
X041012Y026929D01*
X041012Y026289D02*
X040257Y026289D01*
X041572Y025550D02*
X041872Y025550D01*
X041722Y025400D02*
X041722Y025700D01*
X041222Y024700D02*
X041222Y024500D01*
X041222Y024400D01*
X041672Y024400D01*
X041672Y024150D01*
X040772Y024150D01*
X040772Y024400D01*
X041222Y024400D01*
X039222Y024050D02*
X039224Y024148D01*
X039232Y024246D01*
X039244Y024343D01*
X039260Y024440D01*
X039282Y024536D01*
X039308Y024631D01*
X039339Y024724D01*
X039374Y024815D01*
X039414Y024905D01*
X039458Y024993D01*
X039507Y025078D01*
X039559Y025161D01*
X039616Y025241D01*
X039676Y025319D01*
X039740Y025393D01*
X039808Y025464D01*
X039879Y025532D01*
X039953Y025596D01*
X040031Y025656D01*
X040111Y025713D01*
X040194Y025765D01*
X040279Y025814D01*
X040367Y025858D01*
X040457Y025898D01*
X040548Y025933D01*
X040641Y025964D01*
X040736Y025990D01*
X040832Y026012D01*
X040929Y026028D01*
X041026Y026040D01*
X041124Y026048D01*
X041222Y026050D01*
X041320Y026048D01*
X041418Y026040D01*
X041515Y026028D01*
X041612Y026012D01*
X041708Y025990D01*
X041803Y025964D01*
X041896Y025933D01*
X041987Y025898D01*
X042077Y025858D01*
X042165Y025814D01*
X042250Y025765D01*
X042333Y025713D01*
X042413Y025656D01*
X042491Y025596D01*
X042565Y025532D01*
X042636Y025464D01*
X042704Y025393D01*
X042768Y025319D01*
X042828Y025241D01*
X042885Y025161D01*
X042937Y025078D01*
X042986Y024993D01*
X043030Y024905D01*
X043070Y024815D01*
X043105Y024724D01*
X043136Y024631D01*
X043162Y024536D01*
X043184Y024440D01*
X043200Y024343D01*
X043212Y024246D01*
X043220Y024148D01*
X043222Y024050D01*
X043220Y023952D01*
X043212Y023854D01*
X043200Y023757D01*
X043184Y023660D01*
X043162Y023564D01*
X043136Y023469D01*
X043105Y023376D01*
X043070Y023285D01*
X043030Y023195D01*
X042986Y023107D01*
X042937Y023022D01*
X042885Y022939D01*
X042828Y022859D01*
X042768Y022781D01*
X042704Y022707D01*
X042636Y022636D01*
X042565Y022568D01*
X042491Y022504D01*
X042413Y022444D01*
X042333Y022387D01*
X042250Y022335D01*
X042165Y022286D01*
X042077Y022242D01*
X041987Y022202D01*
X041896Y022167D01*
X041803Y022136D01*
X041708Y022110D01*
X041612Y022088D01*
X041515Y022072D01*
X041418Y022060D01*
X041320Y022052D01*
X041222Y022050D01*
X041124Y022052D01*
X041026Y022060D01*
X040929Y022072D01*
X040832Y022088D01*
X040736Y022110D01*
X040641Y022136D01*
X040548Y022167D01*
X040457Y022202D01*
X040367Y022242D01*
X040279Y022286D01*
X040194Y022335D01*
X040111Y022387D01*
X040031Y022444D01*
X039953Y022504D01*
X039879Y022568D01*
X039808Y022636D01*
X039740Y022707D01*
X039676Y022781D01*
X039616Y022859D01*
X039559Y022939D01*
X039507Y023022D01*
X039458Y023107D01*
X039414Y023195D01*
X039374Y023285D01*
X039339Y023376D01*
X039308Y023469D01*
X039282Y023564D01*
X039260Y023660D01*
X039244Y023757D01*
X039232Y023854D01*
X039224Y023952D01*
X039222Y024050D01*
X041222Y023800D02*
X041222Y023600D01*
X041222Y023400D01*
X041827Y021614D02*
X042582Y021614D01*
X042582Y020974D02*
X041827Y020974D01*
X039437Y020974D02*
X038682Y020974D01*
X038682Y021614D02*
X039437Y021614D01*
X045103Y024150D02*
X046003Y024150D01*
X046003Y024400D01*
X045553Y024400D01*
X045103Y024400D01*
X045103Y024150D01*
X043553Y024050D02*
X043555Y024148D01*
X043563Y024246D01*
X043575Y024343D01*
X043591Y024440D01*
X043613Y024536D01*
X043639Y024631D01*
X043670Y024724D01*
X043705Y024815D01*
X043745Y024905D01*
X043789Y024993D01*
X043838Y025078D01*
X043890Y025161D01*
X043947Y025241D01*
X044007Y025319D01*
X044071Y025393D01*
X044139Y025464D01*
X044210Y025532D01*
X044284Y025596D01*
X044362Y025656D01*
X044442Y025713D01*
X044525Y025765D01*
X044610Y025814D01*
X044698Y025858D01*
X044788Y025898D01*
X044879Y025933D01*
X044972Y025964D01*
X045067Y025990D01*
X045163Y026012D01*
X045260Y026028D01*
X045357Y026040D01*
X045455Y026048D01*
X045553Y026050D01*
X045651Y026048D01*
X045749Y026040D01*
X045846Y026028D01*
X045943Y026012D01*
X046039Y025990D01*
X046134Y025964D01*
X046227Y025933D01*
X046318Y025898D01*
X046408Y025858D01*
X046496Y025814D01*
X046581Y025765D01*
X046664Y025713D01*
X046744Y025656D01*
X046822Y025596D01*
X046896Y025532D01*
X046967Y025464D01*
X047035Y025393D01*
X047099Y025319D01*
X047159Y025241D01*
X047216Y025161D01*
X047268Y025078D01*
X047317Y024993D01*
X047361Y024905D01*
X047401Y024815D01*
X047436Y024724D01*
X047467Y024631D01*
X047493Y024536D01*
X047515Y024440D01*
X047531Y024343D01*
X047543Y024246D01*
X047551Y024148D01*
X047553Y024050D01*
X047551Y023952D01*
X047543Y023854D01*
X047531Y023757D01*
X047515Y023660D01*
X047493Y023564D01*
X047467Y023469D01*
X047436Y023376D01*
X047401Y023285D01*
X047361Y023195D01*
X047317Y023107D01*
X047268Y023022D01*
X047216Y022939D01*
X047159Y022859D01*
X047099Y022781D01*
X047035Y022707D01*
X046967Y022636D01*
X046896Y022568D01*
X046822Y022504D01*
X046744Y022444D01*
X046664Y022387D01*
X046581Y022335D01*
X046496Y022286D01*
X046408Y022242D01*
X046318Y022202D01*
X046227Y022167D01*
X046134Y022136D01*
X046039Y022110D01*
X045943Y022088D01*
X045846Y022072D01*
X045749Y022060D01*
X045651Y022052D01*
X045553Y022050D01*
X045455Y022052D01*
X045357Y022060D01*
X045260Y022072D01*
X045163Y022088D01*
X045067Y022110D01*
X044972Y022136D01*
X044879Y022167D01*
X044788Y022202D01*
X044698Y022242D01*
X044610Y022286D01*
X044525Y022335D01*
X044442Y022387D01*
X044362Y022444D01*
X044284Y022504D01*
X044210Y022568D01*
X044139Y022636D01*
X044071Y022707D01*
X044007Y022781D01*
X043947Y022859D01*
X043890Y022939D01*
X043838Y023022D01*
X043789Y023107D01*
X043745Y023195D01*
X043705Y023285D01*
X043670Y023376D01*
X043639Y023469D01*
X043613Y023564D01*
X043591Y023660D01*
X043575Y023757D01*
X043563Y023854D01*
X043555Y023952D01*
X043553Y024050D01*
X045553Y023800D02*
X045553Y023600D01*
X045553Y023400D01*
X045553Y024400D02*
X045553Y024500D01*
X045553Y024700D01*
X046053Y025400D02*
X046053Y025700D01*
X046203Y025550D02*
X045903Y025550D01*
X046556Y026289D02*
X047311Y026289D01*
X047311Y026929D02*
X046556Y026929D01*
X049434Y024400D02*
X049434Y024150D01*
X050334Y024150D01*
X050334Y024400D01*
X049884Y024400D01*
X049434Y024400D01*
X049884Y024400D02*
X049884Y024500D01*
X049884Y024700D01*
X047884Y024050D02*
X047886Y024148D01*
X047894Y024246D01*
X047906Y024343D01*
X047922Y024440D01*
X047944Y024536D01*
X047970Y024631D01*
X048001Y024724D01*
X048036Y024815D01*
X048076Y024905D01*
X048120Y024993D01*
X048169Y025078D01*
X048221Y025161D01*
X048278Y025241D01*
X048338Y025319D01*
X048402Y025393D01*
X048470Y025464D01*
X048541Y025532D01*
X048615Y025596D01*
X048693Y025656D01*
X048773Y025713D01*
X048856Y025765D01*
X048941Y025814D01*
X049029Y025858D01*
X049119Y025898D01*
X049210Y025933D01*
X049303Y025964D01*
X049398Y025990D01*
X049494Y026012D01*
X049591Y026028D01*
X049688Y026040D01*
X049786Y026048D01*
X049884Y026050D01*
X049982Y026048D01*
X050080Y026040D01*
X050177Y026028D01*
X050274Y026012D01*
X050370Y025990D01*
X050465Y025964D01*
X050558Y025933D01*
X050649Y025898D01*
X050739Y025858D01*
X050827Y025814D01*
X050912Y025765D01*
X050995Y025713D01*
X051075Y025656D01*
X051153Y025596D01*
X051227Y025532D01*
X051298Y025464D01*
X051366Y025393D01*
X051430Y025319D01*
X051490Y025241D01*
X051547Y025161D01*
X051599Y025078D01*
X051648Y024993D01*
X051692Y024905D01*
X051732Y024815D01*
X051767Y024724D01*
X051798Y024631D01*
X051824Y024536D01*
X051846Y024440D01*
X051862Y024343D01*
X051874Y024246D01*
X051882Y024148D01*
X051884Y024050D01*
X051882Y023952D01*
X051874Y023854D01*
X051862Y023757D01*
X051846Y023660D01*
X051824Y023564D01*
X051798Y023469D01*
X051767Y023376D01*
X051732Y023285D01*
X051692Y023195D01*
X051648Y023107D01*
X051599Y023022D01*
X051547Y022939D01*
X051490Y022859D01*
X051430Y022781D01*
X051366Y022707D01*
X051298Y022636D01*
X051227Y022568D01*
X051153Y022504D01*
X051075Y022444D01*
X050995Y022387D01*
X050912Y022335D01*
X050827Y022286D01*
X050739Y022242D01*
X050649Y022202D01*
X050558Y022167D01*
X050465Y022136D01*
X050370Y022110D01*
X050274Y022088D01*
X050177Y022072D01*
X050080Y022060D01*
X049982Y022052D01*
X049884Y022050D01*
X049786Y022052D01*
X049688Y022060D01*
X049591Y022072D01*
X049494Y022088D01*
X049398Y022110D01*
X049303Y022136D01*
X049210Y022167D01*
X049119Y022202D01*
X049029Y022242D01*
X048941Y022286D01*
X048856Y022335D01*
X048773Y022387D01*
X048693Y022444D01*
X048615Y022504D01*
X048541Y022568D01*
X048470Y022636D01*
X048402Y022707D01*
X048338Y022781D01*
X048278Y022859D01*
X048221Y022939D01*
X048169Y023022D01*
X048120Y023107D01*
X048076Y023195D01*
X048036Y023285D01*
X048001Y023376D01*
X047970Y023469D01*
X047944Y023564D01*
X047922Y023660D01*
X047906Y023757D01*
X047894Y023854D01*
X047886Y023952D01*
X047884Y024050D01*
X049884Y023800D02*
X049884Y023600D01*
X049884Y023400D01*
X051729Y022063D02*
X051729Y021308D01*
X052369Y021308D02*
X052369Y022063D01*
X054214Y023400D02*
X054214Y023600D01*
X054214Y023800D01*
X052214Y024050D02*
X052216Y024148D01*
X052224Y024246D01*
X052236Y024343D01*
X052252Y024440D01*
X052274Y024536D01*
X052300Y024631D01*
X052331Y024724D01*
X052366Y024815D01*
X052406Y024905D01*
X052450Y024993D01*
X052499Y025078D01*
X052551Y025161D01*
X052608Y025241D01*
X052668Y025319D01*
X052732Y025393D01*
X052800Y025464D01*
X052871Y025532D01*
X052945Y025596D01*
X053023Y025656D01*
X053103Y025713D01*
X053186Y025765D01*
X053271Y025814D01*
X053359Y025858D01*
X053449Y025898D01*
X053540Y025933D01*
X053633Y025964D01*
X053728Y025990D01*
X053824Y026012D01*
X053921Y026028D01*
X054018Y026040D01*
X054116Y026048D01*
X054214Y026050D01*
X054312Y026048D01*
X054410Y026040D01*
X054507Y026028D01*
X054604Y026012D01*
X054700Y025990D01*
X054795Y025964D01*
X054888Y025933D01*
X054979Y025898D01*
X055069Y025858D01*
X055157Y025814D01*
X055242Y025765D01*
X055325Y025713D01*
X055405Y025656D01*
X055483Y025596D01*
X055557Y025532D01*
X055628Y025464D01*
X055696Y025393D01*
X055760Y025319D01*
X055820Y025241D01*
X055877Y025161D01*
X055929Y025078D01*
X055978Y024993D01*
X056022Y024905D01*
X056062Y024815D01*
X056097Y024724D01*
X056128Y024631D01*
X056154Y024536D01*
X056176Y024440D01*
X056192Y024343D01*
X056204Y024246D01*
X056212Y024148D01*
X056214Y024050D01*
X056212Y023952D01*
X056204Y023854D01*
X056192Y023757D01*
X056176Y023660D01*
X056154Y023564D01*
X056128Y023469D01*
X056097Y023376D01*
X056062Y023285D01*
X056022Y023195D01*
X055978Y023107D01*
X055929Y023022D01*
X055877Y022939D01*
X055820Y022859D01*
X055760Y022781D01*
X055696Y022707D01*
X055628Y022636D01*
X055557Y022568D01*
X055483Y022504D01*
X055405Y022444D01*
X055325Y022387D01*
X055242Y022335D01*
X055157Y022286D01*
X055069Y022242D01*
X054979Y022202D01*
X054888Y022167D01*
X054795Y022136D01*
X054700Y022110D01*
X054604Y022088D01*
X054507Y022072D01*
X054410Y022060D01*
X054312Y022052D01*
X054214Y022050D01*
X054116Y022052D01*
X054018Y022060D01*
X053921Y022072D01*
X053824Y022088D01*
X053728Y022110D01*
X053633Y022136D01*
X053540Y022167D01*
X053449Y022202D01*
X053359Y022242D01*
X053271Y022286D01*
X053186Y022335D01*
X053103Y022387D01*
X053023Y022444D01*
X052945Y022504D01*
X052871Y022568D01*
X052800Y022636D01*
X052732Y022707D01*
X052668Y022781D01*
X052608Y022859D01*
X052551Y022939D01*
X052499Y023022D01*
X052450Y023107D01*
X052406Y023195D01*
X052366Y023285D01*
X052331Y023376D01*
X052300Y023469D01*
X052274Y023564D01*
X052252Y023660D01*
X052236Y023757D01*
X052224Y023854D01*
X052216Y023952D01*
X052214Y024050D01*
X053764Y024150D02*
X054664Y024150D01*
X054664Y024400D01*
X054214Y024400D01*
X053764Y024400D01*
X053764Y024150D01*
X054214Y024400D02*
X054214Y024500D01*
X054214Y024700D01*
X054714Y025400D02*
X054714Y025700D01*
X054864Y025550D02*
X054564Y025550D01*
X053610Y026289D02*
X052855Y026289D01*
X052855Y026929D02*
X053610Y026929D01*
X056214Y027167D02*
X056214Y028807D01*
X056939Y028807D01*
X056939Y027167D01*
X056214Y027167D01*
X056577Y027737D02*
X056577Y027987D01*
X056827Y027987D01*
X056577Y027987D02*
X056327Y028387D01*
X056827Y028387D01*
X056577Y027987D01*
X056327Y027987D01*
X056577Y027987D02*
X056577Y028587D01*
X050534Y025550D02*
X050234Y025550D01*
X050384Y025400D02*
X050384Y025700D01*
X049865Y021614D02*
X049110Y021614D01*
X049110Y020974D02*
X049865Y020974D01*
X050079Y020032D02*
X050834Y020032D01*
X050834Y019392D02*
X050079Y019392D01*
X051943Y019426D02*
X051943Y020226D01*
X052043Y020326D01*
X052843Y020326D01*
X052943Y020226D01*
X052943Y019426D01*
X052843Y019326D01*
X052943Y019226D01*
X052943Y018426D01*
X052843Y018326D01*
X052043Y018326D01*
X051943Y018426D01*
X051943Y019226D01*
X052043Y019326D01*
X051943Y019426D01*
X054746Y019916D02*
X054946Y019916D01*
X055146Y019916D01*
X053396Y019916D02*
X053398Y020014D01*
X053406Y020112D01*
X053418Y020209D01*
X053434Y020306D01*
X053456Y020402D01*
X053482Y020497D01*
X053513Y020590D01*
X053548Y020681D01*
X053588Y020771D01*
X053632Y020859D01*
X053681Y020944D01*
X053733Y021027D01*
X053790Y021107D01*
X053850Y021185D01*
X053914Y021259D01*
X053982Y021330D01*
X054053Y021398D01*
X054127Y021462D01*
X054205Y021522D01*
X054285Y021579D01*
X054368Y021631D01*
X054453Y021680D01*
X054541Y021724D01*
X054631Y021764D01*
X054722Y021799D01*
X054815Y021830D01*
X054910Y021856D01*
X055006Y021878D01*
X055103Y021894D01*
X055200Y021906D01*
X055298Y021914D01*
X055396Y021916D01*
X055494Y021914D01*
X055592Y021906D01*
X055689Y021894D01*
X055786Y021878D01*
X055882Y021856D01*
X055977Y021830D01*
X056070Y021799D01*
X056161Y021764D01*
X056251Y021724D01*
X056339Y021680D01*
X056424Y021631D01*
X056507Y021579D01*
X056587Y021522D01*
X056665Y021462D01*
X056739Y021398D01*
X056810Y021330D01*
X056878Y021259D01*
X056942Y021185D01*
X057002Y021107D01*
X057059Y021027D01*
X057111Y020944D01*
X057160Y020859D01*
X057204Y020771D01*
X057244Y020681D01*
X057279Y020590D01*
X057310Y020497D01*
X057336Y020402D01*
X057358Y020306D01*
X057374Y020209D01*
X057386Y020112D01*
X057394Y020014D01*
X057396Y019916D01*
X057394Y019818D01*
X057386Y019720D01*
X057374Y019623D01*
X057358Y019526D01*
X057336Y019430D01*
X057310Y019335D01*
X057279Y019242D01*
X057244Y019151D01*
X057204Y019061D01*
X057160Y018973D01*
X057111Y018888D01*
X057059Y018805D01*
X057002Y018725D01*
X056942Y018647D01*
X056878Y018573D01*
X056810Y018502D01*
X056739Y018434D01*
X056665Y018370D01*
X056587Y018310D01*
X056507Y018253D01*
X056424Y018201D01*
X056339Y018152D01*
X056251Y018108D01*
X056161Y018068D01*
X056070Y018033D01*
X055977Y018002D01*
X055882Y017976D01*
X055786Y017954D01*
X055689Y017938D01*
X055592Y017926D01*
X055494Y017918D01*
X055396Y017916D01*
X055298Y017918D01*
X055200Y017926D01*
X055103Y017938D01*
X055006Y017954D01*
X054910Y017976D01*
X054815Y018002D01*
X054722Y018033D01*
X054631Y018068D01*
X054541Y018108D01*
X054453Y018152D01*
X054368Y018201D01*
X054285Y018253D01*
X054205Y018310D01*
X054127Y018370D01*
X054053Y018434D01*
X053982Y018502D01*
X053914Y018573D01*
X053850Y018647D01*
X053790Y018725D01*
X053733Y018805D01*
X053681Y018888D01*
X053632Y018973D01*
X053588Y019061D01*
X053548Y019151D01*
X053513Y019242D01*
X053482Y019335D01*
X053456Y019430D01*
X053434Y019526D01*
X053418Y019623D01*
X053406Y019720D01*
X053398Y019818D01*
X053396Y019916D01*
X055496Y019466D02*
X055746Y019466D01*
X055746Y019916D01*
X055746Y020366D01*
X055496Y020366D01*
X055496Y019466D01*
X055746Y019916D02*
X055846Y019916D01*
X056046Y019916D01*
X056746Y019416D02*
X057046Y019416D01*
X056896Y019266D02*
X056896Y019566D01*
X054524Y012739D02*
X053724Y012739D01*
X053624Y012639D01*
X053524Y012739D01*
X052724Y012739D01*
X052624Y012639D01*
X052624Y011839D01*
X052724Y011739D01*
X053524Y011739D01*
X053624Y011839D01*
X053724Y011739D01*
X054524Y011739D01*
X054624Y011839D01*
X054624Y012639D01*
X054524Y012739D01*
X051079Y007060D02*
X050579Y007060D01*
X050329Y006810D01*
X050079Y007060D01*
X049579Y007060D01*
X049329Y006810D01*
X049079Y007060D01*
X048579Y007060D01*
X048329Y006810D01*
X048079Y007060D01*
X047579Y007060D01*
X047329Y006810D01*
X047329Y006310D01*
X047579Y006060D01*
X048079Y006060D01*
X048329Y006310D01*
X048579Y006060D01*
X049079Y006060D01*
X049329Y006310D01*
X049579Y006060D01*
X050079Y006060D01*
X050329Y006310D01*
X050579Y006060D01*
X051079Y006060D01*
X051329Y006310D01*
X051329Y006810D01*
X051079Y007060D01*
X046517Y008737D02*
X046517Y004847D01*
X039077Y004847D01*
X039077Y008737D01*
X046517Y008737D01*
X046327Y008537D02*
X044457Y008537D01*
X044267Y008537D01*
X042897Y008537D01*
X042707Y008537D01*
X041337Y008537D01*
X041147Y008537D01*
X039267Y008537D01*
X039267Y005037D01*
X040397Y005037D01*
X040587Y005037D01*
X041957Y005037D01*
X042147Y005037D01*
X043507Y005037D01*
X043707Y005037D01*
X045077Y005037D01*
X045267Y005037D01*
X046327Y005037D01*
X046327Y008537D01*
X044457Y008537D02*
X044457Y008207D01*
X044267Y008207D01*
X044267Y008537D01*
X042897Y008537D02*
X042897Y008207D01*
X042707Y008207D01*
X042707Y008537D01*
X041337Y008537D02*
X041337Y008207D01*
X041147Y008207D01*
X041147Y008537D01*
X039557Y008227D02*
X039707Y007477D01*
X039407Y007477D01*
X039557Y008227D01*
X039557Y005727D01*
X040397Y005337D02*
X040587Y005337D01*
X040587Y005037D01*
X040397Y005037D02*
X040397Y005337D01*
X040207Y006477D02*
X040707Y006977D01*
X040207Y006977D01*
X040707Y006477D01*
X040707Y006977D01*
X040207Y006977D02*
X040207Y006477D01*
X040707Y006477D01*
X041767Y006477D02*
X042267Y006977D01*
X041767Y006977D01*
X042267Y006477D01*
X042267Y006977D01*
X041767Y006977D02*
X041767Y006477D01*
X042267Y006477D01*
X043327Y006477D02*
X043327Y006977D01*
X043827Y006477D01*
X043827Y006977D01*
X043327Y006477D01*
X043827Y006477D01*
X043827Y006977D02*
X043327Y006977D01*
X044887Y006977D02*
X044887Y006477D01*
X045387Y006977D01*
X044887Y006977D01*
X045387Y006477D01*
X045387Y006977D01*
X045387Y006477D02*
X044887Y006477D01*
X045077Y005337D02*
X045267Y005337D01*
X045267Y005037D01*
X045077Y005037D02*
X045077Y005337D01*
X043707Y005337D02*
X043707Y005037D01*
X043507Y005037D02*
X043507Y005337D01*
X043707Y005337D01*
X042147Y005337D02*
X042147Y005037D01*
X041957Y005037D02*
X041957Y005337D01*
X042147Y005337D01*
X037856Y004847D02*
X037856Y008737D01*
X030416Y008737D01*
X030416Y004847D01*
X037856Y004847D01*
X037666Y005037D02*
X036606Y005037D01*
X036416Y005037D01*
X035046Y005037D01*
X035046Y005337D01*
X034846Y005337D01*
X034846Y005037D01*
X033486Y005037D01*
X033486Y005337D01*
X033296Y005337D01*
X033296Y005037D01*
X031926Y005037D01*
X031926Y005337D01*
X031736Y005337D01*
X031736Y005037D01*
X030606Y005037D01*
X030606Y008537D01*
X032486Y008537D01*
X032676Y008537D01*
X034046Y008537D01*
X034236Y008537D01*
X035606Y008537D01*
X035606Y008207D01*
X035796Y008207D01*
X035796Y008537D01*
X035606Y008537D01*
X035796Y008537D02*
X037666Y008537D01*
X037666Y005037D01*
X036606Y005037D02*
X036606Y005337D01*
X036416Y005337D01*
X036416Y005037D01*
X035046Y005037D02*
X034846Y005037D01*
X033486Y005037D02*
X033296Y005037D01*
X031926Y005037D02*
X031736Y005037D01*
X030896Y005727D02*
X030896Y008227D01*
X031046Y007477D01*
X030746Y007477D01*
X030896Y008227D01*
X031546Y006977D02*
X032046Y006477D01*
X032046Y006977D01*
X031546Y006477D01*
X032046Y006477D01*
X031546Y006477D02*
X031546Y006977D01*
X032046Y006977D01*
X033106Y006977D02*
X033106Y006477D01*
X033606Y006977D01*
X033106Y006977D01*
X033606Y006477D01*
X033606Y006977D01*
X034666Y006977D02*
X035166Y006477D01*
X035166Y006977D01*
X034666Y006477D01*
X035166Y006477D01*
X034666Y006477D02*
X034666Y006977D01*
X035166Y006977D01*
X036226Y006977D02*
X036226Y006477D01*
X036726Y006977D01*
X036226Y006977D01*
X036726Y006477D01*
X036726Y006977D01*
X036726Y006477D02*
X036226Y006477D01*
X033606Y006477D02*
X033106Y006477D01*
X032676Y008207D02*
X032676Y008537D01*
X032486Y008537D02*
X032486Y008207D01*
X032676Y008207D01*
X034046Y008207D02*
X034236Y008207D01*
X034236Y008537D01*
X034046Y008537D02*
X034046Y008207D01*
X029194Y008737D02*
X021754Y008737D01*
X021754Y004847D01*
X029194Y004847D01*
X029194Y008737D01*
X029004Y008537D02*
X027134Y008537D01*
X026944Y008537D01*
X025574Y008537D01*
X025384Y008537D01*
X024014Y008537D01*
X023824Y008537D01*
X021944Y008537D01*
X021944Y005037D01*
X023074Y005037D01*
X023264Y005037D01*
X024634Y005037D01*
X024824Y005037D01*
X026184Y005037D01*
X026384Y005037D01*
X027754Y005037D01*
X027944Y005037D01*
X029004Y005037D01*
X029004Y008537D01*
X028343Y009574D02*
X027543Y009574D01*
X027443Y009674D01*
X027343Y009574D01*
X026543Y009574D01*
X026443Y009674D01*
X026443Y010474D01*
X026543Y010574D01*
X027343Y010574D01*
X027443Y010474D01*
X027543Y010574D01*
X028343Y010574D01*
X028443Y010474D01*
X028443Y009674D01*
X028343Y009574D01*
X027134Y008537D02*
X027134Y008207D01*
X026944Y008207D01*
X026944Y008537D01*
X025574Y008537D02*
X025574Y008207D01*
X025384Y008207D01*
X025384Y008537D01*
X024014Y008537D02*
X024014Y008207D01*
X023824Y008207D01*
X023824Y008537D01*
X022234Y008227D02*
X022384Y007477D01*
X022084Y007477D01*
X022234Y008227D01*
X022234Y005727D01*
X023074Y005337D02*
X023264Y005337D01*
X023264Y005037D01*
X023074Y005037D02*
X023074Y005337D01*
X022884Y006477D02*
X023384Y006977D01*
X022884Y006977D01*
X023384Y006477D01*
X023384Y006977D01*
X022884Y006977D02*
X022884Y006477D01*
X023384Y006477D01*
X024444Y006477D02*
X024444Y006977D01*
X024944Y006477D01*
X024944Y006977D01*
X024444Y006477D01*
X024944Y006477D01*
X026004Y006477D02*
X026504Y006977D01*
X026004Y006977D01*
X026504Y006477D01*
X026504Y006977D01*
X026004Y006977D02*
X026004Y006477D01*
X026504Y006477D01*
X027564Y006477D02*
X027564Y006977D01*
X028064Y006477D01*
X028064Y006977D01*
X027564Y006477D01*
X028064Y006477D01*
X028064Y006977D02*
X027564Y006977D01*
X027754Y005337D02*
X027944Y005337D01*
X027944Y005037D01*
X027754Y005037D02*
X027754Y005337D01*
X026384Y005337D02*
X026384Y005037D01*
X026184Y005037D02*
X026184Y005337D01*
X026384Y005337D01*
X024824Y005337D02*
X024824Y005037D01*
X024634Y005037D02*
X024634Y005337D01*
X024824Y005337D01*
X024944Y006977D02*
X024444Y006977D01*
X021496Y006795D02*
X021496Y008395D01*
X020496Y008395D01*
X020496Y006795D01*
X021496Y006795D01*
X021246Y007195D02*
X020996Y007595D01*
X021246Y007595D01*
X021246Y007495D01*
X020996Y007595D02*
X020746Y007595D01*
X020996Y007595D02*
X020746Y007195D01*
X021246Y007195D01*
X020996Y006995D02*
X020996Y007595D01*
X020996Y007845D01*
X015238Y023400D02*
X015238Y023600D01*
X015238Y023800D01*
D20*
X013926Y020901D02*
X013526Y020901D01*
X018126Y020901D02*
X018526Y020901D01*
X010514Y017101D02*
X010514Y016701D01*
X010514Y012501D02*
X010514Y012101D01*
X020996Y009595D02*
X020996Y009195D01*
X020996Y006045D02*
X020996Y005595D01*
D21*
X020996Y008145D03*
X012482Y036061D03*
D22*
X020996Y008770D03*
X020996Y006420D03*
D23*
X020120Y006176D02*
X017364Y006176D01*
X017364Y008381D01*
X020120Y008381D01*
X020120Y008932D01*
X017364Y008932D01*
X017364Y008381D01*
X020120Y008381D02*
X020120Y006176D01*
X022909Y007502D02*
X023210Y007502D01*
X023059Y007502D02*
X023059Y007953D01*
X022909Y007803D01*
X028894Y009121D02*
X050953Y009121D01*
X028894Y009121D01*
X028894Y011267D01*
X031449Y011267D01*
X031449Y018231D01*
X036421Y018231D01*
X036421Y011267D01*
X031449Y011267D01*
X028894Y011267D02*
X028894Y018231D01*
X031449Y018231D01*
X028894Y018231D02*
X028894Y020345D01*
X050953Y020345D01*
X050953Y009121D01*
X050953Y013345D01*
X049421Y013345D01*
X049421Y015988D01*
X050953Y015988D01*
X050953Y013345D01*
X050953Y015988D02*
X050953Y020345D01*
X028894Y020345D01*
X028894Y009121D01*
X031571Y007803D02*
X031721Y007953D01*
X031721Y007502D01*
X031571Y007502D02*
X031871Y007502D01*
X040232Y007502D02*
X040532Y007502D01*
X040382Y007502D02*
X040382Y007953D01*
X040232Y007803D01*
X046793Y006560D02*
X047094Y006560D01*
X047018Y006335D02*
X047018Y006785D01*
X046793Y006560D01*
X051343Y006635D02*
X051493Y006785D01*
X051493Y006335D01*
X051343Y006335D02*
X051644Y006335D01*
X014006Y030225D02*
X014006Y033178D01*
X008100Y033178D01*
X008100Y030225D01*
X014006Y030225D01*
D24*
X026943Y010074D03*
X027943Y010074D03*
X052443Y018826D03*
X052443Y019826D03*
X053124Y012239D03*
X054124Y012239D03*
D25*
X050829Y006560D03*
X049829Y006560D03*
X048829Y006560D03*
X047829Y006560D03*
D26*
X047482Y029365D02*
X043624Y029365D01*
X043624Y032908D01*
X047482Y032908D01*
X047482Y033154D01*
X047472Y033154D01*
X046882Y033302D01*
X044224Y033302D01*
X043634Y033154D01*
X043624Y033154D01*
X043624Y032908D01*
X041183Y032908D02*
X037325Y032908D01*
X037325Y029365D01*
X041183Y029365D01*
X041183Y032908D01*
X041183Y033154D01*
X041173Y033154D01*
X040583Y033302D01*
X037925Y033302D01*
X037335Y033154D01*
X037325Y033154D01*
X037325Y032908D01*
X034884Y032908D02*
X031026Y032908D01*
X031026Y029365D01*
X034884Y029365D01*
X034884Y032908D01*
X034884Y033154D01*
X034874Y033154D01*
X034283Y033302D01*
X031626Y033302D01*
X031035Y033154D01*
X031026Y033154D01*
X031026Y032908D01*
X028585Y032908D02*
X024726Y032908D01*
X024726Y029365D01*
X028585Y029365D01*
X028585Y032908D01*
X028585Y033154D01*
X028575Y033154D01*
X027984Y033302D01*
X025327Y033302D01*
X024736Y033154D01*
X024726Y033154D01*
X024726Y032908D01*
X022285Y032908D02*
X018427Y032908D01*
X018427Y029365D01*
X022285Y029365D01*
X022285Y032908D01*
X022285Y033154D01*
X022276Y033154D01*
X021685Y033302D01*
X019027Y033302D01*
X018437Y033154D01*
X018427Y033154D01*
X018427Y032908D01*
X014766Y033834D02*
X014766Y035527D01*
X013742Y035527D01*
X013742Y033834D01*
X014766Y033834D01*
X014766Y034273D02*
X014766Y035084D01*
X013742Y035084D02*
X013742Y034273D01*
X047482Y032908D02*
X047482Y029365D01*
X049923Y029365D02*
X053781Y029365D01*
X053781Y032908D01*
X049923Y032908D01*
X049923Y029365D01*
X049923Y032908D02*
X049923Y033154D01*
X049933Y033154D01*
X050524Y033302D01*
X053181Y033302D01*
X053772Y033154D01*
X053781Y033154D01*
X053781Y032908D01*
D27*
X053352Y028396D03*
X052852Y028396D03*
X052352Y028396D03*
X051852Y028396D03*
X051352Y028396D03*
X050852Y028396D03*
X050352Y028396D03*
X047053Y028396D03*
X046553Y028396D03*
X046053Y028396D03*
X045553Y028396D03*
X045053Y028396D03*
X044553Y028396D03*
X044053Y028396D03*
X040754Y028396D03*
X040254Y028396D03*
X039754Y028396D03*
X039254Y028396D03*
X038754Y028396D03*
X038254Y028396D03*
X037754Y028396D03*
X034455Y028396D03*
X033955Y028396D03*
X033455Y028396D03*
X032955Y028396D03*
X032455Y028396D03*
X031955Y028396D03*
X031455Y028396D03*
X028155Y028396D03*
X027655Y028396D03*
X027155Y028396D03*
X026655Y028396D03*
X026155Y028396D03*
X025655Y028396D03*
X025155Y028396D03*
X021856Y028396D03*
X021356Y028396D03*
X020856Y028396D03*
X020356Y028396D03*
X019856Y028396D03*
X019356Y028396D03*
X018856Y028396D03*
D28*
X020356Y028903D03*
X026655Y028903D03*
X032955Y028903D03*
X039254Y028903D03*
X045553Y028903D03*
X051852Y028903D03*
D29*
X051352Y028903D03*
X050852Y028903D03*
X050352Y028903D03*
X052352Y028903D03*
X052852Y028903D03*
X053352Y028903D03*
X047053Y028903D03*
X046553Y028903D03*
X046053Y028903D03*
X045053Y028903D03*
X044553Y028903D03*
X044053Y028903D03*
X040754Y028903D03*
X040254Y028903D03*
X039754Y028903D03*
X038754Y028903D03*
X038254Y028903D03*
X037754Y028903D03*
X034455Y028903D03*
X033955Y028903D03*
X033455Y028903D03*
X032455Y028903D03*
X031955Y028903D03*
X031455Y028903D03*
X028155Y028903D03*
X027655Y028903D03*
X027155Y028903D03*
X026155Y028903D03*
X025655Y028903D03*
X025155Y028903D03*
X021856Y028903D03*
X021356Y028903D03*
X020856Y028903D03*
X019856Y028903D03*
X019356Y028903D03*
X018856Y028903D03*
D30*
X018856Y028962D03*
X019356Y028962D03*
X019856Y028962D03*
X020356Y028962D03*
X020856Y028962D03*
X021356Y028962D03*
X021856Y028962D03*
X025155Y028962D03*
X025655Y028962D03*
X026155Y028962D03*
X026655Y028962D03*
X027155Y028962D03*
X027655Y028962D03*
X028155Y028962D03*
X031455Y028962D03*
X031955Y028962D03*
X032455Y028962D03*
X032955Y028962D03*
X033455Y028962D03*
X033955Y028962D03*
X034455Y028962D03*
X037754Y028962D03*
X038254Y028962D03*
X038754Y028962D03*
X039254Y028962D03*
X039754Y028962D03*
X040254Y028962D03*
X040754Y028962D03*
X044053Y028962D03*
X044553Y028962D03*
X045053Y028962D03*
X045553Y028962D03*
X046053Y028962D03*
X046553Y028962D03*
X047053Y028962D03*
X050352Y028962D03*
X050852Y028962D03*
X051352Y028962D03*
X051852Y028962D03*
X052352Y028962D03*
X052852Y028962D03*
X053352Y028962D03*
D31*
X054214Y023825D03*
X049884Y023825D03*
X045553Y023825D03*
X041222Y023825D03*
X036892Y023825D03*
X032561Y023825D03*
X028230Y023825D03*
X023900Y023825D03*
X019569Y023825D03*
X015238Y023825D03*
X010907Y023825D03*
D32*
X008714Y027987D03*
X013495Y027987D03*
X004777Y021294D03*
X004777Y016964D03*
X007139Y013420D03*
X055171Y019916D03*
D33*
X055382Y027284D02*
X054622Y027284D01*
X054622Y027903D02*
X055382Y027903D01*
X055382Y028268D02*
X054622Y028268D01*
X054622Y028888D02*
X055382Y028888D01*
X049083Y028888D02*
X048323Y028888D01*
X048323Y028268D02*
X049083Y028268D01*
X049083Y027903D02*
X048323Y027903D01*
X048323Y027284D02*
X049083Y027284D01*
X042783Y027284D02*
X042024Y027284D01*
X042024Y027903D02*
X042783Y027903D01*
X042783Y028268D02*
X042024Y028268D01*
X042024Y028888D02*
X042783Y028888D01*
X036484Y028888D02*
X035724Y028888D01*
X035724Y028268D02*
X036484Y028268D01*
X036484Y027903D02*
X035724Y027903D01*
X035724Y027284D02*
X036484Y027284D01*
X030185Y027284D02*
X029425Y027284D01*
X029425Y027903D02*
X030185Y027903D01*
X030185Y028268D02*
X029425Y028268D01*
X029425Y028888D02*
X030185Y028888D01*
X023886Y028888D02*
X023126Y028888D01*
X023126Y028268D02*
X023886Y028268D01*
X023886Y027903D02*
X023126Y027903D01*
X023126Y027284D02*
X023886Y027284D01*
X016335Y028198D02*
X016335Y028958D01*
X015716Y028958D02*
X015716Y028198D01*
X008138Y025738D02*
X007378Y025738D01*
X007378Y025118D02*
X008138Y025118D01*
X010991Y021280D02*
X010991Y020521D01*
X011611Y020521D02*
X011611Y021280D01*
X010824Y019706D02*
X010824Y018946D01*
X010204Y018946D02*
X010204Y019706D01*
X007674Y019312D02*
X007674Y018552D01*
X007054Y018552D02*
X007054Y019312D01*
X019386Y018061D02*
X020146Y018061D01*
X020146Y017441D02*
X019386Y017441D01*
X024771Y016753D02*
X024771Y015993D01*
X025390Y015993D02*
X025390Y016753D01*
X019161Y010187D02*
X018401Y010187D01*
X018401Y009567D02*
X019161Y009567D01*
X029397Y006320D02*
X029397Y005560D01*
X030016Y005560D02*
X030016Y006320D01*
X038255Y006320D02*
X038255Y005560D01*
X038875Y005560D02*
X038875Y006320D01*
X050094Y009370D02*
X050854Y009370D01*
X050854Y009990D02*
X050094Y009990D01*
D34*
X049952Y009680D03*
X050997Y009680D03*
X049225Y027594D03*
X048180Y027593D03*
X048180Y028577D03*
X049225Y028578D03*
X054480Y028577D03*
X055524Y028578D03*
X055524Y027594D03*
X054480Y027593D03*
X042926Y027594D03*
X042926Y028578D03*
X041881Y028577D03*
X041881Y027593D03*
X036627Y027594D03*
X036627Y028578D03*
X035582Y028577D03*
X035582Y027593D03*
X030327Y027594D03*
X030327Y028578D03*
X029283Y028577D03*
X029283Y027593D03*
X024028Y027594D03*
X024028Y028578D03*
X022983Y028577D03*
X022983Y027593D03*
X020288Y017751D03*
X019243Y017751D03*
X019304Y009877D03*
X018259Y009877D03*
X008280Y025428D03*
X007235Y025428D03*
D35*
X011301Y021423D03*
X011301Y020378D03*
X010513Y019848D03*
X010514Y018803D03*
X007364Y018410D03*
X007364Y019454D03*
X016026Y028055D03*
X016025Y029100D03*
X025080Y016895D03*
X025081Y015851D03*
X029706Y006462D03*
X029707Y005418D03*
X038565Y005418D03*
X038565Y006462D03*
D36*
X009739Y017326D02*
X009339Y017326D01*
X008889Y017326D01*
X008589Y017526D02*
X009289Y017526D01*
X009739Y017526D01*
X009739Y017726D02*
X008139Y017726D01*
X008139Y017926D02*
X009739Y017926D01*
X009739Y018126D02*
X008139Y018126D01*
X008139Y018326D02*
X009739Y018326D01*
X009739Y018526D02*
X008139Y018526D01*
X008139Y018726D02*
X009739Y018726D01*
X009739Y018926D02*
X008139Y018926D01*
X008139Y019126D02*
X009739Y019126D01*
X009739Y019326D02*
X008139Y019326D01*
X008139Y019526D02*
X009739Y019526D01*
X009739Y019726D02*
X008139Y019726D01*
X008139Y019926D02*
X009739Y019926D01*
X009739Y020126D02*
X008139Y020126D01*
X008139Y020326D02*
X009739Y020326D01*
X009739Y020526D02*
X008139Y020526D01*
X008139Y020726D02*
X009739Y020726D01*
X009739Y020926D02*
X008139Y020926D01*
X008139Y021126D02*
X008589Y021126D01*
X009289Y021126D01*
X009739Y021126D01*
X008989Y021326D02*
X008539Y021326D01*
X008139Y021326D01*
X007494Y023800D02*
X007494Y024050D01*
X007494Y024300D01*
X007244Y024300D02*
X007244Y024050D01*
X007244Y023800D01*
X006707Y023800D02*
X006707Y024050D01*
X006707Y024300D01*
X006457Y024300D02*
X006457Y024050D01*
X006457Y023800D01*
X008139Y017526D02*
X008589Y017526D01*
X011969Y033643D02*
X011969Y033893D01*
X011969Y034143D01*
X012219Y034143D02*
X012219Y033893D01*
X012219Y033643D01*
D37*
X017207Y029290D02*
X017207Y028772D01*
X017207Y026799D02*
X017207Y026290D01*
X056577Y026487D02*
X056577Y026995D01*
X056577Y028969D02*
X056577Y029487D01*
D38*
X056583Y027437D03*
X017213Y027240D03*
D39*
X017207Y026846D03*
X017207Y028735D03*
X056577Y028932D03*
X056577Y027042D03*
D40*
X010514Y015676D03*
D41*
X010514Y016376D03*
X010514Y012826D03*
D42*
X017277Y017751D03*
X018317Y017751D03*
X019246Y018735D03*
X020286Y018735D03*
X025545Y021294D03*
X026585Y021294D03*
X030663Y021294D03*
X031703Y021294D03*
X036175Y021294D03*
X037215Y021294D03*
X038537Y021294D03*
X039577Y021294D03*
X041687Y021294D03*
X042727Y021294D03*
X048970Y021294D03*
X050010Y021294D03*
X049939Y019712D03*
X050979Y019712D03*
X052710Y026609D03*
X053750Y026609D03*
X047451Y026609D03*
X046411Y026609D03*
X041152Y026609D03*
X040112Y026609D03*
X034853Y026609D03*
X033813Y026609D03*
X028553Y026609D03*
X027513Y026609D03*
X022254Y026609D03*
X021214Y026609D03*
D43*
X014951Y020901D03*
D44*
X014251Y020901D03*
X017801Y020901D03*
D45*
X016124Y034357D03*
X015238Y034357D03*
X015238Y035397D03*
X016124Y035397D03*
X052049Y022208D03*
X052049Y021168D03*
D46*
X010120Y034074D02*
X010120Y034574D01*
X010120Y035574D02*
X010120Y036074D01*
X006199Y025625D02*
X005699Y025625D01*
X004699Y025625D02*
X004199Y025625D01*
X008939Y020076D02*
X009439Y019576D01*
X009689Y019326D01*
X009489Y018776D02*
X009039Y019226D01*
X008839Y019426D01*
X008389Y019876D01*
X008189Y019326D02*
X008439Y019076D01*
X008939Y018576D01*
D47*
X005199Y025625D03*
D48*
X016304Y036060D03*
D49*
X014994Y037830D03*
D50*
X015244Y039555D03*
X015244Y036105D03*
D51*
X015244Y037330D03*
X015244Y038330D03*
D52*
X015244Y038830D03*
X015244Y037830D03*
X015244Y036830D03*
D53*
X014254Y035664D03*
X014254Y033696D03*
D54*
X014254Y034124D03*
X014254Y034394D03*
D55*
X010120Y035074D03*
M02*
