%
M48
M72
T01C0.0197
T02C0.0320
T03C0.0354
T04C0.0360
T05C0.0394
T06C0.0400
T07C0.0440
T08C0.0591
T09C0.0709
T10C0.0710
T11C0.0787
T12C0.0984
T13C0.1260
T14C0.1772
%
T01
X8348Y11255
X9529Y10074
X18585Y16767
X21144Y18145
X23703Y14798
X22915Y14208
X22522Y13617
X24096Y13027
X23112Y11058
X20159Y10467
X29805Y7121
X32364Y11058
X32364Y12436
X31774Y12436
X31183Y12436
X31183Y14011
X31774Y14011
X32364Y14011
X35907Y15782
X35711Y17357
X37089Y17554
X37679Y14011
X37679Y12436
X38270Y10861
X40829Y12042
X42010Y11452
X42207Y12830
X41222Y14011
X40435Y14011
X38270Y7121
X50041Y19212
X54805Y20901
X54805Y22082
X53033Y23263
X52049Y24050
X51459Y23263
X48703Y23263
X47718Y23263
X46734Y23263
X44569Y23263
X44569Y24050
X43388Y23263
X42403Y23263
X40041Y23263
X38860Y23263
X38754Y24050
X35711Y23263
X34726Y23263
X33742Y23263
X31774Y24050
X29411Y23263
X27049Y23263
X26951Y24050
X25081Y23263
X22718Y23263
X21734Y23263
X20750Y23263
X20750Y24050
X17994Y23263
X16419Y23263
X14057Y23263
X13073Y23263
X12089Y23263
X9726Y23263
X7758Y26806
X7758Y29168
X14648Y36255
X17600Y36255
X17600Y37436
X17600Y38617
X17797Y39601
X18978Y39601
X19963Y39601
X20947Y39601
X21931Y39601
X22915Y39601
X23900Y39601
X24884Y39601
X25868Y39601
X26852Y39601
X27837Y39601
X28821Y39601
X29805Y39601
X30789Y39601
X30789Y39011
X31577Y39601
X32167Y38814
X32561Y39601
X33545Y39601
X34529Y39601
X35514Y39601
X35317Y38814
X36695Y39208
X36695Y38223
X37679Y38814
X38073Y39601
X39057Y39601
X40041Y39601
X41222Y39601
X42207Y39208
X41222Y38814
X42207Y38223
X43191Y38814
X43388Y39601
X44569Y39601
X45750Y39601
X45947Y38814
X46931Y39208
X47915Y38814
X46931Y38223
X46931Y37239
X46931Y36255
X47915Y36058
X47325Y35271
X47128Y34090
X48309Y34286
X48506Y33302
X47128Y32515
X46340Y32515
X45553Y32515
X44766Y32515
X44766Y31727
X45553Y31727
X46340Y31727
X46340Y30940
X45553Y30940
X44766Y30940
X43978Y30940
X43978Y31727
X43978Y32515
X42207Y32318
X42207Y31334
X40829Y31727
X40041Y31727
X40041Y30940
X40829Y30940
X42207Y30349
X42403Y29562
X41813Y29562
X42994Y29562
X41222Y28381
X41222Y27987
X41222Y27593
X39254Y30152
X39254Y30940
X38466Y30940
X37679Y30940
X37679Y31727
X38466Y31727
X39254Y31727
X39254Y32515
X38466Y32515
X37679Y32515
X36104Y32318
X36104Y31334
X36104Y30349
X36104Y29562
X35514Y29562
X36695Y29562
X34923Y28381
X34923Y27987
X34923Y27593
X32955Y30152
X32955Y30940
X32167Y30940
X31380Y30940
X31380Y31727
X32167Y31727
X32955Y31727
X33742Y31727
X34529Y31727
X34529Y30940
X33742Y30940
X33742Y32515
X34529Y32515
X32955Y32515
X32167Y32515
X31380Y32515
X30002Y32318
X30002Y31334
X29805Y30349
X29805Y29562
X29214Y29562
X30396Y29562
X28624Y28381
X28624Y27987
X28624Y27593
X26655Y30152
X26655Y30940
X27443Y30940
X28230Y30940
X28230Y31727
X27443Y31727
X26655Y31727
X25868Y31727
X25081Y31727
X25081Y30940
X25868Y30940
X25868Y32515
X25081Y32515
X23703Y32318
X23703Y31334
X23506Y30349
X23506Y29562
X24096Y29562
X22915Y29562
X22325Y28381
X22325Y27987
X22325Y27593
X20356Y30152
X20356Y30940
X21144Y30940
X21931Y30940
X21931Y31727
X21144Y31727
X20356Y31727
X19569Y31727
X18781Y31727
X18781Y30940
X19569Y30940
X17403Y29759
X17010Y29759
X17994Y29562
X16026Y29562
X15238Y30349
X15041Y31924
X15238Y33302
X16419Y33302
X17600Y32712
X18781Y32515
X19569Y32515
X20356Y32515
X21144Y32515
X21931Y32515
X23703Y33302
X24293Y34286
X25081Y35074
X26065Y34877
X25277Y36058
X25277Y36845
X26065Y36649
X25277Y37633
X25277Y38420
X26065Y38617
X23900Y38617
X21537Y38617
X19175Y38617
X19175Y36649
X17600Y35074
X17600Y33893
X19175Y34680
X21537Y34680
X21537Y36649
X26655Y32515
X27443Y32515
X28230Y32515
X30002Y33302
X30002Y34286
X30592Y35074
X30789Y36058
X30789Y37042
X30789Y38027
X28427Y38617
X28427Y36649
X28427Y34877
X32167Y34877
X36104Y33302
X36498Y34286
X36695Y35271
X36695Y36255
X36695Y37239
X41222Y36452
X42207Y36255
X42207Y37239
X43191Y36452
X42207Y35271
X42207Y34286
X42207Y33302
X43191Y34090
X40829Y32515
X40041Y32515
X45553Y30152
X47128Y30940
X47128Y31727
X48506Y31334
X48506Y30546
X48703Y29562
X49293Y29562
X48112Y29562
X47522Y28381
X47522Y27987
X47522Y27593
X51852Y30152
X51852Y30940
X51065Y30940
X51065Y31727
X51852Y31727
X52640Y31727
X53427Y31727
X53427Y30940
X52640Y30940
X52640Y32515
X51852Y32515
X51065Y32515
X50277Y32515
X50277Y31727
X50277Y30940
X48506Y32318
X51065Y36058
X54608Y33696
X53427Y32515
X54608Y30152
X55199Y29562
X56380Y29956
X56774Y29956
X53821Y28381
X53821Y27987
X53821Y27593
X56183Y26806
X56183Y26412
X56183Y26019
X51065Y38814
X51262Y39601
X33545Y21097
X29214Y19523
X17403Y25822
X17010Y25822
X16813Y27003
X16222Y27790
X15829Y27790
T02
X8939Y17326
X8939Y18576
X8939Y20076
X8939Y21326
X8364Y24050
X7577Y24050
X6364Y24050
X5577Y24050
X11089Y33893
X13089Y33893
X12482Y35361
X12482Y36361
T03
X43041Y17404
X43041Y16404
X44041Y16404
X45041Y16404
X46041Y16404
X47041Y16404
X48041Y16404
X49041Y16404
X50041Y16404
X51041Y16404
X51041Y17404
X50041Y17404
X49041Y17404
X48041Y17404
X47041Y17404
X46041Y17404
X45041Y17404
X44041Y17404
X44041Y15404
X45041Y15404
X45041Y14404
X44041Y14404
X44041Y13404
X45041Y13404
X46041Y13404
X47041Y13404
X48041Y13404
X49041Y13404
X50041Y13404
X51041Y13404
X51041Y14404
X50041Y14404
X49041Y14404
X48041Y14404
X47041Y14404
X46041Y14404
X46041Y15404
X47041Y15404
X48041Y15404
X49041Y15404
X50041Y15404
X51041Y15404
X43041Y13404
X43041Y14404
X43041Y15404
T04
X26943Y10074
X27943Y10074
X52640Y11542
X52640Y12542
X54214Y12542
X54214Y11542
X55289Y15389
X56289Y15389
X52443Y18826
X52443Y19826
T05
X18073Y7515
X19451Y7515
T06
X8364Y13420
X6364Y13420
X4002Y16964
X6002Y16964
X6002Y21294
X4002Y21294
X4199Y25625
X6199Y25625
X7939Y27987
X9939Y27987
X12270Y27987
X14270Y27987
X15238Y25050
X15238Y23050
X19569Y23050
X19569Y25050
X23900Y25050
X23900Y23050
X28230Y23050
X28230Y25050
X32561Y25050
X32561Y23050
X36892Y23050
X36892Y25050
X41222Y25050
X41222Y23050
X45553Y23050
X45553Y25050
X49884Y25050
X49884Y23050
X54214Y23050
X54214Y25050
X54396Y19916
X56396Y19916
X48923Y19723
X47923Y19723
X46923Y19723
X45923Y19723
X44923Y19723
X43923Y19723
X42923Y19723
X41923Y19723
X40923Y19723
X39923Y19723
X38923Y19723
X37923Y19723
X36923Y19723
X35923Y19723
X34923Y19723
X33923Y19723
X32923Y19723
X31923Y19723
X30923Y19723
X30923Y9723
X31923Y9723
X32923Y9723
X33923Y9723
X34923Y9723
X35923Y9723
X36923Y9723
X37923Y9723
X38923Y9723
X39923Y9723
X40923Y9723
X41923Y9723
X42923Y9723
X43923Y9723
X44923Y9723
X45923Y9723
X46923Y9723
X47923Y9723
X48923Y9723
X48829Y6560
X49829Y6560
X50829Y6560
X47829Y6560
X10120Y34074
X10120Y36074
X15844Y38830
X15844Y37830
X15844Y36830
X10907Y25050
X10907Y23050
T07
X10514Y12101
X10514Y17101
X13526Y20901
X18526Y20901
X20996Y9595
X20996Y5595
T08
X12089Y11845
X12089Y14208
X12089Y16570
X12089Y18932
X27837Y18932
X27837Y16570
X27837Y14208
X27837Y11845
X56577Y22475
T09
X8691Y31702
X10069Y31702
X12037Y31702
X13415Y31702
T10
X23134Y6727
X24694Y6727
X26254Y6727
X27814Y6727
X31796Y6727
X33356Y6727
X34916Y6727
X36476Y6727
X40457Y6727
X42017Y6727
X43577Y6727
X45137Y6727
T11
X10876Y9052
X14876Y9052
X23474Y35899
X27474Y35899
X34498Y35899
X38498Y35899
X45522Y35899
X49522Y35899
T12
X6577Y30743
X13270Y38223
T13
X4214Y12239
X5002Y28381
X16813Y31530
X56183Y31530
X56380Y12239
T14
X4608Y32712
X10514Y38617
M30
