G75*
G70*
%OFA0B0*%
%FSLAX24Y24*%
%IPPOS*%
%LPD*%
%AMOC8*
5,1,8,0,0,1.08239X$1,22.5*
%
%ADD10C,0.0000*%
%ADD11C,0.0150*%
%ADD12C,0.0110*%
%ADD13C,0.0180*%
D10*
X008939Y004759D02*
X008939Y010664D01*
X003033Y010664D01*
X003033Y034286D01*
X008939Y034286D01*
X008939Y040192D01*
X051852Y040192D01*
X051852Y034286D01*
X057758Y034286D01*
X057758Y010664D01*
X051852Y010664D01*
X051852Y004759D01*
X008939Y004759D01*
X003584Y012239D02*
X003586Y012289D01*
X003592Y012339D01*
X003602Y012388D01*
X003616Y012436D01*
X003633Y012483D01*
X003654Y012528D01*
X003679Y012572D01*
X003707Y012613D01*
X003739Y012652D01*
X003773Y012689D01*
X003810Y012723D01*
X003850Y012753D01*
X003892Y012780D01*
X003936Y012804D01*
X003982Y012825D01*
X004029Y012841D01*
X004077Y012854D01*
X004127Y012863D01*
X004176Y012868D01*
X004227Y012869D01*
X004277Y012866D01*
X004326Y012859D01*
X004375Y012848D01*
X004423Y012833D01*
X004469Y012815D01*
X004514Y012793D01*
X004557Y012767D01*
X004598Y012738D01*
X004637Y012706D01*
X004673Y012671D01*
X004705Y012633D01*
X004735Y012593D01*
X004762Y012550D01*
X004785Y012506D01*
X004804Y012460D01*
X004820Y012412D01*
X004832Y012363D01*
X004840Y012314D01*
X004844Y012264D01*
X004844Y012214D01*
X004840Y012164D01*
X004832Y012115D01*
X004820Y012066D01*
X004804Y012018D01*
X004785Y011972D01*
X004762Y011928D01*
X004735Y011885D01*
X004705Y011845D01*
X004673Y011807D01*
X004637Y011772D01*
X004598Y011740D01*
X004557Y011711D01*
X004514Y011685D01*
X004469Y011663D01*
X004423Y011645D01*
X004375Y011630D01*
X004326Y011619D01*
X004277Y011612D01*
X004227Y011609D01*
X004176Y011610D01*
X004127Y011615D01*
X004077Y011624D01*
X004029Y011637D01*
X003982Y011653D01*
X003936Y011674D01*
X003892Y011698D01*
X003850Y011725D01*
X003810Y011755D01*
X003773Y011789D01*
X003739Y011826D01*
X003707Y011865D01*
X003679Y011906D01*
X003654Y011950D01*
X003633Y011995D01*
X003616Y012042D01*
X003602Y012090D01*
X003592Y012139D01*
X003586Y012189D01*
X003584Y012239D01*
X004372Y028381D02*
X004374Y028431D01*
X004380Y028481D01*
X004390Y028530D01*
X004404Y028578D01*
X004421Y028625D01*
X004442Y028670D01*
X004467Y028714D01*
X004495Y028755D01*
X004527Y028794D01*
X004561Y028831D01*
X004598Y028865D01*
X004638Y028895D01*
X004680Y028922D01*
X004724Y028946D01*
X004770Y028967D01*
X004817Y028983D01*
X004865Y028996D01*
X004915Y029005D01*
X004964Y029010D01*
X005015Y029011D01*
X005065Y029008D01*
X005114Y029001D01*
X005163Y028990D01*
X005211Y028975D01*
X005257Y028957D01*
X005302Y028935D01*
X005345Y028909D01*
X005386Y028880D01*
X005425Y028848D01*
X005461Y028813D01*
X005493Y028775D01*
X005523Y028735D01*
X005550Y028692D01*
X005573Y028648D01*
X005592Y028602D01*
X005608Y028554D01*
X005620Y028505D01*
X005628Y028456D01*
X005632Y028406D01*
X005632Y028356D01*
X005628Y028306D01*
X005620Y028257D01*
X005608Y028208D01*
X005592Y028160D01*
X005573Y028114D01*
X005550Y028070D01*
X005523Y028027D01*
X005493Y027987D01*
X005461Y027949D01*
X005425Y027914D01*
X005386Y027882D01*
X005345Y027853D01*
X005302Y027827D01*
X005257Y027805D01*
X005211Y027787D01*
X005163Y027772D01*
X005114Y027761D01*
X005065Y027754D01*
X005015Y027751D01*
X004964Y027752D01*
X004915Y027757D01*
X004865Y027766D01*
X004817Y027779D01*
X004770Y027795D01*
X004724Y027816D01*
X004680Y027840D01*
X004638Y027867D01*
X004598Y027897D01*
X004561Y027931D01*
X004527Y027968D01*
X004495Y028007D01*
X004467Y028048D01*
X004442Y028092D01*
X004421Y028137D01*
X004404Y028184D01*
X004390Y028232D01*
X004380Y028281D01*
X004374Y028331D01*
X004372Y028381D01*
X003722Y032712D02*
X003724Y032771D01*
X003730Y032830D01*
X003740Y032888D01*
X003753Y032946D01*
X003771Y033003D01*
X003792Y033058D01*
X003817Y033112D01*
X003846Y033164D01*
X003878Y033213D01*
X003913Y033261D01*
X003951Y033306D01*
X003992Y033349D01*
X004036Y033389D01*
X004082Y033425D01*
X004131Y033459D01*
X004182Y033489D01*
X004235Y033516D01*
X004290Y033539D01*
X004345Y033558D01*
X004403Y033574D01*
X004461Y033586D01*
X004519Y033594D01*
X004578Y033598D01*
X004638Y033598D01*
X004697Y033594D01*
X004755Y033586D01*
X004813Y033574D01*
X004871Y033558D01*
X004926Y033539D01*
X004981Y033516D01*
X005034Y033489D01*
X005085Y033459D01*
X005134Y033425D01*
X005180Y033389D01*
X005224Y033349D01*
X005265Y033306D01*
X005303Y033261D01*
X005338Y033213D01*
X005370Y033164D01*
X005399Y033112D01*
X005424Y033058D01*
X005445Y033003D01*
X005463Y032946D01*
X005476Y032888D01*
X005486Y032830D01*
X005492Y032771D01*
X005494Y032712D01*
X005492Y032653D01*
X005486Y032594D01*
X005476Y032536D01*
X005463Y032478D01*
X005445Y032421D01*
X005424Y032366D01*
X005399Y032312D01*
X005370Y032260D01*
X005338Y032211D01*
X005303Y032163D01*
X005265Y032118D01*
X005224Y032075D01*
X005180Y032035D01*
X005134Y031999D01*
X005085Y031965D01*
X005034Y031935D01*
X004981Y031908D01*
X004926Y031885D01*
X004871Y031866D01*
X004813Y031850D01*
X004755Y031838D01*
X004697Y031830D01*
X004638Y031826D01*
X004578Y031826D01*
X004519Y031830D01*
X004461Y031838D01*
X004403Y031850D01*
X004345Y031866D01*
X004290Y031885D01*
X004235Y031908D01*
X004182Y031935D01*
X004131Y031965D01*
X004082Y031999D01*
X004036Y032035D01*
X003992Y032075D01*
X003951Y032118D01*
X003913Y032163D01*
X003878Y032211D01*
X003846Y032260D01*
X003817Y032312D01*
X003792Y032366D01*
X003771Y032421D01*
X003753Y032478D01*
X003740Y032536D01*
X003730Y032594D01*
X003724Y032653D01*
X003722Y032712D01*
X009628Y038617D02*
X009630Y038676D01*
X009636Y038735D01*
X009646Y038793D01*
X009659Y038851D01*
X009677Y038908D01*
X009698Y038963D01*
X009723Y039017D01*
X009752Y039069D01*
X009784Y039118D01*
X009819Y039166D01*
X009857Y039211D01*
X009898Y039254D01*
X009942Y039294D01*
X009988Y039330D01*
X010037Y039364D01*
X010088Y039394D01*
X010141Y039421D01*
X010196Y039444D01*
X010251Y039463D01*
X010309Y039479D01*
X010367Y039491D01*
X010425Y039499D01*
X010484Y039503D01*
X010544Y039503D01*
X010603Y039499D01*
X010661Y039491D01*
X010719Y039479D01*
X010777Y039463D01*
X010832Y039444D01*
X010887Y039421D01*
X010940Y039394D01*
X010991Y039364D01*
X011040Y039330D01*
X011086Y039294D01*
X011130Y039254D01*
X011171Y039211D01*
X011209Y039166D01*
X011244Y039118D01*
X011276Y039069D01*
X011305Y039017D01*
X011330Y038963D01*
X011351Y038908D01*
X011369Y038851D01*
X011382Y038793D01*
X011392Y038735D01*
X011398Y038676D01*
X011400Y038617D01*
X011398Y038558D01*
X011392Y038499D01*
X011382Y038441D01*
X011369Y038383D01*
X011351Y038326D01*
X011330Y038271D01*
X011305Y038217D01*
X011276Y038165D01*
X011244Y038116D01*
X011209Y038068D01*
X011171Y038023D01*
X011130Y037980D01*
X011086Y037940D01*
X011040Y037904D01*
X010991Y037870D01*
X010940Y037840D01*
X010887Y037813D01*
X010832Y037790D01*
X010777Y037771D01*
X010719Y037755D01*
X010661Y037743D01*
X010603Y037735D01*
X010544Y037731D01*
X010484Y037731D01*
X010425Y037735D01*
X010367Y037743D01*
X010309Y037755D01*
X010251Y037771D01*
X010196Y037790D01*
X010141Y037813D01*
X010088Y037840D01*
X010037Y037870D01*
X009988Y037904D01*
X009942Y037940D01*
X009898Y037980D01*
X009857Y038023D01*
X009819Y038068D01*
X009784Y038116D01*
X009752Y038165D01*
X009723Y038217D01*
X009698Y038271D01*
X009677Y038326D01*
X009659Y038383D01*
X009646Y038441D01*
X009636Y038499D01*
X009630Y038558D01*
X009628Y038617D01*
X016183Y031530D02*
X016185Y031580D01*
X016191Y031630D01*
X016201Y031679D01*
X016215Y031727D01*
X016232Y031774D01*
X016253Y031819D01*
X016278Y031863D01*
X016306Y031904D01*
X016338Y031943D01*
X016372Y031980D01*
X016409Y032014D01*
X016449Y032044D01*
X016491Y032071D01*
X016535Y032095D01*
X016581Y032116D01*
X016628Y032132D01*
X016676Y032145D01*
X016726Y032154D01*
X016775Y032159D01*
X016826Y032160D01*
X016876Y032157D01*
X016925Y032150D01*
X016974Y032139D01*
X017022Y032124D01*
X017068Y032106D01*
X017113Y032084D01*
X017156Y032058D01*
X017197Y032029D01*
X017236Y031997D01*
X017272Y031962D01*
X017304Y031924D01*
X017334Y031884D01*
X017361Y031841D01*
X017384Y031797D01*
X017403Y031751D01*
X017419Y031703D01*
X017431Y031654D01*
X017439Y031605D01*
X017443Y031555D01*
X017443Y031505D01*
X017439Y031455D01*
X017431Y031406D01*
X017419Y031357D01*
X017403Y031309D01*
X017384Y031263D01*
X017361Y031219D01*
X017334Y031176D01*
X017304Y031136D01*
X017272Y031098D01*
X017236Y031063D01*
X017197Y031031D01*
X017156Y031002D01*
X017113Y030976D01*
X017068Y030954D01*
X017022Y030936D01*
X016974Y030921D01*
X016925Y030910D01*
X016876Y030903D01*
X016826Y030900D01*
X016775Y030901D01*
X016726Y030906D01*
X016676Y030915D01*
X016628Y030928D01*
X016581Y030944D01*
X016535Y030965D01*
X016491Y030989D01*
X016449Y031016D01*
X016409Y031046D01*
X016372Y031080D01*
X016338Y031117D01*
X016306Y031156D01*
X016278Y031197D01*
X016253Y031241D01*
X016232Y031286D01*
X016215Y031333D01*
X016201Y031381D01*
X016191Y031430D01*
X016185Y031480D01*
X016183Y031530D01*
X055553Y031530D02*
X055555Y031580D01*
X055561Y031630D01*
X055571Y031679D01*
X055585Y031727D01*
X055602Y031774D01*
X055623Y031819D01*
X055648Y031863D01*
X055676Y031904D01*
X055708Y031943D01*
X055742Y031980D01*
X055779Y032014D01*
X055819Y032044D01*
X055861Y032071D01*
X055905Y032095D01*
X055951Y032116D01*
X055998Y032132D01*
X056046Y032145D01*
X056096Y032154D01*
X056145Y032159D01*
X056196Y032160D01*
X056246Y032157D01*
X056295Y032150D01*
X056344Y032139D01*
X056392Y032124D01*
X056438Y032106D01*
X056483Y032084D01*
X056526Y032058D01*
X056567Y032029D01*
X056606Y031997D01*
X056642Y031962D01*
X056674Y031924D01*
X056704Y031884D01*
X056731Y031841D01*
X056754Y031797D01*
X056773Y031751D01*
X056789Y031703D01*
X056801Y031654D01*
X056809Y031605D01*
X056813Y031555D01*
X056813Y031505D01*
X056809Y031455D01*
X056801Y031406D01*
X056789Y031357D01*
X056773Y031309D01*
X056754Y031263D01*
X056731Y031219D01*
X056704Y031176D01*
X056674Y031136D01*
X056642Y031098D01*
X056606Y031063D01*
X056567Y031031D01*
X056526Y031002D01*
X056483Y030976D01*
X056438Y030954D01*
X056392Y030936D01*
X056344Y030921D01*
X056295Y030910D01*
X056246Y030903D01*
X056196Y030900D01*
X056145Y030901D01*
X056096Y030906D01*
X056046Y030915D01*
X055998Y030928D01*
X055951Y030944D01*
X055905Y030965D01*
X055861Y030989D01*
X055819Y031016D01*
X055779Y031046D01*
X055742Y031080D01*
X055708Y031117D01*
X055676Y031156D01*
X055648Y031197D01*
X055623Y031241D01*
X055602Y031286D01*
X055585Y031333D01*
X055571Y031381D01*
X055561Y031430D01*
X055555Y031480D01*
X055553Y031530D01*
X055750Y012239D02*
X055752Y012289D01*
X055758Y012339D01*
X055768Y012388D01*
X055782Y012436D01*
X055799Y012483D01*
X055820Y012528D01*
X055845Y012572D01*
X055873Y012613D01*
X055905Y012652D01*
X055939Y012689D01*
X055976Y012723D01*
X056016Y012753D01*
X056058Y012780D01*
X056102Y012804D01*
X056148Y012825D01*
X056195Y012841D01*
X056243Y012854D01*
X056293Y012863D01*
X056342Y012868D01*
X056393Y012869D01*
X056443Y012866D01*
X056492Y012859D01*
X056541Y012848D01*
X056589Y012833D01*
X056635Y012815D01*
X056680Y012793D01*
X056723Y012767D01*
X056764Y012738D01*
X056803Y012706D01*
X056839Y012671D01*
X056871Y012633D01*
X056901Y012593D01*
X056928Y012550D01*
X056951Y012506D01*
X056970Y012460D01*
X056986Y012412D01*
X056998Y012363D01*
X057006Y012314D01*
X057010Y012264D01*
X057010Y012214D01*
X057006Y012164D01*
X056998Y012115D01*
X056986Y012066D01*
X056970Y012018D01*
X056951Y011972D01*
X056928Y011928D01*
X056901Y011885D01*
X056871Y011845D01*
X056839Y011807D01*
X056803Y011772D01*
X056764Y011740D01*
X056723Y011711D01*
X056680Y011685D01*
X056635Y011663D01*
X056589Y011645D01*
X056541Y011630D01*
X056492Y011619D01*
X056443Y011612D01*
X056393Y011609D01*
X056342Y011610D01*
X056293Y011615D01*
X056243Y011624D01*
X056195Y011637D01*
X056148Y011653D01*
X056102Y011674D01*
X056058Y011698D01*
X056016Y011725D01*
X055976Y011755D01*
X055939Y011789D01*
X055905Y011826D01*
X055873Y011865D01*
X055845Y011906D01*
X055820Y011950D01*
X055799Y011995D01*
X055782Y012042D01*
X055768Y012090D01*
X055758Y012139D01*
X055752Y012189D01*
X055750Y012239D01*
D11*
X044297Y008891D02*
X044297Y008180D01*
X043823Y008180D01*
X043505Y008180D02*
X043505Y008891D01*
X043031Y008180D01*
X043031Y008891D01*
X042713Y008772D02*
X042713Y008299D01*
X042595Y008180D01*
X042358Y008180D01*
X042239Y008299D01*
X041921Y008417D02*
X041566Y008417D01*
X041448Y008536D01*
X041448Y008772D01*
X041566Y008891D01*
X041921Y008891D01*
X041921Y008180D01*
X041684Y008417D02*
X041448Y008180D01*
X042239Y008772D02*
X042358Y008891D01*
X042595Y008891D01*
X042713Y008772D01*
X043823Y008891D02*
X044297Y008891D01*
X044297Y008536D02*
X044060Y008536D01*
X035636Y008536D02*
X035399Y008536D01*
X035636Y008891D02*
X035636Y008180D01*
X035162Y008180D01*
X034844Y008180D02*
X034844Y008891D01*
X034370Y008180D01*
X034370Y008891D01*
X034052Y008772D02*
X034052Y008299D01*
X033933Y008180D01*
X033696Y008180D01*
X033578Y008299D01*
X033260Y008299D02*
X033141Y008180D01*
X032905Y008180D01*
X032786Y008299D01*
X032786Y008772D02*
X032905Y008891D01*
X033141Y008891D01*
X033260Y008772D01*
X033260Y008299D01*
X033578Y008772D02*
X033696Y008891D01*
X033933Y008891D01*
X034052Y008772D01*
X035162Y008891D02*
X035636Y008891D01*
X026187Y009952D02*
X025713Y009952D01*
X025395Y009952D02*
X025395Y010663D01*
X024921Y009952D01*
X024921Y010663D01*
X024603Y010544D02*
X024603Y010070D01*
X024485Y009952D01*
X024248Y009952D01*
X024129Y010070D01*
X023811Y009952D02*
X023337Y009952D01*
X023811Y009952D02*
X023811Y010663D01*
X024129Y010544D02*
X024248Y010663D01*
X024485Y010663D01*
X024603Y010544D01*
X025713Y010663D02*
X026187Y010663D01*
X026187Y009952D01*
X026187Y010307D02*
X025950Y010307D01*
D12*
X026404Y009025D02*
X026404Y008704D01*
X026404Y008864D02*
X025923Y008864D01*
X026003Y008481D02*
X026324Y008481D01*
X026404Y008401D01*
X026404Y008160D01*
X025923Y008160D01*
X025923Y008401D01*
X026003Y008481D01*
X024829Y008401D02*
X024829Y008240D01*
X024749Y008160D01*
X024428Y008160D01*
X024348Y008240D01*
X024348Y008401D01*
X024428Y008481D01*
X024348Y008704D02*
X024829Y008704D01*
X024749Y008481D02*
X024829Y008401D01*
X024509Y008704D02*
X024829Y009025D01*
X024589Y008784D02*
X024348Y009025D01*
X023254Y009025D02*
X022934Y009025D01*
X022773Y008864D01*
X022934Y008704D01*
X023254Y008704D01*
X023174Y008481D02*
X023094Y008481D01*
X023014Y008401D01*
X022934Y008481D01*
X022854Y008481D01*
X022773Y008401D01*
X022773Y008240D01*
X022854Y008160D01*
X023014Y008321D02*
X023014Y008401D01*
X023174Y008481D02*
X023254Y008401D01*
X023254Y008240D01*
X023174Y008160D01*
X023174Y009248D02*
X023254Y009328D01*
X023254Y009488D01*
X023174Y009568D01*
X023094Y009568D01*
X023014Y009488D01*
X022934Y009568D01*
X022854Y009568D01*
X022773Y009488D01*
X022773Y009328D01*
X022854Y009248D01*
X023014Y009408D02*
X023014Y009488D01*
X027498Y009488D02*
X027498Y009248D01*
X027979Y009248D01*
X027979Y009488D01*
X027899Y009568D01*
X027578Y009568D01*
X027498Y009488D01*
X027498Y009025D02*
X027979Y009025D01*
X027979Y008704D02*
X027498Y008704D01*
X027578Y008481D02*
X027738Y008481D01*
X027738Y008321D01*
X027578Y008481D02*
X027498Y008401D01*
X027498Y008240D01*
X027578Y008160D01*
X027899Y008160D01*
X027979Y008240D01*
X027979Y008401D01*
X027899Y008481D01*
X027979Y008704D02*
X027498Y009025D01*
X006558Y032256D02*
X006558Y032577D01*
X006445Y032767D02*
X006445Y033087D01*
X006605Y033248D01*
X006765Y033087D01*
X006765Y032767D01*
X006988Y032847D02*
X006988Y032927D01*
X007069Y033007D01*
X007309Y033007D01*
X007069Y033007D02*
X006988Y033087D01*
X006988Y033167D01*
X007069Y033248D01*
X007309Y033248D01*
X007309Y032767D01*
X007069Y032767D01*
X006988Y032847D01*
X006765Y033007D02*
X006445Y033007D01*
X006222Y033248D02*
X005901Y033248D01*
X006061Y033248D02*
X006061Y032767D01*
X006398Y032416D02*
X006719Y032416D01*
X013091Y039700D02*
X013411Y039700D01*
X013775Y039940D02*
X014096Y039940D01*
X013935Y039940D02*
X013935Y039459D01*
X014319Y039459D02*
X014319Y039780D01*
X014479Y039940D01*
X014639Y039780D01*
X014639Y039459D01*
X014862Y039540D02*
X014943Y039459D01*
X015183Y039459D01*
X015183Y039940D01*
X014943Y039940D01*
X014862Y039860D01*
X014862Y039780D01*
X014943Y039700D01*
X015183Y039700D01*
X014943Y039700D02*
X014862Y039620D01*
X014862Y039540D01*
X014639Y039700D02*
X014319Y039700D01*
D13*
X015707Y016382D02*
X015707Y015577D01*
X015841Y015577D02*
X015573Y015577D01*
X015237Y015711D02*
X015237Y015980D01*
X015103Y016114D01*
X014834Y016114D01*
X014700Y015980D01*
X014700Y015845D01*
X015237Y015845D01*
X015237Y015711D02*
X015103Y015577D01*
X014834Y015577D01*
X014331Y015577D02*
X014331Y016114D01*
X014331Y015845D02*
X014062Y016114D01*
X013928Y016114D01*
X013928Y014906D02*
X013794Y014772D01*
X013794Y014637D01*
X014331Y014101D01*
X013794Y014101D01*
X013928Y014906D02*
X014196Y014906D01*
X014331Y014772D01*
X014700Y014772D02*
X014834Y014906D01*
X015103Y014906D01*
X015237Y014772D01*
X015607Y014772D02*
X016143Y014235D01*
X016009Y014101D01*
X015741Y014101D01*
X015607Y014235D01*
X015607Y014772D01*
X015741Y014906D01*
X016009Y014906D01*
X016143Y014772D01*
X016143Y014235D01*
X016513Y014101D02*
X017049Y014101D01*
X016513Y014637D01*
X016513Y014772D01*
X016647Y014906D01*
X016915Y014906D01*
X017049Y014772D01*
X016949Y015577D02*
X016815Y015711D01*
X016815Y015980D01*
X016949Y016114D01*
X017217Y016114D01*
X017352Y015980D01*
X017352Y015711D01*
X017217Y015577D01*
X016949Y015577D01*
X016445Y015577D02*
X016177Y015577D01*
X016311Y015577D02*
X016311Y016382D01*
X016445Y016382D01*
X015841Y016382D02*
X015707Y016382D01*
X017704Y016114D02*
X017838Y016114D01*
X018107Y015845D01*
X018107Y015577D02*
X018107Y016114D01*
X018443Y016114D02*
X018711Y016114D01*
X018577Y016248D02*
X018577Y015711D01*
X018443Y015577D01*
X019081Y015577D02*
X019081Y015980D01*
X019215Y016114D01*
X019617Y016114D01*
X019617Y015577D01*
X019987Y015711D02*
X019987Y015980D01*
X020121Y016114D01*
X020389Y016114D01*
X020524Y015980D01*
X020524Y015711D01*
X020389Y015577D01*
X020121Y015577D01*
X019987Y015711D01*
X020138Y014906D02*
X020138Y014101D01*
X020540Y014101D01*
X020675Y014235D01*
X020675Y014503D01*
X020540Y014637D01*
X020138Y014637D01*
X019768Y014503D02*
X019634Y014637D01*
X019366Y014637D01*
X019232Y014503D01*
X019232Y014369D01*
X019768Y014369D01*
X019768Y014235D02*
X019768Y014503D01*
X019768Y014235D02*
X019634Y014101D01*
X019366Y014101D01*
X018862Y014235D02*
X018728Y014101D01*
X018325Y014101D01*
X018862Y014235D02*
X018862Y014503D01*
X018728Y014637D01*
X018325Y014637D01*
X020893Y015577D02*
X021296Y015577D01*
X021430Y015711D01*
X021430Y015980D01*
X021296Y016114D01*
X020893Y016114D01*
X022672Y016114D02*
X022940Y016114D01*
X022806Y016248D02*
X022806Y015711D01*
X022672Y015577D01*
X023310Y015711D02*
X023310Y015980D01*
X023444Y016114D01*
X023712Y016114D01*
X023847Y015980D01*
X023847Y015711D01*
X023712Y015577D01*
X023444Y015577D01*
X023310Y015711D01*
X024216Y015711D02*
X024216Y015980D01*
X024350Y016114D01*
X024753Y016114D01*
X024753Y016382D02*
X024753Y015577D01*
X024350Y015577D01*
X024216Y015711D01*
X024031Y014906D02*
X024031Y014101D01*
X023763Y014101D02*
X024300Y014101D01*
X024619Y014101D02*
X024619Y014235D01*
X024753Y014235D01*
X024753Y014101D01*
X024619Y014101D01*
X025123Y014101D02*
X025659Y014101D01*
X025391Y014101D02*
X025391Y014906D01*
X025659Y014637D01*
X026029Y014637D02*
X026297Y014101D01*
X026565Y014637D01*
X026565Y015577D02*
X026565Y016382D01*
X026163Y016382D01*
X026029Y016248D01*
X026029Y015980D01*
X026163Y015845D01*
X026565Y015845D01*
X026297Y015845D02*
X026029Y015577D01*
X025659Y015711D02*
X025525Y015577D01*
X025257Y015577D01*
X025123Y015711D01*
X025123Y015980D01*
X025257Y016114D01*
X025525Y016114D01*
X025659Y015980D01*
X025659Y015711D01*
X024300Y014637D02*
X024031Y014906D01*
X022487Y014503D02*
X021951Y014503D01*
X015237Y014101D02*
X014700Y014637D01*
X014700Y014772D01*
X014700Y014101D02*
X015237Y014101D01*
M02*
