G75*
G70*
%OFA0B0*%
%FSLAX24Y24*%
%IPPOS*%
%LPD*%
%AMOC8*
5,1,8,0,0,1.08239X$1,22.5*
%
%ADD10C,0.0000*%
%ADD11C,0.0660*%
%ADD12C,0.0600*%
%ADD13C,0.0560*%
%ADD14C,0.1063*%
%ADD15C,0.1000*%
%ADD16OC8,0.1000*%
%ADD17C,0.0860*%
%ADD18C,0.1065*%
%ADD19C,0.0520*%
%ADD20C,0.0660*%
%ADD21C,0.1181*%
%ADD22R,0.1000X0.1000*%
%ADD23OC8,0.0600*%
%ADD24OC8,0.0520*%
%ADD25OC8,0.0630*%
%ADD26C,0.0630*%
%ADD27C,0.0357*%
%ADD28C,0.0160*%
%ADD29R,0.0760X0.0760*%
%ADD30C,0.1000*%
%ADD31C,0.0591*%
%ADD32C,0.0315*%
%ADD33C,0.0157*%
%ADD34C,0.1772*%
%ADD35C,0.0240*%
D10*
X008939Y004759D02*
X008939Y010664D01*
X003033Y010664D01*
X003033Y034286D01*
X008939Y034286D01*
X008939Y040192D01*
X051852Y040192D01*
X051852Y034286D01*
X057758Y034286D01*
X057758Y010664D01*
X051852Y010664D01*
X051852Y004759D01*
X008939Y004759D01*
X003584Y012239D02*
X003586Y012289D01*
X003592Y012339D01*
X003602Y012388D01*
X003616Y012436D01*
X003633Y012483D01*
X003654Y012528D01*
X003679Y012572D01*
X003707Y012613D01*
X003739Y012652D01*
X003773Y012689D01*
X003810Y012723D01*
X003850Y012753D01*
X003892Y012780D01*
X003936Y012804D01*
X003982Y012825D01*
X004029Y012841D01*
X004077Y012854D01*
X004127Y012863D01*
X004176Y012868D01*
X004227Y012869D01*
X004277Y012866D01*
X004326Y012859D01*
X004375Y012848D01*
X004423Y012833D01*
X004469Y012815D01*
X004514Y012793D01*
X004557Y012767D01*
X004598Y012738D01*
X004637Y012706D01*
X004673Y012671D01*
X004705Y012633D01*
X004735Y012593D01*
X004762Y012550D01*
X004785Y012506D01*
X004804Y012460D01*
X004820Y012412D01*
X004832Y012363D01*
X004840Y012314D01*
X004844Y012264D01*
X004844Y012214D01*
X004840Y012164D01*
X004832Y012115D01*
X004820Y012066D01*
X004804Y012018D01*
X004785Y011972D01*
X004762Y011928D01*
X004735Y011885D01*
X004705Y011845D01*
X004673Y011807D01*
X004637Y011772D01*
X004598Y011740D01*
X004557Y011711D01*
X004514Y011685D01*
X004469Y011663D01*
X004423Y011645D01*
X004375Y011630D01*
X004326Y011619D01*
X004277Y011612D01*
X004227Y011609D01*
X004176Y011610D01*
X004127Y011615D01*
X004077Y011624D01*
X004029Y011637D01*
X003982Y011653D01*
X003936Y011674D01*
X003892Y011698D01*
X003850Y011725D01*
X003810Y011755D01*
X003773Y011789D01*
X003739Y011826D01*
X003707Y011865D01*
X003679Y011906D01*
X003654Y011950D01*
X003633Y011995D01*
X003616Y012042D01*
X003602Y012090D01*
X003592Y012139D01*
X003586Y012189D01*
X003584Y012239D01*
X004372Y028381D02*
X004374Y028431D01*
X004380Y028481D01*
X004390Y028530D01*
X004404Y028578D01*
X004421Y028625D01*
X004442Y028670D01*
X004467Y028714D01*
X004495Y028755D01*
X004527Y028794D01*
X004561Y028831D01*
X004598Y028865D01*
X004638Y028895D01*
X004680Y028922D01*
X004724Y028946D01*
X004770Y028967D01*
X004817Y028983D01*
X004865Y028996D01*
X004915Y029005D01*
X004964Y029010D01*
X005015Y029011D01*
X005065Y029008D01*
X005114Y029001D01*
X005163Y028990D01*
X005211Y028975D01*
X005257Y028957D01*
X005302Y028935D01*
X005345Y028909D01*
X005386Y028880D01*
X005425Y028848D01*
X005461Y028813D01*
X005493Y028775D01*
X005523Y028735D01*
X005550Y028692D01*
X005573Y028648D01*
X005592Y028602D01*
X005608Y028554D01*
X005620Y028505D01*
X005628Y028456D01*
X005632Y028406D01*
X005632Y028356D01*
X005628Y028306D01*
X005620Y028257D01*
X005608Y028208D01*
X005592Y028160D01*
X005573Y028114D01*
X005550Y028070D01*
X005523Y028027D01*
X005493Y027987D01*
X005461Y027949D01*
X005425Y027914D01*
X005386Y027882D01*
X005345Y027853D01*
X005302Y027827D01*
X005257Y027805D01*
X005211Y027787D01*
X005163Y027772D01*
X005114Y027761D01*
X005065Y027754D01*
X005015Y027751D01*
X004964Y027752D01*
X004915Y027757D01*
X004865Y027766D01*
X004817Y027779D01*
X004770Y027795D01*
X004724Y027816D01*
X004680Y027840D01*
X004638Y027867D01*
X004598Y027897D01*
X004561Y027931D01*
X004527Y027968D01*
X004495Y028007D01*
X004467Y028048D01*
X004442Y028092D01*
X004421Y028137D01*
X004404Y028184D01*
X004390Y028232D01*
X004380Y028281D01*
X004374Y028331D01*
X004372Y028381D01*
X003722Y032712D02*
X003724Y032771D01*
X003730Y032830D01*
X003740Y032888D01*
X003753Y032946D01*
X003771Y033003D01*
X003792Y033058D01*
X003817Y033112D01*
X003846Y033164D01*
X003878Y033213D01*
X003913Y033261D01*
X003951Y033306D01*
X003992Y033349D01*
X004036Y033389D01*
X004082Y033425D01*
X004131Y033459D01*
X004182Y033489D01*
X004235Y033516D01*
X004290Y033539D01*
X004345Y033558D01*
X004403Y033574D01*
X004461Y033586D01*
X004519Y033594D01*
X004578Y033598D01*
X004638Y033598D01*
X004697Y033594D01*
X004755Y033586D01*
X004813Y033574D01*
X004871Y033558D01*
X004926Y033539D01*
X004981Y033516D01*
X005034Y033489D01*
X005085Y033459D01*
X005134Y033425D01*
X005180Y033389D01*
X005224Y033349D01*
X005265Y033306D01*
X005303Y033261D01*
X005338Y033213D01*
X005370Y033164D01*
X005399Y033112D01*
X005424Y033058D01*
X005445Y033003D01*
X005463Y032946D01*
X005476Y032888D01*
X005486Y032830D01*
X005492Y032771D01*
X005494Y032712D01*
X005492Y032653D01*
X005486Y032594D01*
X005476Y032536D01*
X005463Y032478D01*
X005445Y032421D01*
X005424Y032366D01*
X005399Y032312D01*
X005370Y032260D01*
X005338Y032211D01*
X005303Y032163D01*
X005265Y032118D01*
X005224Y032075D01*
X005180Y032035D01*
X005134Y031999D01*
X005085Y031965D01*
X005034Y031935D01*
X004981Y031908D01*
X004926Y031885D01*
X004871Y031866D01*
X004813Y031850D01*
X004755Y031838D01*
X004697Y031830D01*
X004638Y031826D01*
X004578Y031826D01*
X004519Y031830D01*
X004461Y031838D01*
X004403Y031850D01*
X004345Y031866D01*
X004290Y031885D01*
X004235Y031908D01*
X004182Y031935D01*
X004131Y031965D01*
X004082Y031999D01*
X004036Y032035D01*
X003992Y032075D01*
X003951Y032118D01*
X003913Y032163D01*
X003878Y032211D01*
X003846Y032260D01*
X003817Y032312D01*
X003792Y032366D01*
X003771Y032421D01*
X003753Y032478D01*
X003740Y032536D01*
X003730Y032594D01*
X003724Y032653D01*
X003722Y032712D01*
X009628Y038617D02*
X009630Y038676D01*
X009636Y038735D01*
X009646Y038793D01*
X009659Y038851D01*
X009677Y038908D01*
X009698Y038963D01*
X009723Y039017D01*
X009752Y039069D01*
X009784Y039118D01*
X009819Y039166D01*
X009857Y039211D01*
X009898Y039254D01*
X009942Y039294D01*
X009988Y039330D01*
X010037Y039364D01*
X010088Y039394D01*
X010141Y039421D01*
X010196Y039444D01*
X010251Y039463D01*
X010309Y039479D01*
X010367Y039491D01*
X010425Y039499D01*
X010484Y039503D01*
X010544Y039503D01*
X010603Y039499D01*
X010661Y039491D01*
X010719Y039479D01*
X010777Y039463D01*
X010832Y039444D01*
X010887Y039421D01*
X010940Y039394D01*
X010991Y039364D01*
X011040Y039330D01*
X011086Y039294D01*
X011130Y039254D01*
X011171Y039211D01*
X011209Y039166D01*
X011244Y039118D01*
X011276Y039069D01*
X011305Y039017D01*
X011330Y038963D01*
X011351Y038908D01*
X011369Y038851D01*
X011382Y038793D01*
X011392Y038735D01*
X011398Y038676D01*
X011400Y038617D01*
X011398Y038558D01*
X011392Y038499D01*
X011382Y038441D01*
X011369Y038383D01*
X011351Y038326D01*
X011330Y038271D01*
X011305Y038217D01*
X011276Y038165D01*
X011244Y038116D01*
X011209Y038068D01*
X011171Y038023D01*
X011130Y037980D01*
X011086Y037940D01*
X011040Y037904D01*
X010991Y037870D01*
X010940Y037840D01*
X010887Y037813D01*
X010832Y037790D01*
X010777Y037771D01*
X010719Y037755D01*
X010661Y037743D01*
X010603Y037735D01*
X010544Y037731D01*
X010484Y037731D01*
X010425Y037735D01*
X010367Y037743D01*
X010309Y037755D01*
X010251Y037771D01*
X010196Y037790D01*
X010141Y037813D01*
X010088Y037840D01*
X010037Y037870D01*
X009988Y037904D01*
X009942Y037940D01*
X009898Y037980D01*
X009857Y038023D01*
X009819Y038068D01*
X009784Y038116D01*
X009752Y038165D01*
X009723Y038217D01*
X009698Y038271D01*
X009677Y038326D01*
X009659Y038383D01*
X009646Y038441D01*
X009636Y038499D01*
X009630Y038558D01*
X009628Y038617D01*
X016183Y031530D02*
X016185Y031580D01*
X016191Y031630D01*
X016201Y031679D01*
X016215Y031727D01*
X016232Y031774D01*
X016253Y031819D01*
X016278Y031863D01*
X016306Y031904D01*
X016338Y031943D01*
X016372Y031980D01*
X016409Y032014D01*
X016449Y032044D01*
X016491Y032071D01*
X016535Y032095D01*
X016581Y032116D01*
X016628Y032132D01*
X016676Y032145D01*
X016726Y032154D01*
X016775Y032159D01*
X016826Y032160D01*
X016876Y032157D01*
X016925Y032150D01*
X016974Y032139D01*
X017022Y032124D01*
X017068Y032106D01*
X017113Y032084D01*
X017156Y032058D01*
X017197Y032029D01*
X017236Y031997D01*
X017272Y031962D01*
X017304Y031924D01*
X017334Y031884D01*
X017361Y031841D01*
X017384Y031797D01*
X017403Y031751D01*
X017419Y031703D01*
X017431Y031654D01*
X017439Y031605D01*
X017443Y031555D01*
X017443Y031505D01*
X017439Y031455D01*
X017431Y031406D01*
X017419Y031357D01*
X017403Y031309D01*
X017384Y031263D01*
X017361Y031219D01*
X017334Y031176D01*
X017304Y031136D01*
X017272Y031098D01*
X017236Y031063D01*
X017197Y031031D01*
X017156Y031002D01*
X017113Y030976D01*
X017068Y030954D01*
X017022Y030936D01*
X016974Y030921D01*
X016925Y030910D01*
X016876Y030903D01*
X016826Y030900D01*
X016775Y030901D01*
X016726Y030906D01*
X016676Y030915D01*
X016628Y030928D01*
X016581Y030944D01*
X016535Y030965D01*
X016491Y030989D01*
X016449Y031016D01*
X016409Y031046D01*
X016372Y031080D01*
X016338Y031117D01*
X016306Y031156D01*
X016278Y031197D01*
X016253Y031241D01*
X016232Y031286D01*
X016215Y031333D01*
X016201Y031381D01*
X016191Y031430D01*
X016185Y031480D01*
X016183Y031530D01*
X055553Y031530D02*
X055555Y031580D01*
X055561Y031630D01*
X055571Y031679D01*
X055585Y031727D01*
X055602Y031774D01*
X055623Y031819D01*
X055648Y031863D01*
X055676Y031904D01*
X055708Y031943D01*
X055742Y031980D01*
X055779Y032014D01*
X055819Y032044D01*
X055861Y032071D01*
X055905Y032095D01*
X055951Y032116D01*
X055998Y032132D01*
X056046Y032145D01*
X056096Y032154D01*
X056145Y032159D01*
X056196Y032160D01*
X056246Y032157D01*
X056295Y032150D01*
X056344Y032139D01*
X056392Y032124D01*
X056438Y032106D01*
X056483Y032084D01*
X056526Y032058D01*
X056567Y032029D01*
X056606Y031997D01*
X056642Y031962D01*
X056674Y031924D01*
X056704Y031884D01*
X056731Y031841D01*
X056754Y031797D01*
X056773Y031751D01*
X056789Y031703D01*
X056801Y031654D01*
X056809Y031605D01*
X056813Y031555D01*
X056813Y031505D01*
X056809Y031455D01*
X056801Y031406D01*
X056789Y031357D01*
X056773Y031309D01*
X056754Y031263D01*
X056731Y031219D01*
X056704Y031176D01*
X056674Y031136D01*
X056642Y031098D01*
X056606Y031063D01*
X056567Y031031D01*
X056526Y031002D01*
X056483Y030976D01*
X056438Y030954D01*
X056392Y030936D01*
X056344Y030921D01*
X056295Y030910D01*
X056246Y030903D01*
X056196Y030900D01*
X056145Y030901D01*
X056096Y030906D01*
X056046Y030915D01*
X055998Y030928D01*
X055951Y030944D01*
X055905Y030965D01*
X055861Y030989D01*
X055819Y031016D01*
X055779Y031046D01*
X055742Y031080D01*
X055708Y031117D01*
X055676Y031156D01*
X055648Y031197D01*
X055623Y031241D01*
X055602Y031286D01*
X055585Y031333D01*
X055571Y031381D01*
X055561Y031430D01*
X055555Y031480D01*
X055553Y031530D01*
X055750Y012239D02*
X055752Y012289D01*
X055758Y012339D01*
X055768Y012388D01*
X055782Y012436D01*
X055799Y012483D01*
X055820Y012528D01*
X055845Y012572D01*
X055873Y012613D01*
X055905Y012652D01*
X055939Y012689D01*
X055976Y012723D01*
X056016Y012753D01*
X056058Y012780D01*
X056102Y012804D01*
X056148Y012825D01*
X056195Y012841D01*
X056243Y012854D01*
X056293Y012863D01*
X056342Y012868D01*
X056393Y012869D01*
X056443Y012866D01*
X056492Y012859D01*
X056541Y012848D01*
X056589Y012833D01*
X056635Y012815D01*
X056680Y012793D01*
X056723Y012767D01*
X056764Y012738D01*
X056803Y012706D01*
X056839Y012671D01*
X056871Y012633D01*
X056901Y012593D01*
X056928Y012550D01*
X056951Y012506D01*
X056970Y012460D01*
X056986Y012412D01*
X056998Y012363D01*
X057006Y012314D01*
X057010Y012264D01*
X057010Y012214D01*
X057006Y012164D01*
X056998Y012115D01*
X056986Y012066D01*
X056970Y012018D01*
X056951Y011972D01*
X056928Y011928D01*
X056901Y011885D01*
X056871Y011845D01*
X056839Y011807D01*
X056803Y011772D01*
X056764Y011740D01*
X056723Y011711D01*
X056680Y011685D01*
X056635Y011663D01*
X056589Y011645D01*
X056541Y011630D01*
X056492Y011619D01*
X056443Y011612D01*
X056393Y011609D01*
X056342Y011610D01*
X056293Y011615D01*
X056243Y011624D01*
X056195Y011637D01*
X056148Y011653D01*
X056102Y011674D01*
X056058Y011698D01*
X056016Y011725D01*
X055976Y011755D01*
X055939Y011789D01*
X055905Y011826D01*
X055873Y011865D01*
X055845Y011906D01*
X055820Y011950D01*
X055799Y011995D01*
X055782Y012042D01*
X055768Y012090D01*
X055758Y012139D01*
X055752Y012189D01*
X055750Y012239D01*
D11*
X020996Y009595D03*
X020996Y005595D03*
D12*
X030923Y009423D02*
X030923Y010023D01*
X031923Y010023D02*
X031923Y009423D01*
X032923Y009423D02*
X032923Y010023D01*
X033923Y010023D02*
X033923Y009423D01*
X034923Y009423D02*
X034923Y010023D01*
X035923Y010023D02*
X035923Y009423D01*
X036923Y009423D02*
X036923Y010023D01*
X037923Y010023D02*
X037923Y009423D01*
X038923Y009423D02*
X038923Y010023D01*
X039923Y010023D02*
X039923Y009423D01*
X040923Y009423D02*
X040923Y010023D01*
X041923Y010023D02*
X041923Y009423D01*
X042923Y009423D02*
X042923Y010023D01*
X043923Y010023D02*
X043923Y009423D01*
X044923Y009423D02*
X044923Y010023D01*
X045923Y010023D02*
X045923Y009423D01*
X046923Y009423D02*
X046923Y010023D01*
X047923Y010023D02*
X047923Y009423D01*
X048923Y009423D02*
X048923Y010023D01*
X048829Y006860D02*
X048829Y006260D01*
X049829Y006260D02*
X049829Y006860D01*
X050829Y006860D02*
X050829Y006260D01*
X047829Y006260D02*
X047829Y006860D01*
X047923Y019423D02*
X047923Y020023D01*
X046923Y020023D02*
X046923Y019423D01*
X045923Y019423D02*
X045923Y020023D01*
X044923Y020023D02*
X044923Y019423D01*
X043923Y019423D02*
X043923Y020023D01*
X042923Y020023D02*
X042923Y019423D01*
X041923Y019423D02*
X041923Y020023D01*
X040923Y020023D02*
X040923Y019423D01*
X039923Y019423D02*
X039923Y020023D01*
X038923Y020023D02*
X038923Y019423D01*
X037923Y019423D02*
X037923Y020023D01*
X036923Y020023D02*
X036923Y019423D01*
X035923Y019423D02*
X035923Y020023D01*
X034923Y020023D02*
X034923Y019423D01*
X033923Y019423D02*
X033923Y020023D01*
X032923Y020023D02*
X032923Y019423D01*
X031923Y019423D02*
X031923Y020023D01*
X030923Y020023D02*
X030923Y019423D01*
X048923Y019423D02*
X048923Y020023D01*
X016144Y036830D02*
X015544Y036830D01*
X015544Y037830D02*
X016144Y037830D01*
X016144Y038830D02*
X015544Y038830D01*
D13*
X052163Y019826D02*
X052723Y019826D01*
X052723Y018826D02*
X052163Y018826D01*
X053124Y012519D02*
X053124Y011959D01*
X054124Y011959D02*
X054124Y012519D01*
X027943Y010354D02*
X027943Y009794D01*
X026943Y009794D02*
X026943Y010354D01*
D14*
X013415Y031170D02*
X013415Y032233D01*
X012037Y032233D02*
X012037Y031170D01*
X010069Y031170D02*
X010069Y032233D01*
X008691Y032233D02*
X008691Y031170D01*
D15*
X009939Y027987D03*
X012270Y027987D03*
X010907Y025050D03*
X015238Y025050D03*
X019569Y025050D03*
X023900Y025050D03*
X028230Y025050D03*
X032561Y025050D03*
X036892Y025050D03*
X041222Y025050D03*
X045553Y025050D03*
X049884Y025050D03*
X054214Y025050D03*
X056396Y019916D03*
X008364Y013420D03*
X006002Y016964D03*
X006002Y021294D03*
D16*
X004002Y021294D03*
X004002Y016964D03*
X006364Y013420D03*
X010907Y023050D03*
X015238Y023050D03*
X019569Y023050D03*
X023900Y023050D03*
X028230Y023050D03*
X032561Y023050D03*
X036892Y023050D03*
X041222Y023050D03*
X045553Y023050D03*
X049884Y023050D03*
X054214Y023050D03*
X054396Y019916D03*
X014270Y027987D03*
X007939Y027987D03*
D17*
X018073Y007515D03*
X019451Y007515D03*
D18*
X023134Y007260D02*
X023134Y006195D01*
X024694Y006195D02*
X024694Y007260D01*
X026254Y007260D02*
X026254Y006195D01*
X027814Y006195D02*
X027814Y007260D01*
X031796Y007260D02*
X031796Y006195D01*
X033356Y006195D02*
X033356Y007260D01*
X034916Y007260D02*
X034916Y006195D01*
X036476Y006195D02*
X036476Y007260D01*
X040457Y007260D02*
X040457Y006195D01*
X042017Y006195D02*
X042017Y007260D01*
X043577Y007260D02*
X043577Y006195D01*
X045137Y006195D02*
X045137Y007260D01*
D19*
X008939Y017066D02*
X008939Y017586D01*
X008679Y018576D02*
X009199Y018576D01*
X009199Y020076D02*
X008679Y020076D01*
X008939Y021066D02*
X008939Y021586D01*
D20*
X013196Y020901D02*
X013856Y020901D01*
X018196Y020901D02*
X018856Y020901D01*
X010514Y017431D02*
X010514Y016771D01*
X010514Y012431D02*
X010514Y011771D01*
D21*
X010876Y009643D02*
X010876Y008462D01*
X014876Y008462D02*
X014876Y009643D01*
X023474Y035308D02*
X023474Y036489D01*
X027474Y036489D02*
X027474Y035308D01*
X034498Y035308D02*
X034498Y036489D01*
X038498Y036489D02*
X038498Y035308D01*
X045522Y035308D02*
X045522Y036489D01*
X049522Y036489D02*
X049522Y035308D01*
D22*
X027837Y018932D03*
X027837Y016570D03*
X027837Y014208D03*
X027837Y011845D03*
X012089Y011845D03*
X012089Y014208D03*
X012089Y016570D03*
X012089Y018932D03*
D23*
X006199Y025625D03*
X004199Y025625D03*
X010120Y034074D03*
X010120Y036074D03*
D24*
X011089Y033893D03*
X013089Y033893D03*
X008364Y024050D03*
X007577Y024050D03*
X006364Y024050D03*
X005577Y024050D03*
D25*
X012482Y036361D03*
D26*
X012482Y035361D03*
D27*
X014648Y036255D03*
X017600Y036255D03*
X017600Y037436D03*
X017600Y038617D03*
X017797Y039601D03*
X018978Y039601D03*
X019963Y039601D03*
X020947Y039601D03*
X021931Y039601D03*
X022915Y039601D03*
X023900Y039601D03*
X024884Y039601D03*
X025868Y039601D03*
X026852Y039601D03*
X027837Y039601D03*
X028821Y039601D03*
X029805Y039601D03*
X030789Y039601D03*
X030789Y039011D03*
X031577Y039601D03*
X032167Y038814D03*
X032561Y039601D03*
X033545Y039601D03*
X034529Y039601D03*
X035514Y039601D03*
X035317Y038814D03*
X036695Y039208D03*
X036695Y038223D03*
X037679Y038814D03*
X038073Y039601D03*
X039057Y039601D03*
X040041Y039601D03*
X041222Y039601D03*
X042207Y039208D03*
X041222Y038814D03*
X042207Y038223D03*
X043191Y038814D03*
X043388Y039601D03*
X044569Y039601D03*
X045750Y039601D03*
X045947Y038814D03*
X046931Y039208D03*
X047915Y038814D03*
X046931Y038223D03*
X046931Y037239D03*
X046931Y036255D03*
X047915Y036058D03*
X047325Y035271D03*
X047128Y034090D03*
X048309Y034286D03*
X048506Y033302D03*
X047128Y032515D03*
X046340Y032515D03*
X045553Y032515D03*
X044766Y032515D03*
X044766Y031727D03*
X045553Y031727D03*
X046340Y031727D03*
X046340Y030940D03*
X045553Y030940D03*
X044766Y030940D03*
X043978Y030940D03*
X043978Y031727D03*
X043978Y032515D03*
X042207Y032318D03*
X042207Y031334D03*
X040829Y031727D03*
X040041Y031727D03*
X040041Y030940D03*
X040829Y030940D03*
X042207Y030349D03*
X042403Y029562D03*
X041813Y029562D03*
X042994Y029562D03*
X041222Y028381D03*
X041222Y027987D03*
X041222Y027593D03*
X039254Y030152D03*
X039254Y030940D03*
X038466Y030940D03*
X037679Y030940D03*
X037679Y031727D03*
X038466Y031727D03*
X039254Y031727D03*
X039254Y032515D03*
X038466Y032515D03*
X037679Y032515D03*
X036104Y032318D03*
X036104Y031334D03*
X036104Y030349D03*
X036104Y029562D03*
X035514Y029562D03*
X036695Y029562D03*
X034923Y028381D03*
X034923Y027987D03*
X034923Y027593D03*
X032955Y030152D03*
X032955Y030940D03*
X032167Y030940D03*
X031380Y030940D03*
X031380Y031727D03*
X032167Y031727D03*
X032955Y031727D03*
X033742Y031727D03*
X034529Y031727D03*
X034529Y030940D03*
X033742Y030940D03*
X033742Y032515D03*
X034529Y032515D03*
X032955Y032515D03*
X032167Y032515D03*
X031380Y032515D03*
X030002Y032318D03*
X030002Y031334D03*
X029805Y030349D03*
X029805Y029562D03*
X029214Y029562D03*
X030396Y029562D03*
X028624Y028381D03*
X028624Y027987D03*
X028624Y027593D03*
X026655Y030152D03*
X026655Y030940D03*
X027443Y030940D03*
X028230Y030940D03*
X028230Y031727D03*
X027443Y031727D03*
X026655Y031727D03*
X025868Y031727D03*
X025081Y031727D03*
X025081Y030940D03*
X025868Y030940D03*
X025868Y032515D03*
X025081Y032515D03*
X023703Y032318D03*
X023703Y031334D03*
X023506Y030349D03*
X023506Y029562D03*
X024096Y029562D03*
X022915Y029562D03*
X022325Y028381D03*
X022325Y027987D03*
X022325Y027593D03*
X020356Y030152D03*
X020356Y030940D03*
X021144Y030940D03*
X021931Y030940D03*
X021931Y031727D03*
X021144Y031727D03*
X020356Y031727D03*
X019569Y031727D03*
X018781Y031727D03*
X018781Y030940D03*
X019569Y030940D03*
X017403Y029759D03*
X017010Y029759D03*
X017994Y029562D03*
X016026Y029562D03*
X015238Y030349D03*
X015041Y031924D03*
X015238Y033302D03*
X016419Y033302D03*
X017600Y032712D03*
X018781Y032515D03*
X019569Y032515D03*
X020356Y032515D03*
X021144Y032515D03*
X021931Y032515D03*
X023703Y033302D03*
X024293Y034286D03*
X025081Y035074D03*
X026065Y034877D03*
X025277Y036058D03*
X025277Y036845D03*
X026065Y036649D03*
X025277Y037633D03*
X025277Y038420D03*
X026065Y038617D03*
X023900Y038617D03*
X021537Y038617D03*
X019175Y038617D03*
X019175Y036649D03*
X017600Y035074D03*
X017600Y033893D03*
X019175Y034680D03*
X021537Y034680D03*
X021537Y036649D03*
X026655Y032515D03*
X027443Y032515D03*
X028230Y032515D03*
X030002Y033302D03*
X030002Y034286D03*
X030592Y035074D03*
X030789Y036058D03*
X030789Y037042D03*
X030789Y038027D03*
X028427Y038617D03*
X028427Y036649D03*
X028427Y034877D03*
X032167Y034877D03*
X036104Y033302D03*
X036498Y034286D03*
X036695Y035271D03*
X036695Y036255D03*
X036695Y037239D03*
X041222Y036452D03*
X042207Y036255D03*
X042207Y037239D03*
X043191Y036452D03*
X042207Y035271D03*
X042207Y034286D03*
X042207Y033302D03*
X043191Y034090D03*
X040829Y032515D03*
X040041Y032515D03*
X045553Y030152D03*
X047128Y030940D03*
X047128Y031727D03*
X048506Y031334D03*
X048506Y030546D03*
X048703Y029562D03*
X049293Y029562D03*
X048112Y029562D03*
X047522Y028381D03*
X047522Y027987D03*
X047522Y027593D03*
X051852Y030152D03*
X051852Y030940D03*
X051065Y030940D03*
X051065Y031727D03*
X051852Y031727D03*
X052640Y031727D03*
X053427Y031727D03*
X053427Y030940D03*
X052640Y030940D03*
X052640Y032515D03*
X051852Y032515D03*
X051065Y032515D03*
X050277Y032515D03*
X050277Y031727D03*
X050277Y030940D03*
X048506Y032318D03*
X051065Y036058D03*
X054608Y033696D03*
X053427Y032515D03*
X054608Y030152D03*
X055199Y029562D03*
X056380Y029956D03*
X056774Y029956D03*
X053821Y028381D03*
X053821Y027987D03*
X053821Y027593D03*
X056183Y026806D03*
X056183Y026412D03*
X056183Y026019D03*
X053033Y023263D03*
X052049Y024050D03*
X051459Y023263D03*
X048703Y023263D03*
X047718Y023263D03*
X046734Y023263D03*
X044569Y023263D03*
X044569Y024050D03*
X043388Y023263D03*
X042403Y023263D03*
X040041Y023263D03*
X038860Y023263D03*
X038754Y024050D03*
X035711Y023263D03*
X034726Y023263D03*
X033742Y023263D03*
X031774Y024050D03*
X029411Y023263D03*
X027049Y023263D03*
X026951Y024050D03*
X025081Y023263D03*
X022718Y023263D03*
X021734Y023263D03*
X020750Y023263D03*
X020750Y024050D03*
X017994Y023263D03*
X016419Y023263D03*
X014057Y023263D03*
X013073Y023263D03*
X012089Y023263D03*
X009726Y023263D03*
X007758Y026806D03*
X007758Y029168D03*
X015829Y027790D03*
X016222Y027790D03*
X016813Y027003D03*
X017010Y025822D03*
X017403Y025822D03*
X021144Y018145D03*
X018585Y016767D03*
X022915Y014208D03*
X023703Y014798D03*
X022522Y013617D03*
X024096Y013027D03*
X023112Y011058D03*
X020159Y010467D03*
X029805Y007121D03*
X032364Y011058D03*
X032364Y012436D03*
X031774Y012436D03*
X031183Y012436D03*
X031183Y014011D03*
X031774Y014011D03*
X032364Y014011D03*
X035907Y015782D03*
X035711Y017357D03*
X037089Y017554D03*
X037679Y014011D03*
X037679Y012436D03*
X038663Y010861D03*
X040829Y012042D03*
X042010Y010861D03*
X041026Y013814D03*
X050041Y019212D03*
X054805Y020901D03*
X054805Y022082D03*
X033545Y021097D03*
X029214Y019523D03*
X038270Y007121D03*
X009529Y010074D03*
X008348Y011255D03*
X051065Y038814D03*
X051262Y039601D03*
D28*
X051372Y039563D02*
X017207Y039563D01*
X017207Y039712D02*
X051372Y039712D01*
X051372Y039264D01*
X051289Y039347D01*
X051144Y039407D01*
X047836Y039407D01*
X047691Y039347D01*
X047297Y038953D01*
X047186Y038841D01*
X047125Y038696D01*
X047125Y035782D01*
X047186Y035637D01*
X048700Y034122D01*
X048700Y030467D01*
X048760Y030322D01*
X049351Y029731D01*
X049462Y029620D01*
X049608Y029559D01*
X054884Y029559D01*
X055029Y029620D01*
X055141Y029731D01*
X055141Y029731D01*
X055226Y029817D01*
X055338Y029928D01*
X055398Y030074D01*
X055398Y030746D01*
X055501Y030642D01*
X055755Y030496D01*
X056037Y030421D01*
X056329Y030421D01*
X056611Y030496D01*
X056864Y030642D01*
X057071Y030849D01*
X057217Y031102D01*
X057278Y031328D01*
X057278Y029279D01*
X057135Y029136D01*
X057121Y029141D01*
X057049Y029171D01*
X057048Y029171D01*
X057047Y029171D01*
X056970Y029171D01*
X056892Y029171D01*
X056891Y029170D01*
X015627Y028977D01*
X014844Y029759D01*
X014844Y033302D01*
X015238Y033696D01*
X016419Y033696D01*
X016813Y034090D01*
X016813Y037042D01*
X016419Y037436D01*
X016291Y037436D01*
X016267Y037446D01*
X015425Y037446D01*
X015238Y037633D01*
X015238Y037860D01*
X015592Y038213D01*
X016267Y038213D01*
X016291Y038223D01*
X016813Y038223D01*
X017207Y038617D01*
X017207Y039712D01*
X017207Y039404D02*
X018697Y039404D01*
X018703Y039407D02*
X018557Y039347D01*
X018446Y039235D01*
X018052Y038841D01*
X017991Y038696D01*
X017991Y030074D01*
X018052Y029928D01*
X018360Y029620D01*
X018506Y029559D01*
X022207Y029559D01*
X022352Y029620D01*
X022464Y029731D01*
X023448Y030715D01*
X023508Y030861D01*
X023508Y033729D01*
X025023Y035243D01*
X025083Y035389D01*
X025083Y035546D01*
X025083Y038696D01*
X025023Y038841D01*
X024911Y038953D01*
X024518Y039347D01*
X024372Y039407D01*
X018703Y039407D01*
X018456Y039246D02*
X017207Y039246D01*
X017207Y039087D02*
X018298Y039087D01*
X018139Y038929D02*
X017207Y038929D01*
X017207Y038770D02*
X018022Y038770D01*
X017991Y038612D02*
X017202Y038612D01*
X017043Y038453D02*
X017991Y038453D01*
X017991Y038295D02*
X016885Y038295D01*
X016511Y037344D02*
X017991Y037344D01*
X017991Y037502D02*
X015368Y037502D01*
X015238Y037661D02*
X017991Y037661D01*
X017991Y037819D02*
X015238Y037819D01*
X015356Y037978D02*
X017991Y037978D01*
X017991Y038136D02*
X015515Y038136D01*
X015632Y038814D02*
X014648Y037830D01*
X014648Y036255D01*
X016670Y037185D02*
X017991Y037185D01*
X017991Y037027D02*
X016813Y037027D01*
X016813Y036868D02*
X017991Y036868D01*
X017991Y036710D02*
X016813Y036710D01*
X016813Y036551D02*
X017991Y036551D01*
X017991Y036393D02*
X016813Y036393D01*
X016813Y036234D02*
X017991Y036234D01*
X017991Y036076D02*
X016813Y036076D01*
X016813Y035917D02*
X017991Y035917D01*
X017991Y035759D02*
X016813Y035759D01*
X016813Y035600D02*
X017991Y035600D01*
X017991Y035442D02*
X016813Y035442D01*
X016813Y035283D02*
X017991Y035283D01*
X017991Y035125D02*
X016813Y035125D01*
X016813Y034966D02*
X017991Y034966D01*
X017991Y034808D02*
X016813Y034808D01*
X016813Y034649D02*
X017991Y034649D01*
X017991Y034491D02*
X016813Y034491D01*
X016813Y034332D02*
X017991Y034332D01*
X017991Y034174D02*
X016813Y034174D01*
X016739Y034015D02*
X017991Y034015D01*
X017991Y033857D02*
X016580Y033857D01*
X016422Y033698D02*
X017991Y033698D01*
X017991Y033540D02*
X015082Y033540D01*
X014924Y033381D02*
X017991Y033381D01*
X017991Y033223D02*
X014844Y033223D01*
X014844Y033064D02*
X017991Y033064D01*
X017991Y032906D02*
X014844Y032906D01*
X014844Y032747D02*
X017991Y032747D01*
X017991Y032589D02*
X017151Y032589D01*
X017241Y032565D02*
X016959Y032640D01*
X016667Y032640D01*
X016384Y032565D01*
X016131Y032419D01*
X015925Y032212D01*
X015779Y031959D01*
X015703Y031677D01*
X015703Y031384D01*
X015779Y031102D01*
X015925Y030849D01*
X016131Y030642D01*
X016384Y030496D01*
X016667Y030421D01*
X016959Y030421D01*
X017241Y030496D01*
X017494Y030642D01*
X017701Y030849D01*
X017847Y031102D01*
X017923Y031384D01*
X017923Y031677D01*
X017847Y031959D01*
X017701Y032212D01*
X017494Y032419D01*
X017241Y032565D01*
X017474Y032430D02*
X017991Y032430D01*
X017991Y032272D02*
X017641Y032272D01*
X017758Y032113D02*
X017991Y032113D01*
X017991Y031955D02*
X017848Y031955D01*
X017891Y031796D02*
X017991Y031796D01*
X017991Y031638D02*
X017923Y031638D01*
X017923Y031479D02*
X017991Y031479D01*
X017991Y031321D02*
X017906Y031321D01*
X017863Y031162D02*
X017991Y031162D01*
X017991Y031004D02*
X017791Y031004D01*
X017698Y030845D02*
X017991Y030845D01*
X017991Y030687D02*
X017539Y030687D01*
X017297Y030528D02*
X017991Y030528D01*
X017991Y030370D02*
X014844Y030370D01*
X014844Y030528D02*
X016329Y030528D01*
X016087Y030687D02*
X014844Y030687D01*
X014844Y030845D02*
X015928Y030845D01*
X015835Y031004D02*
X014844Y031004D01*
X014844Y031162D02*
X015762Y031162D01*
X015720Y031321D02*
X014844Y031321D01*
X014844Y031479D02*
X015703Y031479D01*
X015703Y031638D02*
X014844Y031638D01*
X014844Y031796D02*
X015735Y031796D01*
X015778Y031955D02*
X014844Y031955D01*
X014844Y032113D02*
X015868Y032113D01*
X015985Y032272D02*
X014844Y032272D01*
X014844Y032430D02*
X016152Y032430D01*
X016475Y032589D02*
X014844Y032589D01*
X014057Y032589D02*
X011695Y032589D01*
X011695Y032712D02*
X011892Y032908D01*
X013860Y032908D01*
X014057Y032712D01*
X014057Y029562D01*
X015041Y028578D01*
X056970Y028775D01*
X057278Y028467D01*
X057278Y019043D01*
X056970Y018735D01*
X055986Y018735D01*
X055592Y019129D01*
X055592Y023066D01*
X054214Y024444D01*
X009726Y024444D01*
X009333Y024838D01*
X009333Y028775D01*
X009726Y029168D01*
X010120Y029168D01*
X011695Y030743D01*
X011695Y032712D01*
X011731Y032747D02*
X014021Y032747D01*
X013863Y032906D02*
X011889Y032906D01*
X011695Y032430D02*
X014057Y032430D01*
X014057Y032272D02*
X011695Y032272D01*
X011695Y032113D02*
X014057Y032113D01*
X014057Y031955D02*
X011695Y031955D01*
X011695Y031796D02*
X014057Y031796D01*
X014057Y031638D02*
X011695Y031638D01*
X011695Y031479D02*
X014057Y031479D01*
X014057Y031321D02*
X011695Y031321D01*
X011695Y031162D02*
X014057Y031162D01*
X014057Y031004D02*
X011695Y031004D01*
X011695Y030845D02*
X014057Y030845D01*
X014057Y030687D02*
X011639Y030687D01*
X011480Y030528D02*
X014057Y030528D01*
X014057Y030370D02*
X011322Y030370D01*
X011163Y030211D02*
X014057Y030211D01*
X014057Y030053D02*
X011005Y030053D01*
X010846Y029894D02*
X014057Y029894D01*
X014057Y029736D02*
X010688Y029736D01*
X010529Y029577D02*
X014057Y029577D01*
X014200Y029419D02*
X010371Y029419D01*
X010212Y029260D02*
X014359Y029260D01*
X014517Y029102D02*
X009660Y029102D01*
X009502Y028943D02*
X014676Y028943D01*
X014834Y028785D02*
X009343Y028785D01*
X009333Y028626D02*
X013776Y028626D01*
X013806Y028657D02*
X013584Y028434D01*
X013464Y028144D01*
X013464Y027830D01*
X013584Y027540D01*
X013806Y027318D01*
X014097Y027197D01*
X014411Y027197D01*
X014701Y027318D01*
X014923Y027540D01*
X015044Y027830D01*
X015044Y028144D01*
X014923Y028434D01*
X014701Y028657D01*
X014411Y028777D01*
X014097Y028777D01*
X013806Y028657D01*
X013618Y028468D02*
X009333Y028468D01*
X009333Y028309D02*
X013533Y028309D01*
X013467Y028151D02*
X009333Y028151D01*
X009333Y027992D02*
X013464Y027992D01*
X013464Y027834D02*
X009333Y027834D01*
X009333Y027675D02*
X013528Y027675D01*
X013607Y027517D02*
X009333Y027517D01*
X009333Y027358D02*
X013766Y027358D01*
X014091Y027200D02*
X009333Y027200D01*
X009333Y027041D02*
X057278Y027041D01*
X057278Y026883D02*
X009333Y026883D01*
X009333Y026724D02*
X057278Y026724D01*
X057278Y026566D02*
X009333Y026566D01*
X009333Y026407D02*
X057278Y026407D01*
X057278Y026249D02*
X009333Y026249D01*
X009333Y026090D02*
X057278Y026090D01*
X057278Y025932D02*
X009333Y025932D01*
X009333Y025773D02*
X057278Y025773D01*
X057278Y025615D02*
X009333Y025615D01*
X009333Y025456D02*
X057278Y025456D01*
X057278Y025298D02*
X009333Y025298D01*
X009333Y025139D02*
X057278Y025139D01*
X057278Y024981D02*
X009333Y024981D01*
X009348Y024822D02*
X057278Y024822D01*
X057278Y024664D02*
X009506Y024664D01*
X009665Y024505D02*
X057278Y024505D01*
X057278Y024347D02*
X054311Y024347D01*
X054470Y024188D02*
X057278Y024188D01*
X057278Y024030D02*
X054628Y024030D01*
X054787Y023871D02*
X057278Y023871D01*
X057278Y023713D02*
X054945Y023713D01*
X055104Y023554D02*
X057278Y023554D01*
X057278Y023396D02*
X055262Y023396D01*
X055421Y023237D02*
X057278Y023237D01*
X057278Y023079D02*
X055579Y023079D01*
X055592Y022920D02*
X057278Y022920D01*
X057278Y022762D02*
X055592Y022762D01*
X055592Y022603D02*
X057278Y022603D01*
X057278Y022445D02*
X055592Y022445D01*
X055592Y022286D02*
X057278Y022286D01*
X057278Y022128D02*
X055592Y022128D01*
X055592Y021969D02*
X057278Y021969D01*
X057278Y021811D02*
X055592Y021811D01*
X055592Y021652D02*
X057278Y021652D01*
X057278Y021494D02*
X055592Y021494D01*
X055592Y021335D02*
X057278Y021335D01*
X057278Y021177D02*
X055592Y021177D01*
X055592Y021018D02*
X057278Y021018D01*
X057278Y020860D02*
X055592Y020860D01*
X055592Y020701D02*
X057278Y020701D01*
X057278Y020543D02*
X055592Y020543D01*
X055592Y020384D02*
X057278Y020384D01*
X057278Y020226D02*
X055592Y020226D01*
X055592Y020067D02*
X057278Y020067D01*
X057278Y019909D02*
X055592Y019909D01*
X055592Y019750D02*
X057278Y019750D01*
X057278Y019592D02*
X055592Y019592D01*
X055592Y019433D02*
X057278Y019433D01*
X057278Y019275D02*
X055592Y019275D01*
X055605Y019116D02*
X057278Y019116D01*
X057193Y018958D02*
X055763Y018958D01*
X055922Y018799D02*
X057035Y018799D01*
X057278Y017941D02*
X057278Y012904D01*
X057268Y012921D01*
X057061Y013127D01*
X056808Y013273D01*
X056526Y013349D01*
X056234Y013349D01*
X055951Y013273D01*
X055698Y013127D01*
X055492Y012921D01*
X055346Y012668D01*
X055270Y012385D01*
X055270Y012093D01*
X055346Y011811D01*
X055492Y011558D01*
X055698Y011351D01*
X055951Y011205D01*
X056177Y011144D01*
X051757Y011144D01*
X051580Y011071D01*
X051445Y010936D01*
X051372Y010760D01*
X051372Y005239D01*
X009419Y005239D01*
X009419Y010760D01*
X009346Y010936D01*
X009211Y011071D01*
X009034Y011144D01*
X004417Y011144D01*
X004643Y011205D01*
X004896Y011351D01*
X005103Y011558D01*
X005249Y011811D01*
X005324Y012093D01*
X005324Y012385D01*
X005249Y012668D01*
X005103Y012921D01*
X004896Y013127D01*
X004643Y013273D01*
X004361Y013349D01*
X004068Y013349D01*
X003786Y013273D01*
X003533Y013127D01*
X003513Y013108D01*
X003513Y028861D01*
X003821Y029168D01*
X004220Y029168D01*
X004114Y029062D01*
X003968Y028809D01*
X003892Y028527D01*
X003892Y028235D01*
X003968Y027952D01*
X004114Y027699D01*
X004320Y027493D01*
X004573Y027347D01*
X004856Y027271D01*
X005148Y027271D01*
X005430Y027347D01*
X005683Y027493D01*
X005890Y027699D01*
X006036Y027952D01*
X006112Y028235D01*
X006112Y028527D01*
X006036Y028809D01*
X005890Y029062D01*
X005784Y029168D01*
X008151Y029168D01*
X008545Y028775D01*
X008545Y024630D01*
X008124Y024630D01*
X007970Y024477D01*
X007817Y024630D01*
X007336Y024630D01*
X006997Y024290D01*
X006997Y023810D01*
X007336Y023470D01*
X007817Y023470D01*
X007970Y023624D01*
X008124Y023470D01*
X008604Y023470D01*
X008865Y023731D01*
X008939Y023656D01*
X020439Y023656D01*
X020468Y023628D01*
X020651Y023552D01*
X020849Y023552D01*
X021032Y023628D01*
X021055Y023650D01*
X026646Y023650D01*
X026668Y023628D01*
X026852Y023552D01*
X027050Y023552D01*
X027233Y023628D01*
X027256Y023650D01*
X031469Y023650D01*
X031491Y023628D01*
X031674Y023552D01*
X031873Y023552D01*
X032056Y023628D01*
X032078Y023650D01*
X038449Y023650D01*
X038472Y023628D01*
X038655Y023552D01*
X038853Y023552D01*
X039036Y023628D01*
X039059Y023650D01*
X044264Y023650D01*
X044286Y023628D01*
X044470Y023552D01*
X044668Y023552D01*
X044851Y023628D01*
X044874Y023650D01*
X051744Y023650D01*
X051767Y023628D01*
X051950Y023552D01*
X052148Y023552D01*
X052331Y023628D01*
X052360Y023656D01*
X054411Y023656D01*
X055192Y022875D01*
X055192Y019123D01*
X054811Y018741D01*
X054183Y018741D01*
X053827Y019098D01*
X053827Y020586D01*
X053766Y020733D01*
X052585Y021915D01*
X052473Y022027D01*
X052326Y022088D01*
X017521Y022088D01*
X017374Y022027D01*
X017261Y021915D01*
X017200Y021767D01*
X017200Y021608D01*
X017261Y021461D01*
X017374Y021349D01*
X017521Y021288D01*
X017664Y021288D01*
X017644Y021269D01*
X017546Y021030D01*
X017546Y020771D01*
X017644Y020532D01*
X017827Y020349D01*
X018066Y020251D01*
X018985Y020251D01*
X019224Y020349D01*
X019407Y020532D01*
X019506Y020771D01*
X019506Y021030D01*
X019407Y021269D01*
X019387Y021288D01*
X052080Y021288D01*
X053013Y020355D01*
X052842Y020426D01*
X052043Y020426D01*
X051823Y020334D01*
X051654Y020166D01*
X051563Y019945D01*
X051563Y019706D01*
X051654Y019486D01*
X051814Y019326D01*
X051654Y019166D01*
X051563Y018945D01*
X051563Y018706D01*
X051654Y018486D01*
X051823Y018317D01*
X052043Y018226D01*
X052842Y018226D01*
X053063Y018317D01*
X053231Y018486D01*
X053254Y018540D01*
X053791Y018002D01*
X053938Y017941D01*
X057278Y017941D01*
X057278Y017848D02*
X050741Y017848D01*
X050693Y017966D01*
X050603Y018056D01*
X050485Y018104D01*
X049598Y018104D01*
X049541Y018081D01*
X049485Y018104D01*
X048598Y018104D01*
X048541Y018081D01*
X048485Y018104D01*
X047598Y018104D01*
X047541Y018081D01*
X047485Y018104D01*
X046598Y018104D01*
X046541Y018081D01*
X046485Y018104D01*
X045598Y018104D01*
X045541Y018081D01*
X045485Y018104D01*
X044598Y018104D01*
X044541Y018081D01*
X044485Y018104D01*
X043598Y018104D01*
X043541Y018081D01*
X043485Y018104D01*
X042598Y018104D01*
X042541Y018081D01*
X042485Y018104D01*
X041598Y018104D01*
X041480Y018056D01*
X041390Y017966D01*
X041341Y017848D01*
X041341Y016961D01*
X041365Y016904D01*
X041341Y016848D01*
X041341Y015961D01*
X041365Y015904D01*
X041341Y015848D01*
X041341Y014961D01*
X041365Y014904D01*
X041341Y014848D01*
X041341Y013961D01*
X041365Y013904D01*
X041341Y013848D01*
X041341Y012961D01*
X041390Y012843D01*
X041480Y012753D01*
X041598Y012704D01*
X042485Y012704D01*
X042541Y012728D01*
X042598Y012704D01*
X043485Y012704D01*
X043541Y012728D01*
X043598Y012704D01*
X044485Y012704D01*
X044541Y012728D01*
X044598Y012704D01*
X045485Y012704D01*
X045541Y012728D01*
X045598Y012704D01*
X046485Y012704D01*
X046541Y012728D01*
X046598Y012704D01*
X047485Y012704D01*
X047541Y012728D01*
X047598Y012704D01*
X048485Y012704D01*
X048541Y012728D01*
X048598Y012704D01*
X049485Y012704D01*
X049541Y012728D01*
X049598Y012704D01*
X050485Y012704D01*
X050603Y012753D01*
X050693Y012843D01*
X050741Y012961D01*
X050741Y013848D01*
X050718Y013904D01*
X050741Y013961D01*
X050741Y014848D01*
X050718Y014904D01*
X050741Y014961D01*
X050741Y015848D01*
X050718Y015904D01*
X050741Y015961D01*
X050741Y016848D01*
X050718Y016904D01*
X050741Y016961D01*
X050741Y017848D01*
X050741Y017690D02*
X057278Y017690D01*
X057278Y017531D02*
X050741Y017531D01*
X050741Y017373D02*
X057278Y017373D01*
X057278Y017214D02*
X050741Y017214D01*
X050741Y017056D02*
X057278Y017056D01*
X057278Y016897D02*
X050721Y016897D01*
X050741Y016739D02*
X057278Y016739D01*
X057278Y016580D02*
X050741Y016580D01*
X050741Y016422D02*
X057278Y016422D01*
X057278Y016263D02*
X050741Y016263D01*
X050741Y016105D02*
X057278Y016105D01*
X057278Y015946D02*
X050735Y015946D01*
X050741Y015788D02*
X057278Y015788D01*
X057278Y015629D02*
X050741Y015629D01*
X050741Y015471D02*
X057278Y015471D01*
X057278Y015312D02*
X050741Y015312D01*
X050741Y015154D02*
X057278Y015154D01*
X057278Y014995D02*
X050741Y014995D01*
X050741Y014837D02*
X057278Y014837D01*
X057278Y014678D02*
X050741Y014678D01*
X050741Y014520D02*
X057278Y014520D01*
X057278Y014361D02*
X050741Y014361D01*
X050741Y014203D02*
X057278Y014203D01*
X057278Y014044D02*
X050741Y014044D01*
X050726Y013886D02*
X057278Y013886D01*
X057278Y013727D02*
X050741Y013727D01*
X050741Y013569D02*
X057278Y013569D01*
X057278Y013410D02*
X050741Y013410D01*
X050741Y013252D02*
X055914Y013252D01*
X055664Y013093D02*
X050741Y013093D01*
X050731Y012935D02*
X055506Y012935D01*
X055408Y012776D02*
X050626Y012776D01*
X051542Y011033D02*
X042605Y011033D01*
X042625Y010984D02*
X042531Y011210D01*
X041177Y012564D01*
X040951Y012658D01*
X040706Y012658D01*
X040480Y012564D01*
X040307Y012391D01*
X040213Y012165D01*
X040213Y011920D01*
X040307Y011694D01*
X041512Y010489D01*
X041423Y010400D01*
X041274Y010549D01*
X041046Y010643D01*
X040800Y010643D01*
X040572Y010549D01*
X040423Y010400D01*
X040274Y010549D01*
X040046Y010643D01*
X039800Y010643D01*
X039572Y010549D01*
X039423Y010400D01*
X039274Y010549D01*
X039046Y010643D01*
X038800Y010643D01*
X038572Y010549D01*
X038423Y010400D01*
X038274Y010549D01*
X038046Y010643D01*
X037800Y010643D01*
X037572Y010549D01*
X037423Y010400D01*
X037274Y010549D01*
X037046Y010643D01*
X036800Y010643D01*
X036572Y010549D01*
X036423Y010400D01*
X036274Y010549D01*
X036046Y010643D01*
X035800Y010643D01*
X035572Y010549D01*
X035423Y010400D01*
X035274Y010549D01*
X035046Y010643D01*
X034800Y010643D01*
X034572Y010549D01*
X034423Y010400D01*
X034274Y010549D01*
X034046Y010643D01*
X033800Y010643D01*
X033572Y010549D01*
X033423Y010400D01*
X033274Y010549D01*
X033046Y010643D01*
X032800Y010643D01*
X032572Y010549D01*
X032423Y010400D01*
X032274Y010549D01*
X032046Y010643D01*
X031800Y010643D01*
X031572Y010549D01*
X031423Y010400D01*
X031274Y010549D01*
X031046Y010643D01*
X030800Y010643D01*
X030572Y010549D01*
X030398Y010375D01*
X030303Y010147D01*
X030303Y009300D01*
X030398Y009072D01*
X030572Y008898D01*
X030800Y008803D01*
X031046Y008803D01*
X031274Y008898D01*
X031423Y009047D01*
X031572Y008898D01*
X031800Y008803D01*
X032046Y008803D01*
X032274Y008898D01*
X032423Y009047D01*
X032572Y008898D01*
X032800Y008803D01*
X033046Y008803D01*
X033274Y008898D01*
X033423Y009047D01*
X033572Y008898D01*
X033800Y008803D01*
X034046Y008803D01*
X034274Y008898D01*
X034423Y009047D01*
X034572Y008898D01*
X034800Y008803D01*
X035046Y008803D01*
X035274Y008898D01*
X035423Y009047D01*
X035572Y008898D01*
X035800Y008803D01*
X036046Y008803D01*
X036274Y008898D01*
X036423Y009047D01*
X036572Y008898D01*
X036800Y008803D01*
X037046Y008803D01*
X037274Y008898D01*
X037423Y009047D01*
X037572Y008898D01*
X037800Y008803D01*
X038046Y008803D01*
X038274Y008898D01*
X038423Y009047D01*
X038572Y008898D01*
X038800Y008803D01*
X039046Y008803D01*
X039274Y008898D01*
X039423Y009047D01*
X039572Y008898D01*
X039800Y008803D01*
X040046Y008803D01*
X040274Y008898D01*
X040423Y009047D01*
X040572Y008898D01*
X040800Y008803D01*
X041046Y008803D01*
X041274Y008898D01*
X041423Y009047D01*
X041572Y008898D01*
X041800Y008803D01*
X042046Y008803D01*
X042274Y008898D01*
X042423Y009047D01*
X042572Y008898D01*
X042800Y008803D01*
X043046Y008803D01*
X043274Y008898D01*
X043449Y009072D01*
X043543Y009300D01*
X043543Y010147D01*
X043449Y010375D01*
X043274Y010549D01*
X043046Y010643D01*
X042800Y010643D01*
X042572Y010549D01*
X042423Y010400D01*
X042421Y010402D01*
X042531Y010513D01*
X042625Y010739D01*
X042625Y010984D01*
X042625Y010874D02*
X051420Y010874D01*
X051372Y010716D02*
X042616Y010716D01*
X042592Y010557D02*
X042550Y010557D01*
X042539Y011191D02*
X056001Y011191D01*
X055700Y011350D02*
X042391Y011350D01*
X042233Y011508D02*
X055541Y011508D01*
X055429Y011667D02*
X042074Y011667D01*
X041916Y011825D02*
X055342Y011825D01*
X055299Y011984D02*
X041757Y011984D01*
X041599Y012142D02*
X055270Y012142D01*
X055270Y012301D02*
X041440Y012301D01*
X041282Y012459D02*
X055290Y012459D01*
X055332Y012618D02*
X041047Y012618D01*
X040611Y012618D02*
X032238Y012618D01*
X032272Y012535D02*
X032196Y012718D01*
X032174Y012741D01*
X032174Y013706D01*
X032196Y013728D01*
X032272Y013912D01*
X032272Y014110D01*
X032196Y014293D01*
X032056Y014433D01*
X031873Y014509D01*
X031674Y014509D01*
X031491Y014433D01*
X031351Y014293D01*
X031275Y014110D01*
X031275Y013912D01*
X031351Y013728D01*
X031374Y013706D01*
X031374Y012741D01*
X031351Y012718D01*
X031275Y012535D01*
X031275Y012337D01*
X031351Y012154D01*
X031491Y012013D01*
X031674Y011938D01*
X031873Y011938D01*
X032056Y012013D01*
X032196Y012154D01*
X032272Y012337D01*
X032272Y012535D01*
X032272Y012459D02*
X040376Y012459D01*
X040270Y012301D02*
X032257Y012301D01*
X032185Y012142D02*
X040213Y012142D01*
X040213Y011984D02*
X031985Y011984D01*
X031562Y011984D02*
X005295Y011984D01*
X005324Y012142D02*
X031362Y012142D01*
X031290Y012301D02*
X005324Y012301D01*
X005305Y012459D02*
X031275Y012459D01*
X031309Y012618D02*
X024393Y012618D01*
X024379Y012604D02*
X024519Y012744D01*
X024595Y012927D01*
X024595Y013126D01*
X024519Y013309D01*
X024379Y013449D01*
X024196Y013525D01*
X024164Y013525D01*
X023414Y014275D01*
X023414Y014307D01*
X023338Y014490D01*
X023198Y014630D01*
X023014Y014706D01*
X022816Y014706D01*
X022633Y014630D01*
X022493Y014490D01*
X022417Y014307D01*
X022417Y014108D01*
X022493Y013925D01*
X022633Y013785D01*
X022816Y013709D01*
X022848Y013709D01*
X023598Y012959D01*
X023598Y012927D01*
X023674Y012744D01*
X023814Y012604D01*
X023997Y012528D01*
X024196Y012528D01*
X024379Y012604D01*
X024532Y012776D02*
X031374Y012776D01*
X031374Y012935D02*
X024595Y012935D01*
X024595Y013093D02*
X031374Y013093D01*
X031374Y013252D02*
X024543Y013252D01*
X024417Y013410D02*
X031374Y013410D01*
X031374Y013569D02*
X024120Y013569D01*
X023961Y013727D02*
X031352Y013727D01*
X031286Y013886D02*
X023803Y013886D01*
X023644Y014044D02*
X031275Y014044D01*
X031314Y014203D02*
X023486Y014203D01*
X023391Y014361D02*
X031419Y014361D01*
X031774Y014011D02*
X031774Y012436D01*
X032174Y012776D02*
X041457Y012776D01*
X041352Y012935D02*
X032174Y012935D01*
X032174Y013093D02*
X041341Y013093D01*
X041341Y013252D02*
X032174Y013252D01*
X032174Y013410D02*
X041341Y013410D01*
X041341Y013569D02*
X032174Y013569D01*
X032195Y013727D02*
X041341Y013727D01*
X041357Y013886D02*
X032261Y013886D01*
X032272Y014044D02*
X041341Y014044D01*
X041341Y014203D02*
X032233Y014203D01*
X032128Y014361D02*
X041341Y014361D01*
X041341Y014520D02*
X023308Y014520D01*
X023081Y014678D02*
X041341Y014678D01*
X041341Y014837D02*
X003513Y014837D01*
X003513Y014995D02*
X041341Y014995D01*
X041341Y015154D02*
X003513Y015154D01*
X003513Y015312D02*
X041341Y015312D01*
X041341Y015471D02*
X003513Y015471D01*
X003513Y015629D02*
X041341Y015629D01*
X041341Y015788D02*
X028492Y015788D01*
X028518Y015799D02*
X028608Y015889D01*
X028657Y016006D01*
X028657Y017133D01*
X028608Y017251D01*
X028518Y017341D01*
X028400Y017390D01*
X027273Y017390D01*
X027155Y017341D01*
X027065Y017251D01*
X027017Y017133D01*
X027017Y016006D01*
X027065Y015889D01*
X027155Y015799D01*
X027273Y015750D01*
X028400Y015750D01*
X028518Y015799D01*
X028632Y015946D02*
X041347Y015946D01*
X041341Y016105D02*
X028657Y016105D01*
X028657Y016263D02*
X041341Y016263D01*
X041341Y016422D02*
X028657Y016422D01*
X028657Y016580D02*
X041341Y016580D01*
X041341Y016739D02*
X028657Y016739D01*
X028657Y016897D02*
X041362Y016897D01*
X041341Y017056D02*
X028657Y017056D01*
X028623Y017214D02*
X041341Y017214D01*
X041341Y017373D02*
X028441Y017373D01*
X028400Y018112D02*
X027273Y018112D01*
X027155Y018161D01*
X027065Y018251D01*
X027017Y018368D01*
X027017Y019496D01*
X027065Y019613D01*
X027155Y019703D01*
X027273Y019752D01*
X028400Y019752D01*
X028518Y019703D01*
X028608Y019613D01*
X028657Y019496D01*
X028657Y018368D01*
X028608Y018251D01*
X028518Y018161D01*
X028400Y018112D01*
X028522Y018165D02*
X053628Y018165D01*
X053786Y018007D02*
X050651Y018007D01*
X051658Y018482D02*
X028657Y018482D01*
X028657Y018641D02*
X051590Y018641D01*
X051563Y018799D02*
X028657Y018799D01*
X028657Y018958D02*
X031512Y018958D01*
X031572Y018898D02*
X031800Y018803D01*
X032046Y018803D01*
X032274Y018898D01*
X032423Y019047D01*
X032572Y018898D01*
X032800Y018803D01*
X033046Y018803D01*
X033274Y018898D01*
X033423Y019047D01*
X033572Y018898D01*
X033800Y018803D01*
X034046Y018803D01*
X034274Y018898D01*
X034423Y019047D01*
X034572Y018898D01*
X034800Y018803D01*
X035046Y018803D01*
X035274Y018898D01*
X035423Y019047D01*
X035572Y018898D01*
X035800Y018803D01*
X036046Y018803D01*
X036274Y018898D01*
X036449Y019072D01*
X036543Y019300D01*
X036543Y020147D01*
X036449Y020375D01*
X036274Y020549D01*
X036046Y020643D01*
X035800Y020643D01*
X035572Y020549D01*
X035423Y020400D01*
X035274Y020549D01*
X035046Y020643D01*
X034800Y020643D01*
X034572Y020549D01*
X034423Y020400D01*
X034274Y020549D01*
X034046Y020643D01*
X033800Y020643D01*
X033572Y020549D01*
X033423Y020400D01*
X033274Y020549D01*
X033046Y020643D01*
X032800Y020643D01*
X032572Y020549D01*
X032423Y020400D01*
X032274Y020549D01*
X032046Y020643D01*
X031800Y020643D01*
X031572Y020549D01*
X031398Y020375D01*
X031303Y020147D01*
X031303Y019300D01*
X031398Y019072D01*
X031572Y018898D01*
X031379Y019116D02*
X028657Y019116D01*
X028657Y019275D02*
X031314Y019275D01*
X031303Y019433D02*
X028657Y019433D01*
X028617Y019592D02*
X031303Y019592D01*
X031303Y019750D02*
X028404Y019750D01*
X027269Y019750D02*
X012656Y019750D01*
X012652Y019752D02*
X011525Y019752D01*
X011407Y019703D01*
X011317Y019613D01*
X011269Y019496D01*
X011269Y018368D01*
X011317Y018251D01*
X011407Y018161D01*
X011525Y018112D01*
X012652Y018112D01*
X012770Y018161D01*
X012860Y018251D01*
X012909Y018368D01*
X012909Y019496D01*
X012860Y019613D01*
X012770Y019703D01*
X012652Y019752D01*
X012869Y019592D02*
X027056Y019592D01*
X027017Y019433D02*
X012909Y019433D01*
X012909Y019275D02*
X027017Y019275D01*
X027017Y019116D02*
X012909Y019116D01*
X012909Y018958D02*
X027017Y018958D01*
X027017Y018799D02*
X012909Y018799D01*
X012909Y018641D02*
X027017Y018641D01*
X027017Y018482D02*
X012909Y018482D01*
X012890Y018324D02*
X027035Y018324D01*
X027151Y018165D02*
X012774Y018165D01*
X012652Y017390D02*
X011525Y017390D01*
X011407Y017341D01*
X011317Y017251D01*
X011269Y017133D01*
X011269Y016006D01*
X011317Y015889D01*
X011407Y015799D01*
X011525Y015750D01*
X012652Y015750D01*
X012770Y015799D01*
X012860Y015889D01*
X012909Y016006D01*
X012909Y017133D01*
X012860Y017251D01*
X012770Y017341D01*
X012652Y017390D01*
X012693Y017373D02*
X027232Y017373D01*
X027050Y017214D02*
X012875Y017214D01*
X012909Y017056D02*
X027017Y017056D01*
X027017Y016897D02*
X012909Y016897D01*
X012909Y016739D02*
X027017Y016739D01*
X027017Y016580D02*
X012909Y016580D01*
X012909Y016422D02*
X027017Y016422D01*
X027017Y016263D02*
X012909Y016263D01*
X012909Y016105D02*
X027017Y016105D01*
X027041Y015946D02*
X012884Y015946D01*
X012744Y015788D02*
X027181Y015788D01*
X024096Y013027D02*
X022915Y014208D01*
X022417Y014203D02*
X008617Y014203D01*
X008527Y014240D02*
X008201Y014240D01*
X007900Y014115D01*
X007669Y013885D01*
X007544Y013583D01*
X007544Y013257D01*
X007669Y012956D01*
X007900Y012725D01*
X008201Y012600D01*
X008527Y012600D01*
X008829Y012725D01*
X009059Y012956D01*
X009184Y013257D01*
X009184Y013583D01*
X009059Y013885D01*
X008829Y014115D01*
X008527Y014240D01*
X008111Y014203D02*
X003513Y014203D01*
X003513Y014361D02*
X022439Y014361D01*
X022523Y014520D02*
X003513Y014520D01*
X003513Y014678D02*
X022749Y014678D01*
X022443Y014044D02*
X008900Y014044D01*
X009058Y013886D02*
X022532Y013886D01*
X022772Y013727D02*
X009124Y013727D01*
X009184Y013569D02*
X022988Y013569D01*
X023147Y013410D02*
X009184Y013410D01*
X009182Y013252D02*
X023305Y013252D01*
X023464Y013093D02*
X009116Y013093D01*
X009038Y012935D02*
X023598Y012935D01*
X023660Y012776D02*
X008880Y012776D01*
X008570Y012618D02*
X023800Y012618D01*
X026434Y010694D02*
X026343Y010473D01*
X026343Y009674D01*
X026434Y009454D01*
X026603Y009285D01*
X026823Y009194D01*
X027062Y009194D01*
X027283Y009285D01*
X027443Y009445D01*
X027603Y009285D01*
X027823Y009194D01*
X028062Y009194D01*
X028283Y009285D01*
X028451Y009454D01*
X028543Y009674D01*
X028543Y010473D01*
X028451Y010694D01*
X028283Y010862D01*
X028062Y010954D01*
X027823Y010954D01*
X027603Y010862D01*
X027443Y010702D01*
X027283Y010862D01*
X027062Y010954D01*
X026823Y010954D01*
X026603Y010862D01*
X026434Y010694D01*
X026456Y010716D02*
X009419Y010716D01*
X009419Y010557D02*
X026378Y010557D01*
X026343Y010399D02*
X011407Y010399D01*
X011392Y010415D02*
X011057Y010553D01*
X010695Y010553D01*
X010360Y010415D01*
X010104Y010158D01*
X009965Y009824D01*
X009965Y008280D01*
X010104Y007946D01*
X010360Y007690D01*
X010695Y007551D01*
X011057Y007551D01*
X011392Y007690D01*
X011648Y007946D01*
X011786Y008280D01*
X011786Y009824D01*
X011648Y010158D01*
X011392Y010415D01*
X011566Y010240D02*
X018467Y010240D01*
X018317Y010178D02*
X018086Y009948D01*
X017378Y009239D01*
X017253Y008938D01*
X017253Y007352D01*
X017378Y007050D01*
X017608Y006820D01*
X017910Y006695D01*
X018236Y006695D01*
X018537Y006820D01*
X018768Y007050D01*
X018893Y007352D01*
X018893Y008435D01*
X019121Y008663D01*
X020913Y008663D01*
X021214Y008788D01*
X021445Y009019D01*
X021520Y009201D01*
X021547Y009227D01*
X021646Y009466D01*
X021646Y009725D01*
X021547Y009964D01*
X021364Y010146D01*
X021125Y010245D01*
X021053Y010245D01*
X020913Y010303D01*
X018618Y010303D01*
X018317Y010178D01*
X018220Y010082D02*
X011680Y010082D01*
X011745Y009923D02*
X018062Y009923D01*
X017903Y009765D02*
X011786Y009765D01*
X011786Y009606D02*
X017745Y009606D01*
X017586Y009448D02*
X011786Y009448D01*
X011786Y009289D02*
X017428Y009289D01*
X017333Y009131D02*
X011786Y009131D01*
X011786Y008972D02*
X017267Y008972D01*
X017253Y008814D02*
X011786Y008814D01*
X011786Y008655D02*
X017253Y008655D01*
X017253Y008497D02*
X011786Y008497D01*
X011786Y008338D02*
X017253Y008338D01*
X017253Y008180D02*
X011745Y008180D01*
X011679Y008021D02*
X017253Y008021D01*
X017253Y007863D02*
X011565Y007863D01*
X011406Y007704D02*
X017253Y007704D01*
X017253Y007546D02*
X009419Y007546D01*
X009419Y007704D02*
X010345Y007704D01*
X010187Y007863D02*
X009419Y007863D01*
X009419Y008021D02*
X010073Y008021D01*
X010007Y008180D02*
X009419Y008180D01*
X009419Y008338D02*
X009965Y008338D01*
X009965Y008497D02*
X009419Y008497D01*
X009419Y008655D02*
X009965Y008655D01*
X009965Y008814D02*
X009419Y008814D01*
X009419Y008972D02*
X009965Y008972D01*
X009965Y009131D02*
X009419Y009131D01*
X009419Y009289D02*
X009965Y009289D01*
X009965Y009448D02*
X009419Y009448D01*
X009419Y009606D02*
X009965Y009606D01*
X009965Y009765D02*
X009419Y009765D01*
X009419Y009923D02*
X010007Y009923D01*
X010072Y010082D02*
X009419Y010082D01*
X009419Y010240D02*
X010186Y010240D01*
X010344Y010399D02*
X009419Y010399D01*
X009371Y010874D02*
X026632Y010874D01*
X026343Y010240D02*
X021137Y010240D01*
X021429Y010082D02*
X026343Y010082D01*
X026343Y009923D02*
X021564Y009923D01*
X021629Y009765D02*
X026343Y009765D01*
X026371Y009606D02*
X021646Y009606D01*
X021638Y009448D02*
X026440Y009448D01*
X026599Y009289D02*
X021573Y009289D01*
X021492Y009131D02*
X030373Y009131D01*
X030308Y009289D02*
X028287Y009289D01*
X028446Y009448D02*
X030303Y009448D01*
X030303Y009606D02*
X028515Y009606D01*
X028543Y009765D02*
X030303Y009765D01*
X030303Y009923D02*
X028543Y009923D01*
X028543Y010082D02*
X030303Y010082D01*
X030342Y010240D02*
X028543Y010240D01*
X028543Y010399D02*
X030422Y010399D01*
X030592Y010557D02*
X028508Y010557D01*
X028429Y010716D02*
X041285Y010716D01*
X041254Y010557D02*
X041443Y010557D01*
X041126Y010874D02*
X028254Y010874D01*
X027632Y010874D02*
X027254Y010874D01*
X027429Y010716D02*
X027456Y010716D01*
X027599Y009289D02*
X027287Y009289D01*
X026737Y007983D02*
X026424Y008112D01*
X026085Y008112D01*
X025771Y007983D01*
X025532Y007743D01*
X025474Y007604D01*
X025417Y007743D01*
X025177Y007983D01*
X024864Y008112D01*
X024525Y008112D01*
X024211Y007983D01*
X023972Y007743D01*
X023914Y007604D01*
X023857Y007743D01*
X023617Y007983D01*
X023304Y008112D01*
X022965Y008112D01*
X022651Y007983D01*
X022412Y007743D01*
X022282Y007429D01*
X022282Y006025D01*
X022412Y005712D01*
X022651Y005472D01*
X022965Y005342D01*
X023304Y005342D01*
X023617Y005472D01*
X023857Y005712D01*
X023914Y005850D01*
X023972Y005712D01*
X024211Y005472D01*
X024525Y005342D01*
X024864Y005342D01*
X025177Y005472D01*
X025417Y005712D01*
X025474Y005850D01*
X025532Y005712D01*
X025771Y005472D01*
X026085Y005342D01*
X026424Y005342D01*
X026737Y005472D01*
X026977Y005712D01*
X027107Y006025D01*
X027107Y007429D01*
X026977Y007743D01*
X026737Y007983D01*
X026643Y008021D02*
X031407Y008021D01*
X031313Y007983D02*
X031073Y007743D01*
X030943Y007429D01*
X030943Y006025D01*
X031073Y005712D01*
X031313Y005472D01*
X031626Y005342D01*
X031965Y005342D01*
X032279Y005472D01*
X032518Y005712D01*
X032576Y005850D01*
X032633Y005712D01*
X032873Y005472D01*
X033186Y005342D01*
X033525Y005342D01*
X033839Y005472D01*
X034078Y005712D01*
X034136Y005850D01*
X034193Y005712D01*
X034433Y005472D01*
X034746Y005342D01*
X035085Y005342D01*
X035399Y005472D01*
X035638Y005712D01*
X035768Y006025D01*
X035768Y007429D01*
X035638Y007743D01*
X035399Y007983D01*
X035085Y008112D01*
X034746Y008112D01*
X034433Y007983D01*
X034193Y007743D01*
X034136Y007604D01*
X034078Y007743D01*
X033839Y007983D01*
X033525Y008112D01*
X033186Y008112D01*
X032873Y007983D01*
X032633Y007743D01*
X032576Y007604D01*
X032518Y007743D01*
X032279Y007983D01*
X031965Y008112D01*
X031626Y008112D01*
X031313Y007983D01*
X031193Y007863D02*
X026857Y007863D01*
X026993Y007704D02*
X031057Y007704D01*
X030992Y007546D02*
X027059Y007546D01*
X027107Y007387D02*
X030943Y007387D01*
X030943Y007229D02*
X027107Y007229D01*
X027107Y007070D02*
X030943Y007070D01*
X030943Y006912D02*
X027107Y006912D01*
X027107Y006753D02*
X030943Y006753D01*
X030943Y006595D02*
X027107Y006595D01*
X027107Y006436D02*
X030943Y006436D01*
X030943Y006278D02*
X027107Y006278D01*
X027107Y006119D02*
X030943Y006119D01*
X030970Y005961D02*
X027080Y005961D01*
X027015Y005802D02*
X031036Y005802D01*
X031141Y005644D02*
X026909Y005644D01*
X026751Y005485D02*
X031300Y005485D01*
X032292Y005485D02*
X032860Y005485D01*
X032701Y005644D02*
X032450Y005644D01*
X032556Y005802D02*
X032596Y005802D01*
X033852Y005485D02*
X034420Y005485D01*
X034261Y005644D02*
X034010Y005644D01*
X034116Y005802D02*
X034156Y005802D01*
X035412Y005485D02*
X039961Y005485D01*
X039974Y005472D02*
X040288Y005342D01*
X040627Y005342D01*
X040940Y005472D01*
X041180Y005712D01*
X041237Y005850D01*
X041294Y005712D01*
X041534Y005472D01*
X041848Y005342D01*
X042187Y005342D01*
X042500Y005472D01*
X042740Y005712D01*
X042797Y005850D01*
X042854Y005712D01*
X043094Y005472D01*
X043408Y005342D01*
X043747Y005342D01*
X044060Y005472D01*
X044300Y005712D01*
X044430Y006025D01*
X044430Y007429D01*
X044300Y007743D01*
X044060Y007983D01*
X043747Y008112D01*
X043408Y008112D01*
X043094Y007983D01*
X042854Y007743D01*
X042797Y007604D01*
X042740Y007743D01*
X042500Y007983D01*
X042187Y008112D01*
X041848Y008112D01*
X041534Y007983D01*
X041294Y007743D01*
X041237Y007604D01*
X041180Y007743D01*
X040940Y007983D01*
X040627Y008112D01*
X040288Y008112D01*
X039974Y007983D01*
X039734Y007743D01*
X039605Y007429D01*
X039605Y006025D01*
X039734Y005712D01*
X039974Y005472D01*
X039802Y005644D02*
X035570Y005644D01*
X035676Y005802D02*
X039697Y005802D01*
X039631Y005961D02*
X035742Y005961D01*
X035768Y006119D02*
X039605Y006119D01*
X039605Y006278D02*
X035768Y006278D01*
X035768Y006436D02*
X039605Y006436D01*
X039605Y006595D02*
X035768Y006595D01*
X035768Y006753D02*
X039605Y006753D01*
X039605Y006912D02*
X035768Y006912D01*
X035768Y007070D02*
X039605Y007070D01*
X039605Y007229D02*
X035768Y007229D01*
X035768Y007387D02*
X039605Y007387D01*
X039653Y007546D02*
X035720Y007546D01*
X035654Y007704D02*
X039719Y007704D01*
X039855Y007863D02*
X035518Y007863D01*
X035305Y008021D02*
X040068Y008021D01*
X040846Y008021D02*
X041628Y008021D01*
X041415Y007863D02*
X041060Y007863D01*
X041196Y007704D02*
X041279Y007704D01*
X042406Y008021D02*
X043188Y008021D01*
X042975Y007863D02*
X042620Y007863D01*
X042756Y007704D02*
X042839Y007704D01*
X043966Y008021D02*
X051372Y008021D01*
X051372Y007863D02*
X044180Y007863D01*
X044316Y007704D02*
X051372Y007704D01*
X051372Y007546D02*
X044381Y007546D01*
X044430Y007387D02*
X047482Y007387D01*
X047477Y007386D02*
X047303Y007211D01*
X047209Y006983D01*
X047209Y006137D01*
X047303Y005909D01*
X047477Y005734D01*
X047705Y005640D01*
X047952Y005640D01*
X048180Y005734D01*
X048329Y005883D01*
X048477Y005734D01*
X048705Y005640D01*
X048952Y005640D01*
X049180Y005734D01*
X049329Y005883D01*
X049477Y005734D01*
X049705Y005640D01*
X049952Y005640D01*
X050180Y005734D01*
X050354Y005909D01*
X050449Y006137D01*
X050449Y006983D01*
X050354Y007211D01*
X050180Y007386D01*
X049952Y007480D01*
X049705Y007480D01*
X049477Y007386D01*
X049329Y007237D01*
X049180Y007386D01*
X048952Y007480D01*
X048705Y007480D01*
X048477Y007386D01*
X048329Y007237D01*
X048180Y007386D01*
X047952Y007480D01*
X047705Y007480D01*
X047477Y007386D01*
X047321Y007229D02*
X044430Y007229D01*
X044430Y007070D02*
X047245Y007070D01*
X047209Y006912D02*
X044430Y006912D01*
X044430Y006753D02*
X047209Y006753D01*
X047209Y006595D02*
X044430Y006595D01*
X044430Y006436D02*
X047209Y006436D01*
X047209Y006278D02*
X044430Y006278D01*
X044430Y006119D02*
X047216Y006119D01*
X047281Y005961D02*
X044403Y005961D01*
X044337Y005802D02*
X047409Y005802D01*
X047696Y005644D02*
X044232Y005644D01*
X044073Y005485D02*
X051372Y005485D01*
X051372Y005327D02*
X009419Y005327D01*
X009419Y005485D02*
X022638Y005485D01*
X022480Y005644D02*
X009419Y005644D01*
X009419Y005802D02*
X022374Y005802D01*
X022308Y005961D02*
X009419Y005961D01*
X009419Y006119D02*
X022282Y006119D01*
X022282Y006278D02*
X009419Y006278D01*
X009419Y006436D02*
X022282Y006436D01*
X022282Y006595D02*
X009419Y006595D01*
X009419Y006753D02*
X017768Y006753D01*
X017516Y006912D02*
X009419Y006912D01*
X009419Y007070D02*
X017369Y007070D01*
X017304Y007229D02*
X009419Y007229D01*
X009419Y007387D02*
X017253Y007387D01*
X018378Y006753D02*
X022282Y006753D01*
X022282Y006912D02*
X018630Y006912D01*
X018776Y007070D02*
X022282Y007070D01*
X022282Y007229D02*
X018842Y007229D01*
X018893Y007387D02*
X022282Y007387D01*
X022330Y007546D02*
X018893Y007546D01*
X018893Y007704D02*
X022396Y007704D01*
X022532Y007863D02*
X018893Y007863D01*
X018893Y008021D02*
X022745Y008021D01*
X023523Y008021D02*
X024305Y008021D01*
X024092Y007863D02*
X023737Y007863D01*
X023873Y007704D02*
X023956Y007704D01*
X025083Y008021D02*
X025865Y008021D01*
X025652Y007863D02*
X025297Y007863D01*
X025433Y007704D02*
X025516Y007704D01*
X025455Y005802D02*
X025494Y005802D01*
X025600Y005644D02*
X025349Y005644D01*
X025191Y005485D02*
X025758Y005485D01*
X024198Y005485D02*
X023631Y005485D01*
X023789Y005644D02*
X024040Y005644D01*
X023934Y005802D02*
X023895Y005802D01*
X021240Y008814D02*
X030774Y008814D01*
X031072Y008814D02*
X031774Y008814D01*
X032072Y008814D02*
X032774Y008814D01*
X033072Y008814D02*
X033774Y008814D01*
X034072Y008814D02*
X034774Y008814D01*
X035072Y008814D02*
X035774Y008814D01*
X036072Y008814D02*
X036774Y008814D01*
X037072Y008814D02*
X037774Y008814D01*
X038072Y008814D02*
X038774Y008814D01*
X039072Y008814D02*
X039774Y008814D01*
X040072Y008814D02*
X040774Y008814D01*
X041072Y008814D02*
X041774Y008814D01*
X042072Y008814D02*
X042774Y008814D01*
X043072Y008814D02*
X044774Y008814D01*
X044800Y008803D02*
X045046Y008803D01*
X045274Y008898D01*
X045423Y009047D01*
X045572Y008898D01*
X045800Y008803D01*
X046046Y008803D01*
X046274Y008898D01*
X046423Y009047D01*
X046572Y008898D01*
X046800Y008803D01*
X047046Y008803D01*
X047274Y008898D01*
X047423Y009047D01*
X047572Y008898D01*
X047800Y008803D01*
X048046Y008803D01*
X048274Y008898D01*
X048423Y009047D01*
X048572Y008898D01*
X048800Y008803D01*
X049046Y008803D01*
X049274Y008898D01*
X049449Y009072D01*
X049543Y009300D01*
X049543Y010147D01*
X049449Y010375D01*
X049274Y010549D01*
X049046Y010643D01*
X048800Y010643D01*
X048572Y010549D01*
X048423Y010400D01*
X048274Y010549D01*
X048046Y010643D01*
X047800Y010643D01*
X047572Y010549D01*
X047423Y010400D01*
X047274Y010549D01*
X047046Y010643D01*
X046800Y010643D01*
X046572Y010549D01*
X046423Y010400D01*
X046274Y010549D01*
X046046Y010643D01*
X045800Y010643D01*
X045572Y010549D01*
X045423Y010400D01*
X045274Y010549D01*
X045046Y010643D01*
X044800Y010643D01*
X044572Y010549D01*
X044398Y010375D01*
X044303Y010147D01*
X044303Y009300D01*
X044398Y009072D01*
X044572Y008898D01*
X044800Y008803D01*
X045072Y008814D02*
X045774Y008814D01*
X046072Y008814D02*
X046774Y008814D01*
X047072Y008814D02*
X047774Y008814D01*
X048072Y008814D02*
X048774Y008814D01*
X049072Y008814D02*
X051372Y008814D01*
X051372Y008972D02*
X049349Y008972D01*
X049473Y009131D02*
X051372Y009131D01*
X051372Y009289D02*
X049539Y009289D01*
X049543Y009448D02*
X051372Y009448D01*
X051372Y009606D02*
X049543Y009606D01*
X049543Y009765D02*
X051372Y009765D01*
X051372Y009923D02*
X049543Y009923D01*
X049543Y010082D02*
X051372Y010082D01*
X051372Y010240D02*
X049504Y010240D01*
X049424Y010399D02*
X051372Y010399D01*
X051372Y010557D02*
X049254Y010557D01*
X048592Y010557D02*
X048254Y010557D01*
X047592Y010557D02*
X047254Y010557D01*
X046592Y010557D02*
X046254Y010557D01*
X045592Y010557D02*
X045254Y010557D01*
X044592Y010557D02*
X043254Y010557D01*
X043424Y010399D02*
X044422Y010399D01*
X044342Y010240D02*
X043504Y010240D01*
X043543Y010082D02*
X044303Y010082D01*
X044303Y009923D02*
X043543Y009923D01*
X043543Y009765D02*
X044303Y009765D01*
X044303Y009606D02*
X043543Y009606D01*
X043543Y009448D02*
X044303Y009448D01*
X044308Y009289D02*
X043539Y009289D01*
X043473Y009131D02*
X044373Y009131D01*
X044497Y008972D02*
X043349Y008972D01*
X042497Y008972D02*
X042349Y008972D01*
X041497Y008972D02*
X041349Y008972D01*
X040497Y008972D02*
X040349Y008972D01*
X039497Y008972D02*
X039349Y008972D01*
X038497Y008972D02*
X038349Y008972D01*
X037497Y008972D02*
X037349Y008972D01*
X036497Y008972D02*
X036349Y008972D01*
X035497Y008972D02*
X035349Y008972D01*
X034497Y008972D02*
X034349Y008972D01*
X033497Y008972D02*
X033349Y008972D01*
X032497Y008972D02*
X032349Y008972D01*
X031497Y008972D02*
X031349Y008972D01*
X030497Y008972D02*
X021399Y008972D01*
X019113Y008655D02*
X051372Y008655D01*
X051372Y008497D02*
X018955Y008497D01*
X018893Y008338D02*
X051372Y008338D01*
X051372Y008180D02*
X018893Y008180D01*
X009249Y011033D02*
X040968Y011033D01*
X040809Y011191D02*
X004593Y011191D01*
X004894Y011350D02*
X040651Y011350D01*
X040492Y011508D02*
X005053Y011508D01*
X005166Y011667D02*
X040334Y011667D01*
X040253Y011825D02*
X005253Y011825D01*
X005262Y012618D02*
X008158Y012618D01*
X007848Y012776D02*
X005186Y012776D01*
X005088Y012935D02*
X007690Y012935D01*
X007612Y013093D02*
X004930Y013093D01*
X004680Y013252D02*
X007546Y013252D01*
X007544Y013410D02*
X003513Y013410D01*
X003513Y013252D02*
X003749Y013252D01*
X003513Y013569D02*
X007544Y013569D01*
X007604Y013727D02*
X003513Y013727D01*
X003513Y013886D02*
X007670Y013886D01*
X007829Y014044D02*
X003513Y014044D01*
X003513Y015788D02*
X011433Y015788D01*
X011293Y015946D02*
X003513Y015946D01*
X003513Y016105D02*
X011269Y016105D01*
X011269Y016263D02*
X010925Y016263D01*
X010882Y016220D02*
X011065Y016403D01*
X011164Y016642D01*
X011164Y017561D01*
X011065Y017800D01*
X010882Y017982D01*
X010643Y018081D01*
X010384Y018081D01*
X010146Y017982D01*
X009963Y017800D01*
X009864Y017561D01*
X009864Y016642D01*
X009963Y016403D01*
X010146Y016220D01*
X010384Y016121D01*
X010643Y016121D01*
X010882Y016220D01*
X011073Y016422D02*
X011269Y016422D01*
X011269Y016580D02*
X011138Y016580D01*
X011164Y016739D02*
X011269Y016739D01*
X011269Y016897D02*
X011164Y016897D01*
X011164Y017056D02*
X011269Y017056D01*
X011302Y017214D02*
X011164Y017214D01*
X011164Y017373D02*
X011484Y017373D01*
X011164Y017531D02*
X041341Y017531D01*
X041341Y017690D02*
X011110Y017690D01*
X011016Y017848D02*
X041341Y017848D01*
X041431Y018007D02*
X010823Y018007D01*
X011287Y018324D02*
X009722Y018324D01*
X009691Y018247D02*
X009779Y018460D01*
X009779Y018691D01*
X009691Y018904D01*
X009527Y019067D01*
X009314Y019156D01*
X008564Y019156D01*
X008350Y019067D01*
X008187Y018904D01*
X008099Y018691D01*
X008099Y018460D01*
X008187Y018247D01*
X008350Y018084D01*
X008539Y018006D01*
X008447Y017914D01*
X008359Y017701D01*
X008359Y016950D01*
X008447Y016737D01*
X008610Y016574D01*
X008824Y016486D01*
X009054Y016486D01*
X009267Y016574D01*
X009431Y016737D01*
X009519Y016950D01*
X009519Y017701D01*
X009431Y017914D01*
X009339Y018006D01*
X009527Y018084D01*
X009691Y018247D01*
X009609Y018165D02*
X011403Y018165D01*
X011269Y018482D02*
X009779Y018482D01*
X009779Y018641D02*
X011269Y018641D01*
X011269Y018799D02*
X009734Y018799D01*
X009637Y018958D02*
X011269Y018958D01*
X011269Y019116D02*
X009409Y019116D01*
X009314Y019496D02*
X009527Y019584D01*
X009691Y019747D01*
X009779Y019960D01*
X009779Y020191D01*
X009691Y020404D01*
X009527Y020567D01*
X009339Y020646D01*
X009431Y020737D01*
X009519Y020950D01*
X009519Y021701D01*
X009431Y021914D01*
X009267Y022077D01*
X009054Y022166D01*
X008824Y022166D01*
X008610Y022077D01*
X008447Y021914D01*
X008359Y021701D01*
X008359Y020950D01*
X008447Y020737D01*
X008539Y020646D01*
X008350Y020567D01*
X008187Y020404D01*
X008099Y020191D01*
X008099Y019960D01*
X008187Y019747D01*
X008350Y019584D01*
X008564Y019496D01*
X009314Y019496D01*
X009535Y019592D02*
X011308Y019592D01*
X011269Y019433D02*
X003513Y019433D01*
X003513Y019275D02*
X011269Y019275D01*
X011521Y019750D02*
X009692Y019750D01*
X009758Y019909D02*
X031303Y019909D01*
X031303Y020067D02*
X009779Y020067D01*
X009764Y020226D02*
X031336Y020226D01*
X031407Y020384D02*
X019259Y020384D01*
X019411Y020543D02*
X031566Y020543D01*
X032280Y020543D02*
X032566Y020543D01*
X033280Y020543D02*
X033566Y020543D01*
X034280Y020543D02*
X034566Y020543D01*
X035280Y020543D02*
X035566Y020543D01*
X036280Y020543D02*
X037566Y020543D01*
X037572Y020549D02*
X037398Y020375D01*
X037303Y020147D01*
X037303Y019300D01*
X037398Y019072D01*
X037572Y018898D01*
X037800Y018803D01*
X038046Y018803D01*
X038274Y018898D01*
X038423Y019047D01*
X038572Y018898D01*
X038800Y018803D01*
X039046Y018803D01*
X039274Y018898D01*
X039423Y019047D01*
X039572Y018898D01*
X039800Y018803D01*
X040046Y018803D01*
X040274Y018898D01*
X040423Y019047D01*
X040572Y018898D01*
X040800Y018803D01*
X041046Y018803D01*
X041274Y018898D01*
X041423Y019047D01*
X041572Y018898D01*
X041800Y018803D01*
X042046Y018803D01*
X042274Y018898D01*
X042423Y019047D01*
X042572Y018898D01*
X042800Y018803D01*
X043046Y018803D01*
X043274Y018898D01*
X043423Y019047D01*
X043572Y018898D01*
X043800Y018803D01*
X044046Y018803D01*
X044274Y018898D01*
X044423Y019047D01*
X044572Y018898D01*
X044800Y018803D01*
X045046Y018803D01*
X045274Y018898D01*
X045423Y019047D01*
X045572Y018898D01*
X045800Y018803D01*
X046046Y018803D01*
X046274Y018898D01*
X046423Y019047D01*
X046572Y018898D01*
X046800Y018803D01*
X047046Y018803D01*
X047274Y018898D01*
X047423Y019047D01*
X047572Y018898D01*
X047800Y018803D01*
X048046Y018803D01*
X048274Y018898D01*
X048423Y019047D01*
X048572Y018898D01*
X048800Y018803D01*
X049046Y018803D01*
X049274Y018898D01*
X049449Y019072D01*
X049543Y019300D01*
X049543Y020147D01*
X049449Y020375D01*
X049274Y020549D01*
X049046Y020643D01*
X048800Y020643D01*
X048572Y020549D01*
X048423Y020400D01*
X048274Y020549D01*
X048046Y020643D01*
X047800Y020643D01*
X047572Y020549D01*
X047423Y020400D01*
X047274Y020549D01*
X047046Y020643D01*
X046800Y020643D01*
X046572Y020549D01*
X046423Y020400D01*
X046274Y020549D01*
X046046Y020643D01*
X045800Y020643D01*
X045572Y020549D01*
X045423Y020400D01*
X045274Y020549D01*
X045046Y020643D01*
X044800Y020643D01*
X044572Y020549D01*
X044423Y020400D01*
X044274Y020549D01*
X044046Y020643D01*
X043800Y020643D01*
X043572Y020549D01*
X043423Y020400D01*
X043274Y020549D01*
X043046Y020643D01*
X042800Y020643D01*
X042572Y020549D01*
X042423Y020400D01*
X042274Y020549D01*
X042046Y020643D01*
X041800Y020643D01*
X041572Y020549D01*
X041423Y020400D01*
X041274Y020549D01*
X041046Y020643D01*
X040800Y020643D01*
X040572Y020549D01*
X040423Y020400D01*
X040274Y020549D01*
X040046Y020643D01*
X039800Y020643D01*
X039572Y020549D01*
X039423Y020400D01*
X039274Y020549D01*
X039046Y020643D01*
X038800Y020643D01*
X038572Y020549D01*
X038423Y020400D01*
X038274Y020549D01*
X038046Y020643D01*
X037800Y020643D01*
X037572Y020549D01*
X037407Y020384D02*
X036439Y020384D01*
X036510Y020226D02*
X037336Y020226D01*
X037303Y020067D02*
X036543Y020067D01*
X036543Y019909D02*
X037303Y019909D01*
X037303Y019750D02*
X036543Y019750D01*
X036543Y019592D02*
X037303Y019592D01*
X037303Y019433D02*
X036543Y019433D01*
X036533Y019275D02*
X037314Y019275D01*
X037379Y019116D02*
X036467Y019116D01*
X036335Y018958D02*
X037512Y018958D01*
X038335Y018958D02*
X038512Y018958D01*
X039335Y018958D02*
X039512Y018958D01*
X040335Y018958D02*
X040512Y018958D01*
X041335Y018958D02*
X041512Y018958D01*
X042335Y018958D02*
X042512Y018958D01*
X043335Y018958D02*
X043512Y018958D01*
X044335Y018958D02*
X044512Y018958D01*
X045335Y018958D02*
X045512Y018958D01*
X046335Y018958D02*
X046512Y018958D01*
X047335Y018958D02*
X047512Y018958D01*
X048335Y018958D02*
X048512Y018958D01*
X049335Y018958D02*
X051568Y018958D01*
X051634Y019116D02*
X049467Y019116D01*
X049533Y019275D02*
X051764Y019275D01*
X051707Y019433D02*
X049543Y019433D01*
X049543Y019592D02*
X051610Y019592D01*
X051563Y019750D02*
X049543Y019750D01*
X049543Y019909D02*
X051563Y019909D01*
X051614Y020067D02*
X049543Y020067D01*
X049510Y020226D02*
X051715Y020226D01*
X051944Y020384D02*
X049439Y020384D01*
X049280Y020543D02*
X052825Y020543D01*
X052942Y020384D02*
X052984Y020384D01*
X052667Y020701D02*
X019477Y020701D01*
X019506Y020860D02*
X052508Y020860D01*
X052350Y021018D02*
X019506Y021018D01*
X019445Y021177D02*
X052191Y021177D01*
X052689Y021811D02*
X055192Y021811D01*
X055192Y021969D02*
X052530Y021969D01*
X052847Y021652D02*
X055192Y021652D01*
X055192Y021494D02*
X053006Y021494D01*
X053164Y021335D02*
X055192Y021335D01*
X055192Y021177D02*
X053323Y021177D01*
X053481Y021018D02*
X055192Y021018D01*
X055192Y020860D02*
X053640Y020860D01*
X053779Y020701D02*
X055192Y020701D01*
X055192Y020543D02*
X053827Y020543D01*
X053827Y020384D02*
X055192Y020384D01*
X055192Y020226D02*
X053827Y020226D01*
X053827Y020067D02*
X055192Y020067D01*
X055192Y019909D02*
X053827Y019909D01*
X053827Y019750D02*
X055192Y019750D01*
X055192Y019592D02*
X053827Y019592D01*
X053827Y019433D02*
X055192Y019433D01*
X055192Y019275D02*
X053827Y019275D01*
X053827Y019116D02*
X055186Y019116D01*
X055028Y018958D02*
X053967Y018958D01*
X054125Y018799D02*
X054869Y018799D01*
X053469Y018324D02*
X053070Y018324D01*
X053228Y018482D02*
X053311Y018482D01*
X051816Y018324D02*
X028638Y018324D01*
X032335Y018958D02*
X032512Y018958D01*
X033335Y018958D02*
X033512Y018958D01*
X034335Y018958D02*
X034512Y018958D01*
X035335Y018958D02*
X035512Y018958D01*
X038280Y020543D02*
X038566Y020543D01*
X039280Y020543D02*
X039566Y020543D01*
X040280Y020543D02*
X040566Y020543D01*
X041280Y020543D02*
X041566Y020543D01*
X042280Y020543D02*
X042566Y020543D01*
X043280Y020543D02*
X043566Y020543D01*
X044280Y020543D02*
X044566Y020543D01*
X045280Y020543D02*
X045566Y020543D01*
X046280Y020543D02*
X046566Y020543D01*
X047280Y020543D02*
X047566Y020543D01*
X048280Y020543D02*
X048566Y020543D01*
X051943Y023554D02*
X044675Y023554D01*
X044463Y023554D02*
X038860Y023554D01*
X038648Y023554D02*
X031879Y023554D01*
X031668Y023554D02*
X027056Y023554D01*
X026845Y023554D02*
X020856Y023554D01*
X020644Y023554D02*
X008689Y023554D01*
X008847Y023713D02*
X008882Y023713D01*
X008040Y023554D02*
X007901Y023554D01*
X007252Y023554D02*
X006689Y023554D01*
X006604Y023470D02*
X006944Y023810D01*
X006944Y024290D01*
X006604Y024630D01*
X006124Y024630D01*
X005970Y024477D01*
X005817Y024630D01*
X005336Y024630D01*
X004997Y024290D01*
X004997Y023810D01*
X005336Y023470D01*
X005817Y023470D01*
X005970Y023624D01*
X006124Y023470D01*
X006604Y023470D01*
X006847Y023713D02*
X007094Y023713D01*
X006997Y023871D02*
X006944Y023871D01*
X006944Y024030D02*
X006997Y024030D01*
X006997Y024188D02*
X006944Y024188D01*
X006888Y024347D02*
X007053Y024347D01*
X007212Y024505D02*
X006729Y024505D01*
X006456Y025005D02*
X005942Y025005D01*
X005579Y025368D01*
X005579Y025882D01*
X005942Y026245D01*
X006456Y026245D01*
X006819Y025882D01*
X006819Y025368D01*
X006456Y025005D01*
X006590Y025139D02*
X008545Y025139D01*
X008545Y024981D02*
X003513Y024981D01*
X003513Y025139D02*
X005807Y025139D01*
X005649Y025298D02*
X003513Y025298D01*
X003513Y025456D02*
X005579Y025456D01*
X005579Y025615D02*
X003513Y025615D01*
X003513Y025773D02*
X005579Y025773D01*
X005629Y025932D02*
X003513Y025932D01*
X003513Y026090D02*
X005787Y026090D01*
X006610Y026090D02*
X008545Y026090D01*
X008545Y025932D02*
X006769Y025932D01*
X006819Y025773D02*
X008545Y025773D01*
X008545Y025615D02*
X006819Y025615D01*
X006819Y025456D02*
X008545Y025456D01*
X008545Y025298D02*
X006749Y025298D01*
X005999Y024505D02*
X005942Y024505D01*
X005212Y024505D02*
X003513Y024505D01*
X003513Y024347D02*
X005053Y024347D01*
X004997Y024188D02*
X003513Y024188D01*
X003513Y024030D02*
X004997Y024030D01*
X004997Y023871D02*
X003513Y023871D01*
X003513Y023713D02*
X005094Y023713D01*
X005252Y023554D02*
X003513Y023554D01*
X003513Y023396D02*
X054672Y023396D01*
X054830Y023237D02*
X003513Y023237D01*
X003513Y023079D02*
X054989Y023079D01*
X055147Y022920D02*
X003513Y022920D01*
X003513Y022762D02*
X055192Y022762D01*
X055192Y022603D02*
X003513Y022603D01*
X003513Y022445D02*
X055192Y022445D01*
X055192Y022286D02*
X003513Y022286D01*
X003513Y022128D02*
X008732Y022128D01*
X008502Y021969D02*
X006486Y021969D01*
X006466Y021989D02*
X006165Y022114D01*
X005839Y022114D01*
X005537Y021989D01*
X005307Y021759D01*
X005182Y021457D01*
X005182Y021131D01*
X005307Y020830D01*
X005537Y020599D01*
X005839Y020474D01*
X006165Y020474D01*
X006466Y020599D01*
X006697Y020830D01*
X006822Y021131D01*
X006822Y021457D01*
X006697Y021759D01*
X006466Y021989D01*
X006645Y021811D02*
X008404Y021811D01*
X008359Y021652D02*
X006741Y021652D01*
X006807Y021494D02*
X008359Y021494D01*
X008359Y021335D02*
X006822Y021335D01*
X006822Y021177D02*
X008359Y021177D01*
X008359Y021018D02*
X006775Y021018D01*
X006710Y020860D02*
X008396Y020860D01*
X008483Y020701D02*
X006569Y020701D01*
X006331Y020543D02*
X008326Y020543D01*
X008179Y020384D02*
X003513Y020384D01*
X003513Y020226D02*
X008113Y020226D01*
X008099Y020067D02*
X003513Y020067D01*
X003513Y019909D02*
X008120Y019909D01*
X008186Y019750D02*
X003513Y019750D01*
X003513Y019592D02*
X008342Y019592D01*
X008469Y019116D02*
X003513Y019116D01*
X003513Y018958D02*
X008241Y018958D01*
X008144Y018799D02*
X003513Y018799D01*
X003513Y018641D02*
X008099Y018641D01*
X008099Y018482D02*
X003513Y018482D01*
X003513Y018324D02*
X008155Y018324D01*
X008269Y018165D02*
X003513Y018165D01*
X003513Y018007D02*
X008536Y018007D01*
X008420Y017848D02*
X003513Y017848D01*
X003513Y017690D02*
X005613Y017690D01*
X005537Y017659D02*
X005307Y017428D01*
X005182Y017127D01*
X005182Y016800D01*
X005307Y016499D01*
X005537Y016268D01*
X005839Y016144D01*
X006165Y016144D01*
X006466Y016268D01*
X006697Y016499D01*
X006822Y016800D01*
X006822Y017127D01*
X006697Y017428D01*
X006466Y017659D01*
X006165Y017784D01*
X005839Y017784D01*
X005537Y017659D01*
X005410Y017531D02*
X003513Y017531D01*
X003513Y017373D02*
X005284Y017373D01*
X005218Y017214D02*
X003513Y017214D01*
X003513Y017056D02*
X005182Y017056D01*
X005182Y016897D02*
X003513Y016897D01*
X003513Y016739D02*
X005207Y016739D01*
X005273Y016580D02*
X003513Y016580D01*
X003513Y016422D02*
X005384Y016422D01*
X005549Y016263D02*
X003513Y016263D01*
X006454Y016263D02*
X010102Y016263D01*
X009955Y016422D02*
X006620Y016422D01*
X006731Y016580D02*
X008604Y016580D01*
X008446Y016739D02*
X006796Y016739D01*
X006822Y016897D02*
X008381Y016897D01*
X008359Y017056D02*
X006822Y017056D01*
X006786Y017214D02*
X008359Y017214D01*
X008359Y017373D02*
X006720Y017373D01*
X006594Y017531D02*
X008359Y017531D01*
X008359Y017690D02*
X006391Y017690D01*
X009341Y018007D02*
X010205Y018007D01*
X010012Y017848D02*
X009458Y017848D01*
X009519Y017690D02*
X009917Y017690D01*
X009864Y017531D02*
X009519Y017531D01*
X009519Y017373D02*
X009864Y017373D01*
X009864Y017214D02*
X009519Y017214D01*
X009519Y017056D02*
X009864Y017056D01*
X009864Y016897D02*
X009497Y016897D01*
X009431Y016739D02*
X009864Y016739D01*
X009889Y016580D02*
X009274Y016580D01*
X012827Y020349D02*
X013066Y020251D01*
X013985Y020251D01*
X014224Y020349D01*
X014407Y020532D01*
X014506Y020771D01*
X014506Y021030D01*
X014407Y021269D01*
X014224Y021452D01*
X013985Y021551D01*
X013066Y021551D01*
X012827Y021452D01*
X012644Y021269D01*
X012546Y021030D01*
X012546Y020771D01*
X012644Y020532D01*
X012827Y020349D01*
X012792Y020384D02*
X009699Y020384D01*
X009552Y020543D02*
X012640Y020543D01*
X012574Y020701D02*
X009395Y020701D01*
X009481Y020860D02*
X012546Y020860D01*
X012546Y021018D02*
X009519Y021018D01*
X009519Y021177D02*
X012606Y021177D01*
X012711Y021335D02*
X009519Y021335D01*
X009519Y021494D02*
X012930Y021494D01*
X014121Y021494D02*
X017248Y021494D01*
X017200Y021652D02*
X009519Y021652D01*
X009473Y021811D02*
X017218Y021811D01*
X017316Y021969D02*
X009375Y021969D01*
X009145Y022128D02*
X055192Y022128D01*
X054513Y023554D02*
X052155Y023554D01*
X052049Y024050D02*
X046734Y024050D01*
X044569Y024050D01*
X031774Y024050D01*
X026951Y024050D01*
X020750Y024050D01*
X017606Y021177D02*
X014445Y021177D01*
X014506Y021018D02*
X017546Y021018D01*
X017546Y020860D02*
X014506Y020860D01*
X014477Y020701D02*
X017574Y020701D01*
X017640Y020543D02*
X014411Y020543D01*
X014259Y020384D02*
X017792Y020384D01*
X017406Y021335D02*
X014340Y021335D01*
X008545Y024664D02*
X003513Y024664D01*
X003513Y024822D02*
X008545Y024822D01*
X007999Y024505D02*
X007942Y024505D01*
X006040Y023554D02*
X005901Y023554D01*
X005517Y021969D02*
X003513Y021969D01*
X003513Y021811D02*
X005359Y021811D01*
X005263Y021652D02*
X003513Y021652D01*
X003513Y021494D02*
X005197Y021494D01*
X005182Y021335D02*
X003513Y021335D01*
X003513Y021177D02*
X005182Y021177D01*
X005229Y021018D02*
X003513Y021018D01*
X003513Y020860D02*
X005294Y020860D01*
X005435Y020701D02*
X003513Y020701D01*
X003513Y020543D02*
X005673Y020543D01*
X003513Y026249D02*
X008545Y026249D01*
X008545Y026407D02*
X003513Y026407D01*
X003513Y026566D02*
X008545Y026566D01*
X008545Y026724D02*
X003513Y026724D01*
X003513Y026883D02*
X008545Y026883D01*
X008545Y027041D02*
X003513Y027041D01*
X003513Y027200D02*
X008545Y027200D01*
X008545Y027358D02*
X005451Y027358D01*
X005708Y027517D02*
X008545Y027517D01*
X008545Y027675D02*
X005866Y027675D01*
X005968Y027834D02*
X008545Y027834D01*
X008545Y027992D02*
X006047Y027992D01*
X006089Y028151D02*
X008545Y028151D01*
X008545Y028309D02*
X006112Y028309D01*
X006112Y028468D02*
X008545Y028468D01*
X008545Y028626D02*
X006085Y028626D01*
X006043Y028785D02*
X008535Y028785D01*
X008376Y028943D02*
X005959Y028943D01*
X005850Y029102D02*
X008218Y029102D01*
X009529Y029956D02*
X010317Y030743D01*
X010317Y032515D01*
X010120Y032712D01*
X009726Y032712D01*
X008631Y033806D01*
X005444Y033806D01*
X005447Y033804D01*
X005701Y033550D01*
X005881Y033239D01*
X005974Y032891D01*
X005974Y032532D01*
X005881Y032184D01*
X005701Y031873D01*
X005447Y031619D01*
X005135Y031439D01*
X004788Y031346D01*
X004428Y031346D01*
X004081Y031439D01*
X003821Y031589D01*
X003821Y030349D01*
X004214Y029956D01*
X009529Y029956D01*
X009627Y030053D02*
X004117Y030053D01*
X003959Y030211D02*
X009785Y030211D01*
X009944Y030370D02*
X003821Y030370D01*
X003821Y030528D02*
X010102Y030528D01*
X010261Y030687D02*
X003821Y030687D01*
X003821Y030845D02*
X010317Y030845D01*
X010317Y031004D02*
X003821Y031004D01*
X003821Y031162D02*
X010317Y031162D01*
X010317Y031321D02*
X003821Y031321D01*
X003821Y031479D02*
X004011Y031479D01*
X005206Y031479D02*
X010317Y031479D01*
X010317Y031638D02*
X005466Y031638D01*
X005625Y031796D02*
X010317Y031796D01*
X010317Y031955D02*
X005748Y031955D01*
X005840Y032113D02*
X010317Y032113D01*
X010317Y032272D02*
X005904Y032272D01*
X005947Y032430D02*
X010317Y032430D01*
X010243Y032589D02*
X005974Y032589D01*
X005974Y032747D02*
X009690Y032747D01*
X009532Y032906D02*
X005970Y032906D01*
X005928Y033064D02*
X009373Y033064D01*
X009215Y033223D02*
X005885Y033223D01*
X005799Y033381D02*
X009056Y033381D01*
X008898Y033540D02*
X005707Y033540D01*
X005553Y033698D02*
X008739Y033698D01*
X014844Y030211D02*
X017991Y030211D01*
X018000Y030053D02*
X014844Y030053D01*
X014844Y029894D02*
X018085Y029894D01*
X018244Y029736D02*
X014867Y029736D01*
X015026Y029577D02*
X018462Y029577D01*
X018585Y029956D02*
X018388Y030152D01*
X018388Y038617D01*
X018781Y039011D01*
X024293Y039011D01*
X024687Y038617D01*
X024687Y035467D01*
X023112Y033893D01*
X023112Y030940D01*
X022128Y029956D01*
X018585Y029956D01*
X018487Y030053D02*
X022225Y030053D01*
X022384Y030211D02*
X018388Y030211D01*
X018388Y030370D02*
X022542Y030370D01*
X022701Y030528D02*
X018388Y030528D01*
X018388Y030687D02*
X022859Y030687D01*
X023018Y030845D02*
X018388Y030845D01*
X018388Y031004D02*
X023112Y031004D01*
X023112Y031162D02*
X018388Y031162D01*
X018388Y031321D02*
X023112Y031321D01*
X023112Y031479D02*
X018388Y031479D01*
X018388Y031638D02*
X023112Y031638D01*
X023112Y031796D02*
X018388Y031796D01*
X018388Y031955D02*
X023112Y031955D01*
X023112Y032113D02*
X018388Y032113D01*
X018388Y032272D02*
X023112Y032272D01*
X023112Y032430D02*
X018388Y032430D01*
X018388Y032589D02*
X023112Y032589D01*
X023112Y032747D02*
X018388Y032747D01*
X018388Y032906D02*
X023112Y032906D01*
X023112Y033064D02*
X018388Y033064D01*
X018388Y033223D02*
X023112Y033223D01*
X023112Y033381D02*
X018388Y033381D01*
X018388Y033540D02*
X023112Y033540D01*
X023112Y033698D02*
X018388Y033698D01*
X018388Y033857D02*
X023112Y033857D01*
X023235Y034015D02*
X018388Y034015D01*
X018388Y034174D02*
X023393Y034174D01*
X023552Y034332D02*
X018388Y034332D01*
X018388Y034491D02*
X023710Y034491D01*
X023869Y034649D02*
X018388Y034649D01*
X018388Y034808D02*
X024027Y034808D01*
X024186Y034966D02*
X018388Y034966D01*
X018388Y035125D02*
X024344Y035125D01*
X024503Y035283D02*
X018388Y035283D01*
X018388Y035442D02*
X024661Y035442D01*
X024687Y035600D02*
X018388Y035600D01*
X018388Y035759D02*
X024687Y035759D01*
X024687Y035917D02*
X018388Y035917D01*
X018388Y036076D02*
X024687Y036076D01*
X024687Y036234D02*
X018388Y036234D01*
X018388Y036393D02*
X024687Y036393D01*
X024687Y036551D02*
X018388Y036551D01*
X018388Y036710D02*
X024687Y036710D01*
X024687Y036868D02*
X018388Y036868D01*
X018388Y037027D02*
X024687Y037027D01*
X024687Y037185D02*
X018388Y037185D01*
X018388Y037344D02*
X024687Y037344D01*
X024687Y037502D02*
X018388Y037502D01*
X018388Y037661D02*
X024687Y037661D01*
X024687Y037819D02*
X018388Y037819D01*
X018388Y037978D02*
X024687Y037978D01*
X024687Y038136D02*
X018388Y038136D01*
X018388Y038295D02*
X024687Y038295D01*
X024687Y038453D02*
X018388Y038453D01*
X018388Y038612D02*
X024687Y038612D01*
X024534Y038770D02*
X018541Y038770D01*
X018700Y038929D02*
X024375Y038929D01*
X024618Y039246D02*
X025938Y039246D01*
X025927Y039234D02*
X025533Y038841D01*
X025473Y038696D01*
X025473Y035237D01*
X023958Y033723D01*
X023898Y033578D01*
X023898Y030468D01*
X023958Y030322D01*
X024070Y030211D01*
X024660Y029621D01*
X024805Y029561D01*
X024962Y029561D01*
X028506Y029561D01*
X028651Y029621D01*
X028762Y029732D01*
X029746Y030716D01*
X029806Y030861D01*
X029806Y034516D01*
X030534Y035244D01*
X030594Y035389D01*
X030594Y038696D01*
X030534Y038841D01*
X030029Y039346D01*
X029884Y039406D01*
X026183Y039406D01*
X026038Y039346D01*
X025927Y039234D01*
X025780Y039087D02*
X024777Y039087D01*
X024935Y038929D02*
X025621Y038929D01*
X025504Y038770D02*
X025052Y038770D01*
X025083Y038612D02*
X025473Y038612D01*
X025473Y038453D02*
X025083Y038453D01*
X025083Y038295D02*
X025473Y038295D01*
X025473Y038136D02*
X025083Y038136D01*
X025083Y037978D02*
X025473Y037978D01*
X025473Y037819D02*
X025083Y037819D01*
X025083Y037661D02*
X025473Y037661D01*
X025473Y037502D02*
X025083Y037502D01*
X025083Y037344D02*
X025473Y037344D01*
X025473Y037185D02*
X025083Y037185D01*
X025083Y037027D02*
X025473Y037027D01*
X025473Y036868D02*
X025083Y036868D01*
X025083Y036710D02*
X025473Y036710D01*
X025473Y036551D02*
X025083Y036551D01*
X025083Y036393D02*
X025473Y036393D01*
X025473Y036234D02*
X025083Y036234D01*
X025083Y036076D02*
X025473Y036076D01*
X025473Y035917D02*
X025083Y035917D01*
X025083Y035759D02*
X025473Y035759D01*
X025473Y035600D02*
X025083Y035600D01*
X025083Y035442D02*
X025473Y035442D01*
X025473Y035283D02*
X025040Y035283D01*
X024905Y035125D02*
X025361Y035125D01*
X025202Y034966D02*
X024746Y034966D01*
X024588Y034808D02*
X025044Y034808D01*
X024885Y034649D02*
X024429Y034649D01*
X024271Y034491D02*
X024727Y034491D01*
X024568Y034332D02*
X024112Y034332D01*
X023954Y034174D02*
X024410Y034174D01*
X024251Y034015D02*
X023795Y034015D01*
X023637Y033857D02*
X024093Y033857D01*
X023948Y033698D02*
X023508Y033698D01*
X023508Y033540D02*
X023898Y033540D01*
X023898Y033381D02*
X023508Y033381D01*
X023508Y033223D02*
X023898Y033223D01*
X023898Y033064D02*
X023508Y033064D01*
X023508Y032906D02*
X023898Y032906D01*
X023898Y032747D02*
X023508Y032747D01*
X023508Y032589D02*
X023898Y032589D01*
X023898Y032430D02*
X023508Y032430D01*
X023508Y032272D02*
X023898Y032272D01*
X023898Y032113D02*
X023508Y032113D01*
X023508Y031955D02*
X023898Y031955D01*
X023898Y031796D02*
X023508Y031796D01*
X023508Y031638D02*
X023898Y031638D01*
X023898Y031479D02*
X023508Y031479D01*
X023508Y031321D02*
X023898Y031321D01*
X023898Y031162D02*
X023508Y031162D01*
X023508Y031004D02*
X023898Y031004D01*
X023898Y030845D02*
X023502Y030845D01*
X023420Y030687D02*
X023898Y030687D01*
X023898Y030528D02*
X023261Y030528D01*
X023103Y030370D02*
X023939Y030370D01*
X024069Y030211D02*
X022944Y030211D01*
X022786Y030053D02*
X024228Y030053D01*
X024070Y030211D02*
X024070Y030211D01*
X024386Y029894D02*
X022627Y029894D01*
X022469Y029736D02*
X024545Y029736D01*
X024765Y029577D02*
X022250Y029577D01*
X025426Y028626D02*
X057118Y028626D01*
X057277Y028468D02*
X014890Y028468D01*
X014975Y028309D02*
X057278Y028309D01*
X057278Y028151D02*
X015041Y028151D01*
X015044Y027992D02*
X057278Y027992D01*
X057278Y027834D02*
X015044Y027834D01*
X014980Y027675D02*
X057278Y027675D01*
X057278Y027517D02*
X014901Y027517D01*
X014742Y027358D02*
X057278Y027358D01*
X057278Y027200D02*
X014417Y027200D01*
X014731Y028626D02*
X014993Y028626D01*
X015501Y029102D02*
X042312Y029102D01*
X043163Y029620D02*
X043309Y029559D01*
X047600Y029559D01*
X047746Y029620D01*
X048140Y030013D01*
X048251Y030125D01*
X048311Y030271D01*
X048311Y033971D01*
X048251Y034117D01*
X046737Y035632D01*
X046737Y038696D01*
X046676Y038841D01*
X046283Y039235D01*
X046171Y039347D01*
X046026Y039407D01*
X043112Y039407D01*
X042966Y039347D01*
X042573Y038953D01*
X042461Y038841D01*
X042401Y038696D01*
X042401Y030467D01*
X042461Y030322D01*
X042573Y030210D01*
X043052Y029731D01*
X043163Y029620D01*
X043265Y029577D02*
X041341Y029577D01*
X041301Y029561D02*
X041446Y029621D01*
X041557Y029732D01*
X041951Y030126D01*
X042011Y030271D01*
X042011Y038696D01*
X041951Y038841D01*
X041840Y038952D01*
X041446Y039346D01*
X041301Y039406D01*
X037600Y039406D01*
X037455Y039346D01*
X037344Y039234D01*
X036951Y038841D01*
X036890Y038696D01*
X036890Y034450D01*
X036668Y034227D01*
X036557Y034116D01*
X036497Y033971D01*
X036497Y030271D01*
X036557Y030126D01*
X036668Y030015D01*
X037062Y029621D01*
X037207Y029561D01*
X041301Y029561D01*
X041561Y029736D02*
X043047Y029736D01*
X042889Y029894D02*
X041720Y029894D01*
X041878Y030053D02*
X042730Y030053D01*
X042573Y030210D02*
X042573Y030210D01*
X042572Y030211D02*
X041986Y030211D01*
X042011Y030370D02*
X042441Y030370D01*
X042401Y030528D02*
X042011Y030528D01*
X042011Y030687D02*
X042401Y030687D01*
X042401Y030845D02*
X042011Y030845D01*
X042011Y031004D02*
X042401Y031004D01*
X042401Y031162D02*
X042011Y031162D01*
X042011Y031321D02*
X042401Y031321D01*
X042401Y031479D02*
X042011Y031479D01*
X042011Y031638D02*
X042401Y031638D01*
X042401Y031796D02*
X042011Y031796D01*
X042011Y031955D02*
X042401Y031955D01*
X042401Y032113D02*
X042011Y032113D01*
X042011Y032272D02*
X042401Y032272D01*
X042401Y032430D02*
X042011Y032430D01*
X042011Y032589D02*
X042401Y032589D01*
X042401Y032747D02*
X042011Y032747D01*
X042011Y032906D02*
X042401Y032906D01*
X042401Y033064D02*
X042011Y033064D01*
X042011Y033223D02*
X042401Y033223D01*
X042401Y033381D02*
X042011Y033381D01*
X042011Y033540D02*
X042401Y033540D01*
X042401Y033698D02*
X042011Y033698D01*
X042011Y033857D02*
X042401Y033857D01*
X042401Y034015D02*
X042011Y034015D01*
X042011Y034174D02*
X042401Y034174D01*
X042401Y034332D02*
X042011Y034332D01*
X042011Y034491D02*
X042401Y034491D01*
X042401Y034649D02*
X042011Y034649D01*
X042011Y034808D02*
X042401Y034808D01*
X042401Y034966D02*
X042011Y034966D01*
X042011Y035125D02*
X042401Y035125D01*
X042401Y035283D02*
X042011Y035283D01*
X042011Y035442D02*
X042401Y035442D01*
X042401Y035600D02*
X042011Y035600D01*
X042011Y035759D02*
X042401Y035759D01*
X042401Y035917D02*
X042011Y035917D01*
X042011Y036076D02*
X042401Y036076D01*
X042401Y036234D02*
X042011Y036234D01*
X042011Y036393D02*
X042401Y036393D01*
X042401Y036551D02*
X042011Y036551D01*
X042011Y036710D02*
X042401Y036710D01*
X042401Y036868D02*
X042011Y036868D01*
X042011Y037027D02*
X042401Y037027D01*
X042401Y037185D02*
X042011Y037185D01*
X042011Y037344D02*
X042401Y037344D01*
X042401Y037502D02*
X042011Y037502D01*
X042011Y037661D02*
X042401Y037661D01*
X042401Y037819D02*
X042011Y037819D01*
X042011Y037978D02*
X042401Y037978D01*
X042401Y038136D02*
X042011Y038136D01*
X042011Y038295D02*
X042401Y038295D01*
X042401Y038453D02*
X042011Y038453D01*
X042011Y038612D02*
X042401Y038612D01*
X042432Y038770D02*
X041980Y038770D01*
X041863Y038929D02*
X042549Y038929D01*
X042707Y039087D02*
X041704Y039087D01*
X041546Y039246D02*
X042866Y039246D01*
X043106Y039404D02*
X041304Y039404D01*
X042797Y038617D02*
X043191Y039011D01*
X045947Y039011D01*
X046340Y038617D01*
X046340Y035467D01*
X047915Y033893D01*
X047915Y030349D01*
X047522Y029956D01*
X043388Y029956D01*
X042797Y030546D01*
X042797Y038617D01*
X042797Y038612D02*
X046340Y038612D01*
X046340Y038453D02*
X042797Y038453D01*
X042797Y038295D02*
X046340Y038295D01*
X046340Y038136D02*
X042797Y038136D01*
X042797Y037978D02*
X046340Y037978D01*
X046340Y037819D02*
X042797Y037819D01*
X042797Y037661D02*
X046340Y037661D01*
X046340Y037502D02*
X042797Y037502D01*
X042797Y037344D02*
X046340Y037344D01*
X046340Y037185D02*
X042797Y037185D01*
X042797Y037027D02*
X046340Y037027D01*
X046340Y036868D02*
X042797Y036868D01*
X042797Y036710D02*
X046340Y036710D01*
X046340Y036551D02*
X042797Y036551D01*
X042797Y036393D02*
X046340Y036393D01*
X046340Y036234D02*
X042797Y036234D01*
X042797Y036076D02*
X046340Y036076D01*
X046340Y035917D02*
X042797Y035917D01*
X042797Y035759D02*
X046340Y035759D01*
X046340Y035600D02*
X042797Y035600D01*
X042797Y035442D02*
X046366Y035442D01*
X046524Y035283D02*
X042797Y035283D01*
X042797Y035125D02*
X046683Y035125D01*
X046841Y034966D02*
X042797Y034966D01*
X042797Y034808D02*
X047000Y034808D01*
X047158Y034649D02*
X042797Y034649D01*
X042797Y034491D02*
X047317Y034491D01*
X047475Y034332D02*
X042797Y034332D01*
X042797Y034174D02*
X047634Y034174D01*
X047792Y034015D02*
X042797Y034015D01*
X042797Y033857D02*
X047915Y033857D01*
X047915Y033698D02*
X042797Y033698D01*
X042797Y033540D02*
X047915Y033540D01*
X047915Y033381D02*
X042797Y033381D01*
X042797Y033223D02*
X047915Y033223D01*
X047915Y033064D02*
X042797Y033064D01*
X042797Y032906D02*
X047915Y032906D01*
X047915Y032747D02*
X042797Y032747D01*
X042797Y032589D02*
X047915Y032589D01*
X047915Y032430D02*
X042797Y032430D01*
X042797Y032272D02*
X047915Y032272D01*
X047915Y032113D02*
X042797Y032113D01*
X042797Y031955D02*
X047915Y031955D01*
X047915Y031796D02*
X042797Y031796D01*
X042797Y031638D02*
X047915Y031638D01*
X047915Y031479D02*
X042797Y031479D01*
X042797Y031321D02*
X047915Y031321D01*
X047915Y031162D02*
X042797Y031162D01*
X042797Y031004D02*
X047915Y031004D01*
X047915Y030845D02*
X042797Y030845D01*
X042797Y030687D02*
X047915Y030687D01*
X047915Y030528D02*
X042815Y030528D01*
X042973Y030370D02*
X047915Y030370D01*
X047777Y030211D02*
X043132Y030211D01*
X043290Y030053D02*
X047619Y030053D01*
X047862Y029736D02*
X049346Y029736D01*
X049188Y029894D02*
X048021Y029894D01*
X048179Y030053D02*
X049029Y030053D01*
X048871Y030211D02*
X048287Y030211D01*
X048311Y030370D02*
X048741Y030370D01*
X048700Y030528D02*
X048311Y030528D01*
X048311Y030687D02*
X048700Y030687D01*
X048700Y030845D02*
X048311Y030845D01*
X048311Y031004D02*
X048700Y031004D01*
X048700Y031162D02*
X048311Y031162D01*
X048311Y031321D02*
X048700Y031321D01*
X048700Y031479D02*
X048311Y031479D01*
X048311Y031638D02*
X048700Y031638D01*
X048700Y031796D02*
X048311Y031796D01*
X048311Y031955D02*
X048700Y031955D01*
X048700Y032113D02*
X048311Y032113D01*
X048311Y032272D02*
X048700Y032272D01*
X048700Y032430D02*
X048311Y032430D01*
X048311Y032589D02*
X048700Y032589D01*
X048700Y032747D02*
X048311Y032747D01*
X048311Y032906D02*
X048700Y032906D01*
X048700Y033064D02*
X048311Y033064D01*
X048311Y033223D02*
X048700Y033223D01*
X048700Y033381D02*
X048311Y033381D01*
X048311Y033540D02*
X048700Y033540D01*
X048700Y033698D02*
X048311Y033698D01*
X048311Y033857D02*
X048700Y033857D01*
X048700Y034015D02*
X048293Y034015D01*
X048194Y034174D02*
X048648Y034174D01*
X048490Y034332D02*
X048036Y034332D01*
X047877Y034491D02*
X048331Y034491D01*
X048173Y034649D02*
X047719Y034649D01*
X047560Y034808D02*
X048014Y034808D01*
X047856Y034966D02*
X047402Y034966D01*
X047243Y035125D02*
X047697Y035125D01*
X047539Y035283D02*
X047085Y035283D01*
X046926Y035442D02*
X047380Y035442D01*
X047222Y035600D02*
X046768Y035600D01*
X046737Y035759D02*
X047135Y035759D01*
X047125Y035917D02*
X046737Y035917D01*
X046737Y036076D02*
X047125Y036076D01*
X047125Y036234D02*
X046737Y036234D01*
X046737Y036393D02*
X047125Y036393D01*
X047125Y036551D02*
X046737Y036551D01*
X046737Y036710D02*
X047125Y036710D01*
X047125Y036868D02*
X046737Y036868D01*
X046737Y037027D02*
X047125Y037027D01*
X047125Y037185D02*
X046737Y037185D01*
X046737Y037344D02*
X047125Y037344D01*
X047125Y037502D02*
X046737Y037502D01*
X046737Y037661D02*
X047125Y037661D01*
X047125Y037819D02*
X046737Y037819D01*
X046737Y037978D02*
X047125Y037978D01*
X047125Y038136D02*
X046737Y038136D01*
X046737Y038295D02*
X047125Y038295D01*
X047125Y038453D02*
X046737Y038453D01*
X046737Y038612D02*
X047125Y038612D01*
X047156Y038770D02*
X046706Y038770D01*
X046589Y038929D02*
X047273Y038929D01*
X047432Y039087D02*
X046430Y039087D01*
X046272Y039246D02*
X047590Y039246D01*
X047830Y039404D02*
X046032Y039404D01*
X046029Y038929D02*
X043109Y038929D01*
X042951Y038770D02*
X046187Y038770D01*
X047522Y038617D02*
X047915Y039011D01*
X051065Y039011D01*
X051372Y038703D01*
X051372Y034191D01*
X051445Y034014D01*
X051580Y033879D01*
X051757Y033806D01*
X054891Y033806D01*
X055002Y033696D01*
X055002Y030152D01*
X054805Y029956D01*
X049687Y029956D01*
X049096Y030546D01*
X049096Y034286D01*
X047522Y035861D01*
X047522Y038617D01*
X047522Y038612D02*
X051372Y038612D01*
X051372Y038453D02*
X047522Y038453D01*
X047522Y038295D02*
X051372Y038295D01*
X051372Y038136D02*
X047522Y038136D01*
X047522Y037978D02*
X051372Y037978D01*
X051372Y037819D02*
X047522Y037819D01*
X047522Y037661D02*
X051372Y037661D01*
X051372Y037502D02*
X047522Y037502D01*
X047522Y037344D02*
X051372Y037344D01*
X051372Y037185D02*
X047522Y037185D01*
X047522Y037027D02*
X051372Y037027D01*
X051372Y036868D02*
X047522Y036868D01*
X047522Y036710D02*
X051372Y036710D01*
X051372Y036551D02*
X047522Y036551D01*
X047522Y036393D02*
X051372Y036393D01*
X051372Y036234D02*
X047522Y036234D01*
X047522Y036076D02*
X051372Y036076D01*
X051372Y035917D02*
X047522Y035917D01*
X047624Y035759D02*
X051372Y035759D01*
X051372Y035600D02*
X047782Y035600D01*
X047941Y035442D02*
X051372Y035442D01*
X051372Y035283D02*
X048099Y035283D01*
X048258Y035125D02*
X051372Y035125D01*
X051372Y034966D02*
X048416Y034966D01*
X048575Y034808D02*
X051372Y034808D01*
X051372Y034649D02*
X048733Y034649D01*
X048892Y034491D02*
X051372Y034491D01*
X051372Y034332D02*
X049050Y034332D01*
X049096Y034174D02*
X051379Y034174D01*
X051445Y034015D02*
X049096Y034015D01*
X049096Y033857D02*
X051635Y033857D01*
X049096Y033698D02*
X054999Y033698D01*
X055002Y033540D02*
X049096Y033540D01*
X049096Y033381D02*
X055002Y033381D01*
X055002Y033223D02*
X049096Y033223D01*
X049096Y033064D02*
X055002Y033064D01*
X055002Y032906D02*
X049096Y032906D01*
X049096Y032747D02*
X055002Y032747D01*
X055002Y032589D02*
X049096Y032589D01*
X049096Y032430D02*
X055002Y032430D01*
X055002Y032272D02*
X049096Y032272D01*
X049096Y032113D02*
X055002Y032113D01*
X055002Y031955D02*
X049096Y031955D01*
X049096Y031796D02*
X055002Y031796D01*
X055002Y031638D02*
X049096Y031638D01*
X049096Y031479D02*
X055002Y031479D01*
X055002Y031321D02*
X049096Y031321D01*
X049096Y031162D02*
X055002Y031162D01*
X055002Y031004D02*
X049096Y031004D01*
X049096Y030845D02*
X055002Y030845D01*
X055002Y030687D02*
X049096Y030687D01*
X049114Y030528D02*
X055002Y030528D01*
X055002Y030370D02*
X049273Y030370D01*
X049431Y030211D02*
X055002Y030211D01*
X054902Y030053D02*
X049590Y030053D01*
X049565Y029577D02*
X047644Y029577D01*
X054927Y029577D02*
X057278Y029577D01*
X057278Y029419D02*
X015184Y029419D01*
X015343Y029260D02*
X057259Y029260D01*
X057278Y029736D02*
X055146Y029736D01*
X055304Y029894D02*
X057278Y029894D01*
X057278Y030053D02*
X055390Y030053D01*
X055398Y030211D02*
X057278Y030211D01*
X057278Y030370D02*
X055398Y030370D01*
X055398Y030528D02*
X055699Y030528D01*
X055457Y030687D02*
X055398Y030687D01*
X056667Y030528D02*
X057278Y030528D01*
X057278Y030687D02*
X056909Y030687D01*
X057068Y030845D02*
X057278Y030845D01*
X057278Y031004D02*
X057161Y031004D01*
X057233Y031162D02*
X057278Y031162D01*
X057276Y031321D02*
X057278Y031321D01*
X051305Y038770D02*
X047675Y038770D01*
X047833Y038929D02*
X051147Y038929D01*
X051150Y039404D02*
X051372Y039404D01*
X037597Y039404D02*
X035792Y039404D01*
X035789Y039406D02*
X031695Y039406D01*
X031550Y039346D01*
X031439Y039234D01*
X031045Y038841D01*
X030985Y038696D01*
X030985Y035237D01*
X030258Y034510D01*
X030197Y034365D01*
X030197Y030468D01*
X030258Y030322D01*
X030369Y030211D01*
X030959Y029621D01*
X031104Y029561D01*
X035002Y029561D01*
X035147Y029621D01*
X035652Y030126D01*
X035712Y030271D01*
X035712Y030428D01*
X035712Y033729D01*
X036439Y034456D01*
X036499Y034601D01*
X036499Y038696D01*
X036439Y038841D01*
X036328Y038952D01*
X035934Y039346D01*
X035789Y039406D01*
X036034Y039246D02*
X037356Y039246D01*
X037344Y039234D02*
X037344Y039234D01*
X037197Y039087D02*
X036192Y039087D01*
X036351Y038929D02*
X037039Y038929D01*
X036921Y038770D02*
X036468Y038770D01*
X036499Y038612D02*
X036890Y038612D01*
X036890Y038453D02*
X036499Y038453D01*
X036499Y038295D02*
X036890Y038295D01*
X036890Y038136D02*
X036499Y038136D01*
X036499Y037978D02*
X036890Y037978D01*
X036890Y037819D02*
X036499Y037819D01*
X036499Y037661D02*
X036890Y037661D01*
X036890Y037502D02*
X036499Y037502D01*
X036499Y037344D02*
X036890Y037344D01*
X036890Y037185D02*
X036499Y037185D01*
X036499Y037027D02*
X036890Y037027D01*
X036890Y036868D02*
X036499Y036868D01*
X036499Y036710D02*
X036890Y036710D01*
X036890Y036551D02*
X036499Y036551D01*
X036499Y036393D02*
X036890Y036393D01*
X036890Y036234D02*
X036499Y036234D01*
X036499Y036076D02*
X036890Y036076D01*
X036890Y035917D02*
X036499Y035917D01*
X036499Y035759D02*
X036890Y035759D01*
X036890Y035600D02*
X036499Y035600D01*
X036499Y035442D02*
X036890Y035442D01*
X036890Y035283D02*
X036499Y035283D01*
X036499Y035125D02*
X036890Y035125D01*
X036890Y034966D02*
X036499Y034966D01*
X036499Y034808D02*
X036890Y034808D01*
X036890Y034649D02*
X036499Y034649D01*
X036453Y034491D02*
X036890Y034491D01*
X036773Y034332D02*
X036315Y034332D01*
X036157Y034174D02*
X036614Y034174D01*
X036668Y034227D02*
X036668Y034227D01*
X036515Y034015D02*
X035998Y034015D01*
X035840Y033857D02*
X036497Y033857D01*
X036497Y033698D02*
X035712Y033698D01*
X035712Y033540D02*
X036497Y033540D01*
X036497Y033381D02*
X035712Y033381D01*
X035712Y033223D02*
X036497Y033223D01*
X036497Y033064D02*
X035712Y033064D01*
X035712Y032906D02*
X036497Y032906D01*
X036497Y032747D02*
X035712Y032747D01*
X035712Y032589D02*
X036497Y032589D01*
X036497Y032430D02*
X035712Y032430D01*
X035712Y032272D02*
X036497Y032272D01*
X036497Y032113D02*
X035712Y032113D01*
X035712Y031955D02*
X036497Y031955D01*
X036497Y031796D02*
X035712Y031796D01*
X035712Y031638D02*
X036497Y031638D01*
X036497Y031479D02*
X035712Y031479D01*
X035712Y031321D02*
X036497Y031321D01*
X036497Y031162D02*
X035712Y031162D01*
X035712Y031004D02*
X036497Y031004D01*
X036497Y030845D02*
X035712Y030845D01*
X035712Y030687D02*
X036497Y030687D01*
X036497Y030528D02*
X035712Y030528D01*
X035712Y030370D02*
X036497Y030370D01*
X036521Y030211D02*
X035687Y030211D01*
X035579Y030053D02*
X036629Y030053D01*
X036788Y029894D02*
X035421Y029894D01*
X035262Y029736D02*
X036946Y029736D01*
X037166Y029577D02*
X035042Y029577D01*
X031064Y029577D02*
X028546Y029577D01*
X028766Y029736D02*
X030844Y029736D01*
X030686Y029894D02*
X028924Y029894D01*
X029083Y030053D02*
X030527Y030053D01*
X030369Y030211D02*
X029241Y030211D01*
X029400Y030370D02*
X030238Y030370D01*
X030197Y030528D02*
X029558Y030528D01*
X029717Y030687D02*
X030197Y030687D01*
X030197Y030845D02*
X029800Y030845D01*
X029806Y031004D02*
X030197Y031004D01*
X030197Y031162D02*
X029806Y031162D01*
X029806Y031321D02*
X030197Y031321D01*
X030197Y031479D02*
X029806Y031479D01*
X029806Y031638D02*
X030197Y031638D01*
X030197Y031796D02*
X029806Y031796D01*
X029806Y031955D02*
X030197Y031955D01*
X030197Y032113D02*
X029806Y032113D01*
X029806Y032272D02*
X030197Y032272D01*
X030197Y032430D02*
X029806Y032430D01*
X029806Y032589D02*
X030197Y032589D01*
X030197Y032747D02*
X029806Y032747D01*
X029806Y032906D02*
X030197Y032906D01*
X030197Y033064D02*
X029806Y033064D01*
X029806Y033223D02*
X030197Y033223D01*
X030197Y033381D02*
X029806Y033381D01*
X029806Y033540D02*
X030197Y033540D01*
X030197Y033698D02*
X029806Y033698D01*
X029806Y033857D02*
X030197Y033857D01*
X030197Y034015D02*
X029806Y034015D01*
X029806Y034174D02*
X030197Y034174D01*
X030197Y034332D02*
X029806Y034332D01*
X029806Y034491D02*
X030250Y034491D01*
X030397Y034649D02*
X029939Y034649D01*
X030098Y034808D02*
X030555Y034808D01*
X030714Y034966D02*
X030256Y034966D01*
X030415Y035125D02*
X030872Y035125D01*
X030985Y035283D02*
X030550Y035283D01*
X030594Y035442D02*
X030985Y035442D01*
X030985Y035600D02*
X030594Y035600D01*
X030594Y035759D02*
X030985Y035759D01*
X030985Y035917D02*
X030594Y035917D01*
X030594Y036076D02*
X030985Y036076D01*
X030985Y036234D02*
X030594Y036234D01*
X030594Y036393D02*
X030985Y036393D01*
X030985Y036551D02*
X030594Y036551D01*
X030594Y036710D02*
X030985Y036710D01*
X030985Y036868D02*
X030594Y036868D01*
X030594Y037027D02*
X030985Y037027D01*
X030985Y037185D02*
X030594Y037185D01*
X030594Y037344D02*
X030985Y037344D01*
X030985Y037502D02*
X030594Y037502D01*
X030594Y037661D02*
X030985Y037661D01*
X030985Y037819D02*
X030594Y037819D01*
X030594Y037978D02*
X030985Y037978D01*
X030985Y038136D02*
X030594Y038136D01*
X030594Y038295D02*
X030985Y038295D01*
X030985Y038453D02*
X030594Y038453D01*
X030594Y038612D02*
X030985Y038612D01*
X031016Y038770D02*
X030563Y038770D01*
X030445Y038929D02*
X031133Y038929D01*
X031292Y039087D02*
X030287Y039087D01*
X030128Y039246D02*
X031450Y039246D01*
X031692Y039404D02*
X029887Y039404D01*
X026180Y039404D02*
X024378Y039404D01*
X015844Y038830D02*
X015829Y038814D01*
X015632Y038814D01*
X004153Y029102D02*
X003754Y029102D01*
X003596Y028943D02*
X004045Y028943D01*
X003961Y028785D02*
X003513Y028785D01*
X003513Y028626D02*
X003919Y028626D01*
X003892Y028468D02*
X003513Y028468D01*
X003513Y028309D02*
X003892Y028309D01*
X003914Y028151D02*
X003513Y028151D01*
X003513Y027992D02*
X003957Y027992D01*
X004036Y027834D02*
X003513Y027834D01*
X003513Y027675D02*
X004138Y027675D01*
X004296Y027517D02*
X003513Y027517D01*
X003513Y027358D02*
X004553Y027358D01*
X031254Y010557D02*
X031592Y010557D01*
X032254Y010557D02*
X032592Y010557D01*
X033254Y010557D02*
X033592Y010557D01*
X034254Y010557D02*
X034592Y010557D01*
X035254Y010557D02*
X035592Y010557D01*
X036254Y010557D02*
X036592Y010557D01*
X037254Y010557D02*
X037592Y010557D01*
X038254Y010557D02*
X038592Y010557D01*
X039254Y010557D02*
X039592Y010557D01*
X040254Y010557D02*
X040592Y010557D01*
X045349Y008972D02*
X045497Y008972D01*
X046349Y008972D02*
X046497Y008972D01*
X047349Y008972D02*
X047497Y008972D01*
X048349Y008972D02*
X048497Y008972D01*
X048482Y007387D02*
X048175Y007387D01*
X049175Y007387D02*
X049482Y007387D01*
X050175Y007387D02*
X051372Y007387D01*
X051372Y007229D02*
X050337Y007229D01*
X050413Y007070D02*
X051372Y007070D01*
X051372Y006912D02*
X050449Y006912D01*
X050449Y006753D02*
X051372Y006753D01*
X051372Y006595D02*
X050449Y006595D01*
X050449Y006436D02*
X051372Y006436D01*
X051372Y006278D02*
X050449Y006278D01*
X050442Y006119D02*
X051372Y006119D01*
X051372Y005961D02*
X050376Y005961D01*
X050248Y005802D02*
X051372Y005802D01*
X051372Y005644D02*
X049961Y005644D01*
X049696Y005644D02*
X048961Y005644D01*
X048696Y005644D02*
X047961Y005644D01*
X048248Y005802D02*
X048409Y005802D01*
X049248Y005802D02*
X049409Y005802D01*
X043081Y005485D02*
X042513Y005485D01*
X042672Y005644D02*
X042922Y005644D01*
X042817Y005802D02*
X042777Y005802D01*
X041521Y005485D02*
X040953Y005485D01*
X041112Y005644D02*
X041362Y005644D01*
X041257Y005802D02*
X041217Y005802D01*
X034527Y008021D02*
X033745Y008021D01*
X033958Y007863D02*
X034313Y007863D01*
X034177Y007704D02*
X034094Y007704D01*
X032967Y008021D02*
X032185Y008021D01*
X032398Y007863D02*
X032753Y007863D01*
X032617Y007704D02*
X032534Y007704D01*
X031774Y024050D02*
X038754Y024050D01*
X056845Y013252D02*
X057278Y013252D01*
X057278Y013093D02*
X057095Y013093D01*
X057254Y012935D02*
X057278Y012935D01*
D29*
X051041Y013404D03*
X050041Y013404D03*
X049041Y013404D03*
X048041Y013404D03*
X047041Y013404D03*
X046041Y013404D03*
X045041Y013404D03*
X044041Y013404D03*
X043041Y013404D03*
X042041Y013404D03*
X042041Y014404D03*
X043041Y014404D03*
X044041Y014404D03*
X045041Y014404D03*
X046041Y014404D03*
X047041Y014404D03*
X048041Y014404D03*
X049041Y014404D03*
X050041Y014404D03*
X051041Y014404D03*
X051041Y015404D03*
X050041Y015404D03*
X049041Y015404D03*
X048041Y015404D03*
X047041Y015404D03*
X046041Y015404D03*
X045041Y015404D03*
X044041Y015404D03*
X043041Y015404D03*
X042041Y015404D03*
X042041Y016404D03*
X043041Y016404D03*
X044041Y016404D03*
X045041Y016404D03*
X046041Y016404D03*
X047041Y016404D03*
X048041Y016404D03*
X049041Y016404D03*
X050041Y016404D03*
X051041Y016404D03*
X051041Y017404D03*
X050041Y017404D03*
X049041Y017404D03*
X048041Y017404D03*
X047041Y017404D03*
X046041Y017404D03*
X045041Y017404D03*
X044041Y017404D03*
X043041Y017404D03*
X042041Y017404D03*
X042041Y012404D03*
X043041Y012404D03*
X044041Y012404D03*
X045041Y012404D03*
X046041Y012404D03*
X047041Y012404D03*
X048041Y012404D03*
X049041Y012404D03*
X050041Y012404D03*
D30*
X020750Y009483D02*
X018781Y009483D01*
X018073Y008775D01*
X018073Y007515D01*
D31*
X020750Y009483D02*
X020862Y009595D01*
X020996Y009595D01*
X040829Y012042D02*
X042010Y010861D01*
X010907Y025050D02*
X010726Y025050D01*
D32*
X055789Y026019D02*
X056183Y026019D01*
X056183Y026412D02*
X055789Y026412D01*
X055789Y026806D01*
X056183Y026806D01*
D33*
X041616Y030349D02*
X041222Y029956D01*
X037285Y029956D01*
X036892Y030349D01*
X036892Y033893D01*
X037285Y034286D01*
X037285Y038617D01*
X037679Y039011D01*
X041222Y039011D01*
X041616Y038617D01*
X041616Y030349D01*
X041616Y030358D02*
X036892Y030358D01*
X036892Y030514D02*
X041616Y030514D01*
X041616Y030670D02*
X036892Y030670D01*
X036892Y030826D02*
X041616Y030826D01*
X041616Y030982D02*
X036892Y030982D01*
X036892Y031137D02*
X041616Y031137D01*
X041616Y031293D02*
X036892Y031293D01*
X036892Y031449D02*
X041616Y031449D01*
X041616Y031605D02*
X036892Y031605D01*
X036892Y031761D02*
X041616Y031761D01*
X041616Y031917D02*
X036892Y031917D01*
X036892Y032073D02*
X041616Y032073D01*
X041616Y032229D02*
X036892Y032229D01*
X036892Y032385D02*
X041616Y032385D01*
X041616Y032541D02*
X036892Y032541D01*
X036892Y032697D02*
X041616Y032697D01*
X041616Y032853D02*
X036892Y032853D01*
X036892Y033009D02*
X041616Y033009D01*
X041616Y033165D02*
X036892Y033165D01*
X036892Y033321D02*
X041616Y033321D01*
X041616Y033477D02*
X036892Y033477D01*
X036892Y033633D02*
X041616Y033633D01*
X041616Y033789D02*
X036892Y033789D01*
X036944Y033945D02*
X041616Y033945D01*
X041616Y034101D02*
X037100Y034101D01*
X037256Y034257D02*
X041616Y034257D01*
X041616Y034413D02*
X037285Y034413D01*
X037285Y034569D02*
X041616Y034569D01*
X041616Y034725D02*
X037285Y034725D01*
X037285Y034881D02*
X041616Y034881D01*
X041616Y035037D02*
X037285Y035037D01*
X037285Y035193D02*
X041616Y035193D01*
X041616Y035349D02*
X037285Y035349D01*
X037285Y035505D02*
X041616Y035505D01*
X041616Y035661D02*
X037285Y035661D01*
X037285Y035817D02*
X041616Y035817D01*
X041616Y035973D02*
X037285Y035973D01*
X037285Y036129D02*
X041616Y036129D01*
X041616Y036285D02*
X037285Y036285D01*
X037285Y036441D02*
X041616Y036441D01*
X041616Y036597D02*
X037285Y036597D01*
X037285Y036753D02*
X041616Y036753D01*
X041616Y036909D02*
X037285Y036909D01*
X037285Y037065D02*
X041616Y037065D01*
X041616Y037221D02*
X037285Y037221D01*
X037285Y037377D02*
X041616Y037377D01*
X041616Y037533D02*
X037285Y037533D01*
X037285Y037689D02*
X041616Y037689D01*
X041616Y037845D02*
X037285Y037845D01*
X037285Y038001D02*
X041616Y038001D01*
X041616Y038157D02*
X037285Y038157D01*
X037285Y038313D02*
X041616Y038313D01*
X041616Y038469D02*
X037285Y038469D01*
X037293Y038625D02*
X041609Y038625D01*
X041453Y038781D02*
X037449Y038781D01*
X037605Y038937D02*
X041297Y038937D01*
X036104Y038617D02*
X036104Y034680D01*
X035317Y033893D01*
X035317Y030349D01*
X034923Y029956D01*
X031183Y029956D01*
X030592Y030546D01*
X030592Y034286D01*
X031380Y035074D01*
X031380Y038617D01*
X031774Y039011D01*
X035711Y039011D01*
X036104Y038617D01*
X036097Y038625D02*
X031387Y038625D01*
X031380Y038469D02*
X036104Y038469D01*
X036104Y038313D02*
X031380Y038313D01*
X031380Y038157D02*
X036104Y038157D01*
X036104Y038001D02*
X031380Y038001D01*
X031380Y037845D02*
X036104Y037845D01*
X036104Y037689D02*
X031380Y037689D01*
X031380Y037533D02*
X036104Y037533D01*
X036104Y037377D02*
X031380Y037377D01*
X031380Y037221D02*
X036104Y037221D01*
X036104Y037065D02*
X031380Y037065D01*
X031380Y036909D02*
X036104Y036909D01*
X036104Y036753D02*
X031380Y036753D01*
X031380Y036597D02*
X036104Y036597D01*
X036104Y036441D02*
X031380Y036441D01*
X031380Y036285D02*
X036104Y036285D01*
X036104Y036129D02*
X031380Y036129D01*
X031380Y035973D02*
X036104Y035973D01*
X036104Y035817D02*
X031380Y035817D01*
X031380Y035661D02*
X036104Y035661D01*
X036104Y035505D02*
X031380Y035505D01*
X031380Y035349D02*
X036104Y035349D01*
X036104Y035193D02*
X031380Y035193D01*
X031343Y035037D02*
X036104Y035037D01*
X036104Y034881D02*
X031187Y034881D01*
X031031Y034725D02*
X036104Y034725D01*
X035993Y034569D02*
X030875Y034569D01*
X030719Y034413D02*
X035837Y034413D01*
X035681Y034257D02*
X030592Y034257D01*
X030592Y034101D02*
X035525Y034101D01*
X035369Y033945D02*
X030592Y033945D01*
X030592Y033789D02*
X035317Y033789D01*
X035317Y033633D02*
X030592Y033633D01*
X030592Y033477D02*
X035317Y033477D01*
X035317Y033321D02*
X030592Y033321D01*
X030592Y033165D02*
X035317Y033165D01*
X035317Y033009D02*
X030592Y033009D01*
X030592Y032853D02*
X035317Y032853D01*
X035317Y032697D02*
X030592Y032697D01*
X030592Y032541D02*
X035317Y032541D01*
X035317Y032385D02*
X030592Y032385D01*
X030592Y032229D02*
X035317Y032229D01*
X035317Y032073D02*
X030592Y032073D01*
X030592Y031917D02*
X035317Y031917D01*
X035317Y031761D02*
X030592Y031761D01*
X030592Y031605D02*
X035317Y031605D01*
X035317Y031449D02*
X030592Y031449D01*
X030592Y031293D02*
X035317Y031293D01*
X035317Y031137D02*
X030592Y031137D01*
X030592Y030982D02*
X035317Y030982D01*
X035317Y030826D02*
X030592Y030826D01*
X030592Y030670D02*
X035317Y030670D01*
X035317Y030514D02*
X030625Y030514D01*
X030781Y030358D02*
X035317Y030358D01*
X035169Y030202D02*
X030937Y030202D01*
X031093Y030046D02*
X035013Y030046D01*
X037039Y030202D02*
X041468Y030202D01*
X041312Y030046D02*
X037195Y030046D01*
X030199Y035467D02*
X029411Y034680D01*
X029411Y030940D01*
X028427Y029956D01*
X024884Y029956D01*
X024293Y030546D01*
X024293Y033499D01*
X025868Y035074D01*
X025868Y038617D01*
X026262Y039011D01*
X029805Y039011D01*
X030199Y038617D01*
X030199Y035467D01*
X030199Y035505D02*
X025868Y035505D01*
X025868Y035661D02*
X030199Y035661D01*
X030199Y035817D02*
X025868Y035817D01*
X025868Y035973D02*
X030199Y035973D01*
X030199Y036129D02*
X025868Y036129D01*
X025868Y036285D02*
X030199Y036285D01*
X030199Y036441D02*
X025868Y036441D01*
X025868Y036597D02*
X030199Y036597D01*
X030199Y036753D02*
X025868Y036753D01*
X025868Y036909D02*
X030199Y036909D01*
X030199Y037065D02*
X025868Y037065D01*
X025868Y037221D02*
X030199Y037221D01*
X030199Y037377D02*
X025868Y037377D01*
X025868Y037533D02*
X030199Y037533D01*
X030199Y037689D02*
X025868Y037689D01*
X025868Y037845D02*
X030199Y037845D01*
X030199Y038001D02*
X025868Y038001D01*
X025868Y038157D02*
X030199Y038157D01*
X030199Y038313D02*
X025868Y038313D01*
X025868Y038469D02*
X030199Y038469D01*
X030191Y038625D02*
X025876Y038625D01*
X026032Y038781D02*
X030035Y038781D01*
X029879Y038937D02*
X026187Y038937D01*
X025868Y035349D02*
X030080Y035349D01*
X029924Y035193D02*
X025868Y035193D01*
X025831Y035037D02*
X029768Y035037D01*
X029612Y034881D02*
X025675Y034881D01*
X025519Y034725D02*
X029456Y034725D01*
X029411Y034569D02*
X025363Y034569D01*
X025207Y034413D02*
X029411Y034413D01*
X029411Y034257D02*
X025051Y034257D01*
X024895Y034101D02*
X029411Y034101D01*
X029411Y033945D02*
X024739Y033945D01*
X024583Y033789D02*
X029411Y033789D01*
X029411Y033633D02*
X024427Y033633D01*
X024293Y033477D02*
X029411Y033477D01*
X029411Y033321D02*
X024293Y033321D01*
X024293Y033165D02*
X029411Y033165D01*
X029411Y033009D02*
X024293Y033009D01*
X024293Y032853D02*
X029411Y032853D01*
X029411Y032697D02*
X024293Y032697D01*
X024293Y032541D02*
X029411Y032541D01*
X029411Y032385D02*
X024293Y032385D01*
X024293Y032229D02*
X029411Y032229D01*
X029411Y032073D02*
X024293Y032073D01*
X024293Y031917D02*
X029411Y031917D01*
X029411Y031761D02*
X024293Y031761D01*
X024293Y031605D02*
X029411Y031605D01*
X029411Y031449D02*
X024293Y031449D01*
X024293Y031293D02*
X029411Y031293D01*
X029411Y031137D02*
X024293Y031137D01*
X024293Y030982D02*
X029411Y030982D01*
X029297Y030826D02*
X024293Y030826D01*
X024293Y030670D02*
X029141Y030670D01*
X028985Y030514D02*
X024326Y030514D01*
X024482Y030358D02*
X028829Y030358D01*
X028673Y030202D02*
X024638Y030202D01*
X024794Y030046D02*
X028517Y030046D01*
X031543Y038781D02*
X035941Y038781D01*
X035785Y038937D02*
X031699Y038937D01*
D34*
X013270Y038223D03*
X006577Y030743D03*
D35*
X038747Y024057D02*
X038751Y024056D01*
X038753Y024054D01*
X038754Y024050D01*
M02*
