G75*
G70*
%OFA0B0*%
%FSLAX24Y24*%
%IPPOS*%
%LPD*%
%AMOC8*
5,1,8,0,0,1.08239X$1,22.5*
%
%ADD10C,0.0000*%
%ADD11C,0.1340*%
%ADD12C,0.1852*%
%ADD13C,0.0740*%
%ADD14C,0.0680*%
%ADD15C,0.0640*%
%ADD16R,0.0395X0.1261*%
%ADD17R,0.4017X0.3623*%
%ADD18C,0.1080*%
%ADD19C,0.1080*%
%ADD20OC8,0.1080*%
%ADD21C,0.0940*%
%ADD22C,0.1145*%
%ADD23R,0.0710X0.0789*%
%ADD24R,0.0789X0.0710*%
%ADD25C,0.0600*%
%ADD26C,0.0332*%
%ADD27C,0.0740*%
%ADD28R,0.0710X0.0790*%
%ADD29C,0.1025*%
%ADD30R,0.1080X0.1080*%
%ADD31R,0.0790X0.0710*%
%ADD32OC8,0.0680*%
%ADD33OC8,0.0600*%
%ADD34R,0.1025X0.0789*%
%ADD35OC8,0.0710*%
%ADD36C,0.0710*%
%ADD37C,0.0437*%
%ADD38R,0.0840X0.0840*%
D10*
X008939Y004759D02*
X008939Y010664D01*
X003033Y010664D01*
X003033Y034286D01*
X008939Y034286D01*
X008939Y040192D01*
X051852Y040192D01*
X051852Y034286D01*
X057758Y034286D01*
X057758Y010664D01*
X051852Y010664D01*
X051852Y004759D01*
X008939Y004759D01*
X003584Y012239D02*
X003586Y012289D01*
X003592Y012339D01*
X003602Y012388D01*
X003616Y012436D01*
X003633Y012483D01*
X003654Y012528D01*
X003679Y012572D01*
X003707Y012613D01*
X003739Y012652D01*
X003773Y012689D01*
X003810Y012723D01*
X003850Y012753D01*
X003892Y012780D01*
X003936Y012804D01*
X003982Y012825D01*
X004029Y012841D01*
X004077Y012854D01*
X004127Y012863D01*
X004176Y012868D01*
X004227Y012869D01*
X004277Y012866D01*
X004326Y012859D01*
X004375Y012848D01*
X004423Y012833D01*
X004469Y012815D01*
X004514Y012793D01*
X004557Y012767D01*
X004598Y012738D01*
X004637Y012706D01*
X004673Y012671D01*
X004705Y012633D01*
X004735Y012593D01*
X004762Y012550D01*
X004785Y012506D01*
X004804Y012460D01*
X004820Y012412D01*
X004832Y012363D01*
X004840Y012314D01*
X004844Y012264D01*
X004844Y012214D01*
X004840Y012164D01*
X004832Y012115D01*
X004820Y012066D01*
X004804Y012018D01*
X004785Y011972D01*
X004762Y011928D01*
X004735Y011885D01*
X004705Y011845D01*
X004673Y011807D01*
X004637Y011772D01*
X004598Y011740D01*
X004557Y011711D01*
X004514Y011685D01*
X004469Y011663D01*
X004423Y011645D01*
X004375Y011630D01*
X004326Y011619D01*
X004277Y011612D01*
X004227Y011609D01*
X004176Y011610D01*
X004127Y011615D01*
X004077Y011624D01*
X004029Y011637D01*
X003982Y011653D01*
X003936Y011674D01*
X003892Y011698D01*
X003850Y011725D01*
X003810Y011755D01*
X003773Y011789D01*
X003739Y011826D01*
X003707Y011865D01*
X003679Y011906D01*
X003654Y011950D01*
X003633Y011995D01*
X003616Y012042D01*
X003602Y012090D01*
X003592Y012139D01*
X003586Y012189D01*
X003584Y012239D01*
X004372Y028381D02*
X004374Y028431D01*
X004380Y028481D01*
X004390Y028530D01*
X004404Y028578D01*
X004421Y028625D01*
X004442Y028670D01*
X004467Y028714D01*
X004495Y028755D01*
X004527Y028794D01*
X004561Y028831D01*
X004598Y028865D01*
X004638Y028895D01*
X004680Y028922D01*
X004724Y028946D01*
X004770Y028967D01*
X004817Y028983D01*
X004865Y028996D01*
X004915Y029005D01*
X004964Y029010D01*
X005015Y029011D01*
X005065Y029008D01*
X005114Y029001D01*
X005163Y028990D01*
X005211Y028975D01*
X005257Y028957D01*
X005302Y028935D01*
X005345Y028909D01*
X005386Y028880D01*
X005425Y028848D01*
X005461Y028813D01*
X005493Y028775D01*
X005523Y028735D01*
X005550Y028692D01*
X005573Y028648D01*
X005592Y028602D01*
X005608Y028554D01*
X005620Y028505D01*
X005628Y028456D01*
X005632Y028406D01*
X005632Y028356D01*
X005628Y028306D01*
X005620Y028257D01*
X005608Y028208D01*
X005592Y028160D01*
X005573Y028114D01*
X005550Y028070D01*
X005523Y028027D01*
X005493Y027987D01*
X005461Y027949D01*
X005425Y027914D01*
X005386Y027882D01*
X005345Y027853D01*
X005302Y027827D01*
X005257Y027805D01*
X005211Y027787D01*
X005163Y027772D01*
X005114Y027761D01*
X005065Y027754D01*
X005015Y027751D01*
X004964Y027752D01*
X004915Y027757D01*
X004865Y027766D01*
X004817Y027779D01*
X004770Y027795D01*
X004724Y027816D01*
X004680Y027840D01*
X004638Y027867D01*
X004598Y027897D01*
X004561Y027931D01*
X004527Y027968D01*
X004495Y028007D01*
X004467Y028048D01*
X004442Y028092D01*
X004421Y028137D01*
X004404Y028184D01*
X004390Y028232D01*
X004380Y028281D01*
X004374Y028331D01*
X004372Y028381D01*
X003722Y032712D02*
X003724Y032771D01*
X003730Y032830D01*
X003740Y032888D01*
X003753Y032946D01*
X003771Y033003D01*
X003792Y033058D01*
X003817Y033112D01*
X003846Y033164D01*
X003878Y033213D01*
X003913Y033261D01*
X003951Y033306D01*
X003992Y033349D01*
X004036Y033389D01*
X004082Y033425D01*
X004131Y033459D01*
X004182Y033489D01*
X004235Y033516D01*
X004290Y033539D01*
X004345Y033558D01*
X004403Y033574D01*
X004461Y033586D01*
X004519Y033594D01*
X004578Y033598D01*
X004638Y033598D01*
X004697Y033594D01*
X004755Y033586D01*
X004813Y033574D01*
X004871Y033558D01*
X004926Y033539D01*
X004981Y033516D01*
X005034Y033489D01*
X005085Y033459D01*
X005134Y033425D01*
X005180Y033389D01*
X005224Y033349D01*
X005265Y033306D01*
X005303Y033261D01*
X005338Y033213D01*
X005370Y033164D01*
X005399Y033112D01*
X005424Y033058D01*
X005445Y033003D01*
X005463Y032946D01*
X005476Y032888D01*
X005486Y032830D01*
X005492Y032771D01*
X005494Y032712D01*
X005492Y032653D01*
X005486Y032594D01*
X005476Y032536D01*
X005463Y032478D01*
X005445Y032421D01*
X005424Y032366D01*
X005399Y032312D01*
X005370Y032260D01*
X005338Y032211D01*
X005303Y032163D01*
X005265Y032118D01*
X005224Y032075D01*
X005180Y032035D01*
X005134Y031999D01*
X005085Y031965D01*
X005034Y031935D01*
X004981Y031908D01*
X004926Y031885D01*
X004871Y031866D01*
X004813Y031850D01*
X004755Y031838D01*
X004697Y031830D01*
X004638Y031826D01*
X004578Y031826D01*
X004519Y031830D01*
X004461Y031838D01*
X004403Y031850D01*
X004345Y031866D01*
X004290Y031885D01*
X004235Y031908D01*
X004182Y031935D01*
X004131Y031965D01*
X004082Y031999D01*
X004036Y032035D01*
X003992Y032075D01*
X003951Y032118D01*
X003913Y032163D01*
X003878Y032211D01*
X003846Y032260D01*
X003817Y032312D01*
X003792Y032366D01*
X003771Y032421D01*
X003753Y032478D01*
X003740Y032536D01*
X003730Y032594D01*
X003724Y032653D01*
X003722Y032712D01*
X009628Y038617D02*
X009630Y038676D01*
X009636Y038735D01*
X009646Y038793D01*
X009659Y038851D01*
X009677Y038908D01*
X009698Y038963D01*
X009723Y039017D01*
X009752Y039069D01*
X009784Y039118D01*
X009819Y039166D01*
X009857Y039211D01*
X009898Y039254D01*
X009942Y039294D01*
X009988Y039330D01*
X010037Y039364D01*
X010088Y039394D01*
X010141Y039421D01*
X010196Y039444D01*
X010251Y039463D01*
X010309Y039479D01*
X010367Y039491D01*
X010425Y039499D01*
X010484Y039503D01*
X010544Y039503D01*
X010603Y039499D01*
X010661Y039491D01*
X010719Y039479D01*
X010777Y039463D01*
X010832Y039444D01*
X010887Y039421D01*
X010940Y039394D01*
X010991Y039364D01*
X011040Y039330D01*
X011086Y039294D01*
X011130Y039254D01*
X011171Y039211D01*
X011209Y039166D01*
X011244Y039118D01*
X011276Y039069D01*
X011305Y039017D01*
X011330Y038963D01*
X011351Y038908D01*
X011369Y038851D01*
X011382Y038793D01*
X011392Y038735D01*
X011398Y038676D01*
X011400Y038617D01*
X011398Y038558D01*
X011392Y038499D01*
X011382Y038441D01*
X011369Y038383D01*
X011351Y038326D01*
X011330Y038271D01*
X011305Y038217D01*
X011276Y038165D01*
X011244Y038116D01*
X011209Y038068D01*
X011171Y038023D01*
X011130Y037980D01*
X011086Y037940D01*
X011040Y037904D01*
X010991Y037870D01*
X010940Y037840D01*
X010887Y037813D01*
X010832Y037790D01*
X010777Y037771D01*
X010719Y037755D01*
X010661Y037743D01*
X010603Y037735D01*
X010544Y037731D01*
X010484Y037731D01*
X010425Y037735D01*
X010367Y037743D01*
X010309Y037755D01*
X010251Y037771D01*
X010196Y037790D01*
X010141Y037813D01*
X010088Y037840D01*
X010037Y037870D01*
X009988Y037904D01*
X009942Y037940D01*
X009898Y037980D01*
X009857Y038023D01*
X009819Y038068D01*
X009784Y038116D01*
X009752Y038165D01*
X009723Y038217D01*
X009698Y038271D01*
X009677Y038326D01*
X009659Y038383D01*
X009646Y038441D01*
X009636Y038499D01*
X009630Y038558D01*
X009628Y038617D01*
X016183Y031530D02*
X016185Y031580D01*
X016191Y031630D01*
X016201Y031679D01*
X016215Y031727D01*
X016232Y031774D01*
X016253Y031819D01*
X016278Y031863D01*
X016306Y031904D01*
X016338Y031943D01*
X016372Y031980D01*
X016409Y032014D01*
X016449Y032044D01*
X016491Y032071D01*
X016535Y032095D01*
X016581Y032116D01*
X016628Y032132D01*
X016676Y032145D01*
X016726Y032154D01*
X016775Y032159D01*
X016826Y032160D01*
X016876Y032157D01*
X016925Y032150D01*
X016974Y032139D01*
X017022Y032124D01*
X017068Y032106D01*
X017113Y032084D01*
X017156Y032058D01*
X017197Y032029D01*
X017236Y031997D01*
X017272Y031962D01*
X017304Y031924D01*
X017334Y031884D01*
X017361Y031841D01*
X017384Y031797D01*
X017403Y031751D01*
X017419Y031703D01*
X017431Y031654D01*
X017439Y031605D01*
X017443Y031555D01*
X017443Y031505D01*
X017439Y031455D01*
X017431Y031406D01*
X017419Y031357D01*
X017403Y031309D01*
X017384Y031263D01*
X017361Y031219D01*
X017334Y031176D01*
X017304Y031136D01*
X017272Y031098D01*
X017236Y031063D01*
X017197Y031031D01*
X017156Y031002D01*
X017113Y030976D01*
X017068Y030954D01*
X017022Y030936D01*
X016974Y030921D01*
X016925Y030910D01*
X016876Y030903D01*
X016826Y030900D01*
X016775Y030901D01*
X016726Y030906D01*
X016676Y030915D01*
X016628Y030928D01*
X016581Y030944D01*
X016535Y030965D01*
X016491Y030989D01*
X016449Y031016D01*
X016409Y031046D01*
X016372Y031080D01*
X016338Y031117D01*
X016306Y031156D01*
X016278Y031197D01*
X016253Y031241D01*
X016232Y031286D01*
X016215Y031333D01*
X016201Y031381D01*
X016191Y031430D01*
X016185Y031480D01*
X016183Y031530D01*
X055553Y031530D02*
X055555Y031580D01*
X055561Y031630D01*
X055571Y031679D01*
X055585Y031727D01*
X055602Y031774D01*
X055623Y031819D01*
X055648Y031863D01*
X055676Y031904D01*
X055708Y031943D01*
X055742Y031980D01*
X055779Y032014D01*
X055819Y032044D01*
X055861Y032071D01*
X055905Y032095D01*
X055951Y032116D01*
X055998Y032132D01*
X056046Y032145D01*
X056096Y032154D01*
X056145Y032159D01*
X056196Y032160D01*
X056246Y032157D01*
X056295Y032150D01*
X056344Y032139D01*
X056392Y032124D01*
X056438Y032106D01*
X056483Y032084D01*
X056526Y032058D01*
X056567Y032029D01*
X056606Y031997D01*
X056642Y031962D01*
X056674Y031924D01*
X056704Y031884D01*
X056731Y031841D01*
X056754Y031797D01*
X056773Y031751D01*
X056789Y031703D01*
X056801Y031654D01*
X056809Y031605D01*
X056813Y031555D01*
X056813Y031505D01*
X056809Y031455D01*
X056801Y031406D01*
X056789Y031357D01*
X056773Y031309D01*
X056754Y031263D01*
X056731Y031219D01*
X056704Y031176D01*
X056674Y031136D01*
X056642Y031098D01*
X056606Y031063D01*
X056567Y031031D01*
X056526Y031002D01*
X056483Y030976D01*
X056438Y030954D01*
X056392Y030936D01*
X056344Y030921D01*
X056295Y030910D01*
X056246Y030903D01*
X056196Y030900D01*
X056145Y030901D01*
X056096Y030906D01*
X056046Y030915D01*
X055998Y030928D01*
X055951Y030944D01*
X055905Y030965D01*
X055861Y030989D01*
X055819Y031016D01*
X055779Y031046D01*
X055742Y031080D01*
X055708Y031117D01*
X055676Y031156D01*
X055648Y031197D01*
X055623Y031241D01*
X055602Y031286D01*
X055585Y031333D01*
X055571Y031381D01*
X055561Y031430D01*
X055555Y031480D01*
X055553Y031530D01*
X055750Y012239D02*
X055752Y012289D01*
X055758Y012339D01*
X055768Y012388D01*
X055782Y012436D01*
X055799Y012483D01*
X055820Y012528D01*
X055845Y012572D01*
X055873Y012613D01*
X055905Y012652D01*
X055939Y012689D01*
X055976Y012723D01*
X056016Y012753D01*
X056058Y012780D01*
X056102Y012804D01*
X056148Y012825D01*
X056195Y012841D01*
X056243Y012854D01*
X056293Y012863D01*
X056342Y012868D01*
X056393Y012869D01*
X056443Y012866D01*
X056492Y012859D01*
X056541Y012848D01*
X056589Y012833D01*
X056635Y012815D01*
X056680Y012793D01*
X056723Y012767D01*
X056764Y012738D01*
X056803Y012706D01*
X056839Y012671D01*
X056871Y012633D01*
X056901Y012593D01*
X056928Y012550D01*
X056951Y012506D01*
X056970Y012460D01*
X056986Y012412D01*
X056998Y012363D01*
X057006Y012314D01*
X057010Y012264D01*
X057010Y012214D01*
X057006Y012164D01*
X056998Y012115D01*
X056986Y012066D01*
X056970Y012018D01*
X056951Y011972D01*
X056928Y011928D01*
X056901Y011885D01*
X056871Y011845D01*
X056839Y011807D01*
X056803Y011772D01*
X056764Y011740D01*
X056723Y011711D01*
X056680Y011685D01*
X056635Y011663D01*
X056589Y011645D01*
X056541Y011630D01*
X056492Y011619D01*
X056443Y011612D01*
X056393Y011609D01*
X056342Y011610D01*
X056293Y011615D01*
X056243Y011624D01*
X056195Y011637D01*
X056148Y011653D01*
X056102Y011674D01*
X056058Y011698D01*
X056016Y011725D01*
X055976Y011755D01*
X055939Y011789D01*
X055905Y011826D01*
X055873Y011865D01*
X055845Y011906D01*
X055820Y011950D01*
X055799Y011995D01*
X055782Y012042D01*
X055768Y012090D01*
X055758Y012139D01*
X055752Y012189D01*
X055750Y012239D01*
D11*
X056380Y012239D03*
X056183Y031530D03*
X016813Y031530D03*
X005002Y028381D03*
X004214Y012239D03*
D12*
X006577Y030743D03*
X004608Y032712D03*
X010514Y038617D03*
X013270Y038223D03*
D13*
X020996Y009595D03*
X020996Y005595D03*
D14*
X030923Y009423D02*
X030923Y010023D01*
X031923Y010023D02*
X031923Y009423D01*
X032923Y009423D02*
X032923Y010023D01*
X033923Y010023D02*
X033923Y009423D01*
X034923Y009423D02*
X034923Y010023D01*
X035923Y010023D02*
X035923Y009423D01*
X036923Y009423D02*
X036923Y010023D01*
X037923Y010023D02*
X037923Y009423D01*
X038923Y009423D02*
X038923Y010023D01*
X039923Y010023D02*
X039923Y009423D01*
X040923Y009423D02*
X040923Y010023D01*
X041923Y010023D02*
X041923Y009423D01*
X042923Y009423D02*
X042923Y010023D01*
X043923Y010023D02*
X043923Y009423D01*
X044923Y009423D02*
X044923Y010023D01*
X045923Y010023D02*
X045923Y009423D01*
X046923Y009423D02*
X046923Y010023D01*
X047923Y010023D02*
X047923Y009423D01*
X048923Y009423D02*
X048923Y010023D01*
X048829Y006860D02*
X048829Y006260D01*
X049829Y006260D02*
X049829Y006860D01*
X050829Y006860D02*
X050829Y006260D01*
X047829Y006260D02*
X047829Y006860D01*
X047923Y019423D02*
X047923Y020023D01*
X046923Y020023D02*
X046923Y019423D01*
X045923Y019423D02*
X045923Y020023D01*
X044923Y020023D02*
X044923Y019423D01*
X043923Y019423D02*
X043923Y020023D01*
X042923Y020023D02*
X042923Y019423D01*
X041923Y019423D02*
X041923Y020023D01*
X040923Y020023D02*
X040923Y019423D01*
X039923Y019423D02*
X039923Y020023D01*
X038923Y020023D02*
X038923Y019423D01*
X037923Y019423D02*
X037923Y020023D01*
X036923Y020023D02*
X036923Y019423D01*
X035923Y019423D02*
X035923Y020023D01*
X034923Y020023D02*
X034923Y019423D01*
X033923Y019423D02*
X033923Y020023D01*
X032923Y020023D02*
X032923Y019423D01*
X031923Y019423D02*
X031923Y020023D01*
X030923Y020023D02*
X030923Y019423D01*
X048923Y019423D02*
X048923Y020023D01*
X016144Y036830D02*
X015544Y036830D01*
X015544Y037830D02*
X016144Y037830D01*
X016144Y038830D02*
X015544Y038830D01*
D15*
X052163Y019826D02*
X052723Y019826D01*
X052723Y018826D02*
X052163Y018826D01*
X053124Y012519D02*
X053124Y011959D01*
X054124Y011959D02*
X054124Y012519D01*
X027943Y010354D02*
X027943Y009794D01*
X026943Y009794D02*
X026943Y010354D01*
D16*
X027155Y027905D03*
X026655Y027905D03*
X026155Y027905D03*
X025655Y027905D03*
X025155Y027905D03*
X027655Y027905D03*
X028155Y027905D03*
X031455Y027905D03*
X031955Y027905D03*
X032455Y027905D03*
X032955Y027905D03*
X033455Y027905D03*
X033955Y027905D03*
X034455Y027905D03*
X037754Y027905D03*
X038254Y027905D03*
X038754Y027905D03*
X039254Y027905D03*
X039754Y027905D03*
X040254Y027905D03*
X040754Y027905D03*
X044053Y027905D03*
X044553Y027905D03*
X045053Y027905D03*
X045553Y027905D03*
X046053Y027905D03*
X046553Y027905D03*
X047053Y027905D03*
X050352Y027905D03*
X050852Y027905D03*
X051352Y027905D03*
X051852Y027905D03*
X052352Y027905D03*
X052852Y027905D03*
X053352Y027905D03*
X021856Y027905D03*
X021356Y027905D03*
X020856Y027905D03*
X020356Y027905D03*
X019856Y027905D03*
X019356Y027905D03*
X018856Y027905D03*
D17*
X020356Y031883D03*
X026655Y031883D03*
X032955Y031883D03*
X039254Y031883D03*
X045553Y031883D03*
X051852Y031883D03*
D18*
X013415Y032202D02*
X013415Y031202D01*
X012037Y031202D02*
X012037Y032202D01*
X010069Y032202D02*
X010069Y031202D01*
X008691Y031202D02*
X008691Y032202D01*
D19*
X009939Y027987D03*
X012270Y027987D03*
X010907Y025050D03*
X015238Y025050D03*
X019569Y025050D03*
X023900Y025050D03*
X028230Y025050D03*
X032561Y025050D03*
X036892Y025050D03*
X041222Y025050D03*
X045553Y025050D03*
X049884Y025050D03*
X054214Y025050D03*
X056396Y019916D03*
X008364Y013420D03*
X006002Y016964D03*
X006002Y021294D03*
D20*
X004002Y021294D03*
X004002Y016964D03*
X006364Y013420D03*
X010907Y023050D03*
X015238Y023050D03*
X019569Y023050D03*
X023900Y023050D03*
X028230Y023050D03*
X032561Y023050D03*
X036892Y023050D03*
X041222Y023050D03*
X045553Y023050D03*
X049884Y023050D03*
X054214Y023050D03*
X054396Y019916D03*
X014270Y027987D03*
X007939Y027987D03*
D21*
X018073Y007515D03*
X019451Y007515D03*
D22*
X023134Y007260D02*
X023134Y006195D01*
X024694Y006195D02*
X024694Y007260D01*
X026254Y007260D02*
X026254Y006195D01*
X027814Y006195D02*
X027814Y007260D01*
X031796Y007260D02*
X031796Y006195D01*
X033356Y006195D02*
X033356Y007260D01*
X034916Y007260D02*
X034916Y006195D01*
X036476Y006195D02*
X036476Y007260D01*
X040457Y007260D02*
X040457Y006195D01*
X042017Y006195D02*
X042017Y007260D01*
X043577Y007260D02*
X043577Y006195D01*
X045137Y006195D02*
X045137Y007260D01*
D23*
X049923Y009680D03*
X051026Y009680D03*
X049254Y027593D03*
X049254Y028578D03*
X048151Y028578D03*
X048151Y027593D03*
X042955Y027593D03*
X042955Y028578D03*
X041852Y028578D03*
X041852Y027593D03*
X036655Y027593D03*
X036655Y028578D03*
X035553Y028578D03*
X035553Y027593D03*
X030356Y027593D03*
X030356Y028578D03*
X029254Y028578D03*
X029254Y027593D03*
X024057Y027593D03*
X024057Y028578D03*
X022955Y028578D03*
X022955Y027593D03*
X020317Y017751D03*
X019214Y017751D03*
X019333Y009877D03*
X018230Y009877D03*
X008309Y025428D03*
X007207Y025428D03*
X054451Y027593D03*
X054451Y028578D03*
X055553Y028578D03*
X055553Y027593D03*
D24*
X038565Y006491D03*
X038565Y005389D03*
X029707Y005389D03*
X029707Y006491D03*
X025081Y015822D03*
X025081Y016924D03*
X011301Y020349D03*
X010514Y019877D03*
X010514Y018775D03*
X011301Y021452D03*
X007364Y019483D03*
X007364Y018381D03*
X016026Y028027D03*
X016026Y029129D03*
D25*
X008939Y021586D02*
X008939Y021066D01*
X008679Y020076D02*
X009199Y020076D01*
X009199Y018576D02*
X008679Y018576D01*
X008939Y017586D02*
X008939Y017066D01*
D26*
X016958Y026664D02*
X017456Y026664D01*
X017456Y025916D01*
X016958Y025916D01*
X016958Y026664D01*
X016958Y026247D02*
X017456Y026247D01*
X017456Y026578D02*
X016958Y026578D01*
X016958Y029664D02*
X017456Y029664D01*
X017456Y028916D01*
X016958Y028916D01*
X016958Y029664D01*
X016958Y029247D02*
X017456Y029247D01*
X017456Y029578D02*
X016958Y029578D01*
X056328Y029861D02*
X056826Y029861D01*
X056826Y029113D01*
X056328Y029113D01*
X056328Y029861D01*
X056328Y029444D02*
X056826Y029444D01*
X056826Y029775D02*
X056328Y029775D01*
X056328Y026861D02*
X056826Y026861D01*
X056826Y026113D01*
X056328Y026113D01*
X056328Y026861D01*
X056328Y026444D02*
X056826Y026444D01*
X056826Y026775D02*
X056328Y026775D01*
D27*
X018856Y020901D02*
X018196Y020901D01*
X013856Y020901D02*
X013196Y020901D01*
X010514Y017431D02*
X010514Y016771D01*
X010514Y012431D02*
X010514Y011771D01*
D28*
X017237Y017751D03*
X018357Y017751D03*
X019206Y018735D03*
X020326Y018735D03*
X025505Y021294D03*
X026625Y021294D03*
X030623Y021294D03*
X031743Y021294D03*
X036135Y021294D03*
X037255Y021294D03*
X038497Y021294D03*
X039617Y021294D03*
X041647Y021294D03*
X042766Y021294D03*
X048930Y021294D03*
X050050Y021294D03*
X049899Y019712D03*
X051018Y019712D03*
X052670Y026609D03*
X053790Y026609D03*
X047491Y026609D03*
X046371Y026609D03*
X041192Y026609D03*
X040072Y026609D03*
X034892Y026609D03*
X033773Y026609D03*
X028593Y026609D03*
X027474Y026609D03*
X022294Y026609D03*
X021174Y026609D03*
D29*
X023474Y035426D02*
X023474Y036371D01*
X027474Y036371D02*
X027474Y035426D01*
X034498Y035426D02*
X034498Y036371D01*
X038498Y036371D02*
X038498Y035426D01*
X045522Y035426D02*
X045522Y036371D01*
X049522Y036371D02*
X049522Y035426D01*
X014876Y009525D02*
X014876Y008580D01*
X010876Y008580D02*
X010876Y009525D01*
D30*
X012089Y011845D03*
X012089Y014208D03*
X012089Y016570D03*
X012089Y018932D03*
X027837Y018932D03*
X027837Y016570D03*
X027837Y014208D03*
X027837Y011845D03*
D31*
X052049Y021128D03*
X052049Y022248D03*
X016124Y034317D03*
X015238Y034317D03*
X015238Y035437D03*
X016124Y035437D03*
D32*
X010120Y036074D03*
X010120Y034074D03*
X006199Y025625D03*
X004199Y025625D03*
D33*
X005577Y024050D03*
X006364Y024050D03*
X007577Y024050D03*
X008364Y024050D03*
X011089Y033893D03*
X013089Y033893D03*
D34*
X014254Y033883D03*
X014254Y035477D03*
D35*
X012482Y036361D03*
D36*
X012482Y035361D03*
D37*
X014648Y036255D03*
X017600Y036255D03*
X017600Y037436D03*
X017600Y038617D03*
X017797Y039601D03*
X018978Y039601D03*
X019963Y039601D03*
X020947Y039601D03*
X021931Y039601D03*
X022915Y039601D03*
X023900Y039601D03*
X024884Y039601D03*
X025868Y039601D03*
X026852Y039601D03*
X027837Y039601D03*
X028821Y039601D03*
X029805Y039601D03*
X030789Y039601D03*
X030789Y039011D03*
X031577Y039601D03*
X032167Y038814D03*
X032561Y039601D03*
X033545Y039601D03*
X034529Y039601D03*
X035514Y039601D03*
X035317Y038814D03*
X036695Y039208D03*
X036695Y038223D03*
X037679Y038814D03*
X038073Y039601D03*
X039057Y039601D03*
X040041Y039601D03*
X041222Y039601D03*
X042207Y039208D03*
X041222Y038814D03*
X042207Y038223D03*
X043191Y038814D03*
X043388Y039601D03*
X044569Y039601D03*
X045750Y039601D03*
X045947Y038814D03*
X046931Y039208D03*
X047915Y038814D03*
X046931Y038223D03*
X046931Y037239D03*
X046931Y036255D03*
X047915Y036058D03*
X047325Y035271D03*
X047128Y034090D03*
X048309Y034286D03*
X048506Y033302D03*
X047128Y032515D03*
X046340Y032515D03*
X045553Y032515D03*
X044766Y032515D03*
X044766Y031727D03*
X045553Y031727D03*
X046340Y031727D03*
X046340Y030940D03*
X045553Y030940D03*
X044766Y030940D03*
X043978Y030940D03*
X043978Y031727D03*
X043978Y032515D03*
X042207Y032318D03*
X042207Y031334D03*
X040829Y031727D03*
X040041Y031727D03*
X040041Y030940D03*
X040829Y030940D03*
X042207Y030349D03*
X042403Y029562D03*
X041813Y029562D03*
X042994Y029562D03*
X041222Y028381D03*
X041222Y027987D03*
X041222Y027593D03*
X039254Y030152D03*
X039254Y030940D03*
X038466Y030940D03*
X037679Y030940D03*
X037679Y031727D03*
X038466Y031727D03*
X039254Y031727D03*
X039254Y032515D03*
X038466Y032515D03*
X037679Y032515D03*
X036104Y032318D03*
X036104Y031334D03*
X036104Y030349D03*
X036104Y029562D03*
X035514Y029562D03*
X036695Y029562D03*
X034923Y028381D03*
X034923Y027987D03*
X034923Y027593D03*
X032955Y030152D03*
X032955Y030940D03*
X032167Y030940D03*
X031380Y030940D03*
X031380Y031727D03*
X032167Y031727D03*
X032955Y031727D03*
X033742Y031727D03*
X034529Y031727D03*
X034529Y030940D03*
X033742Y030940D03*
X033742Y032515D03*
X034529Y032515D03*
X032955Y032515D03*
X032167Y032515D03*
X031380Y032515D03*
X030002Y032318D03*
X030002Y031334D03*
X029805Y030349D03*
X029805Y029562D03*
X029214Y029562D03*
X030396Y029562D03*
X028624Y028381D03*
X028624Y027987D03*
X028624Y027593D03*
X026655Y030152D03*
X026655Y030940D03*
X027443Y030940D03*
X028230Y030940D03*
X028230Y031727D03*
X027443Y031727D03*
X026655Y031727D03*
X025868Y031727D03*
X025081Y031727D03*
X025081Y030940D03*
X025868Y030940D03*
X025868Y032515D03*
X025081Y032515D03*
X023703Y032318D03*
X023703Y031334D03*
X023506Y030349D03*
X023506Y029562D03*
X024096Y029562D03*
X022915Y029562D03*
X022325Y028381D03*
X022325Y027987D03*
X022325Y027593D03*
X020356Y030152D03*
X020356Y030940D03*
X021144Y030940D03*
X021931Y030940D03*
X021931Y031727D03*
X021144Y031727D03*
X020356Y031727D03*
X019569Y031727D03*
X018781Y031727D03*
X018781Y030940D03*
X019569Y030940D03*
X017403Y029759D03*
X017010Y029759D03*
X017994Y029562D03*
X016026Y029562D03*
X015238Y030349D03*
X015041Y031924D03*
X015238Y033302D03*
X016419Y033302D03*
X017600Y032712D03*
X018781Y032515D03*
X019569Y032515D03*
X020356Y032515D03*
X021144Y032515D03*
X021931Y032515D03*
X023703Y033302D03*
X024293Y034286D03*
X025081Y035074D03*
X026065Y034877D03*
X025277Y036058D03*
X025277Y036845D03*
X026065Y036649D03*
X025277Y037633D03*
X025277Y038420D03*
X026065Y038617D03*
X023900Y038617D03*
X021537Y038617D03*
X019175Y038617D03*
X019175Y036649D03*
X017600Y035074D03*
X017600Y033893D03*
X019175Y034680D03*
X021537Y034680D03*
X021537Y036649D03*
X026655Y032515D03*
X027443Y032515D03*
X028230Y032515D03*
X030002Y033302D03*
X030002Y034286D03*
X030592Y035074D03*
X030789Y036058D03*
X030789Y037042D03*
X030789Y038027D03*
X028427Y038617D03*
X028427Y036649D03*
X028427Y034877D03*
X032167Y034877D03*
X036104Y033302D03*
X036498Y034286D03*
X036695Y035271D03*
X036695Y036255D03*
X036695Y037239D03*
X041222Y036452D03*
X042207Y036255D03*
X042207Y037239D03*
X043191Y036452D03*
X042207Y035271D03*
X042207Y034286D03*
X042207Y033302D03*
X043191Y034090D03*
X040829Y032515D03*
X040041Y032515D03*
X045553Y030152D03*
X047128Y030940D03*
X047128Y031727D03*
X048506Y031334D03*
X048506Y030546D03*
X048703Y029562D03*
X049293Y029562D03*
X048112Y029562D03*
X047522Y028381D03*
X047522Y027987D03*
X047522Y027593D03*
X051852Y030152D03*
X051852Y030940D03*
X051065Y030940D03*
X051065Y031727D03*
X051852Y031727D03*
X052640Y031727D03*
X053427Y031727D03*
X053427Y030940D03*
X052640Y030940D03*
X052640Y032515D03*
X051852Y032515D03*
X051065Y032515D03*
X050277Y032515D03*
X050277Y031727D03*
X050277Y030940D03*
X048506Y032318D03*
X051065Y036058D03*
X054608Y033696D03*
X053427Y032515D03*
X054608Y030152D03*
X055199Y029562D03*
X056380Y029956D03*
X056774Y029956D03*
X053821Y028381D03*
X053821Y027987D03*
X053821Y027593D03*
X056183Y026806D03*
X056183Y026412D03*
X056183Y026019D03*
X053033Y023263D03*
X052049Y024050D03*
X051459Y023263D03*
X048703Y023263D03*
X047718Y023263D03*
X046734Y023263D03*
X044569Y023263D03*
X044569Y024050D03*
X043388Y023263D03*
X042403Y023263D03*
X040041Y023263D03*
X038860Y023263D03*
X038754Y024050D03*
X035711Y023263D03*
X034726Y023263D03*
X033742Y023263D03*
X031774Y024050D03*
X029411Y023263D03*
X027049Y023263D03*
X026951Y024050D03*
X025081Y023263D03*
X022718Y023263D03*
X021734Y023263D03*
X020750Y023263D03*
X020750Y024050D03*
X017994Y023263D03*
X016419Y023263D03*
X014057Y023263D03*
X013073Y023263D03*
X012089Y023263D03*
X009726Y023263D03*
X007758Y026806D03*
X007758Y029168D03*
X015829Y027790D03*
X016222Y027790D03*
X016813Y027003D03*
X017010Y025822D03*
X017403Y025822D03*
X021144Y018145D03*
X018585Y016767D03*
X022915Y014208D03*
X023703Y014798D03*
X022522Y013617D03*
X024096Y013027D03*
X023112Y011058D03*
X020159Y010467D03*
X029805Y007121D03*
X032364Y011058D03*
X032364Y012436D03*
X031774Y012436D03*
X031183Y012436D03*
X031183Y014011D03*
X031774Y014011D03*
X032364Y014011D03*
X035907Y015782D03*
X035711Y017357D03*
X037089Y017554D03*
X037679Y014011D03*
X037679Y012436D03*
X038663Y010861D03*
X040829Y012042D03*
X042010Y010861D03*
X041026Y013814D03*
X050041Y019212D03*
X054805Y020901D03*
X054805Y022082D03*
X033545Y021097D03*
X029214Y019523D03*
X038270Y007121D03*
X009529Y010074D03*
X008348Y011255D03*
X051065Y038814D03*
X051262Y039601D03*
D38*
X051041Y017404D03*
X051041Y016404D03*
X050041Y016404D03*
X049041Y016404D03*
X048041Y016404D03*
X047041Y016404D03*
X046041Y016404D03*
X045041Y016404D03*
X044041Y016404D03*
X043041Y016404D03*
X042041Y016404D03*
X042041Y017404D03*
X043041Y017404D03*
X044041Y017404D03*
X045041Y017404D03*
X046041Y017404D03*
X047041Y017404D03*
X048041Y017404D03*
X049041Y017404D03*
X050041Y017404D03*
X050041Y015404D03*
X050041Y014404D03*
X050041Y013404D03*
X049041Y013404D03*
X048041Y013404D03*
X047041Y013404D03*
X046041Y013404D03*
X045041Y013404D03*
X044041Y013404D03*
X043041Y013404D03*
X042041Y013404D03*
X042041Y014404D03*
X043041Y014404D03*
X044041Y014404D03*
X045041Y014404D03*
X046041Y014404D03*
X047041Y014404D03*
X048041Y014404D03*
X049041Y014404D03*
X049041Y015404D03*
X048041Y015404D03*
X047041Y015404D03*
X046041Y015404D03*
X045041Y015404D03*
X044041Y015404D03*
X043041Y015404D03*
X042041Y015404D03*
X042041Y012404D03*
X043041Y012404D03*
X044041Y012404D03*
X045041Y012404D03*
X046041Y012404D03*
X047041Y012404D03*
X048041Y012404D03*
X049041Y012404D03*
X050041Y012404D03*
X051041Y013404D03*
X051041Y014404D03*
X051041Y015404D03*
M02*
