G75*
G70*
%OFA0B0*%
%FSLAX24Y24*%
%IPPOS*%
%LPD*%
%AMOC8*
5,1,8,0,0,1.08239X$1,22.5*
%
%ADD10C,0.0000*%
%ADD11C,0.0660*%
%ADD12C,0.0600*%
%ADD13C,0.0560*%
%ADD14R,0.0315X0.1181*%
%ADD15R,0.3937X0.3543*%
%ADD16C,0.1063*%
%ADD17C,0.1000*%
%ADD18OC8,0.1000*%
%ADD19C,0.0860*%
%ADD20C,0.1065*%
%ADD21R,0.0630X0.0709*%
%ADD22R,0.0709X0.0630*%
%ADD23C,0.0520*%
%ADD24C,0.0300*%
%ADD25C,0.0660*%
%ADD26R,0.0630X0.0710*%
%ADD27C,0.1181*%
%ADD28R,0.1000X0.1000*%
%ADD29R,0.0710X0.0630*%
%ADD30OC8,0.0600*%
%ADD31OC8,0.0520*%
%ADD32R,0.0945X0.0709*%
%ADD33OC8,0.0630*%
%ADD34C,0.0630*%
%ADD35C,0.0160*%
%ADD36C,0.0357*%
%ADD37R,0.0760X0.0760*%
%ADD38C,0.0591*%
%ADD39C,0.0320*%
%ADD40C,0.0315*%
%ADD41C,0.0240*%
%ADD42C,0.1181*%
%ADD43C,0.0157*%
%ADD44C,0.1772*%
D10*
X008939Y004759D02*
X008939Y010664D01*
X003033Y010664D01*
X003033Y034286D01*
X008939Y034286D01*
X008939Y040192D01*
X051852Y040192D01*
X051852Y034286D01*
X057758Y034286D01*
X057758Y010664D01*
X051852Y010664D01*
X051852Y004759D01*
X008939Y004759D01*
X003584Y012239D02*
X003586Y012289D01*
X003592Y012339D01*
X003602Y012388D01*
X003616Y012436D01*
X003633Y012483D01*
X003654Y012528D01*
X003679Y012572D01*
X003707Y012613D01*
X003739Y012652D01*
X003773Y012689D01*
X003810Y012723D01*
X003850Y012753D01*
X003892Y012780D01*
X003936Y012804D01*
X003982Y012825D01*
X004029Y012841D01*
X004077Y012854D01*
X004127Y012863D01*
X004176Y012868D01*
X004227Y012869D01*
X004277Y012866D01*
X004326Y012859D01*
X004375Y012848D01*
X004423Y012833D01*
X004469Y012815D01*
X004514Y012793D01*
X004557Y012767D01*
X004598Y012738D01*
X004637Y012706D01*
X004673Y012671D01*
X004705Y012633D01*
X004735Y012593D01*
X004762Y012550D01*
X004785Y012506D01*
X004804Y012460D01*
X004820Y012412D01*
X004832Y012363D01*
X004840Y012314D01*
X004844Y012264D01*
X004844Y012214D01*
X004840Y012164D01*
X004832Y012115D01*
X004820Y012066D01*
X004804Y012018D01*
X004785Y011972D01*
X004762Y011928D01*
X004735Y011885D01*
X004705Y011845D01*
X004673Y011807D01*
X004637Y011772D01*
X004598Y011740D01*
X004557Y011711D01*
X004514Y011685D01*
X004469Y011663D01*
X004423Y011645D01*
X004375Y011630D01*
X004326Y011619D01*
X004277Y011612D01*
X004227Y011609D01*
X004176Y011610D01*
X004127Y011615D01*
X004077Y011624D01*
X004029Y011637D01*
X003982Y011653D01*
X003936Y011674D01*
X003892Y011698D01*
X003850Y011725D01*
X003810Y011755D01*
X003773Y011789D01*
X003739Y011826D01*
X003707Y011865D01*
X003679Y011906D01*
X003654Y011950D01*
X003633Y011995D01*
X003616Y012042D01*
X003602Y012090D01*
X003592Y012139D01*
X003586Y012189D01*
X003584Y012239D01*
X004372Y028381D02*
X004374Y028431D01*
X004380Y028481D01*
X004390Y028530D01*
X004404Y028578D01*
X004421Y028625D01*
X004442Y028670D01*
X004467Y028714D01*
X004495Y028755D01*
X004527Y028794D01*
X004561Y028831D01*
X004598Y028865D01*
X004638Y028895D01*
X004680Y028922D01*
X004724Y028946D01*
X004770Y028967D01*
X004817Y028983D01*
X004865Y028996D01*
X004915Y029005D01*
X004964Y029010D01*
X005015Y029011D01*
X005065Y029008D01*
X005114Y029001D01*
X005163Y028990D01*
X005211Y028975D01*
X005257Y028957D01*
X005302Y028935D01*
X005345Y028909D01*
X005386Y028880D01*
X005425Y028848D01*
X005461Y028813D01*
X005493Y028775D01*
X005523Y028735D01*
X005550Y028692D01*
X005573Y028648D01*
X005592Y028602D01*
X005608Y028554D01*
X005620Y028505D01*
X005628Y028456D01*
X005632Y028406D01*
X005632Y028356D01*
X005628Y028306D01*
X005620Y028257D01*
X005608Y028208D01*
X005592Y028160D01*
X005573Y028114D01*
X005550Y028070D01*
X005523Y028027D01*
X005493Y027987D01*
X005461Y027949D01*
X005425Y027914D01*
X005386Y027882D01*
X005345Y027853D01*
X005302Y027827D01*
X005257Y027805D01*
X005211Y027787D01*
X005163Y027772D01*
X005114Y027761D01*
X005065Y027754D01*
X005015Y027751D01*
X004964Y027752D01*
X004915Y027757D01*
X004865Y027766D01*
X004817Y027779D01*
X004770Y027795D01*
X004724Y027816D01*
X004680Y027840D01*
X004638Y027867D01*
X004598Y027897D01*
X004561Y027931D01*
X004527Y027968D01*
X004495Y028007D01*
X004467Y028048D01*
X004442Y028092D01*
X004421Y028137D01*
X004404Y028184D01*
X004390Y028232D01*
X004380Y028281D01*
X004374Y028331D01*
X004372Y028381D01*
X003722Y032712D02*
X003724Y032771D01*
X003730Y032830D01*
X003740Y032888D01*
X003753Y032946D01*
X003771Y033003D01*
X003792Y033058D01*
X003817Y033112D01*
X003846Y033164D01*
X003878Y033213D01*
X003913Y033261D01*
X003951Y033306D01*
X003992Y033349D01*
X004036Y033389D01*
X004082Y033425D01*
X004131Y033459D01*
X004182Y033489D01*
X004235Y033516D01*
X004290Y033539D01*
X004345Y033558D01*
X004403Y033574D01*
X004461Y033586D01*
X004519Y033594D01*
X004578Y033598D01*
X004638Y033598D01*
X004697Y033594D01*
X004755Y033586D01*
X004813Y033574D01*
X004871Y033558D01*
X004926Y033539D01*
X004981Y033516D01*
X005034Y033489D01*
X005085Y033459D01*
X005134Y033425D01*
X005180Y033389D01*
X005224Y033349D01*
X005265Y033306D01*
X005303Y033261D01*
X005338Y033213D01*
X005370Y033164D01*
X005399Y033112D01*
X005424Y033058D01*
X005445Y033003D01*
X005463Y032946D01*
X005476Y032888D01*
X005486Y032830D01*
X005492Y032771D01*
X005494Y032712D01*
X005492Y032653D01*
X005486Y032594D01*
X005476Y032536D01*
X005463Y032478D01*
X005445Y032421D01*
X005424Y032366D01*
X005399Y032312D01*
X005370Y032260D01*
X005338Y032211D01*
X005303Y032163D01*
X005265Y032118D01*
X005224Y032075D01*
X005180Y032035D01*
X005134Y031999D01*
X005085Y031965D01*
X005034Y031935D01*
X004981Y031908D01*
X004926Y031885D01*
X004871Y031866D01*
X004813Y031850D01*
X004755Y031838D01*
X004697Y031830D01*
X004638Y031826D01*
X004578Y031826D01*
X004519Y031830D01*
X004461Y031838D01*
X004403Y031850D01*
X004345Y031866D01*
X004290Y031885D01*
X004235Y031908D01*
X004182Y031935D01*
X004131Y031965D01*
X004082Y031999D01*
X004036Y032035D01*
X003992Y032075D01*
X003951Y032118D01*
X003913Y032163D01*
X003878Y032211D01*
X003846Y032260D01*
X003817Y032312D01*
X003792Y032366D01*
X003771Y032421D01*
X003753Y032478D01*
X003740Y032536D01*
X003730Y032594D01*
X003724Y032653D01*
X003722Y032712D01*
X009628Y038617D02*
X009630Y038676D01*
X009636Y038735D01*
X009646Y038793D01*
X009659Y038851D01*
X009677Y038908D01*
X009698Y038963D01*
X009723Y039017D01*
X009752Y039069D01*
X009784Y039118D01*
X009819Y039166D01*
X009857Y039211D01*
X009898Y039254D01*
X009942Y039294D01*
X009988Y039330D01*
X010037Y039364D01*
X010088Y039394D01*
X010141Y039421D01*
X010196Y039444D01*
X010251Y039463D01*
X010309Y039479D01*
X010367Y039491D01*
X010425Y039499D01*
X010484Y039503D01*
X010544Y039503D01*
X010603Y039499D01*
X010661Y039491D01*
X010719Y039479D01*
X010777Y039463D01*
X010832Y039444D01*
X010887Y039421D01*
X010940Y039394D01*
X010991Y039364D01*
X011040Y039330D01*
X011086Y039294D01*
X011130Y039254D01*
X011171Y039211D01*
X011209Y039166D01*
X011244Y039118D01*
X011276Y039069D01*
X011305Y039017D01*
X011330Y038963D01*
X011351Y038908D01*
X011369Y038851D01*
X011382Y038793D01*
X011392Y038735D01*
X011398Y038676D01*
X011400Y038617D01*
X011398Y038558D01*
X011392Y038499D01*
X011382Y038441D01*
X011369Y038383D01*
X011351Y038326D01*
X011330Y038271D01*
X011305Y038217D01*
X011276Y038165D01*
X011244Y038116D01*
X011209Y038068D01*
X011171Y038023D01*
X011130Y037980D01*
X011086Y037940D01*
X011040Y037904D01*
X010991Y037870D01*
X010940Y037840D01*
X010887Y037813D01*
X010832Y037790D01*
X010777Y037771D01*
X010719Y037755D01*
X010661Y037743D01*
X010603Y037735D01*
X010544Y037731D01*
X010484Y037731D01*
X010425Y037735D01*
X010367Y037743D01*
X010309Y037755D01*
X010251Y037771D01*
X010196Y037790D01*
X010141Y037813D01*
X010088Y037840D01*
X010037Y037870D01*
X009988Y037904D01*
X009942Y037940D01*
X009898Y037980D01*
X009857Y038023D01*
X009819Y038068D01*
X009784Y038116D01*
X009752Y038165D01*
X009723Y038217D01*
X009698Y038271D01*
X009677Y038326D01*
X009659Y038383D01*
X009646Y038441D01*
X009636Y038499D01*
X009630Y038558D01*
X009628Y038617D01*
X016183Y031530D02*
X016185Y031580D01*
X016191Y031630D01*
X016201Y031679D01*
X016215Y031727D01*
X016232Y031774D01*
X016253Y031819D01*
X016278Y031863D01*
X016306Y031904D01*
X016338Y031943D01*
X016372Y031980D01*
X016409Y032014D01*
X016449Y032044D01*
X016491Y032071D01*
X016535Y032095D01*
X016581Y032116D01*
X016628Y032132D01*
X016676Y032145D01*
X016726Y032154D01*
X016775Y032159D01*
X016826Y032160D01*
X016876Y032157D01*
X016925Y032150D01*
X016974Y032139D01*
X017022Y032124D01*
X017068Y032106D01*
X017113Y032084D01*
X017156Y032058D01*
X017197Y032029D01*
X017236Y031997D01*
X017272Y031962D01*
X017304Y031924D01*
X017334Y031884D01*
X017361Y031841D01*
X017384Y031797D01*
X017403Y031751D01*
X017419Y031703D01*
X017431Y031654D01*
X017439Y031605D01*
X017443Y031555D01*
X017443Y031505D01*
X017439Y031455D01*
X017431Y031406D01*
X017419Y031357D01*
X017403Y031309D01*
X017384Y031263D01*
X017361Y031219D01*
X017334Y031176D01*
X017304Y031136D01*
X017272Y031098D01*
X017236Y031063D01*
X017197Y031031D01*
X017156Y031002D01*
X017113Y030976D01*
X017068Y030954D01*
X017022Y030936D01*
X016974Y030921D01*
X016925Y030910D01*
X016876Y030903D01*
X016826Y030900D01*
X016775Y030901D01*
X016726Y030906D01*
X016676Y030915D01*
X016628Y030928D01*
X016581Y030944D01*
X016535Y030965D01*
X016491Y030989D01*
X016449Y031016D01*
X016409Y031046D01*
X016372Y031080D01*
X016338Y031117D01*
X016306Y031156D01*
X016278Y031197D01*
X016253Y031241D01*
X016232Y031286D01*
X016215Y031333D01*
X016201Y031381D01*
X016191Y031430D01*
X016185Y031480D01*
X016183Y031530D01*
X055553Y031530D02*
X055555Y031580D01*
X055561Y031630D01*
X055571Y031679D01*
X055585Y031727D01*
X055602Y031774D01*
X055623Y031819D01*
X055648Y031863D01*
X055676Y031904D01*
X055708Y031943D01*
X055742Y031980D01*
X055779Y032014D01*
X055819Y032044D01*
X055861Y032071D01*
X055905Y032095D01*
X055951Y032116D01*
X055998Y032132D01*
X056046Y032145D01*
X056096Y032154D01*
X056145Y032159D01*
X056196Y032160D01*
X056246Y032157D01*
X056295Y032150D01*
X056344Y032139D01*
X056392Y032124D01*
X056438Y032106D01*
X056483Y032084D01*
X056526Y032058D01*
X056567Y032029D01*
X056606Y031997D01*
X056642Y031962D01*
X056674Y031924D01*
X056704Y031884D01*
X056731Y031841D01*
X056754Y031797D01*
X056773Y031751D01*
X056789Y031703D01*
X056801Y031654D01*
X056809Y031605D01*
X056813Y031555D01*
X056813Y031505D01*
X056809Y031455D01*
X056801Y031406D01*
X056789Y031357D01*
X056773Y031309D01*
X056754Y031263D01*
X056731Y031219D01*
X056704Y031176D01*
X056674Y031136D01*
X056642Y031098D01*
X056606Y031063D01*
X056567Y031031D01*
X056526Y031002D01*
X056483Y030976D01*
X056438Y030954D01*
X056392Y030936D01*
X056344Y030921D01*
X056295Y030910D01*
X056246Y030903D01*
X056196Y030900D01*
X056145Y030901D01*
X056096Y030906D01*
X056046Y030915D01*
X055998Y030928D01*
X055951Y030944D01*
X055905Y030965D01*
X055861Y030989D01*
X055819Y031016D01*
X055779Y031046D01*
X055742Y031080D01*
X055708Y031117D01*
X055676Y031156D01*
X055648Y031197D01*
X055623Y031241D01*
X055602Y031286D01*
X055585Y031333D01*
X055571Y031381D01*
X055561Y031430D01*
X055555Y031480D01*
X055553Y031530D01*
X055750Y012239D02*
X055752Y012289D01*
X055758Y012339D01*
X055768Y012388D01*
X055782Y012436D01*
X055799Y012483D01*
X055820Y012528D01*
X055845Y012572D01*
X055873Y012613D01*
X055905Y012652D01*
X055939Y012689D01*
X055976Y012723D01*
X056016Y012753D01*
X056058Y012780D01*
X056102Y012804D01*
X056148Y012825D01*
X056195Y012841D01*
X056243Y012854D01*
X056293Y012863D01*
X056342Y012868D01*
X056393Y012869D01*
X056443Y012866D01*
X056492Y012859D01*
X056541Y012848D01*
X056589Y012833D01*
X056635Y012815D01*
X056680Y012793D01*
X056723Y012767D01*
X056764Y012738D01*
X056803Y012706D01*
X056839Y012671D01*
X056871Y012633D01*
X056901Y012593D01*
X056928Y012550D01*
X056951Y012506D01*
X056970Y012460D01*
X056986Y012412D01*
X056998Y012363D01*
X057006Y012314D01*
X057010Y012264D01*
X057010Y012214D01*
X057006Y012164D01*
X056998Y012115D01*
X056986Y012066D01*
X056970Y012018D01*
X056951Y011972D01*
X056928Y011928D01*
X056901Y011885D01*
X056871Y011845D01*
X056839Y011807D01*
X056803Y011772D01*
X056764Y011740D01*
X056723Y011711D01*
X056680Y011685D01*
X056635Y011663D01*
X056589Y011645D01*
X056541Y011630D01*
X056492Y011619D01*
X056443Y011612D01*
X056393Y011609D01*
X056342Y011610D01*
X056293Y011615D01*
X056243Y011624D01*
X056195Y011637D01*
X056148Y011653D01*
X056102Y011674D01*
X056058Y011698D01*
X056016Y011725D01*
X055976Y011755D01*
X055939Y011789D01*
X055905Y011826D01*
X055873Y011865D01*
X055845Y011906D01*
X055820Y011950D01*
X055799Y011995D01*
X055782Y012042D01*
X055768Y012090D01*
X055758Y012139D01*
X055752Y012189D01*
X055750Y012239D01*
D11*
X020996Y009595D03*
X020996Y005595D03*
D12*
X030923Y009423D02*
X030923Y010023D01*
X031923Y010023D02*
X031923Y009423D01*
X032923Y009423D02*
X032923Y010023D01*
X033923Y010023D02*
X033923Y009423D01*
X034923Y009423D02*
X034923Y010023D01*
X035923Y010023D02*
X035923Y009423D01*
X036923Y009423D02*
X036923Y010023D01*
X037923Y010023D02*
X037923Y009423D01*
X038923Y009423D02*
X038923Y010023D01*
X039923Y010023D02*
X039923Y009423D01*
X040923Y009423D02*
X040923Y010023D01*
X041923Y010023D02*
X041923Y009423D01*
X042923Y009423D02*
X042923Y010023D01*
X043923Y010023D02*
X043923Y009423D01*
X044923Y009423D02*
X044923Y010023D01*
X045923Y010023D02*
X045923Y009423D01*
X046923Y009423D02*
X046923Y010023D01*
X047923Y010023D02*
X047923Y009423D01*
X048923Y009423D02*
X048923Y010023D01*
X048829Y006860D02*
X048829Y006260D01*
X049829Y006260D02*
X049829Y006860D01*
X050829Y006860D02*
X050829Y006260D01*
X047829Y006260D02*
X047829Y006860D01*
X047923Y019423D02*
X047923Y020023D01*
X046923Y020023D02*
X046923Y019423D01*
X045923Y019423D02*
X045923Y020023D01*
X044923Y020023D02*
X044923Y019423D01*
X043923Y019423D02*
X043923Y020023D01*
X042923Y020023D02*
X042923Y019423D01*
X041923Y019423D02*
X041923Y020023D01*
X040923Y020023D02*
X040923Y019423D01*
X039923Y019423D02*
X039923Y020023D01*
X038923Y020023D02*
X038923Y019423D01*
X037923Y019423D02*
X037923Y020023D01*
X036923Y020023D02*
X036923Y019423D01*
X035923Y019423D02*
X035923Y020023D01*
X034923Y020023D02*
X034923Y019423D01*
X033923Y019423D02*
X033923Y020023D01*
X032923Y020023D02*
X032923Y019423D01*
X031923Y019423D02*
X031923Y020023D01*
X030923Y020023D02*
X030923Y019423D01*
X048923Y019423D02*
X048923Y020023D01*
X016144Y036830D02*
X015544Y036830D01*
X015544Y037830D02*
X016144Y037830D01*
X016144Y038830D02*
X015544Y038830D01*
D13*
X052163Y019826D02*
X052723Y019826D01*
X052723Y018826D02*
X052163Y018826D01*
X055289Y015669D02*
X055289Y015109D01*
X056289Y015109D02*
X056289Y015669D01*
X054494Y012542D02*
X053934Y012542D01*
X053934Y011542D02*
X054494Y011542D01*
X052920Y011542D02*
X052360Y011542D01*
X052360Y012542D02*
X052920Y012542D01*
X027943Y010354D02*
X027943Y009794D01*
X026943Y009794D02*
X026943Y010354D01*
D14*
X027155Y027905D03*
X026655Y027905D03*
X026155Y027905D03*
X025655Y027905D03*
X025155Y027905D03*
X027655Y027905D03*
X028155Y027905D03*
X031455Y027905D03*
X031955Y027905D03*
X032455Y027905D03*
X032955Y027905D03*
X033455Y027905D03*
X033955Y027905D03*
X034455Y027905D03*
X037754Y027905D03*
X038254Y027905D03*
X038754Y027905D03*
X039254Y027905D03*
X039754Y027905D03*
X040254Y027905D03*
X040754Y027905D03*
X044053Y027905D03*
X044553Y027905D03*
X045053Y027905D03*
X045553Y027905D03*
X046053Y027905D03*
X046553Y027905D03*
X047053Y027905D03*
X050352Y027905D03*
X050852Y027905D03*
X051352Y027905D03*
X051852Y027905D03*
X052352Y027905D03*
X052852Y027905D03*
X053352Y027905D03*
X021856Y027905D03*
X021356Y027905D03*
X020856Y027905D03*
X020356Y027905D03*
X019856Y027905D03*
X019356Y027905D03*
X018856Y027905D03*
D15*
X020356Y031883D03*
X026655Y031883D03*
X032955Y031883D03*
X039254Y031883D03*
X045553Y031883D03*
X051852Y031883D03*
D16*
X013415Y032233D02*
X013415Y031170D01*
X012037Y031170D02*
X012037Y032233D01*
X010069Y032233D02*
X010069Y031170D01*
X008691Y031170D02*
X008691Y032233D01*
D17*
X009939Y027987D03*
X012270Y027987D03*
X010907Y025050D03*
X015238Y025050D03*
X019569Y025050D03*
X023900Y025050D03*
X028230Y025050D03*
X032561Y025050D03*
X036892Y025050D03*
X041222Y025050D03*
X045553Y025050D03*
X049884Y025050D03*
X054214Y025050D03*
X056396Y019916D03*
X008364Y013420D03*
X006002Y016964D03*
X006002Y021294D03*
D18*
X004002Y021294D03*
X004002Y016964D03*
X006364Y013420D03*
X010907Y023050D03*
X015238Y023050D03*
X019569Y023050D03*
X023900Y023050D03*
X028230Y023050D03*
X032561Y023050D03*
X036892Y023050D03*
X041222Y023050D03*
X045553Y023050D03*
X049884Y023050D03*
X054214Y023050D03*
X054396Y019916D03*
X014270Y027987D03*
X007939Y027987D03*
D19*
X018073Y007515D03*
X019451Y007515D03*
D20*
X023134Y007260D02*
X023134Y006195D01*
X024694Y006195D02*
X024694Y007260D01*
X026254Y007260D02*
X026254Y006195D01*
X027814Y006195D02*
X027814Y007260D01*
X031796Y007260D02*
X031796Y006195D01*
X033356Y006195D02*
X033356Y007260D01*
X034916Y007260D02*
X034916Y006195D01*
X036476Y006195D02*
X036476Y007260D01*
X040457Y007260D02*
X040457Y006195D01*
X042017Y006195D02*
X042017Y007260D01*
X043577Y007260D02*
X043577Y006195D01*
X045137Y006195D02*
X045137Y007260D01*
D21*
X049923Y009680D03*
X051026Y009680D03*
X049254Y027593D03*
X049254Y028578D03*
X048151Y028578D03*
X048151Y027593D03*
X042955Y027593D03*
X042955Y028578D03*
X041852Y028578D03*
X041852Y027593D03*
X036655Y027593D03*
X036655Y028578D03*
X035553Y028578D03*
X035553Y027593D03*
X030356Y027593D03*
X030356Y028578D03*
X029254Y028578D03*
X029254Y027593D03*
X024057Y027593D03*
X024057Y028578D03*
X022955Y028578D03*
X022955Y027593D03*
X020317Y017751D03*
X019214Y017751D03*
X019333Y009877D03*
X018230Y009877D03*
X008309Y025428D03*
X007207Y025428D03*
X054451Y027593D03*
X054451Y028578D03*
X055553Y028578D03*
X055553Y027593D03*
D22*
X038565Y006491D03*
X038565Y005389D03*
X029707Y005389D03*
X029707Y006491D03*
X025081Y015822D03*
X025081Y016924D03*
X011301Y020349D03*
X010514Y019877D03*
X010514Y018775D03*
X011301Y021452D03*
X007364Y019483D03*
X007364Y018381D03*
X016026Y028027D03*
X016026Y029129D03*
D23*
X008939Y021586D02*
X008939Y021066D01*
X008679Y020076D02*
X009199Y020076D01*
X009199Y018576D02*
X008679Y018576D01*
X008939Y017586D02*
X008939Y017066D01*
D24*
X016982Y026640D02*
X017432Y026640D01*
X017432Y025940D01*
X016982Y025940D01*
X016982Y026640D01*
X016982Y026239D02*
X017432Y026239D01*
X017432Y026538D02*
X016982Y026538D01*
X016982Y029640D02*
X017432Y029640D01*
X017432Y028940D01*
X016982Y028940D01*
X016982Y029640D01*
X016982Y029239D02*
X017432Y029239D01*
X017432Y029538D02*
X016982Y029538D01*
X056352Y029837D02*
X056802Y029837D01*
X056802Y029137D01*
X056352Y029137D01*
X056352Y029837D01*
X056352Y029436D02*
X056802Y029436D01*
X056802Y029735D02*
X056352Y029735D01*
X056352Y026837D02*
X056802Y026837D01*
X056802Y026137D01*
X056352Y026137D01*
X056352Y026837D01*
X056352Y026436D02*
X056802Y026436D01*
X056802Y026735D02*
X056352Y026735D01*
D25*
X018856Y020901D02*
X018196Y020901D01*
X013856Y020901D02*
X013196Y020901D01*
X010514Y017431D02*
X010514Y016771D01*
X010514Y012431D02*
X010514Y011771D01*
D26*
X017237Y017751D03*
X018357Y017751D03*
X019206Y018735D03*
X020326Y018735D03*
X025505Y021294D03*
X026625Y021294D03*
X030623Y021294D03*
X031743Y021294D03*
X036135Y021294D03*
X037255Y021294D03*
X038497Y021294D03*
X039617Y021294D03*
X041647Y021294D03*
X042766Y021294D03*
X048930Y021294D03*
X050050Y021294D03*
X049899Y019712D03*
X051018Y019712D03*
X052670Y026609D03*
X053790Y026609D03*
X047491Y026609D03*
X046371Y026609D03*
X041192Y026609D03*
X040072Y026609D03*
X034892Y026609D03*
X033773Y026609D03*
X028593Y026609D03*
X027474Y026609D03*
X022294Y026609D03*
X021174Y026609D03*
D27*
X023474Y035308D02*
X023474Y036489D01*
X027474Y036489D02*
X027474Y035308D01*
X034498Y035308D02*
X034498Y036489D01*
X038498Y036489D02*
X038498Y035308D01*
X045522Y035308D02*
X045522Y036489D01*
X049522Y036489D02*
X049522Y035308D01*
X014876Y009643D02*
X014876Y008462D01*
X010876Y008462D02*
X010876Y009643D01*
D28*
X012089Y011845D03*
X012089Y014208D03*
X012089Y016570D03*
X012089Y018932D03*
X027837Y018932D03*
X027837Y016570D03*
X027837Y014208D03*
X027837Y011845D03*
D29*
X052049Y021128D03*
X052049Y022248D03*
X016124Y034317D03*
X015238Y034317D03*
X015238Y035437D03*
X016124Y035437D03*
D30*
X010120Y036074D03*
X010120Y034074D03*
X006199Y025625D03*
X004199Y025625D03*
D31*
X005577Y024050D03*
X006364Y024050D03*
X007577Y024050D03*
X008364Y024050D03*
X011089Y033893D03*
X013089Y033893D03*
D32*
X014254Y033883D03*
X014254Y035477D03*
D33*
X012482Y036361D03*
D34*
X012482Y035361D03*
D35*
X012966Y035361D01*
X014138Y035361D01*
X014254Y035477D01*
X015198Y035477D01*
X015238Y035437D01*
X014844Y036058D02*
X014648Y036255D01*
X014844Y036058D02*
X015927Y036058D01*
X016124Y035861D01*
X016124Y035437D01*
X016813Y035442D02*
X017991Y035442D01*
X017991Y035600D02*
X016813Y035600D01*
X016813Y035759D02*
X017991Y035759D01*
X017991Y035917D02*
X016813Y035917D01*
X016813Y036076D02*
X017991Y036076D01*
X017991Y036234D02*
X016813Y036234D01*
X016813Y036393D02*
X017991Y036393D01*
X017991Y036551D02*
X016813Y036551D01*
X016813Y036710D02*
X017991Y036710D01*
X017991Y036868D02*
X016813Y036868D01*
X016813Y037027D02*
X017991Y037027D01*
X017991Y037185D02*
X016670Y037185D01*
X016813Y037042D02*
X016419Y037436D01*
X016291Y037436D01*
X016267Y037446D01*
X015425Y037446D01*
X015238Y037633D01*
X015238Y038027D01*
X015425Y038213D01*
X016267Y038213D01*
X016285Y038221D01*
X016695Y038221D01*
X016701Y038223D01*
X016813Y038223D01*
X017207Y038617D01*
X017207Y038729D01*
X017209Y038735D01*
X017209Y039712D01*
X051372Y039712D01*
X051372Y039264D01*
X051289Y039347D01*
X051144Y039407D01*
X047836Y039407D01*
X047691Y039347D01*
X047297Y038953D01*
X047186Y038841D01*
X047125Y038696D01*
X047125Y035782D01*
X047186Y035637D01*
X048700Y034122D01*
X048700Y030467D01*
X048760Y030322D01*
X048872Y030210D01*
X049351Y029731D01*
X049462Y029620D01*
X049608Y029559D01*
X051376Y029559D01*
X051376Y028812D01*
X051132Y028812D01*
X051102Y028800D01*
X051073Y028812D01*
X050632Y028812D01*
X050516Y028764D01*
X050427Y028675D01*
X050379Y028559D01*
X050379Y027252D01*
X050427Y027136D01*
X050456Y027106D01*
X050456Y025632D01*
X050346Y025742D01*
X050046Y025866D01*
X049721Y025866D01*
X049421Y025742D01*
X049192Y025512D01*
X049068Y025212D01*
X049068Y024888D01*
X049192Y024588D01*
X049421Y024358D01*
X049721Y024234D01*
X050046Y024234D01*
X050346Y024358D01*
X050456Y024468D01*
X050456Y022261D01*
X050280Y022084D01*
X044117Y022084D01*
X044314Y022282D01*
X044374Y022427D01*
X044374Y023595D01*
X044470Y023555D01*
X044667Y023555D01*
X044849Y023631D01*
X044988Y023770D01*
X045063Y023952D01*
X045063Y024149D01*
X044988Y024330D01*
X044965Y024353D01*
X044965Y024484D01*
X045091Y024358D01*
X045391Y024234D01*
X045715Y024234D01*
X046015Y024358D01*
X046245Y024588D01*
X046369Y024888D01*
X046369Y025212D01*
X046245Y025512D01*
X046015Y025742D01*
X045715Y025866D01*
X045449Y025866D01*
X045449Y026999D01*
X045657Y026999D01*
X045657Y026848D01*
X045717Y026703D01*
X045740Y026680D01*
X045740Y026191D01*
X045788Y026075D01*
X045877Y025986D01*
X045993Y025938D01*
X046749Y025938D01*
X046865Y025986D01*
X046954Y026075D01*
X047002Y026191D01*
X047002Y026999D01*
X047273Y026999D01*
X047390Y027047D01*
X047442Y027099D01*
X047543Y027099D01*
X047559Y027083D01*
X047568Y027060D01*
X047657Y026971D01*
X047774Y026923D01*
X048529Y026923D01*
X048646Y026971D01*
X048735Y027060D01*
X048783Y027176D01*
X048783Y028011D01*
X048752Y028086D01*
X048783Y028160D01*
X048783Y028995D01*
X048735Y029111D01*
X048646Y029200D01*
X048529Y029248D01*
X048213Y029248D01*
X048207Y029251D01*
X047821Y029251D01*
X047814Y029248D01*
X047774Y029248D01*
X047657Y029200D01*
X047568Y029111D01*
X047561Y029094D01*
X047449Y028981D01*
X047315Y028847D01*
X047286Y028819D01*
X047270Y028812D01*
X046833Y028812D01*
X046803Y028800D01*
X046773Y028812D01*
X046333Y028812D01*
X046303Y028800D01*
X046273Y028812D01*
X046029Y028812D01*
X046029Y029559D01*
X047600Y029559D01*
X047746Y029620D01*
X048140Y030013D01*
X048251Y030125D01*
X048311Y030271D01*
X048311Y033971D01*
X048251Y034117D01*
X046737Y035632D01*
X046737Y038696D01*
X046676Y038841D01*
X046283Y039235D01*
X046171Y039347D01*
X046026Y039407D01*
X043112Y039407D01*
X042966Y039347D01*
X042855Y039235D01*
X042573Y038953D01*
X042573Y038953D01*
X042461Y038841D01*
X042401Y038696D01*
X042401Y030467D01*
X042461Y030322D01*
X043052Y029731D01*
X043163Y029620D01*
X043309Y029559D01*
X045077Y029559D01*
X045077Y028812D01*
X044833Y028812D01*
X044803Y028800D01*
X044773Y028812D01*
X044333Y028812D01*
X044216Y028764D01*
X044128Y028675D01*
X044079Y028559D01*
X044079Y027252D01*
X044128Y027136D01*
X044157Y027106D01*
X044157Y026364D01*
X043754Y025961D01*
X043642Y025849D01*
X043582Y025704D01*
X043582Y022670D01*
X042996Y022084D01*
X038650Y022084D01*
X038650Y023558D01*
X038655Y023555D01*
X038852Y023555D01*
X039034Y023631D01*
X039173Y023770D01*
X039249Y023952D01*
X039249Y024149D01*
X039173Y024330D01*
X039150Y024353D01*
X039150Y026999D01*
X039358Y026999D01*
X039358Y026848D01*
X039418Y026703D01*
X039441Y026680D01*
X039441Y026191D01*
X039489Y026075D01*
X039578Y025986D01*
X039694Y025938D01*
X040450Y025938D01*
X040566Y025986D01*
X040655Y026075D01*
X040703Y026191D01*
X040703Y026999D01*
X040974Y026999D01*
X041090Y027047D01*
X041142Y027099D01*
X041244Y027099D01*
X041260Y027083D01*
X041269Y027060D01*
X041358Y026971D01*
X041474Y026923D01*
X042230Y026923D01*
X042346Y026971D01*
X042435Y027060D01*
X042483Y027176D01*
X042483Y028011D01*
X042452Y028086D01*
X042483Y028160D01*
X042483Y028995D01*
X042435Y029111D01*
X042346Y029200D01*
X042230Y029248D01*
X041914Y029248D01*
X041908Y029251D01*
X041718Y029251D01*
X041712Y029248D01*
X041474Y029248D01*
X041358Y029200D01*
X041269Y029111D01*
X041260Y029088D01*
X041151Y028979D01*
X041018Y028846D01*
X040993Y028821D01*
X040971Y028812D01*
X040533Y028812D01*
X040504Y028800D01*
X040474Y028812D01*
X040033Y028812D01*
X040004Y028800D01*
X039974Y028812D01*
X039730Y028812D01*
X039730Y029561D01*
X041301Y029561D01*
X041446Y029621D01*
X041557Y029732D01*
X041951Y030126D01*
X042011Y030271D01*
X042011Y038696D01*
X041951Y038841D01*
X041840Y038952D01*
X041446Y039346D01*
X041301Y039406D01*
X037600Y039406D01*
X037455Y039346D01*
X037344Y039234D01*
X036951Y038841D01*
X036890Y038696D01*
X036890Y034450D01*
X036557Y034116D01*
X036497Y033971D01*
X036497Y030271D01*
X036557Y030126D01*
X036668Y030015D01*
X036951Y029732D01*
X037062Y029621D01*
X037207Y029561D01*
X038778Y029561D01*
X038778Y028812D01*
X038533Y028812D01*
X038504Y028800D01*
X038474Y028812D01*
X038033Y028812D01*
X037917Y028764D01*
X037828Y028675D01*
X037780Y028559D01*
X037780Y027252D01*
X037828Y027136D01*
X037858Y027106D01*
X037858Y022084D01*
X035905Y022084D01*
X035572Y022418D01*
X035426Y022478D01*
X032331Y022478D01*
X031579Y023230D01*
X031579Y023595D01*
X031675Y023555D01*
X031872Y023555D01*
X032054Y023631D01*
X032193Y023770D01*
X032268Y023952D01*
X032268Y024149D01*
X032198Y024317D01*
X032399Y024234D01*
X032723Y024234D01*
X033023Y024358D01*
X033253Y024588D01*
X033377Y024888D01*
X033377Y025212D01*
X033253Y025512D01*
X033023Y025742D01*
X032723Y025866D01*
X032575Y025866D01*
X032791Y026082D01*
X032851Y026227D01*
X032851Y026999D01*
X033058Y026999D01*
X033058Y026848D01*
X033119Y026703D01*
X033142Y026680D01*
X033142Y026191D01*
X033190Y026075D01*
X033279Y025986D01*
X033395Y025938D01*
X034151Y025938D01*
X034267Y025986D01*
X034356Y026075D01*
X034404Y026191D01*
X034404Y026999D01*
X034675Y026999D01*
X034791Y027047D01*
X034843Y027099D01*
X034945Y027099D01*
X034960Y027083D01*
X034970Y027060D01*
X035059Y026971D01*
X035175Y026923D01*
X035931Y026923D01*
X036047Y026971D01*
X036136Y027060D01*
X036184Y027176D01*
X036184Y028011D01*
X036153Y028086D01*
X036184Y028160D01*
X036184Y028995D01*
X036136Y029111D01*
X036047Y029200D01*
X035931Y029248D01*
X035175Y029248D01*
X035059Y029200D01*
X034970Y029111D01*
X034960Y029088D01*
X034915Y029043D01*
X034852Y028979D01*
X034694Y028821D01*
X034672Y028812D01*
X034234Y028812D01*
X034205Y028800D01*
X034175Y028812D01*
X033734Y028812D01*
X033705Y028800D01*
X033675Y028812D01*
X033431Y028812D01*
X033431Y029561D01*
X035002Y029561D01*
X035147Y029621D01*
X035258Y029732D01*
X035541Y030015D01*
X035652Y030126D01*
X035712Y030271D01*
X035712Y033729D01*
X036439Y034456D01*
X036499Y034601D01*
X036499Y038696D01*
X036439Y038841D01*
X036328Y038952D01*
X035934Y039346D01*
X035789Y039406D01*
X031695Y039406D01*
X031550Y039346D01*
X031439Y039234D01*
X031045Y038841D01*
X030985Y038696D01*
X030985Y035237D01*
X030258Y034510D01*
X030197Y034365D01*
X030197Y030468D01*
X030258Y030322D01*
X030369Y030211D01*
X030959Y029621D01*
X031104Y029561D01*
X032478Y029561D01*
X032478Y028812D01*
X032234Y028812D01*
X032205Y028800D01*
X032175Y028812D01*
X031734Y028812D01*
X031618Y028764D01*
X031529Y028675D01*
X031481Y028559D01*
X031481Y027252D01*
X031529Y027136D01*
X031558Y027106D01*
X031558Y026758D01*
X030959Y026158D01*
X030847Y026046D01*
X030787Y025901D01*
X030787Y022987D01*
X030847Y022841D01*
X031604Y022084D01*
X028001Y022084D01*
X026052Y024033D01*
X026052Y026062D01*
X026554Y025559D01*
X026554Y024353D01*
X026531Y024330D01*
X026456Y024149D01*
X026456Y023952D01*
X026531Y023770D01*
X026671Y023631D01*
X026852Y023555D01*
X027049Y023555D01*
X027231Y023631D01*
X027370Y023770D01*
X027445Y023952D01*
X027445Y024149D01*
X027370Y024330D01*
X027347Y024353D01*
X027347Y025802D01*
X027291Y025938D01*
X027851Y025938D01*
X027968Y025986D01*
X028057Y026075D01*
X028105Y026191D01*
X028105Y026999D01*
X028376Y026999D01*
X028492Y027047D01*
X028544Y027099D01*
X028646Y027099D01*
X028661Y027083D01*
X028671Y027060D01*
X028760Y026971D01*
X028876Y026923D01*
X029632Y026923D01*
X029748Y026971D01*
X029837Y027060D01*
X029885Y027176D01*
X029885Y028011D01*
X029854Y028086D01*
X029885Y028160D01*
X029885Y028995D01*
X029837Y029111D01*
X029748Y029200D01*
X029632Y029248D01*
X028876Y029248D01*
X028760Y029200D01*
X028671Y029111D01*
X028661Y029088D01*
X028616Y029043D01*
X028552Y028979D01*
X028394Y028821D01*
X028373Y028812D01*
X027935Y028812D01*
X027905Y028800D01*
X027876Y028812D01*
X027435Y028812D01*
X027405Y028800D01*
X027376Y028812D01*
X027132Y028812D01*
X027132Y029559D01*
X028506Y029559D01*
X028652Y029620D01*
X028763Y029731D01*
X029747Y030715D01*
X029808Y030861D01*
X029808Y034516D01*
X030535Y035243D01*
X030595Y035389D01*
X030595Y038696D01*
X030535Y038841D01*
X030423Y038953D01*
X030029Y039347D01*
X029884Y039407D01*
X026183Y039407D01*
X026037Y039347D01*
X025926Y039235D01*
X025532Y038841D01*
X025472Y038696D01*
X025472Y035238D01*
X023957Y033723D01*
X023897Y033578D01*
X023897Y030467D01*
X023957Y030322D01*
X024659Y029620D01*
X024805Y029559D01*
X026179Y029559D01*
X026179Y028812D01*
X025935Y028812D01*
X025905Y028800D01*
X025876Y028812D01*
X025435Y028812D01*
X025319Y028764D01*
X025230Y028675D01*
X025182Y028559D01*
X025182Y027252D01*
X025230Y027136D01*
X025259Y027106D01*
X025259Y023790D01*
X025320Y023645D01*
X026880Y022084D01*
X019536Y022084D01*
X018981Y022639D01*
X018981Y024484D01*
X019106Y024358D01*
X019406Y024234D01*
X019731Y024234D01*
X020031Y024358D01*
X020261Y024588D01*
X020354Y024812D01*
X020354Y024353D01*
X020331Y024330D01*
X020255Y024149D01*
X020255Y023952D01*
X020331Y023770D01*
X020470Y023631D01*
X020652Y023555D01*
X020848Y023555D01*
X021030Y023631D01*
X021169Y023770D01*
X021245Y023952D01*
X021245Y024149D01*
X021169Y024330D01*
X021146Y024353D01*
X021146Y025901D01*
X021131Y025938D01*
X021552Y025938D01*
X021668Y025986D01*
X021757Y026075D01*
X021806Y026191D01*
X021806Y026999D01*
X022077Y026999D01*
X022193Y027047D01*
X022245Y027099D01*
X022346Y027099D01*
X022362Y027083D01*
X022372Y027060D01*
X022461Y026971D01*
X022577Y026923D01*
X023333Y026923D01*
X023449Y026971D01*
X023538Y027060D01*
X023586Y027176D01*
X023586Y028011D01*
X023555Y028086D01*
X023586Y028160D01*
X023586Y028995D01*
X023538Y029111D01*
X023449Y029200D01*
X023333Y029248D01*
X022577Y029248D01*
X022461Y029200D01*
X022372Y029111D01*
X022362Y029088D01*
X022317Y029043D01*
X022095Y028821D01*
X022074Y028812D01*
X021636Y028812D01*
X021606Y028800D01*
X021577Y028812D01*
X021136Y028812D01*
X021106Y028800D01*
X021077Y028812D01*
X020832Y028812D01*
X020832Y029559D01*
X022207Y029559D01*
X022352Y029620D01*
X022464Y029731D01*
X023448Y030715D01*
X023508Y030861D01*
X023508Y033729D01*
X025023Y035243D01*
X025083Y035389D01*
X025083Y038696D01*
X025023Y038841D01*
X024911Y038953D01*
X024518Y039347D01*
X024372Y039407D01*
X018703Y039407D01*
X018557Y039347D01*
X018446Y039235D01*
X018052Y038841D01*
X017991Y038696D01*
X017991Y030074D01*
X018052Y029928D01*
X018360Y029620D01*
X018506Y029559D01*
X019880Y029559D01*
X019880Y028812D01*
X019636Y028812D01*
X019606Y028800D01*
X019577Y028812D01*
X019136Y028812D01*
X019020Y028764D01*
X018931Y028675D01*
X018883Y028559D01*
X018883Y027252D01*
X018931Y027136D01*
X018938Y027129D01*
X018360Y026551D01*
X018249Y026440D01*
X018188Y026294D01*
X018188Y022397D01*
X018249Y022251D01*
X018415Y022084D01*
X018069Y022084D01*
X017818Y022335D01*
X017818Y025537D01*
X017823Y025542D01*
X017898Y025723D01*
X017898Y025920D01*
X017898Y025921D01*
X017898Y026733D01*
X017827Y026904D01*
X017696Y027036D01*
X017609Y027071D01*
X017553Y027128D01*
X016696Y027985D01*
X016696Y028404D01*
X016648Y028521D01*
X016559Y028610D01*
X016443Y028658D01*
X015608Y028658D01*
X015492Y028610D01*
X015403Y028521D01*
X015355Y028404D01*
X015355Y027939D01*
X015334Y027889D01*
X015334Y027692D01*
X015409Y027510D01*
X015548Y027371D01*
X015602Y027349D01*
X016515Y026436D01*
X016515Y025921D01*
X016515Y025920D01*
X016515Y025723D01*
X016590Y025542D01*
X016595Y025537D01*
X016595Y021960D01*
X016688Y021735D01*
X016860Y021563D01*
X017549Y020874D01*
X017549Y020772D01*
X017648Y020534D01*
X017829Y020353D01*
X018067Y020254D01*
X018984Y020254D01*
X019222Y020353D01*
X019403Y020534D01*
X019502Y020772D01*
X019502Y020998D01*
X019541Y020958D01*
X019687Y020898D01*
X024874Y020898D01*
X024874Y020876D01*
X024922Y020760D01*
X025011Y020671D01*
X025127Y020623D01*
X025883Y020623D01*
X025999Y020671D01*
X026065Y020737D01*
X026131Y020671D01*
X026247Y020623D01*
X027003Y020623D01*
X027119Y020671D01*
X027208Y020760D01*
X027211Y020769D01*
X027697Y020282D01*
X027809Y020171D01*
X027955Y020111D01*
X029247Y020111D01*
X029606Y019752D01*
X029606Y018853D01*
X029666Y018708D01*
X030257Y018117D01*
X030368Y018006D01*
X030514Y017945D01*
X032049Y017945D01*
X032195Y018006D01*
X032996Y018807D01*
X033046Y018807D01*
X033272Y018901D01*
X033423Y019052D01*
X033574Y018901D01*
X033801Y018807D01*
X034046Y018807D01*
X034272Y018901D01*
X034423Y019052D01*
X034574Y018901D01*
X034801Y018807D01*
X035046Y018807D01*
X035272Y018901D01*
X035423Y019052D01*
X035527Y018948D01*
X035527Y017853D01*
X035587Y017708D01*
X036114Y017181D01*
X028633Y017181D01*
X028605Y017249D01*
X028516Y017338D01*
X028448Y017366D01*
X028448Y018136D01*
X028516Y018164D01*
X028605Y018253D01*
X028653Y018369D01*
X028653Y019495D01*
X028605Y019611D01*
X028516Y019700D01*
X028399Y019748D01*
X027274Y019748D01*
X027157Y019700D01*
X027068Y019611D01*
X027020Y019495D01*
X027020Y018369D01*
X027068Y018253D01*
X027157Y018164D01*
X027225Y018136D01*
X027225Y017366D01*
X027157Y017338D01*
X027068Y017249D01*
X027040Y017181D01*
X026534Y017181D01*
X026309Y017088D01*
X025620Y016399D01*
X025614Y016405D01*
X025498Y016453D01*
X024663Y016453D01*
X024547Y016405D01*
X024458Y016316D01*
X024410Y016200D01*
X024410Y015444D01*
X024458Y015328D01*
X024503Y015283D01*
X023410Y014189D01*
X023410Y014306D01*
X023335Y014488D01*
X023195Y014627D01*
X023014Y014702D01*
X022950Y014702D01*
X020465Y017188D01*
X020353Y017299D01*
X020207Y017360D01*
X019846Y017360D01*
X019846Y018168D01*
X019810Y018253D01*
X019837Y018317D01*
X019837Y019153D01*
X019789Y019269D01*
X019700Y019358D01*
X019584Y019406D01*
X018828Y019406D01*
X018712Y019358D01*
X018623Y019269D01*
X018575Y019153D01*
X018575Y018422D01*
X017979Y018422D01*
X017863Y018374D01*
X017797Y018308D01*
X017731Y018374D01*
X017615Y018422D01*
X017127Y018422D01*
X016392Y019156D01*
X016392Y019156D01*
X016281Y019268D01*
X016135Y019328D01*
X012905Y019328D01*
X012905Y019495D01*
X012857Y019611D01*
X012768Y019700D01*
X012651Y019748D01*
X011526Y019748D01*
X011409Y019700D01*
X011320Y019611D01*
X011272Y019495D01*
X011272Y019386D01*
X010978Y019386D01*
X010931Y019406D01*
X010096Y019406D01*
X010049Y019386D01*
X009016Y019386D01*
X008791Y019293D01*
X008650Y019152D01*
X008564Y019152D01*
X008352Y019064D01*
X008281Y018992D01*
X007829Y018992D01*
X007781Y019012D01*
X006947Y019012D01*
X006831Y018964D01*
X006742Y018875D01*
X006694Y018759D01*
X006694Y018520D01*
X005953Y017780D01*
X005840Y017780D01*
X005540Y017655D01*
X005310Y017426D01*
X005186Y017126D01*
X005186Y016801D01*
X005310Y016501D01*
X005540Y016272D01*
X005840Y016147D01*
X006164Y016147D01*
X006464Y016272D01*
X006694Y016501D01*
X006818Y016801D01*
X006818Y016915D01*
X007653Y017750D01*
X007781Y017750D01*
X007829Y017769D01*
X008327Y017769D01*
X008327Y017204D01*
X008363Y017119D01*
X008363Y016951D01*
X008450Y016739D01*
X008612Y016577D01*
X008824Y016490D01*
X009054Y016490D01*
X009265Y016577D01*
X009427Y016739D01*
X009867Y016739D01*
X009867Y016643D02*
X009966Y016405D01*
X010148Y016223D01*
X010385Y016125D01*
X010642Y016125D01*
X010880Y016223D01*
X011062Y016405D01*
X011160Y016643D01*
X011160Y017560D01*
X011125Y017644D01*
X011125Y018163D01*
X011412Y018163D01*
X011477Y018136D01*
X011477Y017366D01*
X011409Y017338D01*
X011320Y017249D01*
X011272Y017133D01*
X011272Y016007D01*
X011320Y015891D01*
X011409Y015802D01*
X011526Y015754D01*
X012651Y015754D01*
X012768Y015802D01*
X012857Y015891D01*
X012905Y016007D01*
X012905Y017133D01*
X012857Y017249D01*
X012768Y017338D01*
X012700Y017366D01*
X012700Y018136D01*
X012768Y018164D01*
X012857Y018253D01*
X012905Y018369D01*
X012905Y018536D01*
X015892Y018536D01*
X016606Y017822D01*
X016606Y017333D01*
X016654Y017217D01*
X016743Y017128D01*
X016859Y017080D01*
X017615Y017080D01*
X017731Y017128D01*
X017797Y017194D01*
X017863Y017128D01*
X017979Y017080D01*
X018735Y017080D01*
X018786Y017101D01*
X018837Y017080D01*
X018892Y017080D01*
X018990Y016982D01*
X019344Y016628D01*
X019490Y016567D01*
X019965Y016567D01*
X022421Y014111D01*
X022421Y014109D01*
X022496Y013927D01*
X022635Y013788D01*
X022817Y013713D01*
X022934Y013713D01*
X020685Y011464D01*
X020513Y011292D01*
X020420Y011067D01*
X020420Y009893D01*
X020350Y009724D01*
X020350Y009467D01*
X020448Y009229D01*
X020630Y009048D01*
X020867Y008949D01*
X021125Y008949D01*
X021362Y009048D01*
X021544Y009229D01*
X021642Y009467D01*
X021642Y009472D01*
X021643Y009474D01*
X021643Y010693D01*
X023687Y012736D01*
X023816Y012607D01*
X023998Y012532D01*
X024195Y012532D01*
X024377Y012607D01*
X024516Y012746D01*
X024591Y012928D01*
X024591Y012961D01*
X026426Y014796D01*
X030625Y014796D01*
X031288Y014132D01*
X031279Y014109D01*
X031279Y013912D01*
X031319Y013816D01*
X026183Y013816D01*
X026037Y013756D01*
X025926Y013645D01*
X024358Y012077D01*
X024298Y011932D01*
X024298Y008014D01*
X024214Y007979D01*
X023975Y007741D01*
X023914Y007595D01*
X023854Y007741D01*
X023615Y007979D01*
X023303Y008109D01*
X022966Y008109D01*
X022654Y007979D01*
X022415Y007741D01*
X022286Y007429D01*
X022286Y006026D01*
X022415Y005714D01*
X022654Y005475D01*
X022966Y005346D01*
X023229Y005346D01*
X023337Y005239D01*
X009419Y005239D01*
X009419Y010501D01*
X010006Y009913D01*
X009969Y009823D01*
X009969Y008281D01*
X010107Y007948D01*
X010362Y007693D01*
X010696Y007555D01*
X011056Y007555D01*
X011390Y007693D01*
X011414Y007718D01*
X012358Y006775D01*
X012530Y006603D01*
X012754Y006510D01*
X017801Y006510D01*
X018025Y006603D01*
X018191Y006768D01*
X018221Y006768D01*
X018495Y006882D01*
X018705Y007092D01*
X018819Y007366D01*
X018819Y007663D01*
X018705Y007937D01*
X018684Y007959D01*
X018684Y009238D01*
X018724Y009254D01*
X018813Y009343D01*
X018861Y009460D01*
X018861Y010294D01*
X018813Y010410D01*
X018724Y010499D01*
X018608Y010547D01*
X017852Y010547D01*
X017736Y010499D01*
X017647Y010410D01*
X017599Y010294D01*
X017599Y010111D01*
X017554Y010066D01*
X017461Y009841D01*
X017461Y007959D01*
X017440Y007937D01*
X017355Y007732D01*
X013129Y007732D01*
X011783Y009079D01*
X011783Y009823D01*
X011645Y010156D01*
X011390Y010411D01*
X011130Y010519D01*
X008976Y012673D01*
X008976Y012877D01*
X009056Y012958D01*
X009180Y013258D01*
X009180Y013583D01*
X009056Y013883D01*
X008826Y014112D01*
X008526Y014236D01*
X008202Y014236D01*
X007902Y014112D01*
X007672Y013883D01*
X007548Y013583D01*
X007548Y013258D01*
X007672Y012958D01*
X007753Y012877D01*
X007753Y012299D01*
X007846Y012074D01*
X008018Y011902D01*
X008775Y011144D01*
X004417Y011144D01*
X004643Y011205D01*
X004896Y011351D01*
X005103Y011558D01*
X005249Y011811D01*
X005324Y012093D01*
X005324Y012385D01*
X005249Y012668D01*
X005103Y012921D01*
X004896Y013127D01*
X004643Y013273D01*
X004361Y013349D01*
X004068Y013349D01*
X003786Y013273D01*
X003533Y013127D01*
X003513Y013108D01*
X003513Y028861D01*
X003821Y029168D01*
X004220Y029168D01*
X004114Y029062D01*
X003968Y028809D01*
X003892Y028527D01*
X003892Y028235D01*
X003968Y027952D01*
X004114Y027699D01*
X004320Y027493D01*
X004573Y027347D01*
X004856Y027271D01*
X005148Y027271D01*
X005430Y027347D01*
X005683Y027493D01*
X005890Y027699D01*
X006036Y027952D01*
X006112Y028235D01*
X006112Y028527D01*
X006036Y028809D01*
X005890Y029062D01*
X005784Y029168D01*
X013663Y029168D01*
X014844Y030349D01*
X014844Y033235D01*
X014905Y033260D01*
X014994Y033349D01*
X015043Y033466D01*
X015043Y033500D01*
X015228Y033686D01*
X015656Y033686D01*
X015680Y033696D01*
X015682Y033696D01*
X015706Y033686D01*
X016542Y033686D01*
X016658Y033734D01*
X016747Y033823D01*
X016795Y033939D01*
X016795Y034072D01*
X016813Y034090D01*
X016813Y037042D01*
X016511Y037344D02*
X017991Y037344D01*
X017991Y037502D02*
X015368Y037502D01*
X015238Y037661D02*
X017991Y037661D01*
X017991Y037819D02*
X015238Y037819D01*
X015238Y037978D02*
X017991Y037978D01*
X017991Y038136D02*
X015348Y038136D01*
X015075Y038453D02*
X011880Y038453D01*
X011880Y038437D02*
X011880Y038797D01*
X011786Y039144D01*
X011607Y039456D01*
X011352Y039710D01*
X011349Y039712D01*
X016813Y039712D01*
X016813Y038814D01*
X016616Y038617D01*
X016575Y038617D01*
X016589Y038645D01*
X016613Y038717D01*
X016624Y038792D01*
X016624Y038810D01*
X015864Y038810D01*
X015864Y038850D01*
X015824Y038850D01*
X015824Y038810D01*
X015064Y038810D01*
X015064Y038792D01*
X015076Y038717D01*
X015100Y038645D01*
X015134Y038578D01*
X015161Y038540D01*
X012977Y036356D01*
X012977Y036361D01*
X012482Y036361D01*
X011987Y036361D01*
X011987Y036156D01*
X012085Y036058D01*
X010140Y036058D01*
X010140Y036094D01*
X010100Y036094D01*
X010100Y036554D01*
X009921Y036554D01*
X009640Y036273D01*
X009640Y036094D01*
X010100Y036094D01*
X010100Y036058D01*
X009529Y036058D01*
X009419Y036169D01*
X009419Y037782D01*
X009421Y037778D01*
X009675Y037524D01*
X009987Y037344D01*
X010334Y037251D01*
X010694Y037251D01*
X011041Y037344D01*
X011352Y037524D01*
X011607Y037778D01*
X011786Y038090D01*
X011880Y038437D01*
X011841Y038295D02*
X014916Y038295D01*
X014758Y038136D02*
X011799Y038136D01*
X011722Y037978D02*
X014599Y037978D01*
X014441Y037819D02*
X011630Y037819D01*
X011489Y037661D02*
X014282Y037661D01*
X014124Y037502D02*
X011315Y037502D01*
X011040Y037344D02*
X013965Y037344D01*
X013807Y037185D02*
X009419Y037185D01*
X009419Y037027D02*
X013648Y037027D01*
X013490Y036868D02*
X009419Y036868D01*
X009419Y036710D02*
X012131Y036710D01*
X011987Y036566D02*
X011987Y036361D01*
X012482Y036361D01*
X012482Y036361D01*
X012482Y036856D01*
X012277Y036856D01*
X011987Y036566D01*
X011987Y036551D02*
X010321Y036551D01*
X010319Y036554D02*
X010600Y036273D01*
X010600Y036094D01*
X010140Y036094D01*
X010140Y036554D01*
X010319Y036554D01*
X010140Y036551D02*
X010100Y036551D01*
X010100Y036393D02*
X010140Y036393D01*
X010140Y036234D02*
X010100Y036234D01*
X010100Y036076D02*
X009511Y036076D01*
X009419Y036234D02*
X009640Y036234D01*
X009760Y036393D02*
X009419Y036393D01*
X009419Y036551D02*
X009919Y036551D01*
X010480Y036393D02*
X011987Y036393D01*
X011987Y036234D02*
X010600Y036234D01*
X010140Y036076D02*
X012067Y036076D01*
X012482Y036361D02*
X012482Y036361D01*
X012482Y036361D01*
X012482Y036856D01*
X012687Y036856D01*
X012977Y036566D01*
X012977Y036361D01*
X012482Y036361D01*
X012482Y036393D02*
X012482Y036393D01*
X012482Y036551D02*
X012482Y036551D01*
X012482Y036710D02*
X012482Y036710D01*
X012833Y036710D02*
X013331Y036710D01*
X013173Y036551D02*
X012977Y036551D01*
X012977Y036393D02*
X013014Y036393D01*
X012966Y035361D02*
X014435Y036830D01*
X015844Y036830D01*
X016885Y038295D02*
X017991Y038295D01*
X017991Y038453D02*
X017043Y038453D01*
X017202Y038612D02*
X017991Y038612D01*
X018022Y038770D02*
X017209Y038770D01*
X017209Y038929D02*
X018139Y038929D01*
X018298Y039087D02*
X017209Y039087D01*
X017209Y039246D02*
X018456Y039246D01*
X018697Y039404D02*
X017209Y039404D01*
X017209Y039563D02*
X051372Y039563D01*
X051372Y039404D02*
X051150Y039404D01*
X051065Y039011D02*
X051372Y038703D01*
X051372Y034191D01*
X051445Y034014D01*
X051580Y033879D01*
X051757Y033806D01*
X054891Y033806D01*
X055002Y033696D01*
X055002Y030152D01*
X054805Y029956D01*
X049687Y029956D01*
X049096Y030546D01*
X049096Y034286D01*
X047522Y035861D01*
X047522Y038617D01*
X047915Y039011D01*
X051065Y039011D01*
X051147Y038929D02*
X047833Y038929D01*
X047675Y038770D02*
X051305Y038770D01*
X051372Y038612D02*
X047522Y038612D01*
X047522Y038453D02*
X051372Y038453D01*
X051372Y038295D02*
X047522Y038295D01*
X047522Y038136D02*
X051372Y038136D01*
X051372Y037978D02*
X047522Y037978D01*
X047522Y037819D02*
X051372Y037819D01*
X051372Y037661D02*
X047522Y037661D01*
X047522Y037502D02*
X051372Y037502D01*
X051372Y037344D02*
X047522Y037344D01*
X047522Y037185D02*
X051372Y037185D01*
X051372Y037027D02*
X047522Y037027D01*
X047522Y036868D02*
X051372Y036868D01*
X051372Y036710D02*
X047522Y036710D01*
X047522Y036551D02*
X051372Y036551D01*
X051372Y036393D02*
X047522Y036393D01*
X047522Y036234D02*
X051372Y036234D01*
X051372Y036076D02*
X047522Y036076D01*
X047522Y035917D02*
X051372Y035917D01*
X051372Y035759D02*
X047624Y035759D01*
X047782Y035600D02*
X051372Y035600D01*
X051372Y035442D02*
X047941Y035442D01*
X048099Y035283D02*
X051372Y035283D01*
X051372Y035125D02*
X048258Y035125D01*
X048416Y034966D02*
X051372Y034966D01*
X051372Y034808D02*
X048575Y034808D01*
X048733Y034649D02*
X051372Y034649D01*
X051372Y034491D02*
X048892Y034491D01*
X049050Y034332D02*
X051372Y034332D01*
X051379Y034174D02*
X049096Y034174D01*
X049096Y034015D02*
X051445Y034015D01*
X051635Y033857D02*
X049096Y033857D01*
X049096Y033698D02*
X054999Y033698D01*
X055002Y033540D02*
X049096Y033540D01*
X049096Y033381D02*
X055002Y033381D01*
X055002Y033223D02*
X049096Y033223D01*
X049096Y033064D02*
X055002Y033064D01*
X055002Y032906D02*
X049096Y032906D01*
X049096Y032747D02*
X055002Y032747D01*
X055002Y032589D02*
X049096Y032589D01*
X049096Y032430D02*
X055002Y032430D01*
X055002Y032272D02*
X049096Y032272D01*
X049096Y032113D02*
X055002Y032113D01*
X055002Y031955D02*
X049096Y031955D01*
X049096Y031796D02*
X055002Y031796D01*
X055002Y031638D02*
X049096Y031638D01*
X049096Y031479D02*
X055002Y031479D01*
X055002Y031321D02*
X049096Y031321D01*
X049096Y031162D02*
X055002Y031162D01*
X055002Y031004D02*
X049096Y031004D01*
X049096Y030845D02*
X055002Y030845D01*
X055002Y030687D02*
X049096Y030687D01*
X049114Y030528D02*
X055002Y030528D01*
X055002Y030370D02*
X049273Y030370D01*
X049431Y030211D02*
X055002Y030211D01*
X054902Y030053D02*
X049590Y030053D01*
X049346Y029736D02*
X047862Y029736D01*
X048021Y029894D02*
X049188Y029894D01*
X049029Y030053D02*
X048179Y030053D01*
X048287Y030211D02*
X048871Y030211D01*
X048872Y030210D02*
X048872Y030210D01*
X048741Y030370D02*
X048311Y030370D01*
X048311Y030528D02*
X048700Y030528D01*
X048700Y030687D02*
X048311Y030687D01*
X048311Y030845D02*
X048700Y030845D01*
X048700Y031004D02*
X048311Y031004D01*
X048311Y031162D02*
X048700Y031162D01*
X048700Y031321D02*
X048311Y031321D01*
X048311Y031479D02*
X048700Y031479D01*
X048700Y031638D02*
X048311Y031638D01*
X048311Y031796D02*
X048700Y031796D01*
X048700Y031955D02*
X048311Y031955D01*
X048311Y032113D02*
X048700Y032113D01*
X048700Y032272D02*
X048311Y032272D01*
X048311Y032430D02*
X048700Y032430D01*
X048700Y032589D02*
X048311Y032589D01*
X048311Y032747D02*
X048700Y032747D01*
X048700Y032906D02*
X048311Y032906D01*
X048311Y033064D02*
X048700Y033064D01*
X048700Y033223D02*
X048311Y033223D01*
X048311Y033381D02*
X048700Y033381D01*
X048700Y033540D02*
X048311Y033540D01*
X048311Y033698D02*
X048700Y033698D01*
X048700Y033857D02*
X048311Y033857D01*
X048293Y034015D02*
X048700Y034015D01*
X048648Y034174D02*
X048194Y034174D01*
X048036Y034332D02*
X048490Y034332D01*
X048331Y034491D02*
X047877Y034491D01*
X047719Y034649D02*
X048173Y034649D01*
X048014Y034808D02*
X047560Y034808D01*
X047402Y034966D02*
X047856Y034966D01*
X047697Y035125D02*
X047243Y035125D01*
X047085Y035283D02*
X047539Y035283D01*
X047380Y035442D02*
X046926Y035442D01*
X046768Y035600D02*
X047222Y035600D01*
X047135Y035759D02*
X046737Y035759D01*
X046737Y035917D02*
X047125Y035917D01*
X047125Y036076D02*
X046737Y036076D01*
X046737Y036234D02*
X047125Y036234D01*
X047125Y036393D02*
X046737Y036393D01*
X046737Y036551D02*
X047125Y036551D01*
X047125Y036710D02*
X046737Y036710D01*
X046737Y036868D02*
X047125Y036868D01*
X047125Y037027D02*
X046737Y037027D01*
X046737Y037185D02*
X047125Y037185D01*
X047125Y037344D02*
X046737Y037344D01*
X046737Y037502D02*
X047125Y037502D01*
X047125Y037661D02*
X046737Y037661D01*
X046737Y037819D02*
X047125Y037819D01*
X047125Y037978D02*
X046737Y037978D01*
X046737Y038136D02*
X047125Y038136D01*
X047125Y038295D02*
X046737Y038295D01*
X046737Y038453D02*
X047125Y038453D01*
X047125Y038612D02*
X046737Y038612D01*
X046706Y038770D02*
X047156Y038770D01*
X047273Y038929D02*
X046589Y038929D01*
X046430Y039087D02*
X047432Y039087D01*
X047590Y039246D02*
X046272Y039246D01*
X046032Y039404D02*
X047830Y039404D01*
X046340Y038617D02*
X046340Y035467D01*
X047915Y033893D01*
X047915Y030349D01*
X047522Y029956D01*
X043388Y029956D01*
X042797Y030546D01*
X042797Y038617D01*
X043191Y039011D01*
X045947Y039011D01*
X046340Y038617D01*
X046340Y038612D02*
X042797Y038612D01*
X042797Y038453D02*
X046340Y038453D01*
X046340Y038295D02*
X042797Y038295D01*
X042797Y038136D02*
X046340Y038136D01*
X046340Y037978D02*
X042797Y037978D01*
X042797Y037819D02*
X046340Y037819D01*
X046340Y037661D02*
X042797Y037661D01*
X042797Y037502D02*
X046340Y037502D01*
X046340Y037344D02*
X042797Y037344D01*
X042797Y037185D02*
X046340Y037185D01*
X046340Y037027D02*
X042797Y037027D01*
X042797Y036868D02*
X046340Y036868D01*
X046340Y036710D02*
X042797Y036710D01*
X042797Y036551D02*
X046340Y036551D01*
X046340Y036393D02*
X042797Y036393D01*
X042797Y036234D02*
X046340Y036234D01*
X046340Y036076D02*
X042797Y036076D01*
X042797Y035917D02*
X046340Y035917D01*
X046340Y035759D02*
X042797Y035759D01*
X042797Y035600D02*
X046340Y035600D01*
X046366Y035442D02*
X042797Y035442D01*
X042797Y035283D02*
X046524Y035283D01*
X046683Y035125D02*
X042797Y035125D01*
X042797Y034966D02*
X046841Y034966D01*
X047000Y034808D02*
X042797Y034808D01*
X042797Y034649D02*
X047158Y034649D01*
X047317Y034491D02*
X042797Y034491D01*
X042797Y034332D02*
X047475Y034332D01*
X047634Y034174D02*
X042797Y034174D01*
X042797Y034015D02*
X047792Y034015D01*
X047915Y033857D02*
X042797Y033857D01*
X042797Y033698D02*
X047915Y033698D01*
X047915Y033540D02*
X042797Y033540D01*
X042797Y033381D02*
X047915Y033381D01*
X047915Y033223D02*
X042797Y033223D01*
X042797Y033064D02*
X047915Y033064D01*
X047915Y032906D02*
X042797Y032906D01*
X042797Y032747D02*
X047915Y032747D01*
X047915Y032589D02*
X042797Y032589D01*
X042797Y032430D02*
X047915Y032430D01*
X047915Y032272D02*
X042797Y032272D01*
X042797Y032113D02*
X047915Y032113D01*
X047915Y031955D02*
X042797Y031955D01*
X042797Y031796D02*
X047915Y031796D01*
X047915Y031638D02*
X042797Y031638D01*
X042797Y031479D02*
X047915Y031479D01*
X047915Y031321D02*
X042797Y031321D01*
X042797Y031162D02*
X047915Y031162D01*
X047915Y031004D02*
X042797Y031004D01*
X042797Y030845D02*
X047915Y030845D01*
X047915Y030687D02*
X042797Y030687D01*
X042815Y030528D02*
X047915Y030528D01*
X047915Y030370D02*
X042973Y030370D01*
X043132Y030211D02*
X047777Y030211D01*
X047619Y030053D02*
X043290Y030053D01*
X043047Y029736D02*
X041561Y029736D01*
X041720Y029894D02*
X042889Y029894D01*
X042730Y030053D02*
X041878Y030053D01*
X041986Y030211D02*
X042572Y030211D01*
X042441Y030370D02*
X042011Y030370D01*
X042011Y030528D02*
X042401Y030528D01*
X042401Y030687D02*
X042011Y030687D01*
X042011Y030845D02*
X042401Y030845D01*
X042401Y031004D02*
X042011Y031004D01*
X042011Y031162D02*
X042401Y031162D01*
X042401Y031321D02*
X042011Y031321D01*
X042011Y031479D02*
X042401Y031479D01*
X042401Y031638D02*
X042011Y031638D01*
X042011Y031796D02*
X042401Y031796D01*
X042401Y031955D02*
X042011Y031955D01*
X042011Y032113D02*
X042401Y032113D01*
X042401Y032272D02*
X042011Y032272D01*
X042011Y032430D02*
X042401Y032430D01*
X042401Y032589D02*
X042011Y032589D01*
X042011Y032747D02*
X042401Y032747D01*
X042401Y032906D02*
X042011Y032906D01*
X042011Y033064D02*
X042401Y033064D01*
X042401Y033223D02*
X042011Y033223D01*
X042011Y033381D02*
X042401Y033381D01*
X042401Y033540D02*
X042011Y033540D01*
X042011Y033698D02*
X042401Y033698D01*
X042401Y033857D02*
X042011Y033857D01*
X042011Y034015D02*
X042401Y034015D01*
X042401Y034174D02*
X042011Y034174D01*
X042011Y034332D02*
X042401Y034332D01*
X042401Y034491D02*
X042011Y034491D01*
X042011Y034649D02*
X042401Y034649D01*
X042401Y034808D02*
X042011Y034808D01*
X042011Y034966D02*
X042401Y034966D01*
X042401Y035125D02*
X042011Y035125D01*
X042011Y035283D02*
X042401Y035283D01*
X042401Y035442D02*
X042011Y035442D01*
X042011Y035600D02*
X042401Y035600D01*
X042401Y035759D02*
X042011Y035759D01*
X042011Y035917D02*
X042401Y035917D01*
X042401Y036076D02*
X042011Y036076D01*
X042011Y036234D02*
X042401Y036234D01*
X042401Y036393D02*
X042011Y036393D01*
X042011Y036551D02*
X042401Y036551D01*
X042401Y036710D02*
X042011Y036710D01*
X042011Y036868D02*
X042401Y036868D01*
X042401Y037027D02*
X042011Y037027D01*
X042011Y037185D02*
X042401Y037185D01*
X042401Y037344D02*
X042011Y037344D01*
X042011Y037502D02*
X042401Y037502D01*
X042401Y037661D02*
X042011Y037661D01*
X042011Y037819D02*
X042401Y037819D01*
X042401Y037978D02*
X042011Y037978D01*
X042011Y038136D02*
X042401Y038136D01*
X042401Y038295D02*
X042011Y038295D01*
X042011Y038453D02*
X042401Y038453D01*
X042401Y038612D02*
X042011Y038612D01*
X041980Y038770D02*
X042432Y038770D01*
X042549Y038929D02*
X041863Y038929D01*
X041704Y039087D02*
X042707Y039087D01*
X042855Y039235D02*
X042855Y039235D01*
X042866Y039246D02*
X041546Y039246D01*
X041304Y039404D02*
X043106Y039404D01*
X043109Y038929D02*
X046029Y038929D01*
X046187Y038770D02*
X042951Y038770D01*
X037597Y039404D02*
X035792Y039404D01*
X036034Y039246D02*
X037356Y039246D01*
X037197Y039087D02*
X036192Y039087D01*
X036351Y038929D02*
X037039Y038929D01*
X036921Y038770D02*
X036468Y038770D01*
X036499Y038612D02*
X036890Y038612D01*
X036890Y038453D02*
X036499Y038453D01*
X036499Y038295D02*
X036890Y038295D01*
X036890Y038136D02*
X036499Y038136D01*
X036499Y037978D02*
X036890Y037978D01*
X036890Y037819D02*
X036499Y037819D01*
X036499Y037661D02*
X036890Y037661D01*
X036890Y037502D02*
X036499Y037502D01*
X036499Y037344D02*
X036890Y037344D01*
X036890Y037185D02*
X036499Y037185D01*
X036499Y037027D02*
X036890Y037027D01*
X036890Y036868D02*
X036499Y036868D01*
X036499Y036710D02*
X036890Y036710D01*
X036890Y036551D02*
X036499Y036551D01*
X036499Y036393D02*
X036890Y036393D01*
X036890Y036234D02*
X036499Y036234D01*
X036499Y036076D02*
X036890Y036076D01*
X036890Y035917D02*
X036499Y035917D01*
X036499Y035759D02*
X036890Y035759D01*
X036890Y035600D02*
X036499Y035600D01*
X036499Y035442D02*
X036890Y035442D01*
X036890Y035283D02*
X036499Y035283D01*
X036499Y035125D02*
X036890Y035125D01*
X036890Y034966D02*
X036499Y034966D01*
X036499Y034808D02*
X036890Y034808D01*
X036890Y034649D02*
X036499Y034649D01*
X036453Y034491D02*
X036890Y034491D01*
X036773Y034332D02*
X036315Y034332D01*
X036157Y034174D02*
X036614Y034174D01*
X036515Y034015D02*
X035998Y034015D01*
X035840Y033857D02*
X036497Y033857D01*
X036497Y033698D02*
X035712Y033698D01*
X035712Y033540D02*
X036497Y033540D01*
X036497Y033381D02*
X035712Y033381D01*
X035712Y033223D02*
X036497Y033223D01*
X036497Y033064D02*
X035712Y033064D01*
X035712Y032906D02*
X036497Y032906D01*
X036497Y032747D02*
X035712Y032747D01*
X035712Y032589D02*
X036497Y032589D01*
X036497Y032430D02*
X035712Y032430D01*
X035712Y032272D02*
X036497Y032272D01*
X036497Y032113D02*
X035712Y032113D01*
X035712Y031955D02*
X036497Y031955D01*
X036497Y031796D02*
X035712Y031796D01*
X035712Y031638D02*
X036497Y031638D01*
X036497Y031479D02*
X035712Y031479D01*
X035712Y031321D02*
X036497Y031321D01*
X036497Y031162D02*
X035712Y031162D01*
X035712Y031004D02*
X036497Y031004D01*
X036497Y030845D02*
X035712Y030845D01*
X035712Y030687D02*
X036497Y030687D01*
X036497Y030528D02*
X035712Y030528D01*
X035712Y030370D02*
X036497Y030370D01*
X036521Y030211D02*
X035687Y030211D01*
X035579Y030053D02*
X036629Y030053D01*
X036788Y029894D02*
X035421Y029894D01*
X035541Y030015D02*
X035541Y030015D01*
X035262Y029736D02*
X036946Y029736D01*
X036951Y029732D02*
X036951Y029732D01*
X037166Y029577D02*
X035042Y029577D01*
X035258Y029732D02*
X035258Y029732D01*
X034966Y029102D02*
X033431Y029102D01*
X033431Y029260D02*
X038778Y029260D01*
X038778Y029102D02*
X036140Y029102D01*
X036184Y028943D02*
X038778Y028943D01*
X038778Y029419D02*
X033431Y029419D01*
X033431Y028943D02*
X034816Y028943D01*
X034852Y028979D02*
X034852Y028979D01*
X036184Y028785D02*
X037968Y028785D01*
X037808Y028626D02*
X036184Y028626D01*
X036184Y028468D02*
X037780Y028468D01*
X037780Y028309D02*
X036184Y028309D01*
X036180Y028151D02*
X037780Y028151D01*
X037780Y027992D02*
X036184Y027992D01*
X036184Y027834D02*
X037780Y027834D01*
X037780Y027675D02*
X036184Y027675D01*
X036184Y027517D02*
X037780Y027517D01*
X037780Y027358D02*
X036184Y027358D01*
X036184Y027200D02*
X037802Y027200D01*
X037858Y027041D02*
X036118Y027041D01*
X034989Y027041D02*
X034778Y027041D01*
X034404Y026883D02*
X037858Y026883D01*
X037858Y026724D02*
X034404Y026724D01*
X034404Y026566D02*
X037858Y026566D01*
X037858Y026407D02*
X034404Y026407D01*
X034404Y026249D02*
X037858Y026249D01*
X037858Y026090D02*
X034362Y026090D01*
X033773Y026609D02*
X033455Y026927D01*
X033455Y027905D01*
X032455Y027905D02*
X032455Y026306D01*
X031774Y025625D01*
X031774Y024050D01*
X032235Y023871D02*
X037858Y023871D01*
X037858Y023713D02*
X032136Y023713D01*
X032268Y024030D02*
X037858Y024030D01*
X037858Y024188D02*
X032252Y024188D01*
X032996Y024347D02*
X036456Y024347D01*
X036429Y024358D02*
X036729Y024234D01*
X037054Y024234D01*
X037354Y024358D01*
X037584Y024588D01*
X037708Y024888D01*
X037708Y025212D01*
X037584Y025512D01*
X037354Y025742D01*
X037054Y025866D01*
X036729Y025866D01*
X036429Y025742D01*
X036200Y025512D01*
X036075Y025212D01*
X036075Y024888D01*
X036200Y024588D01*
X036429Y024358D01*
X036282Y024505D02*
X033171Y024505D01*
X033284Y024664D02*
X036168Y024664D01*
X036102Y024822D02*
X033350Y024822D01*
X033377Y024981D02*
X036075Y024981D01*
X036075Y025139D02*
X033377Y025139D01*
X033342Y025298D02*
X036111Y025298D01*
X036176Y025456D02*
X033276Y025456D01*
X033150Y025615D02*
X036302Y025615D01*
X036505Y025773D02*
X032948Y025773D01*
X032641Y025932D02*
X037858Y025932D01*
X037858Y025773D02*
X037278Y025773D01*
X037481Y025615D02*
X037858Y025615D01*
X037858Y025456D02*
X037607Y025456D01*
X037672Y025298D02*
X037858Y025298D01*
X037858Y025139D02*
X037708Y025139D01*
X037708Y024981D02*
X037858Y024981D01*
X037858Y024822D02*
X037681Y024822D01*
X037615Y024664D02*
X037858Y024664D01*
X037858Y024505D02*
X037501Y024505D01*
X037327Y024347D02*
X037858Y024347D01*
X038754Y024050D02*
X038754Y027905D01*
X038254Y027905D02*
X038254Y021704D01*
X038466Y021491D01*
X038466Y021325D01*
X038650Y022128D02*
X043040Y022128D01*
X043198Y022286D02*
X038650Y022286D01*
X038650Y022445D02*
X043357Y022445D01*
X043515Y022603D02*
X038650Y022603D01*
X038650Y022762D02*
X043582Y022762D01*
X043582Y022920D02*
X038650Y022920D01*
X038650Y023079D02*
X043582Y023079D01*
X043582Y023237D02*
X038650Y023237D01*
X038650Y023396D02*
X043582Y023396D01*
X043582Y023554D02*
X038650Y023554D01*
X039116Y023713D02*
X043582Y023713D01*
X043582Y023871D02*
X039215Y023871D01*
X039249Y024030D02*
X043582Y024030D01*
X043582Y024188D02*
X039232Y024188D01*
X039157Y024347D02*
X040787Y024347D01*
X040760Y024358D02*
X041060Y024234D01*
X041385Y024234D01*
X041685Y024358D01*
X041914Y024588D01*
X042039Y024888D01*
X042039Y025212D01*
X041914Y025512D01*
X041685Y025742D01*
X041385Y025866D01*
X041060Y025866D01*
X040760Y025742D01*
X040530Y025512D01*
X040406Y025212D01*
X040406Y024888D01*
X040530Y024588D01*
X040760Y024358D01*
X040613Y024505D02*
X039150Y024505D01*
X039150Y024664D02*
X040499Y024664D01*
X040433Y024822D02*
X039150Y024822D01*
X039150Y024981D02*
X040406Y024981D01*
X040406Y025139D02*
X039150Y025139D01*
X039150Y025298D02*
X040442Y025298D01*
X040507Y025456D02*
X039150Y025456D01*
X039150Y025615D02*
X040633Y025615D01*
X040836Y025773D02*
X039150Y025773D01*
X039150Y025932D02*
X043725Y025932D01*
X043611Y025773D02*
X041609Y025773D01*
X041812Y025615D02*
X043582Y025615D01*
X043582Y025456D02*
X041938Y025456D01*
X042003Y025298D02*
X043582Y025298D01*
X043582Y025139D02*
X042039Y025139D01*
X042039Y024981D02*
X043582Y024981D01*
X043582Y024822D02*
X042012Y024822D01*
X041946Y024664D02*
X043582Y024664D01*
X043582Y024505D02*
X041832Y024505D01*
X041658Y024347D02*
X043582Y024347D01*
X044569Y024050D02*
X044569Y025428D01*
X045053Y025912D01*
X045053Y027905D01*
X044553Y027905D02*
X044553Y026200D01*
X043978Y025625D01*
X043978Y022506D01*
X042766Y021294D01*
X043427Y020901D02*
X043427Y018932D01*
X043033Y018538D01*
X042403Y018538D01*
X041923Y019019D01*
X041923Y019723D01*
X041423Y019052D02*
X041527Y018948D01*
X041527Y018940D01*
X041587Y018794D01*
X042068Y018314D01*
X042179Y018202D01*
X042325Y018142D01*
X043112Y018142D01*
X043258Y018202D01*
X043652Y018596D01*
X043763Y018708D01*
X043804Y018807D01*
X044046Y018807D01*
X044272Y018901D01*
X044423Y019052D01*
X044574Y018901D01*
X044670Y018861D01*
X045217Y018314D01*
X045329Y018202D01*
X045474Y018142D01*
X052234Y018142D01*
X052380Y018202D01*
X052407Y018230D01*
X052841Y018230D01*
X053061Y018320D01*
X053228Y018488D01*
X053252Y018546D01*
X053682Y018117D01*
X053793Y018006D01*
X053939Y017945D01*
X057278Y017945D01*
X057278Y012904D01*
X057268Y012921D01*
X057061Y013127D01*
X056808Y013273D01*
X056526Y013349D01*
X056234Y013349D01*
X055951Y013273D01*
X055698Y013127D01*
X055492Y012921D01*
X055346Y012668D01*
X055270Y012385D01*
X055270Y012093D01*
X055346Y011811D01*
X055492Y011558D01*
X055698Y011351D01*
X055951Y011205D01*
X056177Y011144D01*
X054940Y011144D01*
X055000Y011205D01*
X055091Y011424D01*
X055091Y011661D01*
X055000Y011880D01*
X054832Y012048D01*
X054613Y012138D01*
X053891Y012138D01*
X053763Y012267D01*
X053652Y012378D01*
X053506Y012438D01*
X050835Y012438D01*
X050613Y012660D01*
X050502Y012772D01*
X050356Y012832D01*
X042764Y012832D01*
X042701Y012895D01*
X042701Y012928D01*
X042626Y013110D01*
X042487Y013249D01*
X042305Y013324D01*
X042108Y013324D01*
X041926Y013249D01*
X041842Y013164D01*
X040930Y014076D01*
X040930Y014109D01*
X040854Y014291D01*
X040715Y014430D01*
X040533Y014505D01*
X040337Y014505D01*
X040155Y014430D01*
X040070Y014345D01*
X036319Y018096D01*
X036319Y018948D01*
X036446Y019074D01*
X036539Y019301D01*
X036539Y020146D01*
X036446Y020372D01*
X036272Y020546D01*
X036086Y020623D01*
X036513Y020623D01*
X036629Y020671D01*
X036695Y020737D01*
X036761Y020671D01*
X036877Y020623D01*
X037199Y020623D01*
X037425Y020397D01*
X037401Y020372D01*
X037307Y020146D01*
X037307Y019301D01*
X037401Y019074D01*
X037574Y018901D01*
X037801Y018807D01*
X038046Y018807D01*
X038272Y018901D01*
X038423Y019052D01*
X038574Y018901D01*
X038801Y018807D01*
X039046Y018807D01*
X039272Y018901D01*
X039423Y019052D01*
X039574Y018901D01*
X039801Y018807D01*
X040046Y018807D01*
X040272Y018901D01*
X040423Y019052D01*
X040574Y018901D01*
X040801Y018807D01*
X041046Y018807D01*
X041272Y018901D01*
X041423Y019052D01*
X041329Y018958D02*
X041517Y018958D01*
X041585Y018799D02*
X036319Y018799D01*
X036319Y018641D02*
X041741Y018641D01*
X041899Y018482D02*
X036319Y018482D01*
X036319Y018324D02*
X042058Y018324D01*
X042268Y018165D02*
X036319Y018165D01*
X036409Y018007D02*
X042437Y018007D01*
X042393Y017964D02*
X042345Y017847D01*
X042345Y016962D01*
X042369Y016904D01*
X042345Y016847D01*
X042345Y015962D01*
X042369Y015904D01*
X042345Y015847D01*
X042345Y014962D01*
X042369Y014904D01*
X042345Y014847D01*
X042345Y013962D01*
X042393Y013845D01*
X042482Y013756D01*
X042598Y013708D01*
X043484Y013708D01*
X043541Y013732D01*
X043598Y013708D01*
X044484Y013708D01*
X044541Y013732D01*
X044598Y013708D01*
X045484Y013708D01*
X045541Y013732D01*
X045598Y013708D01*
X046484Y013708D01*
X046541Y013732D01*
X046598Y013708D01*
X047484Y013708D01*
X047541Y013732D01*
X047598Y013708D01*
X048484Y013708D01*
X048541Y013732D01*
X048598Y013708D01*
X049484Y013708D01*
X049541Y013732D01*
X049598Y013708D01*
X050484Y013708D01*
X050600Y013756D01*
X050689Y013845D01*
X050737Y013962D01*
X050737Y014847D01*
X050714Y014904D01*
X050737Y014962D01*
X050737Y015847D01*
X050714Y015904D01*
X050737Y015962D01*
X050737Y016847D01*
X050714Y016904D01*
X050737Y016962D01*
X050737Y017847D01*
X050689Y017964D01*
X050600Y018053D01*
X050484Y018101D01*
X049598Y018101D01*
X049541Y018077D01*
X049484Y018101D01*
X048598Y018101D01*
X048541Y018077D01*
X048484Y018101D01*
X047598Y018101D01*
X047541Y018077D01*
X047484Y018101D01*
X046598Y018101D01*
X046541Y018077D01*
X046484Y018101D01*
X045598Y018101D01*
X045541Y018077D01*
X045484Y018101D01*
X044598Y018101D01*
X044541Y018077D01*
X044484Y018101D01*
X043598Y018101D01*
X043541Y018077D01*
X043484Y018101D01*
X042598Y018101D01*
X042482Y018053D01*
X042393Y017964D01*
X042345Y017848D02*
X036567Y017848D01*
X036726Y017690D02*
X042345Y017690D01*
X042345Y017531D02*
X036884Y017531D01*
X037043Y017373D02*
X042345Y017373D01*
X042345Y017214D02*
X037201Y017214D01*
X037360Y017056D02*
X042345Y017056D01*
X042366Y016897D02*
X037518Y016897D01*
X037677Y016739D02*
X042345Y016739D01*
X042345Y016580D02*
X037835Y016580D01*
X037994Y016422D02*
X042345Y016422D01*
X042345Y016263D02*
X038152Y016263D01*
X038311Y016105D02*
X042345Y016105D01*
X042351Y015946D02*
X038469Y015946D01*
X038628Y015788D02*
X042345Y015788D01*
X042345Y015629D02*
X038786Y015629D01*
X038945Y015471D02*
X042345Y015471D01*
X042345Y015312D02*
X039103Y015312D01*
X039262Y015154D02*
X042345Y015154D01*
X042345Y014995D02*
X039420Y014995D01*
X039579Y014837D02*
X042345Y014837D01*
X042345Y014678D02*
X039737Y014678D01*
X039896Y014520D02*
X042345Y014520D01*
X042345Y014361D02*
X040784Y014361D01*
X040891Y014203D02*
X042345Y014203D01*
X042345Y014044D02*
X040962Y014044D01*
X041120Y013886D02*
X042376Y013886D01*
X042552Y013727D02*
X041279Y013727D01*
X041437Y013569D02*
X057278Y013569D01*
X057278Y013727D02*
X050530Y013727D01*
X050706Y013886D02*
X057278Y013886D01*
X057278Y014044D02*
X050737Y014044D01*
X050737Y014203D02*
X057278Y014203D01*
X057278Y014361D02*
X050737Y014361D01*
X050737Y014520D02*
X057278Y014520D01*
X057278Y014678D02*
X050737Y014678D01*
X050737Y014837D02*
X057278Y014837D01*
X057278Y014995D02*
X050737Y014995D01*
X050737Y015154D02*
X057278Y015154D01*
X057278Y015312D02*
X050737Y015312D01*
X050737Y015471D02*
X057278Y015471D01*
X057278Y015629D02*
X050737Y015629D01*
X050737Y015788D02*
X057278Y015788D01*
X057278Y015946D02*
X050731Y015946D01*
X050737Y016105D02*
X057278Y016105D01*
X057278Y016263D02*
X050737Y016263D01*
X050737Y016422D02*
X057278Y016422D01*
X057278Y016580D02*
X050737Y016580D01*
X050737Y016739D02*
X057278Y016739D01*
X057278Y016897D02*
X050717Y016897D01*
X050737Y017056D02*
X057278Y017056D01*
X057278Y017214D02*
X050737Y017214D01*
X050737Y017373D02*
X057278Y017373D01*
X057278Y017531D02*
X050737Y017531D01*
X050737Y017690D02*
X057278Y017690D01*
X057278Y017848D02*
X050737Y017848D01*
X050646Y018007D02*
X053792Y018007D01*
X053633Y018165D02*
X052291Y018165D01*
X052155Y018538D02*
X052443Y018826D01*
X052155Y018538D02*
X045553Y018538D01*
X044923Y019168D01*
X044923Y019723D01*
X044517Y018958D02*
X044329Y018958D01*
X044732Y018799D02*
X043801Y018799D01*
X043696Y018641D02*
X044890Y018641D01*
X045049Y018482D02*
X043538Y018482D01*
X043379Y018324D02*
X045207Y018324D01*
X045418Y018165D02*
X043169Y018165D01*
X040923Y019723D02*
X040923Y020571D01*
X041647Y021294D01*
X043427Y020901D02*
X043821Y021294D01*
X048930Y021294D01*
X049490Y020737D02*
X049556Y020671D01*
X049672Y020623D01*
X050428Y020623D01*
X050544Y020671D01*
X050633Y020760D01*
X050681Y020876D01*
X050681Y021292D01*
X051378Y021292D01*
X051378Y020750D01*
X051426Y020634D01*
X051515Y020545D01*
X051631Y020497D01*
X052047Y020497D01*
X052047Y020422D01*
X052044Y020422D01*
X051825Y020331D01*
X051716Y020222D01*
X051611Y020222D01*
X051601Y020246D01*
X051513Y020335D01*
X051396Y020383D01*
X050641Y020383D01*
X050524Y020335D01*
X050435Y020246D01*
X050387Y020129D01*
X050387Y019294D01*
X050435Y019178D01*
X050524Y019089D01*
X050641Y019040D01*
X051396Y019040D01*
X051513Y019089D01*
X051601Y019178D01*
X051650Y019294D01*
X051650Y019430D01*
X051716Y019430D01*
X051820Y019326D01*
X051657Y019163D01*
X051567Y018944D01*
X051567Y018935D01*
X049306Y018935D01*
X049446Y019074D01*
X049539Y019301D01*
X049539Y020146D01*
X049446Y020372D01*
X049272Y020546D01*
X049086Y020623D01*
X049308Y020623D01*
X049424Y020671D01*
X049490Y020737D01*
X049455Y020701D02*
X049526Y020701D01*
X049275Y020543D02*
X051520Y020543D01*
X051398Y020701D02*
X050574Y020701D01*
X050674Y020860D02*
X051378Y020860D01*
X051378Y021018D02*
X050681Y021018D01*
X050681Y021177D02*
X051378Y021177D01*
X052049Y021128D02*
X052443Y020734D01*
X052443Y019826D01*
X051133Y019826D01*
X051018Y019712D01*
X051642Y019275D02*
X051769Y019275D01*
X051638Y019116D02*
X051540Y019116D01*
X051572Y018958D02*
X049329Y018958D01*
X049463Y019116D02*
X050496Y019116D01*
X050395Y019275D02*
X049529Y019275D01*
X049539Y019433D02*
X050387Y019433D01*
X050387Y019592D02*
X049539Y019592D01*
X049539Y019750D02*
X050387Y019750D01*
X050387Y019909D02*
X049539Y019909D01*
X049539Y020067D02*
X050387Y020067D01*
X050427Y020226D02*
X049506Y020226D01*
X049434Y020384D02*
X051954Y020384D01*
X051720Y020226D02*
X051610Y020226D01*
X053010Y021494D02*
X057278Y021494D01*
X057278Y021652D02*
X056960Y021652D01*
X057090Y021707D02*
X057278Y021894D01*
X057278Y018738D01*
X054182Y018738D01*
X053823Y019096D01*
X053823Y020506D01*
X053824Y020583D01*
X053823Y020584D01*
X053823Y020586D01*
X053794Y020657D01*
X053764Y020729D01*
X053764Y020730D01*
X053763Y020731D01*
X053708Y020786D01*
X052875Y021631D01*
X052873Y021636D01*
X052820Y021687D01*
X052768Y021739D01*
X052763Y021741D01*
X052694Y021807D01*
X052720Y021870D01*
X052720Y022626D01*
X052672Y022742D01*
X052583Y022831D01*
X052467Y022879D01*
X052445Y022879D01*
X052445Y023747D01*
X052468Y023770D01*
X052544Y023952D01*
X052544Y024149D01*
X052468Y024330D01*
X052329Y024469D01*
X052148Y024545D01*
X052115Y024545D01*
X051749Y024911D01*
X051749Y026999D01*
X051956Y026999D01*
X051956Y026848D01*
X052016Y026703D01*
X052039Y026680D01*
X052039Y026191D01*
X052087Y026075D01*
X052176Y025986D01*
X052293Y025938D01*
X053048Y025938D01*
X053164Y025986D01*
X053253Y026075D01*
X053302Y026191D01*
X053302Y026999D01*
X053573Y026999D01*
X053689Y027047D01*
X053741Y027099D01*
X053842Y027099D01*
X053858Y027083D01*
X053868Y027060D01*
X053957Y026971D01*
X054073Y026923D01*
X054829Y026923D01*
X054945Y026971D01*
X055034Y027060D01*
X055082Y027176D01*
X055082Y028011D01*
X055051Y028086D01*
X055082Y028160D01*
X055082Y028995D01*
X055034Y029111D01*
X054945Y029200D01*
X054829Y029248D01*
X054073Y029248D01*
X053957Y029200D01*
X053868Y029111D01*
X053853Y029075D01*
X053840Y029070D01*
X053591Y028821D01*
X053570Y028812D01*
X053132Y028812D01*
X053102Y028800D01*
X053073Y028812D01*
X052632Y028812D01*
X052602Y028800D01*
X052573Y028812D01*
X052329Y028812D01*
X052329Y029559D01*
X054884Y029559D01*
X055029Y029620D01*
X055226Y029817D01*
X055338Y029928D01*
X055398Y030074D01*
X055398Y030746D01*
X055501Y030642D01*
X055755Y030496D01*
X056037Y030421D01*
X056329Y030421D01*
X056611Y030496D01*
X056864Y030642D01*
X057071Y030849D01*
X057217Y031102D01*
X057278Y031328D01*
X057278Y023057D01*
X057090Y023244D01*
X056757Y023382D01*
X056396Y023382D01*
X056063Y023244D01*
X055808Y022989D01*
X055670Y022656D01*
X055670Y022295D01*
X055808Y021962D01*
X056063Y021707D01*
X056396Y021569D01*
X056757Y021569D01*
X057090Y021707D01*
X057195Y021811D02*
X057278Y021811D01*
X057278Y021335D02*
X053166Y021335D01*
X053322Y021177D02*
X057278Y021177D01*
X057278Y021018D02*
X053479Y021018D01*
X053635Y020860D02*
X057278Y020860D01*
X057278Y020701D02*
X056633Y020701D01*
X056558Y020732D02*
X056233Y020732D01*
X055933Y020608D01*
X055704Y020379D01*
X055579Y020079D01*
X055579Y019754D01*
X055704Y019454D01*
X055933Y019224D01*
X056233Y019100D01*
X056558Y019100D01*
X056858Y019224D01*
X057088Y019454D01*
X057212Y019754D01*
X057212Y020079D01*
X057088Y020379D01*
X056858Y020608D01*
X056558Y020732D01*
X056158Y020701D02*
X053776Y020701D01*
X053824Y020543D02*
X055868Y020543D01*
X055709Y020384D02*
X053823Y020384D01*
X053823Y020226D02*
X055640Y020226D01*
X055579Y020067D02*
X053823Y020067D01*
X053823Y019909D02*
X055579Y019909D01*
X055581Y019750D02*
X053823Y019750D01*
X053823Y019592D02*
X055646Y019592D01*
X055724Y019433D02*
X053823Y019433D01*
X053823Y019275D02*
X055883Y019275D01*
X056194Y019116D02*
X053823Y019116D01*
X053962Y018958D02*
X057278Y018958D01*
X057278Y019116D02*
X056597Y019116D01*
X056909Y019275D02*
X057278Y019275D01*
X057278Y019433D02*
X057067Y019433D01*
X057145Y019592D02*
X057278Y019592D01*
X057278Y019750D02*
X057210Y019750D01*
X057212Y019909D02*
X057278Y019909D01*
X057278Y020067D02*
X057212Y020067D01*
X057151Y020226D02*
X057278Y020226D01*
X057278Y020384D02*
X057082Y020384D01*
X056923Y020543D02*
X057278Y020543D01*
X056194Y021652D02*
X052855Y021652D01*
X052696Y021811D02*
X055959Y021811D01*
X055805Y021969D02*
X052720Y021969D01*
X052720Y022128D02*
X055739Y022128D01*
X055673Y022286D02*
X052720Y022286D01*
X052720Y022445D02*
X055670Y022445D01*
X055670Y022603D02*
X052720Y022603D01*
X052652Y022762D02*
X055714Y022762D01*
X055780Y022920D02*
X052445Y022920D01*
X052445Y023079D02*
X055898Y023079D01*
X056056Y023237D02*
X052445Y023237D01*
X052445Y023396D02*
X057278Y023396D01*
X057278Y023554D02*
X052445Y023554D01*
X052445Y023713D02*
X057278Y023713D01*
X057278Y023871D02*
X052511Y023871D01*
X052544Y024030D02*
X057278Y024030D01*
X057278Y024188D02*
X052527Y024188D01*
X052452Y024347D02*
X053779Y024347D01*
X053752Y024358D02*
X054052Y024234D01*
X054377Y024234D01*
X054677Y024358D01*
X054906Y024588D01*
X055031Y024888D01*
X055031Y025212D01*
X054906Y025512D01*
X054677Y025742D01*
X054377Y025866D01*
X054052Y025866D01*
X053752Y025742D01*
X053523Y025512D01*
X053398Y025212D01*
X053398Y024888D01*
X053523Y024588D01*
X053752Y024358D01*
X053605Y024505D02*
X052242Y024505D01*
X051996Y024664D02*
X053491Y024664D01*
X053425Y024822D02*
X051837Y024822D01*
X051749Y024981D02*
X053398Y024981D01*
X053398Y025139D02*
X051749Y025139D01*
X051749Y025298D02*
X053434Y025298D01*
X053499Y025456D02*
X051749Y025456D01*
X051749Y025615D02*
X053625Y025615D01*
X053828Y025773D02*
X051749Y025773D01*
X051749Y025932D02*
X055688Y025932D01*
X055688Y025920D02*
X055764Y025738D01*
X055903Y025599D01*
X056085Y025524D01*
X056281Y025524D01*
X056332Y025545D01*
X056671Y025545D01*
X056845Y025617D01*
X056902Y025674D01*
X057066Y025742D01*
X057197Y025873D01*
X057268Y026044D01*
X057268Y026930D01*
X057197Y027101D01*
X057066Y027232D01*
X056894Y027303D01*
X056259Y027303D01*
X056252Y027301D01*
X056085Y027301D01*
X055903Y027225D01*
X055764Y027086D01*
X055688Y026904D01*
X055688Y026708D01*
X055729Y026609D01*
X055688Y026511D01*
X055688Y026314D01*
X055729Y026215D01*
X055688Y026117D01*
X055688Y025920D01*
X055749Y025773D02*
X054601Y025773D01*
X054804Y025615D02*
X055887Y025615D01*
X055688Y026090D02*
X053260Y026090D01*
X053302Y026249D02*
X055715Y026249D01*
X055688Y026407D02*
X053302Y026407D01*
X053302Y026566D02*
X055711Y026566D01*
X055688Y026724D02*
X053302Y026724D01*
X053302Y026883D02*
X055688Y026883D01*
X055745Y027041D02*
X055015Y027041D01*
X055082Y027200D02*
X055877Y027200D01*
X055082Y027358D02*
X057278Y027358D01*
X057278Y027200D02*
X057098Y027200D01*
X057222Y027041D02*
X057278Y027041D01*
X057268Y026883D02*
X057278Y026883D01*
X057268Y026724D02*
X057278Y026724D01*
X057268Y026566D02*
X057278Y026566D01*
X057268Y026407D02*
X057278Y026407D01*
X057268Y026249D02*
X057278Y026249D01*
X057268Y026090D02*
X057278Y026090D01*
X057278Y025932D02*
X057221Y025932D01*
X057278Y025773D02*
X057097Y025773D01*
X057278Y025615D02*
X056840Y025615D01*
X057278Y025456D02*
X054930Y025456D01*
X054995Y025298D02*
X057278Y025298D01*
X057278Y025139D02*
X055031Y025139D01*
X055031Y024981D02*
X057278Y024981D01*
X057278Y024822D02*
X055004Y024822D01*
X054938Y024664D02*
X057278Y024664D01*
X057278Y024505D02*
X054824Y024505D01*
X054650Y024347D02*
X057278Y024347D01*
X057278Y023237D02*
X057097Y023237D01*
X057255Y023079D02*
X057278Y023079D01*
X052049Y022248D02*
X052049Y024050D01*
X051352Y024747D01*
X051352Y027905D01*
X050852Y027905D02*
X050852Y022097D01*
X050050Y021294D01*
X050323Y022128D02*
X044161Y022128D01*
X044316Y022286D02*
X050456Y022286D01*
X050456Y022445D02*
X044374Y022445D01*
X044374Y022603D02*
X050456Y022603D01*
X050456Y022762D02*
X044374Y022762D01*
X044374Y022920D02*
X050456Y022920D01*
X050456Y023079D02*
X044374Y023079D01*
X044374Y023237D02*
X050456Y023237D01*
X050456Y023396D02*
X044374Y023396D01*
X044374Y023554D02*
X050456Y023554D01*
X050456Y023713D02*
X044931Y023713D01*
X045030Y023871D02*
X050456Y023871D01*
X050456Y024030D02*
X045063Y024030D01*
X045047Y024188D02*
X050456Y024188D01*
X050456Y024347D02*
X050319Y024347D01*
X049449Y024347D02*
X045988Y024347D01*
X046163Y024505D02*
X049274Y024505D01*
X049160Y024664D02*
X046277Y024664D01*
X046342Y024822D02*
X049095Y024822D01*
X049068Y024981D02*
X046369Y024981D01*
X046369Y025139D02*
X049068Y025139D01*
X049103Y025298D02*
X046334Y025298D01*
X046268Y025456D02*
X049169Y025456D01*
X049294Y025615D02*
X046143Y025615D01*
X045940Y025773D02*
X049497Y025773D01*
X050270Y025773D02*
X050456Y025773D01*
X050456Y025932D02*
X045449Y025932D01*
X045449Y026090D02*
X045782Y026090D01*
X045740Y026249D02*
X045449Y026249D01*
X045449Y026407D02*
X045740Y026407D01*
X045740Y026566D02*
X045449Y026566D01*
X045449Y026724D02*
X045708Y026724D01*
X045657Y026883D02*
X045449Y026883D01*
X046053Y026927D02*
X046371Y026609D01*
X046053Y026927D02*
X046053Y027905D01*
X047002Y026883D02*
X050456Y026883D01*
X050456Y027041D02*
X048716Y027041D01*
X048783Y027200D02*
X050400Y027200D01*
X050379Y027358D02*
X048783Y027358D01*
X048783Y027517D02*
X050379Y027517D01*
X050379Y027675D02*
X048783Y027675D01*
X048783Y027834D02*
X050379Y027834D01*
X050379Y027992D02*
X048783Y027992D01*
X048779Y028151D02*
X050379Y028151D01*
X050379Y028309D02*
X048783Y028309D01*
X048783Y028468D02*
X050379Y028468D01*
X050407Y028626D02*
X048783Y028626D01*
X048783Y028785D02*
X050566Y028785D01*
X051376Y028943D02*
X048783Y028943D01*
X048738Y029102D02*
X051376Y029102D01*
X051376Y029260D02*
X046029Y029260D01*
X046029Y029102D02*
X047565Y029102D01*
X047411Y028943D02*
X046029Y028943D01*
X046029Y029419D02*
X051376Y029419D01*
X052329Y029419D02*
X057278Y029419D01*
X057278Y029577D02*
X054927Y029577D01*
X055146Y029736D02*
X057278Y029736D01*
X057278Y029894D02*
X055304Y029894D01*
X055390Y030053D02*
X057278Y030053D01*
X057278Y030211D02*
X055398Y030211D01*
X055398Y030370D02*
X057278Y030370D01*
X057278Y030528D02*
X056667Y030528D01*
X056909Y030687D02*
X057278Y030687D01*
X057278Y030845D02*
X057068Y030845D01*
X057161Y031004D02*
X057278Y031004D01*
X057278Y031162D02*
X057233Y031162D01*
X057276Y031321D02*
X057278Y031321D01*
X055699Y030528D02*
X055398Y030528D01*
X055398Y030687D02*
X055457Y030687D01*
X057278Y029260D02*
X052329Y029260D01*
X052329Y029102D02*
X053864Y029102D01*
X053713Y028943D02*
X052329Y028943D01*
X052352Y027905D02*
X052352Y026927D01*
X052670Y026609D01*
X052039Y026566D02*
X051749Y026566D01*
X051749Y026724D02*
X052007Y026724D01*
X051956Y026883D02*
X051749Y026883D01*
X051749Y026407D02*
X052039Y026407D01*
X052039Y026249D02*
X051749Y026249D01*
X051749Y026090D02*
X052081Y026090D01*
X050456Y026090D02*
X046961Y026090D01*
X047002Y026249D02*
X050456Y026249D01*
X050456Y026407D02*
X047002Y026407D01*
X047002Y026566D02*
X050456Y026566D01*
X050456Y026724D02*
X047002Y026724D01*
X047377Y027041D02*
X047587Y027041D01*
X045077Y028943D02*
X042483Y028943D01*
X042483Y028785D02*
X044267Y028785D01*
X044107Y028626D02*
X042483Y028626D01*
X042483Y028468D02*
X044079Y028468D01*
X044079Y028309D02*
X042483Y028309D01*
X042480Y028151D02*
X044079Y028151D01*
X044079Y027992D02*
X042483Y027992D01*
X042483Y027834D02*
X044079Y027834D01*
X044079Y027675D02*
X042483Y027675D01*
X042483Y027517D02*
X044079Y027517D01*
X044079Y027358D02*
X042483Y027358D01*
X042483Y027200D02*
X044101Y027200D01*
X044157Y027041D02*
X042417Y027041D01*
X041288Y027041D02*
X041077Y027041D01*
X040703Y026883D02*
X044157Y026883D01*
X044157Y026724D02*
X040703Y026724D01*
X040703Y026566D02*
X044157Y026566D01*
X044157Y026407D02*
X040703Y026407D01*
X040703Y026249D02*
X044042Y026249D01*
X043883Y026090D02*
X040661Y026090D01*
X040072Y026609D02*
X039754Y026927D01*
X039754Y027905D01*
X039358Y026883D02*
X039150Y026883D01*
X039150Y026724D02*
X039409Y026724D01*
X039441Y026566D02*
X039150Y026566D01*
X039150Y026407D02*
X039441Y026407D01*
X039441Y026249D02*
X039150Y026249D01*
X039150Y026090D02*
X039483Y026090D01*
X037858Y023554D02*
X031579Y023554D01*
X031579Y023396D02*
X037858Y023396D01*
X037858Y023237D02*
X031579Y023237D01*
X031730Y023079D02*
X037858Y023079D01*
X037858Y022920D02*
X031889Y022920D01*
X032047Y022762D02*
X037858Y022762D01*
X037858Y022603D02*
X032206Y022603D01*
X032167Y022082D02*
X035348Y022082D01*
X036135Y021294D01*
X035504Y021292D02*
X035504Y020876D01*
X035552Y020760D01*
X035641Y020671D01*
X035757Y020623D01*
X035761Y020623D01*
X035574Y020546D01*
X035423Y020395D01*
X035272Y020546D01*
X035046Y020640D01*
X034801Y020640D01*
X034574Y020546D01*
X034423Y020395D01*
X034272Y020546D01*
X034046Y020640D01*
X033801Y020640D01*
X033574Y020546D01*
X033423Y020395D01*
X033272Y020546D01*
X033046Y020640D01*
X032801Y020640D01*
X032574Y020546D01*
X032423Y020395D01*
X032319Y020499D01*
X032319Y020754D01*
X032326Y020760D01*
X032374Y020876D01*
X032374Y021292D01*
X035504Y021292D01*
X035504Y021177D02*
X032374Y021177D01*
X032374Y021018D02*
X035504Y021018D01*
X035511Y020860D02*
X032367Y020860D01*
X032319Y020701D02*
X035611Y020701D01*
X035571Y020543D02*
X035275Y020543D01*
X034571Y020543D02*
X034275Y020543D01*
X033571Y020543D02*
X033275Y020543D01*
X032571Y020543D02*
X032319Y020543D01*
X031527Y020543D02*
X029936Y020543D01*
X030094Y020384D02*
X031413Y020384D01*
X031401Y020372D02*
X031307Y020146D01*
X031307Y019301D01*
X031401Y019074D01*
X031574Y018901D01*
X031801Y018807D01*
X031876Y018807D01*
X031806Y018738D01*
X030757Y018738D01*
X030398Y019096D01*
X030398Y019995D01*
X030338Y020141D01*
X030226Y020252D01*
X029636Y020843D01*
X029502Y020898D01*
X029992Y020898D01*
X029992Y020876D01*
X030040Y020760D01*
X030129Y020671D01*
X030245Y020623D01*
X031001Y020623D01*
X031117Y020671D01*
X031183Y020737D01*
X031249Y020671D01*
X031365Y020623D01*
X031527Y020623D01*
X031527Y020499D01*
X031401Y020372D01*
X031340Y020226D02*
X030253Y020226D01*
X030368Y020067D02*
X031307Y020067D01*
X031307Y019909D02*
X030398Y019909D01*
X030398Y019750D02*
X031307Y019750D01*
X031307Y019592D02*
X030398Y019592D01*
X030398Y019433D02*
X031307Y019433D01*
X031318Y019275D02*
X030398Y019275D01*
X030398Y019116D02*
X031383Y019116D01*
X031517Y018958D02*
X030536Y018958D01*
X030695Y018799D02*
X031868Y018799D01*
X031970Y018341D02*
X032955Y019326D01*
X032955Y019692D01*
X032923Y019723D01*
X031923Y019723D02*
X031923Y021114D01*
X031743Y021294D01*
X031219Y020701D02*
X031147Y020701D01*
X030623Y021294D02*
X028230Y021294D01*
X025655Y023869D01*
X025655Y027905D01*
X025182Y027834D02*
X023586Y027834D01*
X023586Y027992D02*
X025182Y027992D01*
X025182Y028151D02*
X023582Y028151D01*
X023586Y028309D02*
X025182Y028309D01*
X025182Y028468D02*
X023586Y028468D01*
X023586Y028626D02*
X025210Y028626D01*
X025369Y028785D02*
X023586Y028785D01*
X023586Y028943D02*
X026179Y028943D01*
X026179Y029102D02*
X023541Y029102D01*
X024385Y029894D02*
X022627Y029894D01*
X022469Y029736D02*
X024543Y029736D01*
X024761Y029577D02*
X022250Y029577D01*
X022128Y029956D02*
X018585Y029956D01*
X018388Y030152D01*
X018388Y038617D01*
X018781Y039011D01*
X024293Y039011D01*
X024687Y038617D01*
X024687Y035467D01*
X023112Y033893D01*
X023112Y030940D01*
X022128Y029956D01*
X022225Y030053D02*
X018487Y030053D01*
X018388Y030211D02*
X022384Y030211D01*
X022542Y030370D02*
X018388Y030370D01*
X018388Y030528D02*
X022701Y030528D01*
X022859Y030687D02*
X018388Y030687D01*
X018388Y030845D02*
X023018Y030845D01*
X023112Y031004D02*
X018388Y031004D01*
X018388Y031162D02*
X023112Y031162D01*
X023112Y031321D02*
X018388Y031321D01*
X018388Y031479D02*
X023112Y031479D01*
X023112Y031638D02*
X018388Y031638D01*
X018388Y031796D02*
X023112Y031796D01*
X023112Y031955D02*
X018388Y031955D01*
X018388Y032113D02*
X023112Y032113D01*
X023112Y032272D02*
X018388Y032272D01*
X018388Y032430D02*
X023112Y032430D01*
X023112Y032589D02*
X018388Y032589D01*
X018388Y032747D02*
X023112Y032747D01*
X023112Y032906D02*
X018388Y032906D01*
X018388Y033064D02*
X023112Y033064D01*
X023112Y033223D02*
X018388Y033223D01*
X018388Y033381D02*
X023112Y033381D01*
X023112Y033540D02*
X018388Y033540D01*
X018388Y033698D02*
X023112Y033698D01*
X023112Y033857D02*
X018388Y033857D01*
X018388Y034015D02*
X023235Y034015D01*
X023393Y034174D02*
X018388Y034174D01*
X018388Y034332D02*
X023552Y034332D01*
X023710Y034491D02*
X018388Y034491D01*
X018388Y034649D02*
X023869Y034649D01*
X024027Y034808D02*
X018388Y034808D01*
X018388Y034966D02*
X024186Y034966D01*
X024344Y035125D02*
X018388Y035125D01*
X018388Y035283D02*
X024503Y035283D01*
X024661Y035442D02*
X018388Y035442D01*
X018388Y035600D02*
X024687Y035600D01*
X024687Y035759D02*
X018388Y035759D01*
X018388Y035917D02*
X024687Y035917D01*
X024687Y036076D02*
X018388Y036076D01*
X018388Y036234D02*
X024687Y036234D01*
X024687Y036393D02*
X018388Y036393D01*
X018388Y036551D02*
X024687Y036551D01*
X024687Y036710D02*
X018388Y036710D01*
X018388Y036868D02*
X024687Y036868D01*
X024687Y037027D02*
X018388Y037027D01*
X018388Y037185D02*
X024687Y037185D01*
X024687Y037344D02*
X018388Y037344D01*
X018388Y037502D02*
X024687Y037502D01*
X024687Y037661D02*
X018388Y037661D01*
X018388Y037819D02*
X024687Y037819D01*
X024687Y037978D02*
X018388Y037978D01*
X018388Y038136D02*
X024687Y038136D01*
X024687Y038295D02*
X018388Y038295D01*
X018388Y038453D02*
X024687Y038453D01*
X024687Y038612D02*
X018388Y038612D01*
X018541Y038770D02*
X024534Y038770D01*
X024375Y038929D02*
X018700Y038929D01*
X016813Y038929D02*
X016615Y038929D01*
X016613Y038942D02*
X016589Y039014D01*
X016555Y039081D01*
X016511Y039142D01*
X016457Y039196D01*
X016396Y039240D01*
X016329Y039274D01*
X016257Y039298D01*
X016182Y039310D01*
X015864Y039310D01*
X015864Y038850D01*
X016624Y038850D01*
X016624Y038867D01*
X016613Y038942D01*
X016550Y039087D02*
X016813Y039087D01*
X016813Y039246D02*
X016385Y039246D01*
X016813Y039404D02*
X011636Y039404D01*
X011728Y039246D02*
X015304Y039246D01*
X015293Y039240D02*
X015232Y039196D01*
X015178Y039142D01*
X015134Y039081D01*
X015100Y039014D01*
X015076Y038942D01*
X015064Y038867D01*
X015064Y038850D01*
X015824Y038850D01*
X015824Y039310D01*
X015507Y039310D01*
X015432Y039298D01*
X015360Y039274D01*
X015293Y039240D01*
X015138Y039087D02*
X011802Y039087D01*
X011844Y038929D02*
X015074Y038929D01*
X015068Y038770D02*
X011880Y038770D01*
X011880Y038612D02*
X015117Y038612D01*
X015824Y038929D02*
X015864Y038929D01*
X015864Y039087D02*
X015824Y039087D01*
X015824Y039246D02*
X015864Y039246D01*
X016621Y038770D02*
X016769Y038770D01*
X016813Y039563D02*
X011499Y039563D01*
X009988Y037344D02*
X009419Y037344D01*
X009419Y037502D02*
X009713Y037502D01*
X009538Y037661D02*
X009419Y037661D01*
X008631Y033806D02*
X005444Y033806D01*
X005447Y033804D01*
X005701Y033550D01*
X005881Y033239D01*
X005974Y032891D01*
X005974Y032532D01*
X005881Y032184D01*
X005701Y031873D01*
X005447Y031619D01*
X005135Y031439D01*
X004788Y031346D01*
X004428Y031346D01*
X004081Y031439D01*
X003821Y031589D01*
X003821Y030349D01*
X004214Y029956D01*
X009529Y029956D01*
X010317Y030743D01*
X010317Y032515D01*
X010120Y032712D01*
X009726Y032712D01*
X008631Y033806D01*
X008739Y033698D02*
X005553Y033698D01*
X005707Y033540D02*
X008898Y033540D01*
X009056Y033381D02*
X005799Y033381D01*
X005885Y033223D02*
X009215Y033223D01*
X009373Y033064D02*
X005928Y033064D01*
X005970Y032906D02*
X009532Y032906D01*
X009690Y032747D02*
X005974Y032747D01*
X005974Y032589D02*
X010243Y032589D01*
X010317Y032430D02*
X005947Y032430D01*
X005904Y032272D02*
X010317Y032272D01*
X010317Y032113D02*
X005840Y032113D01*
X005748Y031955D02*
X010317Y031955D01*
X010317Y031796D02*
X005625Y031796D01*
X005466Y031638D02*
X010317Y031638D01*
X010317Y031479D02*
X005206Y031479D01*
X004011Y031479D02*
X003821Y031479D01*
X003821Y031321D02*
X010317Y031321D01*
X010317Y031162D02*
X003821Y031162D01*
X003821Y031004D02*
X010317Y031004D01*
X010317Y030845D02*
X003821Y030845D01*
X003821Y030687D02*
X010261Y030687D01*
X010102Y030528D02*
X003821Y030528D01*
X003821Y030370D02*
X009944Y030370D01*
X009785Y030211D02*
X003959Y030211D01*
X004117Y030053D02*
X009627Y030053D01*
X009777Y028803D02*
X009477Y028679D01*
X009247Y028449D01*
X009123Y028149D01*
X009123Y027825D01*
X009247Y027525D01*
X009477Y027295D01*
X009777Y027171D01*
X010101Y027171D01*
X010401Y027295D01*
X010631Y027525D01*
X010755Y027825D01*
X010755Y028149D01*
X010631Y028449D01*
X010401Y028679D01*
X010101Y028803D01*
X009777Y028803D01*
X009732Y028785D02*
X006043Y028785D01*
X006085Y028626D02*
X009424Y028626D01*
X009265Y028468D02*
X006112Y028468D01*
X006112Y028309D02*
X009189Y028309D01*
X009123Y028151D02*
X006089Y028151D01*
X006047Y027992D02*
X009123Y027992D01*
X009123Y027834D02*
X005968Y027834D01*
X005866Y027675D02*
X009185Y027675D01*
X009255Y027517D02*
X005708Y027517D01*
X005451Y027358D02*
X009413Y027358D01*
X009706Y027200D02*
X003513Y027200D01*
X003513Y027358D02*
X004553Y027358D01*
X004296Y027517D02*
X003513Y027517D01*
X003513Y027675D02*
X004138Y027675D01*
X004036Y027834D02*
X003513Y027834D01*
X003513Y027992D02*
X003957Y027992D01*
X003914Y028151D02*
X003513Y028151D01*
X003513Y028309D02*
X003892Y028309D01*
X003892Y028468D02*
X003513Y028468D01*
X003513Y028626D02*
X003919Y028626D01*
X003961Y028785D02*
X003513Y028785D01*
X003596Y028943D02*
X004045Y028943D01*
X004153Y029102D02*
X003754Y029102D01*
X005850Y029102D02*
X019880Y029102D01*
X019880Y029260D02*
X013756Y029260D01*
X013914Y029419D02*
X019880Y029419D01*
X019880Y028943D02*
X005959Y028943D01*
X003513Y027041D02*
X015910Y027041D01*
X016068Y026883D02*
X003513Y026883D01*
X003513Y026724D02*
X016227Y026724D01*
X016385Y026566D02*
X003513Y026566D01*
X003513Y026407D02*
X016515Y026407D01*
X016515Y026249D02*
X003513Y026249D01*
X003513Y026090D02*
X005793Y026090D01*
X005943Y026241D02*
X005583Y025880D01*
X005583Y025370D01*
X005587Y025365D01*
X005587Y024662D01*
X005455Y024662D01*
X005370Y024626D01*
X005338Y024626D01*
X005315Y024604D01*
X005230Y024569D01*
X005058Y024397D01*
X005023Y024311D01*
X005000Y024289D01*
X005000Y024257D01*
X004965Y024172D01*
X004965Y023928D01*
X005000Y023843D01*
X005000Y023811D01*
X005023Y023789D01*
X005058Y023704D01*
X005230Y023532D01*
X005315Y023496D01*
X005338Y023474D01*
X005370Y023474D01*
X005455Y023439D01*
X006155Y023439D01*
X006199Y023457D01*
X006242Y023439D01*
X006486Y023439D01*
X006571Y023474D01*
X006603Y023474D01*
X006625Y023496D01*
X006710Y023532D01*
X006882Y023704D01*
X006918Y023789D01*
X006940Y023811D01*
X006940Y023843D01*
X006970Y023916D01*
X007000Y023843D01*
X007000Y023811D01*
X007023Y023789D01*
X007058Y023704D01*
X007230Y023532D01*
X007315Y023496D01*
X007338Y023474D01*
X007370Y023474D01*
X007455Y023439D01*
X009454Y023439D01*
X009679Y023532D01*
X010488Y024340D01*
X010745Y024234D01*
X011070Y024234D01*
X011370Y024358D01*
X011599Y024588D01*
X011724Y024888D01*
X011724Y025212D01*
X011599Y025512D01*
X011370Y025742D01*
X011070Y025866D01*
X010745Y025866D01*
X010445Y025742D01*
X010365Y025662D01*
X008940Y025662D01*
X008940Y025845D01*
X008892Y025962D01*
X008803Y026050D01*
X008687Y026099D01*
X007931Y026099D01*
X007815Y026050D01*
X007726Y025962D01*
X007678Y025845D01*
X007678Y025011D01*
X007726Y024895D01*
X007815Y024806D01*
X007931Y024758D01*
X008115Y024758D01*
X008169Y024704D01*
X008211Y024662D01*
X007455Y024662D01*
X007370Y024626D01*
X007338Y024626D01*
X007315Y024604D01*
X007230Y024569D01*
X007058Y024397D01*
X007023Y024311D01*
X007000Y024289D01*
X007000Y024257D01*
X006970Y024184D01*
X006940Y024257D01*
X006940Y024289D01*
X006918Y024311D01*
X006882Y024397D01*
X006810Y024469D01*
X006810Y025365D01*
X006815Y025370D01*
X006815Y025880D01*
X006454Y026241D01*
X005943Y026241D01*
X005634Y025932D02*
X003513Y025932D01*
X003513Y025773D02*
X005583Y025773D01*
X005583Y025615D02*
X003513Y025615D01*
X003513Y025456D02*
X005583Y025456D01*
X005587Y025298D02*
X003513Y025298D01*
X003513Y025139D02*
X005587Y025139D01*
X005587Y024981D02*
X003513Y024981D01*
X003513Y024822D02*
X005587Y024822D01*
X005587Y024664D02*
X003513Y024664D01*
X003513Y024505D02*
X005167Y024505D01*
X005038Y024347D02*
X003513Y024347D01*
X003513Y024188D02*
X004972Y024188D01*
X004965Y024030D02*
X003513Y024030D01*
X003513Y023871D02*
X004989Y023871D01*
X005054Y023713D02*
X003513Y023713D01*
X003513Y023554D02*
X005208Y023554D01*
X003513Y023396D02*
X016595Y023396D01*
X016595Y023554D02*
X009702Y023554D01*
X009860Y023713D02*
X016595Y023713D01*
X016595Y023871D02*
X010019Y023871D01*
X010177Y024030D02*
X016595Y024030D01*
X016595Y024188D02*
X010336Y024188D01*
X011343Y024347D02*
X014803Y024347D01*
X014776Y024358D02*
X015076Y024234D01*
X015400Y024234D01*
X015700Y024358D01*
X015930Y024588D01*
X016054Y024888D01*
X016054Y025212D01*
X015930Y025512D01*
X015700Y025742D01*
X015400Y025866D01*
X015076Y025866D01*
X014776Y025742D01*
X014546Y025512D01*
X014422Y025212D01*
X014422Y024888D01*
X014546Y024588D01*
X014776Y024358D01*
X014628Y024505D02*
X011517Y024505D01*
X011631Y024664D02*
X014515Y024664D01*
X014449Y024822D02*
X011697Y024822D01*
X011724Y024981D02*
X014422Y024981D01*
X014422Y025139D02*
X011724Y025139D01*
X011688Y025298D02*
X014457Y025298D01*
X014523Y025456D02*
X011623Y025456D01*
X011497Y025615D02*
X014649Y025615D01*
X014851Y025773D02*
X011294Y025773D01*
X010521Y025773D02*
X008940Y025773D01*
X008940Y025662D02*
X008940Y025662D01*
X008904Y025932D02*
X016515Y025932D01*
X016515Y026090D02*
X008707Y026090D01*
X007911Y026090D02*
X006605Y026090D01*
X006763Y025932D02*
X007714Y025932D01*
X007678Y025773D02*
X006815Y025773D01*
X006815Y025615D02*
X007678Y025615D01*
X007678Y025456D02*
X006815Y025456D01*
X006810Y025298D02*
X007678Y025298D01*
X007678Y025139D02*
X006810Y025139D01*
X006810Y024981D02*
X007690Y024981D01*
X007798Y024822D02*
X006810Y024822D01*
X006810Y024664D02*
X008208Y024664D01*
X007167Y024505D02*
X006810Y024505D01*
X006903Y024347D02*
X007038Y024347D01*
X006972Y024188D02*
X006969Y024188D01*
X006952Y023871D02*
X006989Y023871D01*
X007054Y023713D02*
X006886Y023713D01*
X006733Y023554D02*
X007208Y023554D01*
X006464Y021986D02*
X006164Y022110D01*
X005840Y022110D01*
X005540Y021986D01*
X005310Y021757D01*
X005186Y021457D01*
X005186Y021132D01*
X005310Y020832D01*
X005540Y020602D01*
X005840Y020478D01*
X006164Y020478D01*
X006464Y020602D01*
X006545Y020683D01*
X008327Y020683D01*
X008327Y020539D01*
X008190Y020402D01*
X008103Y020190D01*
X008103Y019961D01*
X008190Y019749D01*
X008352Y019587D01*
X008564Y019500D01*
X008732Y019500D01*
X008817Y019464D01*
X009061Y019464D01*
X009146Y019500D01*
X009314Y019500D01*
X009525Y019587D01*
X009687Y019749D01*
X009775Y019961D01*
X009775Y020190D01*
X009687Y020402D01*
X009550Y020539D01*
X009550Y020840D01*
X010836Y020840D01*
X010884Y020821D01*
X011718Y020821D01*
X011766Y020840D01*
X012549Y020840D01*
X012549Y020772D01*
X012648Y020534D01*
X012829Y020353D01*
X013067Y020254D01*
X013984Y020254D01*
X014222Y020353D01*
X014403Y020534D01*
X014502Y020772D01*
X014502Y021029D01*
X014403Y021267D01*
X014222Y021448D01*
X013984Y021547D01*
X013744Y021547D01*
X013321Y021970D01*
X013096Y022063D01*
X011766Y022063D01*
X011718Y022083D01*
X010884Y022083D01*
X010836Y022063D01*
X009276Y022063D01*
X009265Y022074D01*
X009054Y022162D01*
X008824Y022162D01*
X008612Y022074D01*
X008450Y021912D01*
X008448Y021906D01*
X006545Y021906D01*
X006464Y021986D01*
X006481Y021969D02*
X008508Y021969D01*
X008742Y022128D02*
X003513Y022128D01*
X003513Y022286D02*
X016595Y022286D01*
X016595Y022128D02*
X009136Y022128D01*
X009550Y020701D02*
X012579Y020701D01*
X012644Y020543D02*
X009550Y020543D01*
X009695Y020384D02*
X012798Y020384D01*
X012865Y019592D02*
X027060Y019592D01*
X027020Y019433D02*
X012905Y019433D01*
X012905Y018482D02*
X015945Y018482D01*
X016104Y018324D02*
X012886Y018324D01*
X012769Y018165D02*
X016262Y018165D01*
X016421Y018007D02*
X012700Y018007D01*
X012700Y017848D02*
X016579Y017848D01*
X016606Y017690D02*
X012700Y017690D01*
X012700Y017531D02*
X016606Y017531D01*
X016606Y017373D02*
X012700Y017373D01*
X012871Y017214D02*
X016657Y017214D01*
X017237Y017751D02*
X016056Y018932D01*
X012089Y018932D01*
X011272Y019433D02*
X003513Y019433D01*
X003513Y019275D02*
X008773Y019275D01*
X008479Y019116D02*
X003513Y019116D01*
X003513Y018958D02*
X006825Y018958D01*
X006710Y018799D02*
X003513Y018799D01*
X003513Y018641D02*
X006694Y018641D01*
X006656Y018482D02*
X003513Y018482D01*
X003513Y018324D02*
X006498Y018324D01*
X006339Y018165D02*
X003513Y018165D01*
X003513Y018007D02*
X006181Y018007D01*
X006022Y017848D02*
X003513Y017848D01*
X003513Y017690D02*
X005623Y017690D01*
X005415Y017531D02*
X003513Y017531D01*
X003513Y017373D02*
X005288Y017373D01*
X005222Y017214D02*
X003513Y017214D01*
X003513Y017056D02*
X005186Y017056D01*
X005186Y016897D02*
X003513Y016897D01*
X003513Y016739D02*
X005211Y016739D01*
X005277Y016580D02*
X003513Y016580D01*
X003513Y016422D02*
X005389Y016422D01*
X005559Y016263D02*
X003513Y016263D01*
X003513Y016105D02*
X011272Y016105D01*
X011272Y016263D02*
X010920Y016263D01*
X011068Y016422D02*
X011272Y016422D01*
X011272Y016580D02*
X011134Y016580D01*
X011160Y016739D02*
X011272Y016739D01*
X011272Y016897D02*
X011160Y016897D01*
X011160Y017056D02*
X011272Y017056D01*
X011306Y017214D02*
X011160Y017214D01*
X011160Y017373D02*
X011477Y017373D01*
X011477Y017531D02*
X011160Y017531D01*
X011125Y017690D02*
X011477Y017690D01*
X011477Y017848D02*
X011125Y017848D01*
X011125Y018007D02*
X011477Y018007D01*
X009902Y018007D02*
X009550Y018007D01*
X009550Y018112D02*
X009601Y018163D01*
X009902Y018163D01*
X009902Y017644D01*
X009867Y017560D01*
X009867Y016643D01*
X009893Y016580D02*
X009269Y016580D01*
X009427Y016739D02*
X009515Y016951D01*
X009515Y017119D01*
X009550Y017204D01*
X009550Y018112D01*
X009550Y017848D02*
X009902Y017848D01*
X009902Y017690D02*
X009550Y017690D01*
X009550Y017531D02*
X009867Y017531D01*
X009867Y017373D02*
X009550Y017373D01*
X009550Y017214D02*
X009867Y017214D01*
X009867Y017056D02*
X009515Y017056D01*
X009493Y016897D02*
X009867Y016897D01*
X009959Y016422D02*
X006615Y016422D01*
X006727Y016580D02*
X008609Y016580D01*
X008451Y016739D02*
X006792Y016739D01*
X006818Y016897D02*
X008385Y016897D01*
X008363Y017056D02*
X006959Y017056D01*
X007118Y017214D02*
X008327Y017214D01*
X008327Y017373D02*
X007276Y017373D01*
X007435Y017531D02*
X008327Y017531D01*
X008327Y017690D02*
X007593Y017690D01*
X006445Y016263D02*
X010108Y016263D01*
X011297Y015946D02*
X003513Y015946D01*
X003513Y015788D02*
X011443Y015788D01*
X012734Y015788D02*
X020744Y015788D01*
X020902Y015629D02*
X003513Y015629D01*
X003513Y015471D02*
X021061Y015471D01*
X021219Y015312D02*
X003513Y015312D01*
X003513Y015154D02*
X021378Y015154D01*
X021536Y014995D02*
X003513Y014995D01*
X003513Y014837D02*
X021695Y014837D01*
X021853Y014678D02*
X003513Y014678D01*
X003513Y014520D02*
X022012Y014520D01*
X022170Y014361D02*
X003513Y014361D01*
X003513Y014203D02*
X008121Y014203D01*
X007834Y014044D02*
X003513Y014044D01*
X003513Y013886D02*
X007675Y013886D01*
X007608Y013727D02*
X003513Y013727D01*
X003513Y013569D02*
X007548Y013569D01*
X007548Y013410D02*
X003513Y013410D01*
X003513Y013252D02*
X003749Y013252D01*
X004680Y013252D02*
X007550Y013252D01*
X007616Y013093D02*
X004930Y013093D01*
X005088Y012935D02*
X007695Y012935D01*
X007753Y012776D02*
X005186Y012776D01*
X005262Y012618D02*
X007753Y012618D01*
X007753Y012459D02*
X005305Y012459D01*
X005324Y012301D02*
X007753Y012301D01*
X007817Y012142D02*
X005324Y012142D01*
X005295Y011984D02*
X007936Y011984D01*
X008018Y011902D02*
X008018Y011902D01*
X008094Y011825D02*
X005253Y011825D01*
X005166Y011667D02*
X008253Y011667D01*
X008411Y011508D02*
X005053Y011508D01*
X004894Y011350D02*
X008570Y011350D01*
X008728Y011191D02*
X004593Y011191D01*
X008976Y012776D02*
X021997Y012776D01*
X021839Y012618D02*
X009031Y012618D01*
X009190Y012459D02*
X021680Y012459D01*
X021522Y012301D02*
X009348Y012301D01*
X009507Y012142D02*
X021363Y012142D01*
X021205Y011984D02*
X009665Y011984D01*
X009824Y011825D02*
X021046Y011825D01*
X020888Y011667D02*
X009982Y011667D01*
X010141Y011508D02*
X020729Y011508D01*
X020571Y011350D02*
X010299Y011350D01*
X010458Y011191D02*
X020471Y011191D01*
X020420Y011033D02*
X010616Y011033D01*
X010775Y010874D02*
X020420Y010874D01*
X020420Y010716D02*
X010933Y010716D01*
X011092Y010557D02*
X020420Y010557D01*
X020420Y010399D02*
X018818Y010399D01*
X018861Y010240D02*
X020420Y010240D01*
X020420Y010082D02*
X018861Y010082D01*
X018861Y009923D02*
X020420Y009923D01*
X020367Y009765D02*
X018861Y009765D01*
X018861Y009606D02*
X020350Y009606D01*
X020358Y009448D02*
X018857Y009448D01*
X018759Y009289D02*
X020423Y009289D01*
X020547Y009131D02*
X018684Y009131D01*
X018684Y008972D02*
X020811Y008972D01*
X021181Y008972D02*
X024298Y008972D01*
X024298Y008814D02*
X018684Y008814D01*
X018684Y008655D02*
X024298Y008655D01*
X024298Y008497D02*
X018684Y008497D01*
X018684Y008338D02*
X024298Y008338D01*
X024298Y008180D02*
X018684Y008180D01*
X018684Y008021D02*
X022755Y008021D01*
X022537Y007863D02*
X018736Y007863D01*
X018802Y007704D02*
X022400Y007704D01*
X022334Y007546D02*
X018819Y007546D01*
X018819Y007387D02*
X022286Y007387D01*
X022286Y007229D02*
X018762Y007229D01*
X018684Y007070D02*
X022286Y007070D01*
X022286Y006912D02*
X018525Y006912D01*
X018176Y006753D02*
X022286Y006753D01*
X022286Y006595D02*
X018007Y006595D01*
X017409Y007863D02*
X012999Y007863D01*
X012840Y008021D02*
X017461Y008021D01*
X017461Y008180D02*
X012682Y008180D01*
X012523Y008338D02*
X017461Y008338D01*
X017461Y008497D02*
X012365Y008497D01*
X012206Y008655D02*
X017461Y008655D01*
X017461Y008814D02*
X012048Y008814D01*
X011889Y008972D02*
X017461Y008972D01*
X017461Y009131D02*
X011783Y009131D01*
X011783Y009289D02*
X017461Y009289D01*
X017461Y009448D02*
X011783Y009448D01*
X011783Y009606D02*
X017461Y009606D01*
X017461Y009765D02*
X011783Y009765D01*
X011741Y009923D02*
X017495Y009923D01*
X017570Y010082D02*
X011675Y010082D01*
X011561Y010240D02*
X017599Y010240D01*
X017642Y010399D02*
X011402Y010399D01*
X009996Y009923D02*
X009419Y009923D01*
X009419Y009765D02*
X009969Y009765D01*
X009969Y009606D02*
X009419Y009606D01*
X009419Y009448D02*
X009969Y009448D01*
X009969Y009289D02*
X009419Y009289D01*
X009419Y009131D02*
X009969Y009131D01*
X009969Y008972D02*
X009419Y008972D01*
X009419Y008814D02*
X009969Y008814D01*
X009969Y008655D02*
X009419Y008655D01*
X009419Y008497D02*
X009969Y008497D01*
X009969Y008338D02*
X009419Y008338D01*
X009419Y008180D02*
X010011Y008180D01*
X010077Y008021D02*
X009419Y008021D01*
X009419Y007863D02*
X010192Y007863D01*
X010351Y007704D02*
X009419Y007704D01*
X009419Y007546D02*
X011586Y007546D01*
X011428Y007704D02*
X011401Y007704D01*
X011745Y007387D02*
X009419Y007387D01*
X009419Y007229D02*
X011903Y007229D01*
X012062Y007070D02*
X009419Y007070D01*
X009419Y006912D02*
X012220Y006912D01*
X012379Y006753D02*
X009419Y006753D01*
X009419Y006595D02*
X012548Y006595D01*
X009419Y006436D02*
X022286Y006436D01*
X022286Y006278D02*
X009419Y006278D01*
X009419Y006119D02*
X022286Y006119D01*
X022313Y005961D02*
X009419Y005961D01*
X009419Y005802D02*
X022378Y005802D01*
X022485Y005644D02*
X009419Y005644D01*
X009419Y005485D02*
X022643Y005485D01*
X023248Y005327D02*
X009419Y005327D01*
X009419Y010082D02*
X009838Y010082D01*
X009679Y010240D02*
X009419Y010240D01*
X009419Y010399D02*
X009521Y010399D01*
X009033Y012935D02*
X022156Y012935D01*
X022314Y013093D02*
X009112Y013093D01*
X009178Y013252D02*
X022473Y013252D01*
X022631Y013410D02*
X009180Y013410D01*
X009180Y013569D02*
X022790Y013569D01*
X022782Y013727D02*
X009120Y013727D01*
X009053Y013886D02*
X022537Y013886D01*
X022447Y014044D02*
X008894Y014044D01*
X008607Y014203D02*
X022329Y014203D01*
X022885Y014208D02*
X020129Y016964D01*
X019569Y016964D01*
X019214Y017318D01*
X019214Y017751D01*
X019214Y018727D01*
X019206Y018735D01*
X019837Y018799D02*
X027020Y018799D01*
X027020Y018641D02*
X019837Y018641D01*
X019837Y018482D02*
X027020Y018482D01*
X027039Y018324D02*
X019837Y018324D01*
X019846Y018165D02*
X027156Y018165D01*
X027225Y018007D02*
X019846Y018007D01*
X019846Y017848D02*
X027225Y017848D01*
X027225Y017690D02*
X019846Y017690D01*
X019846Y017531D02*
X027225Y017531D01*
X027225Y017373D02*
X019846Y017373D01*
X020438Y017214D02*
X027054Y017214D01*
X026277Y017056D02*
X020597Y017056D01*
X020755Y016897D02*
X026118Y016897D01*
X025960Y016739D02*
X020914Y016739D01*
X021072Y016580D02*
X025801Y016580D01*
X025643Y016422D02*
X025573Y016422D01*
X024588Y016422D02*
X021231Y016422D01*
X021389Y016263D02*
X024436Y016263D01*
X024410Y016105D02*
X021548Y016105D01*
X021706Y015946D02*
X024410Y015946D01*
X024410Y015788D02*
X021865Y015788D01*
X022023Y015629D02*
X024410Y015629D01*
X024410Y015471D02*
X022182Y015471D01*
X022340Y015312D02*
X024473Y015312D01*
X024375Y015154D02*
X022499Y015154D01*
X022657Y014995D02*
X024216Y014995D01*
X024058Y014837D02*
X022816Y014837D01*
X023071Y014678D02*
X023899Y014678D01*
X023741Y014520D02*
X023302Y014520D01*
X023387Y014361D02*
X023582Y014361D01*
X023424Y014203D02*
X023410Y014203D01*
X022915Y014208D02*
X022885Y014208D01*
X024096Y013027D02*
X026262Y015192D01*
X030789Y015192D01*
X031774Y014208D01*
X031774Y014011D01*
X032229Y014203D02*
X037803Y014203D01*
X037645Y014361D02*
X032139Y014361D01*
X032150Y014334D02*
X032109Y014432D01*
X031998Y014544D01*
X031014Y015528D01*
X030868Y015588D01*
X030710Y015588D01*
X026538Y015588D01*
X026909Y015958D01*
X027040Y015958D01*
X027068Y015891D01*
X027157Y015802D01*
X027274Y015754D01*
X028399Y015754D01*
X028516Y015802D01*
X028605Y015891D01*
X028633Y015958D01*
X036048Y015958D01*
X038190Y013816D01*
X032228Y013816D01*
X032268Y013912D01*
X032268Y014109D01*
X032193Y014291D01*
X032150Y014334D01*
X032022Y014520D02*
X037486Y014520D01*
X037328Y014678D02*
X031863Y014678D01*
X031705Y014837D02*
X037169Y014837D01*
X037011Y014995D02*
X031546Y014995D01*
X031388Y015154D02*
X036852Y015154D01*
X036694Y015312D02*
X031229Y015312D01*
X031071Y015471D02*
X036535Y015471D01*
X036377Y015629D02*
X026580Y015629D01*
X026738Y015788D02*
X027191Y015788D01*
X027045Y015946D02*
X026897Y015946D01*
X026309Y014678D02*
X030742Y014678D01*
X030901Y014520D02*
X026150Y014520D01*
X025992Y014361D02*
X031059Y014361D01*
X031218Y014203D02*
X025833Y014203D01*
X025675Y014044D02*
X031279Y014044D01*
X031290Y013886D02*
X025516Y013886D01*
X025358Y013727D02*
X026009Y013727D01*
X025850Y013569D02*
X025199Y013569D01*
X025041Y013410D02*
X025692Y013410D01*
X025533Y013252D02*
X024882Y013252D01*
X024724Y013093D02*
X025375Y013093D01*
X025216Y012935D02*
X024591Y012935D01*
X024528Y012776D02*
X025058Y012776D01*
X024899Y012618D02*
X024387Y012618D01*
X024582Y012301D02*
X023251Y012301D01*
X023093Y012142D02*
X024424Y012142D01*
X024320Y011984D02*
X022934Y011984D01*
X022776Y011825D02*
X024298Y011825D01*
X024298Y011667D02*
X022617Y011667D01*
X022459Y011508D02*
X024298Y011508D01*
X024298Y011350D02*
X022300Y011350D01*
X022142Y011191D02*
X024298Y011191D01*
X024298Y011033D02*
X021983Y011033D01*
X021825Y010874D02*
X024298Y010874D01*
X024298Y010716D02*
X021666Y010716D01*
X021643Y010557D02*
X024298Y010557D01*
X024298Y010399D02*
X021643Y010399D01*
X021643Y010240D02*
X024298Y010240D01*
X024298Y010082D02*
X021643Y010082D01*
X021643Y009923D02*
X024298Y009923D01*
X024298Y009765D02*
X021643Y009765D01*
X021643Y009606D02*
X024298Y009606D01*
X024298Y009448D02*
X021634Y009448D01*
X021569Y009289D02*
X024298Y009289D01*
X024298Y009131D02*
X021445Y009131D01*
X023513Y008021D02*
X024298Y008021D01*
X024097Y007863D02*
X023731Y007863D01*
X023869Y007704D02*
X023960Y007704D01*
X024694Y006727D02*
X024694Y011853D01*
X026262Y013420D01*
X038663Y013420D01*
X040923Y011160D01*
X040923Y009723D01*
X041419Y008893D02*
X042010Y008302D01*
X042797Y008302D01*
X043577Y007522D01*
X043577Y007121D01*
X044426Y007070D02*
X046141Y007070D01*
X046141Y006912D02*
X044426Y006912D01*
X044426Y006753D02*
X046141Y006753D01*
X046141Y006595D02*
X044426Y006595D01*
X044426Y006436D02*
X046141Y006436D01*
X046141Y006278D02*
X044426Y006278D01*
X044426Y006119D02*
X046141Y006119D01*
X046141Y006058D02*
X046201Y005912D01*
X046707Y005407D01*
X046852Y005347D01*
X049569Y005347D01*
X049715Y005407D01*
X049826Y005519D01*
X049951Y005644D01*
X049951Y005644D01*
X050178Y005738D01*
X050351Y005911D01*
X050445Y006137D01*
X050445Y006983D01*
X050351Y007209D01*
X050178Y007382D01*
X049951Y007476D01*
X049706Y007476D01*
X049480Y007382D01*
X049329Y007231D01*
X049225Y007335D01*
X049225Y008452D01*
X049165Y008597D01*
X049053Y008709D01*
X048955Y008807D01*
X049046Y008807D01*
X049272Y008901D01*
X049429Y009058D01*
X049429Y009058D01*
X049545Y009010D01*
X050301Y009010D01*
X050417Y009058D01*
X050506Y009147D01*
X050554Y009263D01*
X050554Y010097D01*
X050506Y010214D01*
X050417Y010302D01*
X050301Y010351D01*
X049545Y010351D01*
X049511Y010336D01*
X049511Y010983D01*
X049418Y011208D01*
X049246Y011380D01*
X048979Y011646D01*
X049917Y011646D01*
X050356Y011206D01*
X050502Y011146D01*
X051913Y011146D01*
X051914Y011144D01*
X051757Y011144D01*
X051580Y011071D01*
X051445Y010936D01*
X051372Y010760D01*
X051372Y005239D01*
X040210Y005239D01*
X040318Y005346D01*
X040626Y005346D01*
X040938Y005475D01*
X041177Y005714D01*
X041237Y005860D01*
X041298Y005714D01*
X041536Y005475D01*
X041848Y005346D01*
X042186Y005346D01*
X042498Y005475D01*
X042737Y005714D01*
X042797Y005860D01*
X042858Y005714D01*
X043096Y005475D01*
X043408Y005346D01*
X043746Y005346D01*
X044058Y005475D01*
X044297Y005714D01*
X044426Y006026D01*
X044426Y007429D01*
X044297Y007741D01*
X044131Y007906D01*
X045586Y007906D01*
X046141Y007351D01*
X046141Y006058D01*
X046181Y005961D02*
X044399Y005961D01*
X044333Y005802D02*
X046311Y005802D01*
X046470Y005644D02*
X044227Y005644D01*
X044068Y005485D02*
X046628Y005485D01*
X046931Y005743D02*
X046537Y006137D01*
X046537Y007515D01*
X045750Y008302D01*
X043585Y008302D01*
X043191Y008696D01*
X042600Y008696D01*
X041923Y009373D01*
X041923Y009723D01*
X042423Y010395D02*
X042272Y010546D01*
X042046Y010640D01*
X041815Y010640D01*
X041815Y010870D01*
X041888Y010840D01*
X044775Y010840D01*
X044587Y010653D01*
X044527Y010507D01*
X044527Y010499D01*
X044401Y010372D01*
X044307Y010146D01*
X044307Y009301D01*
X044312Y009289D01*
X043749Y009289D01*
X043539Y009498D01*
X043539Y010146D01*
X043446Y010372D01*
X043272Y010546D01*
X043046Y010640D01*
X042801Y010640D01*
X042574Y010546D01*
X042423Y010395D01*
X042419Y010399D02*
X042427Y010399D01*
X042602Y010557D02*
X042244Y010557D01*
X041815Y010716D02*
X044651Y010716D01*
X044548Y010557D02*
X043244Y010557D01*
X043419Y010399D02*
X044427Y010399D01*
X044346Y010240D02*
X043500Y010240D01*
X043539Y010082D02*
X044307Y010082D01*
X044307Y009923D02*
X043539Y009923D01*
X043539Y009765D02*
X044307Y009765D01*
X044307Y009606D02*
X043539Y009606D01*
X043590Y009448D02*
X044307Y009448D01*
X044312Y009289D02*
X043748Y009289D01*
X043585Y008893D02*
X042923Y009554D01*
X042923Y009723D01*
X043585Y008893D02*
X046734Y008893D01*
X047829Y007798D01*
X047829Y006560D01*
X048829Y006560D02*
X048829Y008373D01*
X048427Y008775D01*
X048427Y010546D01*
X048112Y010861D01*
X045356Y010861D01*
X044923Y010428D01*
X044923Y009723D01*
X045629Y007863D02*
X044174Y007863D01*
X044312Y007704D02*
X045787Y007704D01*
X045946Y007546D02*
X044377Y007546D01*
X044426Y007387D02*
X046104Y007387D01*
X046141Y007229D02*
X044426Y007229D01*
X042821Y005802D02*
X042773Y005802D01*
X042667Y005644D02*
X042928Y005644D01*
X043086Y005485D02*
X042508Y005485D01*
X041526Y005485D02*
X040948Y005485D01*
X041107Y005644D02*
X041368Y005644D01*
X041261Y005802D02*
X041213Y005802D01*
X040299Y005327D02*
X051372Y005327D01*
X051372Y005485D02*
X049793Y005485D01*
X049826Y005519D02*
X049826Y005519D01*
X049952Y005644D02*
X051372Y005644D01*
X051372Y005802D02*
X050243Y005802D01*
X050372Y005961D02*
X051372Y005961D01*
X051372Y006119D02*
X050437Y006119D01*
X050445Y006278D02*
X051372Y006278D01*
X051372Y006436D02*
X050445Y006436D01*
X050445Y006595D02*
X051372Y006595D01*
X051372Y006753D02*
X050445Y006753D01*
X050445Y006912D02*
X051372Y006912D01*
X051372Y007070D02*
X050408Y007070D01*
X050331Y007229D02*
X051372Y007229D01*
X051372Y007387D02*
X050166Y007387D01*
X049492Y007387D02*
X049225Y007387D01*
X049225Y007546D02*
X051372Y007546D01*
X051372Y007704D02*
X049225Y007704D01*
X049225Y007863D02*
X051372Y007863D01*
X051372Y008021D02*
X049225Y008021D01*
X049225Y008180D02*
X051372Y008180D01*
X051372Y008338D02*
X049225Y008338D01*
X049206Y008497D02*
X051372Y008497D01*
X051372Y008655D02*
X049107Y008655D01*
X049053Y008709D02*
X049053Y008709D01*
X049062Y008814D02*
X051372Y008814D01*
X051372Y008972D02*
X049344Y008972D01*
X050491Y009131D02*
X051372Y009131D01*
X051372Y009289D02*
X050554Y009289D01*
X050554Y009448D02*
X051372Y009448D01*
X051372Y009606D02*
X050554Y009606D01*
X050554Y009765D02*
X051372Y009765D01*
X051372Y009923D02*
X050554Y009923D01*
X050554Y010082D02*
X051372Y010082D01*
X051372Y010240D02*
X050479Y010240D01*
X051372Y010399D02*
X049511Y010399D01*
X049511Y010557D02*
X051372Y010557D01*
X051372Y010716D02*
X049511Y010716D01*
X049511Y010874D02*
X051420Y010874D01*
X051542Y011033D02*
X049490Y011033D01*
X049425Y011191D02*
X050392Y011191D01*
X050213Y011350D02*
X049276Y011350D01*
X049117Y011508D02*
X050054Y011508D01*
X050581Y011542D02*
X050081Y012042D01*
X042403Y012042D01*
X040435Y014011D01*
X040086Y014361D02*
X040054Y014361D01*
X041596Y013410D02*
X057278Y013410D01*
X057278Y013252D02*
X056845Y013252D01*
X057095Y013093D02*
X057278Y013093D01*
X057278Y012935D02*
X057254Y012935D01*
X055914Y013252D02*
X042480Y013252D01*
X042633Y013093D02*
X055664Y013093D01*
X055506Y012935D02*
X042698Y012935D01*
X042207Y012830D02*
X042600Y012436D01*
X050277Y012436D01*
X050671Y012042D01*
X053427Y012042D01*
X053927Y011542D01*
X054214Y011542D01*
X053887Y012142D02*
X055270Y012142D01*
X055270Y012301D02*
X053729Y012301D01*
X054896Y011984D02*
X055299Y011984D01*
X055342Y011825D02*
X055023Y011825D01*
X055088Y011667D02*
X055429Y011667D01*
X055541Y011508D02*
X055091Y011508D01*
X055060Y011350D02*
X055700Y011350D01*
X056001Y011191D02*
X054987Y011191D01*
X055290Y012459D02*
X050814Y012459D01*
X050656Y012618D02*
X055332Y012618D01*
X055408Y012776D02*
X050491Y012776D01*
X049552Y013727D02*
X049530Y013727D01*
X048552Y013727D02*
X048530Y013727D01*
X047552Y013727D02*
X047530Y013727D01*
X046552Y013727D02*
X046530Y013727D01*
X045552Y013727D02*
X045530Y013727D01*
X044552Y013727D02*
X044530Y013727D01*
X043552Y013727D02*
X043530Y013727D01*
X041933Y013252D02*
X041754Y013252D01*
X041419Y012436D02*
X035923Y017932D01*
X035923Y019723D01*
X036539Y019750D02*
X037307Y019750D01*
X037307Y019592D02*
X036539Y019592D01*
X036539Y019433D02*
X037307Y019433D01*
X037318Y019275D02*
X036529Y019275D01*
X036463Y019116D02*
X037383Y019116D01*
X037517Y018958D02*
X036329Y018958D01*
X035517Y018958D02*
X035329Y018958D01*
X035527Y018799D02*
X032989Y018799D01*
X032830Y018641D02*
X035527Y018641D01*
X035527Y018482D02*
X032672Y018482D01*
X032513Y018324D02*
X035527Y018324D01*
X035527Y018165D02*
X032355Y018165D01*
X032196Y018007D02*
X035527Y018007D01*
X035529Y017848D02*
X028448Y017848D01*
X028448Y017690D02*
X035605Y017690D01*
X035763Y017531D02*
X028448Y017531D01*
X028448Y017373D02*
X035922Y017373D01*
X036080Y017214D02*
X028619Y017214D01*
X028448Y018007D02*
X030367Y018007D01*
X030208Y018165D02*
X028517Y018165D01*
X028634Y018324D02*
X030050Y018324D01*
X029891Y018482D02*
X028653Y018482D01*
X028653Y018641D02*
X029733Y018641D01*
X029628Y018799D02*
X028653Y018799D01*
X028653Y018958D02*
X029606Y018958D01*
X029606Y019116D02*
X028653Y019116D01*
X028653Y019275D02*
X029606Y019275D01*
X029606Y019433D02*
X028653Y019433D01*
X028613Y019592D02*
X029606Y019592D01*
X029606Y019750D02*
X009688Y019750D01*
X009754Y019909D02*
X029449Y019909D01*
X029290Y020067D02*
X009775Y020067D01*
X009760Y020226D02*
X027754Y020226D01*
X027595Y020384D02*
X019253Y020384D01*
X019407Y020543D02*
X027437Y020543D01*
X027278Y020701D02*
X027149Y020701D01*
X027246Y021294D02*
X026625Y021294D01*
X026100Y020701D02*
X026029Y020701D01*
X025505Y021294D02*
X019766Y021294D01*
X018585Y022475D01*
X018585Y026215D01*
X019356Y026987D01*
X019356Y027905D01*
X018883Y027834D02*
X016847Y027834D01*
X016696Y027992D02*
X018883Y027992D01*
X018883Y028151D02*
X016696Y028151D01*
X016696Y028309D02*
X018883Y028309D01*
X018883Y028468D02*
X016670Y028468D01*
X016518Y028626D02*
X018910Y028626D01*
X019070Y028785D02*
X012476Y028785D01*
X012432Y028803D02*
X012107Y028803D01*
X011807Y028679D01*
X011578Y028449D01*
X011453Y028149D01*
X011453Y027825D01*
X011578Y027525D01*
X011807Y027295D01*
X012107Y027171D01*
X012432Y027171D01*
X012732Y027295D01*
X012962Y027525D01*
X013086Y027825D01*
X013086Y028149D01*
X012962Y028449D01*
X012732Y028679D01*
X012432Y028803D01*
X012063Y028785D02*
X010146Y028785D01*
X010454Y028626D02*
X011755Y028626D01*
X011596Y028468D02*
X010612Y028468D01*
X010689Y028309D02*
X011520Y028309D01*
X011454Y028151D02*
X010755Y028151D01*
X010755Y027992D02*
X011453Y027992D01*
X011453Y027834D02*
X010755Y027834D01*
X010693Y027675D02*
X011515Y027675D01*
X011585Y027517D02*
X010623Y027517D01*
X010465Y027358D02*
X011744Y027358D01*
X012037Y027200D02*
X010171Y027200D01*
X012502Y027200D02*
X015751Y027200D01*
X015579Y027358D02*
X012795Y027358D01*
X012954Y027517D02*
X015406Y027517D01*
X015341Y027675D02*
X013024Y027675D01*
X013086Y027834D02*
X015334Y027834D01*
X015355Y027992D02*
X013086Y027992D01*
X013085Y028151D02*
X015355Y028151D01*
X015355Y028309D02*
X013020Y028309D01*
X012943Y028468D02*
X015381Y028468D01*
X015533Y028626D02*
X012785Y028626D01*
X014073Y029577D02*
X018462Y029577D01*
X018244Y029736D02*
X014231Y029736D01*
X014390Y029894D02*
X018085Y029894D01*
X018000Y030053D02*
X014548Y030053D01*
X014707Y030211D02*
X017991Y030211D01*
X017991Y030370D02*
X014844Y030370D01*
X014844Y030528D02*
X016329Y030528D01*
X016384Y030496D02*
X016667Y030421D01*
X016959Y030421D01*
X017241Y030496D01*
X017494Y030642D01*
X017701Y030849D01*
X017847Y031102D01*
X017923Y031384D01*
X017923Y031677D01*
X017847Y031959D01*
X017701Y032212D01*
X017494Y032419D01*
X017241Y032565D01*
X016959Y032640D01*
X016667Y032640D01*
X016384Y032565D01*
X016131Y032419D01*
X015925Y032212D01*
X015779Y031959D01*
X015703Y031677D01*
X015703Y031384D01*
X015779Y031102D01*
X015925Y030849D01*
X016131Y030642D01*
X016384Y030496D01*
X016087Y030687D02*
X014844Y030687D01*
X014844Y030845D02*
X015928Y030845D01*
X015835Y031004D02*
X014844Y031004D01*
X014844Y031162D02*
X015762Y031162D01*
X015720Y031321D02*
X014844Y031321D01*
X014844Y031479D02*
X015703Y031479D01*
X015703Y031638D02*
X014844Y031638D01*
X014844Y031796D02*
X015735Y031796D01*
X015778Y031955D02*
X014844Y031955D01*
X014844Y032113D02*
X015868Y032113D01*
X015985Y032272D02*
X014844Y032272D01*
X014844Y032430D02*
X016152Y032430D01*
X016475Y032589D02*
X014844Y032589D01*
X014844Y032747D02*
X017991Y032747D01*
X017991Y032589D02*
X017151Y032589D01*
X017474Y032430D02*
X017991Y032430D01*
X017991Y032272D02*
X017641Y032272D01*
X017758Y032113D02*
X017991Y032113D01*
X017991Y031955D02*
X017848Y031955D01*
X017891Y031796D02*
X017991Y031796D01*
X017991Y031638D02*
X017923Y031638D01*
X017923Y031479D02*
X017991Y031479D01*
X017991Y031321D02*
X017906Y031321D01*
X017863Y031162D02*
X017991Y031162D01*
X017991Y031004D02*
X017791Y031004D01*
X017698Y030845D02*
X017991Y030845D01*
X017991Y030687D02*
X017539Y030687D01*
X017297Y030528D02*
X017991Y030528D01*
X020832Y029419D02*
X026179Y029419D01*
X026179Y029260D02*
X020832Y029260D01*
X020832Y029102D02*
X022368Y029102D01*
X022217Y028943D02*
X020832Y028943D01*
X020856Y027905D02*
X020856Y026927D01*
X021174Y026609D01*
X021806Y026566D02*
X025259Y026566D01*
X025259Y026724D02*
X021806Y026724D01*
X021806Y026883D02*
X025259Y026883D01*
X025259Y027041D02*
X023519Y027041D01*
X023586Y027200D02*
X025203Y027200D01*
X025182Y027358D02*
X023586Y027358D01*
X023586Y027517D02*
X025182Y027517D01*
X025182Y027675D02*
X023586Y027675D01*
X022390Y027041D02*
X022180Y027041D01*
X021806Y026407D02*
X025259Y026407D01*
X025259Y026249D02*
X021806Y026249D01*
X021764Y026090D02*
X025259Y026090D01*
X025259Y025932D02*
X021133Y025932D01*
X021146Y025773D02*
X023513Y025773D01*
X023437Y025742D02*
X023208Y025512D01*
X023083Y025212D01*
X023083Y024888D01*
X023208Y024588D01*
X023437Y024358D01*
X023737Y024234D01*
X024062Y024234D01*
X024362Y024358D01*
X024591Y024588D01*
X024716Y024888D01*
X024716Y025212D01*
X024591Y025512D01*
X024362Y025742D01*
X024062Y025866D01*
X023737Y025866D01*
X023437Y025742D01*
X023310Y025615D02*
X021146Y025615D01*
X021146Y025456D02*
X023184Y025456D01*
X023119Y025298D02*
X021146Y025298D01*
X021146Y025139D02*
X023083Y025139D01*
X023083Y024981D02*
X021146Y024981D01*
X021146Y024822D02*
X023110Y024822D01*
X023176Y024664D02*
X021146Y024664D01*
X021146Y024505D02*
X023290Y024505D01*
X023464Y024347D02*
X021153Y024347D01*
X021228Y024188D02*
X025259Y024188D01*
X025259Y024030D02*
X021245Y024030D01*
X021211Y023871D02*
X025259Y023871D01*
X025291Y023713D02*
X021112Y023713D01*
X020750Y024050D02*
X020750Y025822D01*
X019856Y026715D01*
X019856Y027905D01*
X018883Y027675D02*
X017005Y027675D01*
X017164Y027517D02*
X018883Y027517D01*
X018883Y027358D02*
X017322Y027358D01*
X017481Y027200D02*
X018904Y027200D01*
X018850Y027041D02*
X017681Y027041D01*
X017836Y026883D02*
X018692Y026883D01*
X018533Y026724D02*
X017898Y026724D01*
X017898Y026566D02*
X018375Y026566D01*
X018235Y026407D02*
X017898Y026407D01*
X017898Y026249D02*
X018188Y026249D01*
X018188Y026090D02*
X017898Y026090D01*
X017898Y025932D02*
X018188Y025932D01*
X018188Y025773D02*
X017898Y025773D01*
X017853Y025615D02*
X018188Y025615D01*
X018188Y025456D02*
X017818Y025456D01*
X017818Y025298D02*
X018188Y025298D01*
X018188Y025139D02*
X017818Y025139D01*
X017818Y024981D02*
X018188Y024981D01*
X018188Y024822D02*
X017818Y024822D01*
X017818Y024664D02*
X018188Y024664D01*
X018188Y024505D02*
X017818Y024505D01*
X017818Y024347D02*
X018188Y024347D01*
X018188Y024188D02*
X017818Y024188D01*
X017818Y024030D02*
X018188Y024030D01*
X018188Y023871D02*
X017818Y023871D01*
X017818Y023713D02*
X018188Y023713D01*
X018188Y023554D02*
X017818Y023554D01*
X017818Y023396D02*
X018188Y023396D01*
X018188Y023237D02*
X017818Y023237D01*
X017818Y023079D02*
X018188Y023079D01*
X018188Y022920D02*
X017818Y022920D01*
X017818Y022762D02*
X018188Y022762D01*
X018188Y022603D02*
X017818Y022603D01*
X017818Y022445D02*
X018188Y022445D01*
X018234Y022286D02*
X017867Y022286D01*
X018025Y022128D02*
X018372Y022128D01*
X019017Y022603D02*
X026361Y022603D01*
X026519Y022445D02*
X019175Y022445D01*
X019334Y022286D02*
X026678Y022286D01*
X026836Y022128D02*
X019492Y022128D01*
X018981Y022762D02*
X026202Y022762D01*
X026044Y022920D02*
X018981Y022920D01*
X018981Y023079D02*
X025885Y023079D01*
X025727Y023237D02*
X018981Y023237D01*
X018981Y023396D02*
X025568Y023396D01*
X025410Y023554D02*
X018981Y023554D01*
X018981Y023713D02*
X020388Y023713D01*
X020289Y023871D02*
X018981Y023871D01*
X018981Y024030D02*
X020255Y024030D01*
X020272Y024188D02*
X018981Y024188D01*
X018981Y024347D02*
X019134Y024347D01*
X020004Y024347D02*
X020347Y024347D01*
X020354Y024505D02*
X020178Y024505D01*
X020292Y024664D02*
X020354Y024664D01*
X024286Y025773D02*
X025259Y025773D01*
X025259Y025615D02*
X024489Y025615D01*
X024615Y025456D02*
X025259Y025456D01*
X025259Y025298D02*
X024680Y025298D01*
X024716Y025139D02*
X025259Y025139D01*
X025259Y024981D02*
X024716Y024981D01*
X024689Y024822D02*
X025259Y024822D01*
X025259Y024664D02*
X024623Y024664D01*
X024509Y024505D02*
X025259Y024505D01*
X025259Y024347D02*
X024335Y024347D01*
X026052Y024347D02*
X026548Y024347D01*
X026554Y024505D02*
X026052Y024505D01*
X026052Y024664D02*
X026554Y024664D01*
X026554Y024822D02*
X026052Y024822D01*
X026052Y024981D02*
X026554Y024981D01*
X026554Y025139D02*
X026052Y025139D01*
X026052Y025298D02*
X026554Y025298D01*
X026554Y025456D02*
X026052Y025456D01*
X026052Y025615D02*
X026499Y025615D01*
X026340Y025773D02*
X026052Y025773D01*
X026052Y025932D02*
X026182Y025932D01*
X026155Y026519D02*
X026951Y025723D01*
X026951Y024050D01*
X027412Y023871D02*
X030787Y023871D01*
X030787Y023713D02*
X027313Y023713D01*
X027445Y024030D02*
X030787Y024030D01*
X030787Y024188D02*
X027429Y024188D01*
X027353Y024347D02*
X027795Y024347D01*
X027768Y024358D02*
X028068Y024234D01*
X028393Y024234D01*
X028693Y024358D01*
X028922Y024588D01*
X029046Y024888D01*
X029046Y025212D01*
X028922Y025512D01*
X028693Y025742D01*
X028393Y025866D01*
X028068Y025866D01*
X027768Y025742D01*
X027538Y025512D01*
X027414Y025212D01*
X027414Y024888D01*
X027538Y024588D01*
X027768Y024358D01*
X027621Y024505D02*
X027347Y024505D01*
X027347Y024664D02*
X027507Y024664D01*
X027441Y024822D02*
X027347Y024822D01*
X027347Y024981D02*
X027414Y024981D01*
X027414Y025139D02*
X027347Y025139D01*
X027347Y025298D02*
X027449Y025298D01*
X027515Y025456D02*
X027347Y025456D01*
X027347Y025615D02*
X027641Y025615D01*
X027844Y025773D02*
X027347Y025773D01*
X027293Y025932D02*
X030800Y025932D01*
X030787Y025773D02*
X028617Y025773D01*
X028820Y025615D02*
X030787Y025615D01*
X030787Y025456D02*
X028945Y025456D01*
X029011Y025298D02*
X030787Y025298D01*
X030787Y025139D02*
X029046Y025139D01*
X029046Y024981D02*
X030787Y024981D01*
X030787Y024822D02*
X029019Y024822D01*
X028954Y024664D02*
X030787Y024664D01*
X030787Y024505D02*
X028840Y024505D01*
X028665Y024347D02*
X030787Y024347D01*
X030787Y023554D02*
X026530Y023554D01*
X026588Y023713D02*
X026372Y023713D01*
X026489Y023871D02*
X026213Y023871D01*
X026055Y024030D02*
X026456Y024030D01*
X026473Y024188D02*
X026052Y024188D01*
X026689Y023396D02*
X030787Y023396D01*
X030787Y023237D02*
X026847Y023237D01*
X027006Y023079D02*
X030787Y023079D01*
X030814Y022920D02*
X027164Y022920D01*
X027323Y022762D02*
X030927Y022762D01*
X031085Y022603D02*
X027481Y022603D01*
X027640Y022445D02*
X031244Y022445D01*
X031402Y022286D02*
X027798Y022286D01*
X027957Y022128D02*
X031561Y022128D01*
X032167Y022082D02*
X031183Y023066D01*
X031183Y025822D01*
X031955Y026593D01*
X031955Y027905D01*
X031481Y027834D02*
X029885Y027834D01*
X029885Y027992D02*
X031481Y027992D01*
X031481Y028151D02*
X029881Y028151D01*
X029885Y028309D02*
X031481Y028309D01*
X031481Y028468D02*
X029885Y028468D01*
X029885Y028626D02*
X031509Y028626D01*
X031668Y028785D02*
X029885Y028785D01*
X029885Y028943D02*
X032478Y028943D01*
X032478Y029102D02*
X029841Y029102D01*
X030686Y029894D02*
X028926Y029894D01*
X028768Y029736D02*
X030844Y029736D01*
X031064Y029577D02*
X028549Y029577D01*
X028427Y029956D02*
X024884Y029956D01*
X024293Y030546D01*
X024293Y033499D01*
X025868Y035074D01*
X025868Y038617D01*
X026262Y039011D01*
X029805Y039011D01*
X030199Y038617D01*
X030199Y035467D01*
X029411Y034680D01*
X029411Y030940D01*
X028427Y029956D01*
X028524Y030053D02*
X024786Y030053D01*
X024628Y030211D02*
X028683Y030211D01*
X028841Y030370D02*
X024469Y030370D01*
X024311Y030528D02*
X029000Y030528D01*
X029158Y030687D02*
X024293Y030687D01*
X024293Y030845D02*
X029317Y030845D01*
X029411Y031004D02*
X024293Y031004D01*
X024293Y031162D02*
X029411Y031162D01*
X029411Y031321D02*
X024293Y031321D01*
X024293Y031479D02*
X029411Y031479D01*
X029411Y031638D02*
X024293Y031638D01*
X024293Y031796D02*
X029411Y031796D01*
X029411Y031955D02*
X024293Y031955D01*
X024293Y032113D02*
X029411Y032113D01*
X029411Y032272D02*
X024293Y032272D01*
X024293Y032430D02*
X029411Y032430D01*
X029411Y032589D02*
X024293Y032589D01*
X024293Y032747D02*
X029411Y032747D01*
X029411Y032906D02*
X024293Y032906D01*
X024293Y033064D02*
X029411Y033064D01*
X029411Y033223D02*
X024293Y033223D01*
X024293Y033381D02*
X029411Y033381D01*
X029411Y033540D02*
X024334Y033540D01*
X024493Y033698D02*
X029411Y033698D01*
X029411Y033857D02*
X024651Y033857D01*
X024810Y034015D02*
X029411Y034015D01*
X029411Y034174D02*
X024968Y034174D01*
X025127Y034332D02*
X029411Y034332D01*
X029411Y034491D02*
X025285Y034491D01*
X025444Y034649D02*
X029411Y034649D01*
X029539Y034808D02*
X025602Y034808D01*
X025761Y034966D02*
X029698Y034966D01*
X029856Y035125D02*
X025868Y035125D01*
X025868Y035283D02*
X030015Y035283D01*
X030173Y035442D02*
X025868Y035442D01*
X025868Y035600D02*
X030199Y035600D01*
X030199Y035759D02*
X025868Y035759D01*
X025868Y035917D02*
X030199Y035917D01*
X030199Y036076D02*
X025868Y036076D01*
X025868Y036234D02*
X030199Y036234D01*
X030199Y036393D02*
X025868Y036393D01*
X025868Y036551D02*
X030199Y036551D01*
X030199Y036710D02*
X025868Y036710D01*
X025868Y036868D02*
X030199Y036868D01*
X030199Y037027D02*
X025868Y037027D01*
X025868Y037185D02*
X030199Y037185D01*
X030199Y037344D02*
X025868Y037344D01*
X025868Y037502D02*
X030199Y037502D01*
X030199Y037661D02*
X025868Y037661D01*
X025868Y037819D02*
X030199Y037819D01*
X030199Y037978D02*
X025868Y037978D01*
X025868Y038136D02*
X030199Y038136D01*
X030199Y038295D02*
X025868Y038295D01*
X025868Y038453D02*
X030199Y038453D01*
X030199Y038612D02*
X025868Y038612D01*
X026021Y038770D02*
X030045Y038770D01*
X029887Y038929D02*
X026180Y038929D01*
X025937Y039246D02*
X024618Y039246D01*
X024777Y039087D02*
X025778Y039087D01*
X025620Y038929D02*
X024935Y038929D01*
X025052Y038770D02*
X025503Y038770D01*
X025472Y038612D02*
X025083Y038612D01*
X025083Y038453D02*
X025472Y038453D01*
X025472Y038295D02*
X025083Y038295D01*
X025083Y038136D02*
X025472Y038136D01*
X025472Y037978D02*
X025083Y037978D01*
X025083Y037819D02*
X025472Y037819D01*
X025472Y037661D02*
X025083Y037661D01*
X025083Y037502D02*
X025472Y037502D01*
X025472Y037344D02*
X025083Y037344D01*
X025083Y037185D02*
X025472Y037185D01*
X025472Y037027D02*
X025083Y037027D01*
X025083Y036868D02*
X025472Y036868D01*
X025472Y036710D02*
X025083Y036710D01*
X025083Y036551D02*
X025472Y036551D01*
X025472Y036393D02*
X025083Y036393D01*
X025083Y036234D02*
X025472Y036234D01*
X025472Y036076D02*
X025083Y036076D01*
X025083Y035917D02*
X025472Y035917D01*
X025472Y035759D02*
X025083Y035759D01*
X025083Y035600D02*
X025472Y035600D01*
X025472Y035442D02*
X025083Y035442D01*
X025040Y035283D02*
X025472Y035283D01*
X025359Y035125D02*
X024905Y035125D01*
X024746Y034966D02*
X025200Y034966D01*
X025042Y034808D02*
X024588Y034808D01*
X024429Y034649D02*
X024883Y034649D01*
X024725Y034491D02*
X024271Y034491D01*
X024112Y034332D02*
X024566Y034332D01*
X024408Y034174D02*
X023954Y034174D01*
X023795Y034015D02*
X024249Y034015D01*
X024091Y033857D02*
X023637Y033857D01*
X023508Y033698D02*
X023947Y033698D01*
X023897Y033540D02*
X023508Y033540D01*
X023508Y033381D02*
X023897Y033381D01*
X023897Y033223D02*
X023508Y033223D01*
X023508Y033064D02*
X023897Y033064D01*
X023897Y032906D02*
X023508Y032906D01*
X023508Y032747D02*
X023897Y032747D01*
X023897Y032589D02*
X023508Y032589D01*
X023508Y032430D02*
X023897Y032430D01*
X023897Y032272D02*
X023508Y032272D01*
X023508Y032113D02*
X023897Y032113D01*
X023897Y031955D02*
X023508Y031955D01*
X023508Y031796D02*
X023897Y031796D01*
X023897Y031638D02*
X023508Y031638D01*
X023508Y031479D02*
X023897Y031479D01*
X023897Y031321D02*
X023508Y031321D01*
X023508Y031162D02*
X023897Y031162D01*
X023897Y031004D02*
X023508Y031004D01*
X023502Y030845D02*
X023897Y030845D01*
X023897Y030687D02*
X023420Y030687D01*
X023261Y030528D02*
X023897Y030528D01*
X023937Y030370D02*
X023103Y030370D01*
X022944Y030211D02*
X024068Y030211D01*
X024226Y030053D02*
X022786Y030053D01*
X026155Y027905D02*
X026155Y026519D01*
X027155Y026927D02*
X027474Y026609D01*
X027155Y026927D02*
X027155Y027905D01*
X028105Y026883D02*
X031558Y026883D01*
X031558Y027041D02*
X029818Y027041D01*
X029885Y027200D02*
X031503Y027200D01*
X031481Y027358D02*
X029885Y027358D01*
X029885Y027517D02*
X031481Y027517D01*
X031481Y027675D02*
X029885Y027675D01*
X028689Y027041D02*
X028479Y027041D01*
X028105Y026724D02*
X031525Y026724D01*
X031367Y026566D02*
X028105Y026566D01*
X028105Y026407D02*
X031208Y026407D01*
X031050Y026249D02*
X028105Y026249D01*
X028063Y026090D02*
X030891Y026090D01*
X032794Y026090D02*
X033183Y026090D01*
X033142Y026249D02*
X032851Y026249D01*
X032851Y026407D02*
X033142Y026407D01*
X033142Y026566D02*
X032851Y026566D01*
X032851Y026724D02*
X033110Y026724D01*
X033058Y026883D02*
X032851Y026883D01*
X032478Y029260D02*
X027132Y029260D01*
X027132Y029102D02*
X028667Y029102D01*
X028552Y028979D02*
X028552Y028979D01*
X028517Y028943D02*
X027132Y028943D01*
X027132Y029419D02*
X032478Y029419D01*
X030527Y030053D02*
X029085Y030053D01*
X029243Y030211D02*
X030369Y030211D01*
X030238Y030370D02*
X029402Y030370D01*
X029560Y030528D02*
X030197Y030528D01*
X030197Y030687D02*
X029719Y030687D01*
X029801Y030845D02*
X030197Y030845D01*
X030197Y031004D02*
X029808Y031004D01*
X029808Y031162D02*
X030197Y031162D01*
X030197Y031321D02*
X029808Y031321D01*
X029808Y031479D02*
X030197Y031479D01*
X030197Y031638D02*
X029808Y031638D01*
X029808Y031796D02*
X030197Y031796D01*
X030197Y031955D02*
X029808Y031955D01*
X029808Y032113D02*
X030197Y032113D01*
X030197Y032272D02*
X029808Y032272D01*
X029808Y032430D02*
X030197Y032430D01*
X030197Y032589D02*
X029808Y032589D01*
X029808Y032747D02*
X030197Y032747D01*
X030197Y032906D02*
X029808Y032906D01*
X029808Y033064D02*
X030197Y033064D01*
X030197Y033223D02*
X029808Y033223D01*
X029808Y033381D02*
X030197Y033381D01*
X030197Y033540D02*
X029808Y033540D01*
X029808Y033698D02*
X030197Y033698D01*
X030197Y033857D02*
X029808Y033857D01*
X029808Y034015D02*
X030197Y034015D01*
X030197Y034174D02*
X029808Y034174D01*
X029808Y034332D02*
X030197Y034332D01*
X030250Y034491D02*
X029808Y034491D01*
X029941Y034649D02*
X030397Y034649D01*
X030555Y034808D02*
X030100Y034808D01*
X030258Y034966D02*
X030714Y034966D01*
X030872Y035125D02*
X030417Y035125D01*
X030551Y035283D02*
X030985Y035283D01*
X030985Y035442D02*
X030595Y035442D01*
X030595Y035600D02*
X030985Y035600D01*
X030985Y035759D02*
X030595Y035759D01*
X030595Y035917D02*
X030985Y035917D01*
X030985Y036076D02*
X030595Y036076D01*
X030595Y036234D02*
X030985Y036234D01*
X030985Y036393D02*
X030595Y036393D01*
X030595Y036551D02*
X030985Y036551D01*
X030985Y036710D02*
X030595Y036710D01*
X030595Y036868D02*
X030985Y036868D01*
X030985Y037027D02*
X030595Y037027D01*
X030595Y037185D02*
X030985Y037185D01*
X030985Y037344D02*
X030595Y037344D01*
X030595Y037502D02*
X030985Y037502D01*
X030985Y037661D02*
X030595Y037661D01*
X030595Y037819D02*
X030985Y037819D01*
X030985Y037978D02*
X030595Y037978D01*
X030595Y038136D02*
X030985Y038136D01*
X030985Y038295D02*
X030595Y038295D01*
X030595Y038453D02*
X030985Y038453D01*
X030985Y038612D02*
X030595Y038612D01*
X030564Y038770D02*
X031016Y038770D01*
X031133Y038929D02*
X030447Y038929D01*
X030289Y039087D02*
X031292Y039087D01*
X031450Y039246D02*
X030130Y039246D01*
X029890Y039404D02*
X031692Y039404D01*
X026177Y039404D02*
X024378Y039404D01*
X017991Y035283D02*
X016813Y035283D01*
X016813Y035125D02*
X017991Y035125D01*
X017991Y034966D02*
X016813Y034966D01*
X016813Y034808D02*
X017991Y034808D01*
X017991Y034649D02*
X016813Y034649D01*
X016813Y034491D02*
X017991Y034491D01*
X017991Y034332D02*
X016813Y034332D01*
X016813Y034174D02*
X017991Y034174D01*
X017991Y034015D02*
X016795Y034015D01*
X016761Y033857D02*
X017991Y033857D01*
X017991Y033698D02*
X016572Y033698D01*
X016124Y034317D02*
X015238Y034317D01*
X014688Y034317D01*
X014254Y033883D01*
X013098Y033883D01*
X013089Y033893D01*
X012679Y033893D02*
X011695Y032908D01*
X011695Y030743D01*
X011892Y030546D01*
X013860Y030546D01*
X014057Y030743D01*
X014057Y033302D01*
X014451Y033696D01*
X014254Y033893D01*
X012679Y033893D01*
X012643Y033857D02*
X014290Y033857D01*
X014448Y033698D02*
X012485Y033698D01*
X012326Y033540D02*
X014295Y033540D01*
X014136Y033381D02*
X012168Y033381D01*
X012009Y033223D02*
X014057Y033223D01*
X014057Y033064D02*
X011851Y033064D01*
X011695Y032906D02*
X014057Y032906D01*
X014057Y032747D02*
X011695Y032747D01*
X011695Y032589D02*
X014057Y032589D01*
X014057Y032430D02*
X011695Y032430D01*
X011695Y032272D02*
X014057Y032272D01*
X014057Y032113D02*
X011695Y032113D01*
X011695Y031955D02*
X014057Y031955D01*
X014057Y031796D02*
X011695Y031796D01*
X011695Y031638D02*
X014057Y031638D01*
X014057Y031479D02*
X011695Y031479D01*
X011695Y031321D02*
X014057Y031321D01*
X014057Y031162D02*
X011695Y031162D01*
X011695Y031004D02*
X014057Y031004D01*
X014057Y030845D02*
X011695Y030845D01*
X011751Y030687D02*
X014001Y030687D01*
X014844Y032906D02*
X017991Y032906D01*
X017991Y033064D02*
X014844Y033064D01*
X014844Y033223D02*
X017991Y033223D01*
X017991Y033381D02*
X015008Y033381D01*
X015082Y033540D02*
X017991Y033540D01*
X016515Y025773D02*
X015625Y025773D01*
X015828Y025615D02*
X016560Y025615D01*
X016595Y025456D02*
X015953Y025456D01*
X016019Y025298D02*
X016595Y025298D01*
X016595Y025139D02*
X016054Y025139D01*
X016054Y024981D02*
X016595Y024981D01*
X016595Y024822D02*
X016027Y024822D01*
X015962Y024664D02*
X016595Y024664D01*
X016595Y024505D02*
X015848Y024505D01*
X015673Y024347D02*
X016595Y024347D01*
X016595Y023237D02*
X003513Y023237D01*
X003513Y023079D02*
X016595Y023079D01*
X016595Y022920D02*
X003513Y022920D01*
X003513Y022762D02*
X016595Y022762D01*
X016595Y022603D02*
X003513Y022603D01*
X003513Y022445D02*
X016595Y022445D01*
X016595Y021969D02*
X013321Y021969D01*
X013480Y021811D02*
X016657Y021811D01*
X016771Y021652D02*
X013638Y021652D01*
X014112Y021494D02*
X016930Y021494D01*
X017088Y021335D02*
X014334Y021335D01*
X014440Y021177D02*
X017247Y021177D01*
X017405Y021018D02*
X014502Y021018D01*
X014502Y020860D02*
X017549Y020860D01*
X017579Y020701D02*
X014473Y020701D01*
X014407Y020543D02*
X017644Y020543D01*
X017798Y020384D02*
X014253Y020384D01*
X016264Y019275D02*
X018629Y019275D01*
X018575Y019116D02*
X016432Y019116D01*
X016591Y018958D02*
X018575Y018958D01*
X018575Y018799D02*
X016749Y018799D01*
X016908Y018641D02*
X018575Y018641D01*
X018575Y018482D02*
X017066Y018482D01*
X017781Y018324D02*
X017813Y018324D01*
X018357Y017751D02*
X019214Y017751D01*
X018916Y017056D02*
X012905Y017056D01*
X012905Y016897D02*
X019075Y016897D01*
X019233Y016739D02*
X012905Y016739D01*
X012905Y016580D02*
X019458Y016580D01*
X020110Y016422D02*
X012905Y016422D01*
X012905Y016263D02*
X020268Y016263D01*
X020427Y016105D02*
X012905Y016105D01*
X012880Y015946D02*
X020585Y015946D01*
X019837Y018958D02*
X027020Y018958D01*
X027020Y019116D02*
X019837Y019116D01*
X019783Y019275D02*
X027020Y019275D01*
X028033Y020507D02*
X029411Y020507D01*
X030002Y019916D01*
X030002Y018932D01*
X030592Y018341D01*
X031970Y018341D01*
X033329Y018958D02*
X033517Y018958D01*
X034329Y018958D02*
X034517Y018958D01*
X036539Y019909D02*
X037307Y019909D01*
X037307Y020067D02*
X036539Y020067D01*
X036506Y020226D02*
X037340Y020226D01*
X037413Y020384D02*
X036434Y020384D01*
X036275Y020543D02*
X037279Y020543D01*
X037285Y021097D02*
X037923Y020460D01*
X037923Y019723D01*
X038329Y018958D02*
X038517Y018958D01*
X039329Y018958D02*
X039517Y018958D01*
X040329Y018958D02*
X040517Y018958D01*
X038923Y019723D02*
X038923Y020373D01*
X039451Y020901D01*
X039451Y021128D01*
X037858Y022128D02*
X035862Y022128D01*
X035703Y022286D02*
X037858Y022286D01*
X037858Y022445D02*
X035506Y022445D01*
X037255Y021294D02*
X037285Y021264D01*
X036730Y020701D02*
X036659Y020701D01*
X036060Y015946D02*
X028628Y015946D01*
X028482Y015788D02*
X036218Y015788D01*
X037962Y014044D02*
X032268Y014044D01*
X032257Y013886D02*
X038120Y013886D01*
X037876Y013027D02*
X039923Y010979D01*
X039923Y009723D01*
X039423Y010395D02*
X039272Y010546D01*
X039046Y010640D01*
X038801Y010640D01*
X038574Y010546D01*
X038423Y010395D01*
X038272Y010546D01*
X038046Y010640D01*
X037870Y010640D01*
X036834Y011676D01*
X036834Y011676D01*
X036722Y011788D01*
X036577Y011848D01*
X034254Y011848D01*
X034108Y011788D01*
X033319Y010999D01*
X033319Y011168D01*
X033259Y011314D01*
X033148Y011425D01*
X032259Y012314D01*
X032268Y012338D01*
X032268Y012534D01*
X032228Y012630D01*
X037712Y012630D01*
X039527Y010815D01*
X039527Y010499D01*
X039423Y010395D01*
X039419Y010399D02*
X039427Y010399D01*
X039527Y010557D02*
X039244Y010557D01*
X039527Y010716D02*
X037794Y010716D01*
X037636Y010874D02*
X039468Y010874D01*
X039309Y011033D02*
X037477Y011033D01*
X037319Y011191D02*
X039151Y011191D01*
X038992Y011350D02*
X037160Y011350D01*
X037002Y011508D02*
X038834Y011508D01*
X038675Y011667D02*
X036843Y011667D01*
X036631Y011825D02*
X038517Y011825D01*
X038358Y011984D02*
X032589Y011984D01*
X032431Y012142D02*
X038200Y012142D01*
X038041Y012301D02*
X032272Y012301D01*
X032268Y012459D02*
X037883Y012459D01*
X037724Y012618D02*
X032234Y012618D01*
X031774Y012436D02*
X031774Y012239D01*
X032923Y011090D01*
X032923Y009723D01*
X032423Y010395D02*
X032527Y010499D01*
X032527Y010925D01*
X031438Y012015D01*
X031397Y012113D01*
X031354Y012156D01*
X031279Y012338D01*
X031279Y012534D01*
X031319Y012630D01*
X027607Y012630D01*
X026651Y011674D01*
X026651Y010878D01*
X026824Y010950D01*
X027061Y010950D01*
X027281Y010859D01*
X027443Y010697D01*
X027605Y010859D01*
X027824Y010950D01*
X028061Y010950D01*
X028281Y010859D01*
X028448Y010691D01*
X028508Y010547D01*
X030578Y010547D01*
X030801Y010640D01*
X031046Y010640D01*
X031272Y010546D01*
X031423Y010395D01*
X031574Y010546D01*
X031801Y010640D01*
X032046Y010640D01*
X032272Y010546D01*
X032423Y010395D01*
X032419Y010399D02*
X032427Y010399D01*
X032527Y010557D02*
X032244Y010557D01*
X032527Y010716D02*
X028424Y010716D01*
X028504Y010557D02*
X030602Y010557D01*
X031244Y010557D02*
X031602Y010557D01*
X031427Y010399D02*
X031419Y010399D01*
X032261Y011191D02*
X026651Y011191D01*
X026651Y011033D02*
X032419Y011033D01*
X032527Y010874D02*
X028244Y010874D01*
X027642Y010874D02*
X027244Y010874D01*
X027424Y010716D02*
X027462Y010716D01*
X026651Y011350D02*
X032102Y011350D01*
X031944Y011508D02*
X026651Y011508D01*
X026651Y011667D02*
X031785Y011667D01*
X031627Y011825D02*
X026802Y011825D01*
X026961Y011984D02*
X031468Y011984D01*
X031368Y012142D02*
X027119Y012142D01*
X027278Y012301D02*
X031294Y012301D01*
X031279Y012459D02*
X027436Y012459D01*
X027595Y012618D02*
X031314Y012618D01*
X032748Y011825D02*
X034199Y011825D01*
X033987Y011667D02*
X032906Y011667D01*
X033065Y011508D02*
X033829Y011508D01*
X033670Y011350D02*
X033223Y011350D01*
X033310Y011191D02*
X033512Y011191D01*
X033353Y011033D02*
X033319Y011033D01*
X033427Y010546D02*
X033427Y007586D01*
X033356Y007515D01*
X033356Y006727D01*
X034916Y006727D02*
X034916Y007522D01*
X034431Y008007D01*
X034431Y010369D01*
X034923Y010861D01*
X036301Y010861D01*
X036923Y010239D01*
X036923Y009723D01*
X037923Y009723D02*
X037923Y010027D01*
X036498Y011452D01*
X034333Y011452D01*
X033427Y010546D01*
X034923Y009723D02*
X034923Y009090D01*
X035514Y008499D01*
X041222Y008499D01*
X042010Y007712D01*
X042010Y006735D01*
X042017Y006727D01*
X040274Y008103D02*
X039976Y007979D01*
X039738Y007741D01*
X039608Y007429D01*
X039608Y006026D01*
X039621Y005996D01*
X039490Y005865D01*
X039195Y005865D01*
X039187Y005883D01*
X039098Y005972D01*
X038982Y006020D01*
X038148Y006020D01*
X038031Y005972D01*
X037942Y005883D01*
X037919Y005826D01*
X035681Y005826D01*
X035764Y006026D01*
X035764Y007429D01*
X035635Y007741D01*
X035397Y007979D01*
X035085Y008109D01*
X034890Y008109D01*
X034827Y008171D01*
X034827Y008625D01*
X035178Y008275D01*
X035289Y008163D01*
X035435Y008103D01*
X040274Y008103D01*
X040078Y008021D02*
X035295Y008021D01*
X035272Y008180D02*
X034827Y008180D01*
X034827Y008338D02*
X035114Y008338D01*
X034955Y008497D02*
X034827Y008497D01*
X035513Y007863D02*
X039860Y007863D01*
X039723Y007704D02*
X035650Y007704D01*
X035716Y007546D02*
X039657Y007546D01*
X039608Y007387D02*
X035764Y007387D01*
X035764Y007229D02*
X039608Y007229D01*
X039608Y007070D02*
X035764Y007070D01*
X035764Y006912D02*
X039608Y006912D01*
X039608Y006753D02*
X035764Y006753D01*
X035764Y006595D02*
X039608Y006595D01*
X039608Y006436D02*
X035764Y006436D01*
X035764Y006278D02*
X039608Y006278D01*
X039608Y006119D02*
X035764Y006119D01*
X035738Y005961D02*
X038021Y005961D01*
X039109Y005961D02*
X039586Y005961D01*
X041419Y008893D02*
X041419Y012436D01*
X038602Y010557D02*
X038244Y010557D01*
X038419Y010399D02*
X038427Y010399D01*
X037876Y013027D02*
X027443Y013027D01*
X026254Y011838D01*
X026254Y006727D01*
X027103Y006753D02*
X030947Y006753D01*
X030947Y006903D02*
X030653Y007196D01*
X030519Y007330D01*
X030447Y007505D01*
X030447Y009028D01*
X030401Y009074D01*
X030307Y009301D01*
X030307Y009600D01*
X028508Y009600D01*
X028448Y009456D01*
X028281Y009288D01*
X028061Y009198D01*
X027824Y009198D01*
X027605Y009288D01*
X027443Y009451D01*
X027281Y009288D01*
X027061Y009198D01*
X026824Y009198D01*
X026651Y009269D01*
X026651Y008014D01*
X026735Y007979D01*
X026974Y007741D01*
X027103Y007429D01*
X027103Y006026D01*
X027020Y005826D01*
X029060Y005826D01*
X029084Y005883D01*
X029173Y005972D01*
X029289Y006020D01*
X030124Y006020D01*
X030240Y005972D01*
X030329Y005883D01*
X030353Y005826D01*
X030986Y005826D01*
X031017Y005857D01*
X030947Y006026D01*
X030947Y006903D01*
X030938Y006912D02*
X027103Y006912D01*
X027103Y007070D02*
X030779Y007070D01*
X030621Y007229D02*
X027103Y007229D01*
X027103Y007387D02*
X030496Y007387D01*
X030447Y007546D02*
X027054Y007546D01*
X026989Y007704D02*
X030447Y007704D01*
X030447Y007863D02*
X026851Y007863D01*
X026651Y008021D02*
X030447Y008021D01*
X030447Y008180D02*
X026651Y008180D01*
X026651Y008338D02*
X030447Y008338D01*
X030447Y008497D02*
X026651Y008497D01*
X026651Y008655D02*
X030447Y008655D01*
X030447Y008814D02*
X026651Y008814D01*
X026651Y008972D02*
X030447Y008972D01*
X030377Y009131D02*
X026651Y009131D01*
X027282Y009289D02*
X027604Y009289D01*
X027445Y009448D02*
X027440Y009448D01*
X028282Y009289D02*
X030312Y009289D01*
X030307Y009448D02*
X028440Y009448D01*
X027103Y006595D02*
X030947Y006595D01*
X030947Y006436D02*
X027103Y006436D01*
X027103Y006278D02*
X030947Y006278D01*
X030947Y006119D02*
X027103Y006119D01*
X027076Y005961D02*
X029162Y005961D01*
X030251Y005961D02*
X030974Y005961D01*
X024741Y012459D02*
X023410Y012459D01*
X023568Y012618D02*
X023805Y012618D01*
X028033Y020507D02*
X027246Y021294D01*
X024981Y020701D02*
X019473Y020701D01*
X019502Y020860D02*
X024881Y020860D01*
X029594Y020860D02*
X029999Y020860D01*
X030099Y020701D02*
X029777Y020701D01*
X039730Y028943D02*
X041115Y028943D01*
X041018Y028846D02*
X041018Y028846D01*
X041265Y029102D02*
X039730Y029102D01*
X039730Y029260D02*
X045077Y029260D01*
X045077Y029102D02*
X042439Y029102D01*
X043265Y029577D02*
X041341Y029577D01*
X039730Y029419D02*
X045077Y029419D01*
X047644Y029577D02*
X049565Y029577D01*
X049351Y029731D02*
X049351Y029731D01*
X053676Y027041D02*
X053886Y027041D01*
X055082Y027517D02*
X057278Y027517D01*
X057278Y027675D02*
X055082Y027675D01*
X055082Y027834D02*
X057278Y027834D01*
X057278Y027992D02*
X055082Y027992D01*
X055078Y028151D02*
X057278Y028151D01*
X057278Y028309D02*
X055082Y028309D01*
X055082Y028468D02*
X057278Y028468D01*
X057278Y028626D02*
X055082Y028626D01*
X055082Y028785D02*
X057278Y028785D01*
X057278Y028943D02*
X055082Y028943D01*
X055038Y029102D02*
X057278Y029102D01*
X051554Y023984D02*
X051249Y024290D01*
X051249Y022084D01*
X051378Y022084D01*
X051378Y022626D01*
X051426Y022742D01*
X051515Y022831D01*
X051631Y022879D01*
X051653Y022879D01*
X051653Y023747D01*
X051630Y023770D01*
X051554Y023952D01*
X051554Y023984D01*
X051509Y024030D02*
X051249Y024030D01*
X051249Y024188D02*
X051350Y024188D01*
X051249Y023871D02*
X051588Y023871D01*
X051653Y023713D02*
X051249Y023713D01*
X051249Y023554D02*
X051653Y023554D01*
X051653Y023396D02*
X051249Y023396D01*
X051249Y023237D02*
X051653Y023237D01*
X051653Y023079D02*
X051249Y023079D01*
X051249Y022920D02*
X051653Y022920D01*
X051446Y022762D02*
X051249Y022762D01*
X051249Y022603D02*
X051378Y022603D01*
X051378Y022445D02*
X051249Y022445D01*
X051249Y022286D02*
X051378Y022286D01*
X051378Y022128D02*
X051249Y022128D01*
X054120Y018799D02*
X057278Y018799D01*
X053475Y018324D02*
X053064Y018324D01*
X053223Y018482D02*
X053316Y018482D01*
X045118Y024347D02*
X044972Y024347D01*
X050581Y011542D02*
X052640Y011542D01*
X049829Y006560D02*
X049829Y006082D01*
X049490Y005743D01*
X046931Y005743D01*
X011312Y019592D02*
X009530Y019592D01*
X008348Y019592D02*
X003513Y019592D01*
X003513Y019750D02*
X008190Y019750D01*
X008124Y019909D02*
X003513Y019909D01*
X003513Y020067D02*
X008103Y020067D01*
X008117Y020226D02*
X003513Y020226D01*
X003513Y020384D02*
X008183Y020384D01*
X008327Y020543D02*
X006321Y020543D01*
X005683Y020543D02*
X003513Y020543D01*
X003513Y020701D02*
X005440Y020701D01*
X005298Y020860D02*
X003513Y020860D01*
X003513Y021018D02*
X005233Y021018D01*
X005186Y021177D02*
X003513Y021177D01*
X003513Y021335D02*
X005186Y021335D01*
X005201Y021494D02*
X003513Y021494D01*
X003513Y021652D02*
X005267Y021652D01*
X005364Y021811D02*
X003513Y021811D01*
X003513Y021969D02*
X005523Y021969D01*
D36*
X009726Y023263D03*
X012089Y023263D03*
X013073Y023263D03*
X014057Y023263D03*
X016419Y023263D03*
X017994Y023263D03*
X020750Y023263D03*
X020750Y024050D03*
X021734Y023263D03*
X022718Y023263D03*
X025081Y023263D03*
X027049Y023263D03*
X026951Y024050D03*
X029411Y023263D03*
X031774Y024050D03*
X033742Y023263D03*
X034726Y023263D03*
X035711Y023263D03*
X033545Y021097D03*
X029214Y019523D03*
X035711Y017357D03*
X037089Y017554D03*
X035907Y015782D03*
X037679Y014011D03*
X037679Y012436D03*
X038270Y010861D03*
X040829Y012042D03*
X042010Y011452D03*
X042207Y012830D03*
X041222Y014011D03*
X040435Y014011D03*
X032364Y014011D03*
X031774Y014011D03*
X031183Y014011D03*
X031183Y012436D03*
X031774Y012436D03*
X032364Y012436D03*
X032364Y011058D03*
X029805Y007121D03*
X023112Y011058D03*
X024096Y013027D03*
X022915Y014208D03*
X023703Y014798D03*
X022522Y013617D03*
X020159Y010467D03*
X018585Y016767D03*
X021144Y018145D03*
X017403Y025822D03*
X017010Y025822D03*
X016813Y027003D03*
X016222Y027790D03*
X015829Y027790D03*
X016026Y029562D03*
X017010Y029759D03*
X017403Y029759D03*
X017994Y029562D03*
X018781Y030940D03*
X019569Y030940D03*
X020356Y030940D03*
X021144Y030940D03*
X021931Y030940D03*
X021931Y031727D03*
X021144Y031727D03*
X020356Y031727D03*
X019569Y031727D03*
X018781Y031727D03*
X018781Y032515D03*
X019569Y032515D03*
X020356Y032515D03*
X021144Y032515D03*
X021931Y032515D03*
X023703Y032318D03*
X023703Y031334D03*
X023506Y030349D03*
X023506Y029562D03*
X024096Y029562D03*
X022915Y029562D03*
X022325Y028381D03*
X022325Y027987D03*
X022325Y027593D03*
X020356Y030152D03*
X017600Y032712D03*
X016419Y033302D03*
X015238Y033302D03*
X015041Y031924D03*
X015238Y030349D03*
X017600Y033893D03*
X017600Y035074D03*
X017600Y036255D03*
X017600Y037436D03*
X017600Y038617D03*
X017797Y039601D03*
X018978Y039601D03*
X019963Y039601D03*
X020947Y039601D03*
X021931Y039601D03*
X022915Y039601D03*
X023900Y039601D03*
X024884Y039601D03*
X025868Y039601D03*
X026852Y039601D03*
X027837Y039601D03*
X028821Y039601D03*
X029805Y039601D03*
X030789Y039601D03*
X030789Y039011D03*
X031577Y039601D03*
X032167Y038814D03*
X032561Y039601D03*
X033545Y039601D03*
X034529Y039601D03*
X035514Y039601D03*
X035317Y038814D03*
X036695Y039208D03*
X036695Y038223D03*
X037679Y038814D03*
X038073Y039601D03*
X039057Y039601D03*
X040041Y039601D03*
X041222Y039601D03*
X042207Y039208D03*
X041222Y038814D03*
X042207Y038223D03*
X043191Y038814D03*
X043388Y039601D03*
X044569Y039601D03*
X045750Y039601D03*
X045947Y038814D03*
X046931Y039208D03*
X047915Y038814D03*
X046931Y038223D03*
X046931Y037239D03*
X046931Y036255D03*
X047915Y036058D03*
X047325Y035271D03*
X047128Y034090D03*
X048309Y034286D03*
X048506Y033302D03*
X047128Y032515D03*
X046340Y032515D03*
X045553Y032515D03*
X044766Y032515D03*
X044766Y031727D03*
X045553Y031727D03*
X046340Y031727D03*
X046340Y030940D03*
X045553Y030940D03*
X044766Y030940D03*
X043978Y030940D03*
X043978Y031727D03*
X043978Y032515D03*
X042207Y032318D03*
X042207Y031334D03*
X040829Y031727D03*
X040041Y031727D03*
X040041Y030940D03*
X040829Y030940D03*
X042207Y030349D03*
X042403Y029562D03*
X041813Y029562D03*
X042994Y029562D03*
X041222Y028381D03*
X041222Y027987D03*
X041222Y027593D03*
X039254Y030152D03*
X039254Y030940D03*
X038466Y030940D03*
X037679Y030940D03*
X037679Y031727D03*
X038466Y031727D03*
X039254Y031727D03*
X039254Y032515D03*
X038466Y032515D03*
X037679Y032515D03*
X036104Y032318D03*
X036104Y031334D03*
X036104Y030349D03*
X036104Y029562D03*
X035514Y029562D03*
X036695Y029562D03*
X034923Y028381D03*
X034923Y027987D03*
X034923Y027593D03*
X032955Y030152D03*
X032955Y030940D03*
X032167Y030940D03*
X031380Y030940D03*
X031380Y031727D03*
X032167Y031727D03*
X032955Y031727D03*
X033742Y031727D03*
X034529Y031727D03*
X034529Y030940D03*
X033742Y030940D03*
X033742Y032515D03*
X034529Y032515D03*
X032955Y032515D03*
X032167Y032515D03*
X031380Y032515D03*
X030002Y032318D03*
X030002Y031334D03*
X029805Y030349D03*
X029805Y029562D03*
X029214Y029562D03*
X030396Y029562D03*
X028624Y028381D03*
X028624Y027987D03*
X028624Y027593D03*
X026655Y030152D03*
X026655Y030940D03*
X027443Y030940D03*
X028230Y030940D03*
X028230Y031727D03*
X027443Y031727D03*
X026655Y031727D03*
X025868Y031727D03*
X025081Y031727D03*
X025081Y030940D03*
X025868Y030940D03*
X025868Y032515D03*
X025081Y032515D03*
X026655Y032515D03*
X027443Y032515D03*
X028230Y032515D03*
X030002Y033302D03*
X030002Y034286D03*
X030592Y035074D03*
X030789Y036058D03*
X030789Y037042D03*
X030789Y038027D03*
X028427Y038617D03*
X028427Y036649D03*
X028427Y034877D03*
X026065Y034877D03*
X025081Y035074D03*
X025277Y036058D03*
X025277Y036845D03*
X026065Y036649D03*
X025277Y037633D03*
X025277Y038420D03*
X026065Y038617D03*
X023900Y038617D03*
X021537Y038617D03*
X019175Y038617D03*
X019175Y036649D03*
X021537Y036649D03*
X021537Y034680D03*
X023703Y033302D03*
X024293Y034286D03*
X019175Y034680D03*
X014648Y036255D03*
X007758Y029168D03*
X007758Y026806D03*
X008348Y011255D03*
X009529Y010074D03*
X038270Y007121D03*
X050041Y019212D03*
X054805Y020901D03*
X054805Y022082D03*
X053033Y023263D03*
X052049Y024050D03*
X051459Y023263D03*
X048703Y023263D03*
X047718Y023263D03*
X046734Y023263D03*
X044569Y023263D03*
X044569Y024050D03*
X043388Y023263D03*
X042403Y023263D03*
X040041Y023263D03*
X038860Y023263D03*
X038754Y024050D03*
X045553Y030152D03*
X047128Y030940D03*
X047128Y031727D03*
X048506Y031334D03*
X048506Y030546D03*
X048703Y029562D03*
X049293Y029562D03*
X048112Y029562D03*
X047522Y028381D03*
X047522Y027987D03*
X047522Y027593D03*
X051852Y030152D03*
X051852Y030940D03*
X051065Y030940D03*
X051065Y031727D03*
X051852Y031727D03*
X052640Y031727D03*
X053427Y031727D03*
X053427Y030940D03*
X052640Y030940D03*
X052640Y032515D03*
X051852Y032515D03*
X051065Y032515D03*
X050277Y032515D03*
X050277Y031727D03*
X050277Y030940D03*
X048506Y032318D03*
X051065Y036058D03*
X054608Y033696D03*
X053427Y032515D03*
X054608Y030152D03*
X055199Y029562D03*
X056380Y029956D03*
X056774Y029956D03*
X053821Y028381D03*
X053821Y027987D03*
X053821Y027593D03*
X056183Y026806D03*
X056183Y026412D03*
X056183Y026019D03*
X043191Y034090D03*
X042207Y034286D03*
X042207Y033302D03*
X040829Y032515D03*
X040041Y032515D03*
X042207Y035271D03*
X042207Y036255D03*
X041222Y036452D03*
X042207Y037239D03*
X043191Y036452D03*
X036695Y036255D03*
X036695Y037239D03*
X036695Y035271D03*
X036498Y034286D03*
X036104Y033302D03*
X032167Y034877D03*
X051065Y038814D03*
X051262Y039601D03*
D37*
X051041Y017404D03*
X051041Y016404D03*
X050041Y016404D03*
X049041Y016404D03*
X048041Y016404D03*
X047041Y016404D03*
X046041Y016404D03*
X045041Y016404D03*
X044041Y016404D03*
X043041Y016404D03*
X043041Y017404D03*
X044041Y017404D03*
X045041Y017404D03*
X046041Y017404D03*
X047041Y017404D03*
X048041Y017404D03*
X049041Y017404D03*
X050041Y017404D03*
X050041Y015404D03*
X050041Y014404D03*
X050041Y013404D03*
X049041Y013404D03*
X048041Y013404D03*
X047041Y013404D03*
X046041Y013404D03*
X045041Y013404D03*
X044041Y013404D03*
X043041Y013404D03*
X043041Y014404D03*
X044041Y014404D03*
X045041Y014404D03*
X046041Y014404D03*
X047041Y014404D03*
X048041Y014404D03*
X049041Y014404D03*
X049041Y015404D03*
X048041Y015404D03*
X047041Y015404D03*
X046041Y015404D03*
X045041Y015404D03*
X044041Y015404D03*
X043041Y015404D03*
X051041Y015404D03*
X051041Y014404D03*
X051041Y013404D03*
D38*
X048900Y010861D02*
X048309Y011452D01*
X042010Y011452D01*
X040829Y012042D02*
X036301Y016570D01*
X027837Y016570D01*
X026655Y016570D01*
X025179Y015093D01*
X021031Y010946D01*
X021031Y009595D01*
X018230Y009877D02*
X018073Y009719D01*
X018073Y007515D01*
X017679Y007121D01*
X012876Y007121D01*
X011126Y008871D01*
X010876Y009052D02*
X010876Y009908D01*
X008364Y012420D01*
X008364Y013420D01*
X012089Y016570D02*
X012089Y018932D01*
X011931Y018775D01*
X010514Y018775D01*
X009138Y018775D01*
X008939Y018576D01*
X008939Y017326D01*
X008744Y018381D02*
X007364Y018381D01*
X007364Y018326D01*
X006002Y016964D01*
X008744Y018381D02*
X008939Y018576D01*
X010514Y018775D02*
X010514Y017101D01*
X008939Y020076D02*
X008939Y021326D01*
X009065Y021452D01*
X011301Y021452D01*
X012974Y021452D01*
X013526Y020901D01*
X017207Y022082D02*
X017207Y026290D01*
X017207Y026609D01*
X016026Y027790D01*
X016026Y028027D01*
X010907Y025050D02*
X008687Y025050D01*
X008309Y025428D01*
X008364Y024050D02*
X007577Y024050D01*
X008364Y024050D02*
X009333Y024050D01*
X010333Y025050D01*
X010907Y025050D01*
X006364Y024050D02*
X006199Y024215D01*
X006033Y024050D01*
X005577Y024050D01*
X006199Y024215D02*
X006199Y025625D01*
X006002Y021294D02*
X008907Y021294D01*
X008939Y021326D01*
X017207Y022082D02*
X018388Y020901D01*
X018526Y020901D01*
X027837Y018932D02*
X027837Y016570D01*
X008742Y031727D02*
X007758Y030743D01*
X006577Y030743D01*
X010120Y034074D02*
X010907Y034074D01*
X011089Y033893D01*
X048900Y010861D02*
X048900Y009747D01*
X048923Y009723D01*
D39*
X049880Y009723D01*
X049923Y009680D01*
X040457Y006727D02*
X040435Y006705D01*
X040435Y006137D01*
X039687Y005389D01*
X038565Y005389D01*
X038112Y005389D01*
X038073Y005349D01*
X032409Y005349D01*
X031796Y005962D01*
X031796Y006727D01*
X030923Y007600D01*
X030923Y009723D01*
X031796Y005962D02*
X031183Y005349D01*
X023900Y005349D01*
X023112Y006137D01*
X023112Y006705D01*
X023134Y006727D01*
X025179Y015093D02*
X025081Y015192D01*
X025081Y015822D01*
X022955Y027593D02*
X022619Y027593D01*
X022619Y028668D01*
X021856Y027905D02*
X021856Y027668D01*
X020356Y027905D02*
X020356Y031883D01*
X026655Y031883D02*
X026655Y027905D01*
X032955Y027905D02*
X032955Y031883D01*
X039254Y031883D02*
X039254Y027905D01*
X041222Y027593D02*
X041616Y027593D01*
X041813Y027790D01*
X041813Y028578D01*
X041616Y028381D01*
X041616Y027790D01*
X041419Y027790D01*
X041419Y028381D01*
X041813Y028578D02*
X041813Y028775D01*
X045553Y027905D02*
X045553Y031883D01*
X047915Y028775D02*
X047718Y028578D01*
X047915Y028381D01*
X047718Y028381D01*
X047718Y028184D01*
X047915Y027987D01*
X047718Y027790D01*
X047522Y027593D02*
X047915Y027593D01*
X048112Y027790D01*
X048112Y028775D01*
X047915Y028775D01*
X047718Y028578D02*
X047522Y028381D01*
X047718Y028381D01*
X051852Y027905D02*
X051852Y031883D01*
D40*
X054108Y028668D02*
X053821Y028381D01*
X054214Y028381D01*
X053821Y027987D01*
X054411Y027987D01*
X054411Y028578D01*
X054214Y028578D01*
X054214Y028184D01*
X054214Y027987D02*
X053821Y027987D01*
X053821Y027593D01*
X054018Y027593D01*
X054214Y027397D01*
X054411Y027397D01*
X054451Y027593D02*
X054451Y027830D01*
X054057Y027830D01*
X053821Y027593D01*
X054214Y027593D01*
X054451Y027830D01*
X053821Y027987D02*
X053821Y028381D01*
X053624Y028184D01*
X053427Y028184D01*
X053427Y027987D02*
X053821Y027987D01*
X053624Y027790D02*
X053821Y027593D01*
X053664Y027593D01*
X053352Y027905D01*
X054108Y028668D02*
X054321Y028668D01*
X054411Y028578D01*
X054451Y028578D01*
X056183Y026806D02*
X056502Y026487D01*
X056577Y026487D01*
X056577Y026412D02*
X056577Y026019D01*
X056183Y026019D01*
X056183Y026412D02*
X056577Y026412D01*
X048112Y027397D02*
X047915Y027397D01*
X047718Y027593D01*
X047522Y027593D01*
X047325Y027790D01*
X047365Y027593D02*
X047053Y027905D01*
X047128Y027987D02*
X047522Y027987D01*
X047522Y027593D01*
X047365Y027593D01*
X047522Y027987D02*
X047522Y028381D01*
X047325Y028184D01*
X047128Y028184D01*
X041852Y028578D02*
X041813Y028578D01*
X041813Y028775D02*
X041616Y028775D01*
X041419Y028578D01*
X041510Y028578D01*
X041510Y028668D01*
X041222Y028381D01*
X041026Y028184D01*
X040829Y028184D01*
X041026Y028184D02*
X041026Y027790D01*
X041222Y027987D01*
X041222Y027593D01*
X041419Y027593D01*
X041616Y027397D01*
X041813Y027397D01*
X041222Y027593D02*
X041066Y027593D01*
X040754Y027905D01*
X041222Y027987D02*
X041222Y028381D01*
X035553Y028538D02*
X035553Y027593D01*
X035514Y027397D02*
X035317Y027397D01*
X035120Y027593D01*
X034923Y027593D01*
X035317Y027593D01*
X034923Y027987D01*
X035317Y028381D01*
X035514Y028578D02*
X035120Y028578D01*
X034923Y028381D01*
X035317Y028775D01*
X035514Y028775D01*
X035514Y028184D01*
X035317Y027987D02*
X034923Y028381D01*
X034726Y028184D01*
X034529Y028184D01*
X034726Y027987D01*
X034923Y027987D01*
X035317Y027987D01*
X035553Y027830D02*
X035317Y027593D01*
X035553Y027830D02*
X035553Y028578D01*
X035514Y028578D02*
X035553Y028538D01*
X034923Y028381D02*
X034923Y027987D01*
X034726Y027790D01*
X034767Y027593D02*
X034455Y027905D01*
X034767Y027593D02*
X034923Y027593D01*
X034923Y027987D01*
X029254Y027593D02*
X029214Y027593D01*
X029214Y028381D01*
X028624Y028381D01*
X029018Y028775D01*
X029214Y028775D01*
X029214Y028578D01*
X029214Y028381D01*
X029214Y028578D02*
X029108Y028578D01*
X028821Y028578D01*
X028624Y028381D01*
X029018Y027987D01*
X028624Y027987D01*
X029018Y027593D01*
X029108Y027593D01*
X029108Y028578D01*
X028624Y028381D02*
X028230Y027987D01*
X028624Y027987D01*
X028624Y028381D01*
X028624Y027987D02*
X028624Y027593D01*
X028821Y027593D01*
X029018Y027397D01*
X029214Y027397D01*
X029214Y027593D02*
X029108Y027593D01*
X029018Y027593D02*
X028624Y027593D01*
X029018Y027987D01*
X028624Y027987D02*
X028427Y027790D01*
X028467Y027593D02*
X028155Y027905D01*
X028467Y027593D02*
X028624Y027593D01*
X022915Y027397D02*
X022718Y027397D01*
X022522Y027593D01*
X022325Y027593D01*
X022718Y027987D01*
X022718Y028381D01*
X022915Y028381D01*
X022915Y027987D01*
X022718Y027987D01*
X022325Y028381D01*
X022718Y028775D01*
X022915Y028775D01*
X022915Y028381D01*
X022718Y028381D02*
X022325Y028381D01*
X022325Y027987D01*
X022718Y028381D01*
X022619Y028668D02*
X021856Y027905D01*
X022128Y027790D02*
X022325Y027987D01*
X022718Y027593D01*
X022718Y027987D01*
X022325Y027987D01*
X022325Y027593D01*
X022718Y027593D01*
X022325Y027593D02*
X021931Y027593D01*
X022128Y027790D02*
X022325Y027593D01*
X026943Y010074D02*
X027943Y010074D01*
X030573Y010074D01*
X030923Y009723D01*
D41*
X043577Y007121D02*
X043577Y006727D01*
X043577Y007121D02*
X043585Y007128D01*
X039451Y021128D02*
X039617Y021294D01*
X038497Y021294D02*
X038466Y021325D01*
X037285Y021264D02*
X037285Y021097D01*
D42*
X056577Y022475D03*
D43*
X041616Y030349D02*
X041222Y029956D01*
X037285Y029956D01*
X036892Y030349D01*
X036892Y033893D01*
X037285Y034286D01*
X037285Y038617D01*
X037679Y039011D01*
X041222Y039011D01*
X041616Y038617D01*
X041616Y030349D01*
X041616Y030358D02*
X036892Y030358D01*
X036892Y030514D02*
X041616Y030514D01*
X041616Y030670D02*
X036892Y030670D01*
X036892Y030826D02*
X041616Y030826D01*
X041616Y030982D02*
X036892Y030982D01*
X036892Y031137D02*
X041616Y031137D01*
X041616Y031293D02*
X036892Y031293D01*
X036892Y031449D02*
X041616Y031449D01*
X041616Y031605D02*
X036892Y031605D01*
X036892Y031761D02*
X041616Y031761D01*
X041616Y031917D02*
X036892Y031917D01*
X036892Y032073D02*
X041616Y032073D01*
X041616Y032229D02*
X036892Y032229D01*
X036892Y032385D02*
X041616Y032385D01*
X041616Y032541D02*
X036892Y032541D01*
X036892Y032697D02*
X041616Y032697D01*
X041616Y032853D02*
X036892Y032853D01*
X036892Y033009D02*
X041616Y033009D01*
X041616Y033165D02*
X036892Y033165D01*
X036892Y033321D02*
X041616Y033321D01*
X041616Y033477D02*
X036892Y033477D01*
X036892Y033633D02*
X041616Y033633D01*
X041616Y033789D02*
X036892Y033789D01*
X036944Y033945D02*
X041616Y033945D01*
X041616Y034101D02*
X037100Y034101D01*
X037256Y034257D02*
X041616Y034257D01*
X041616Y034413D02*
X037285Y034413D01*
X037285Y034569D02*
X041616Y034569D01*
X041616Y034725D02*
X037285Y034725D01*
X037285Y034881D02*
X041616Y034881D01*
X041616Y035037D02*
X037285Y035037D01*
X037285Y035193D02*
X041616Y035193D01*
X041616Y035349D02*
X037285Y035349D01*
X037285Y035505D02*
X041616Y035505D01*
X041616Y035661D02*
X037285Y035661D01*
X037285Y035817D02*
X041616Y035817D01*
X041616Y035973D02*
X037285Y035973D01*
X037285Y036129D02*
X041616Y036129D01*
X041616Y036285D02*
X037285Y036285D01*
X037285Y036441D02*
X041616Y036441D01*
X041616Y036597D02*
X037285Y036597D01*
X037285Y036753D02*
X041616Y036753D01*
X041616Y036909D02*
X037285Y036909D01*
X037285Y037065D02*
X041616Y037065D01*
X041616Y037221D02*
X037285Y037221D01*
X037285Y037377D02*
X041616Y037377D01*
X041616Y037533D02*
X037285Y037533D01*
X037285Y037689D02*
X041616Y037689D01*
X041616Y037845D02*
X037285Y037845D01*
X037285Y038001D02*
X041616Y038001D01*
X041616Y038157D02*
X037285Y038157D01*
X037285Y038313D02*
X041616Y038313D01*
X041616Y038469D02*
X037285Y038469D01*
X037293Y038625D02*
X041609Y038625D01*
X041453Y038781D02*
X037449Y038781D01*
X037605Y038937D02*
X041297Y038937D01*
X036104Y038617D02*
X036104Y034680D01*
X035317Y033893D01*
X035317Y030349D01*
X034923Y029956D01*
X031183Y029956D01*
X030592Y030546D01*
X030592Y034286D01*
X031380Y035074D01*
X031380Y038617D01*
X031774Y039011D01*
X035711Y039011D01*
X036104Y038617D01*
X036097Y038625D02*
X031387Y038625D01*
X031380Y038469D02*
X036104Y038469D01*
X036104Y038313D02*
X031380Y038313D01*
X031380Y038157D02*
X036104Y038157D01*
X036104Y038001D02*
X031380Y038001D01*
X031380Y037845D02*
X036104Y037845D01*
X036104Y037689D02*
X031380Y037689D01*
X031380Y037533D02*
X036104Y037533D01*
X036104Y037377D02*
X031380Y037377D01*
X031380Y037221D02*
X036104Y037221D01*
X036104Y037065D02*
X031380Y037065D01*
X031380Y036909D02*
X036104Y036909D01*
X036104Y036753D02*
X031380Y036753D01*
X031380Y036597D02*
X036104Y036597D01*
X036104Y036441D02*
X031380Y036441D01*
X031380Y036285D02*
X036104Y036285D01*
X036104Y036129D02*
X031380Y036129D01*
X031380Y035973D02*
X036104Y035973D01*
X036104Y035817D02*
X031380Y035817D01*
X031380Y035661D02*
X036104Y035661D01*
X036104Y035505D02*
X031380Y035505D01*
X031380Y035349D02*
X036104Y035349D01*
X036104Y035193D02*
X031380Y035193D01*
X031343Y035037D02*
X036104Y035037D01*
X036104Y034881D02*
X031187Y034881D01*
X031031Y034725D02*
X036104Y034725D01*
X035993Y034569D02*
X030875Y034569D01*
X030719Y034413D02*
X035837Y034413D01*
X035681Y034257D02*
X030592Y034257D01*
X030592Y034101D02*
X035525Y034101D01*
X035369Y033945D02*
X030592Y033945D01*
X030592Y033789D02*
X035317Y033789D01*
X035317Y033633D02*
X030592Y033633D01*
X030592Y033477D02*
X035317Y033477D01*
X035317Y033321D02*
X030592Y033321D01*
X030592Y033165D02*
X035317Y033165D01*
X035317Y033009D02*
X030592Y033009D01*
X030592Y032853D02*
X035317Y032853D01*
X035317Y032697D02*
X030592Y032697D01*
X030592Y032541D02*
X035317Y032541D01*
X035317Y032385D02*
X030592Y032385D01*
X030592Y032229D02*
X035317Y032229D01*
X035317Y032073D02*
X030592Y032073D01*
X030592Y031917D02*
X035317Y031917D01*
X035317Y031761D02*
X030592Y031761D01*
X030592Y031605D02*
X035317Y031605D01*
X035317Y031449D02*
X030592Y031449D01*
X030592Y031293D02*
X035317Y031293D01*
X035317Y031137D02*
X030592Y031137D01*
X030592Y030982D02*
X035317Y030982D01*
X035317Y030826D02*
X030592Y030826D01*
X030592Y030670D02*
X035317Y030670D01*
X035317Y030514D02*
X030625Y030514D01*
X030781Y030358D02*
X035317Y030358D01*
X035169Y030202D02*
X030937Y030202D01*
X031093Y030046D02*
X035013Y030046D01*
X037039Y030202D02*
X041468Y030202D01*
X041312Y030046D02*
X037195Y030046D01*
X035941Y038781D02*
X031543Y038781D01*
X031699Y038937D02*
X035785Y038937D01*
D44*
X013270Y038223D03*
X006577Y030743D03*
M02*
